<?xml version="1.0" encoding="UTF-8" standalone="no"?>
<svg
   xmlns:dc="http://purl.org/dc/elements/1.1/"
   xmlns:cc="http://creativecommons.org/ns#"
   xmlns:rdf="http://www.w3.org/1999/02/22-rdf-syntax-ns#"
   xmlns:svg="http://www.w3.org/2000/svg"
   xmlns="http://www.w3.org/2000/svg"
   xmlns:sodipodi="http://sodipodi.sourceforge.net/DTD/sodipodi-0.dtd"
   xmlns:inkscape="http://www.inkscape.org/namespaces/inkscape"
   id="Component_8_2"
   data-name="Component 8 – 2"
   width="271.89801"
   height="276.54099"
   viewBox="0 0 271.898 276.541"
   version="1.1"
   sodipodi:docname="frictionless-black-logo.svg"
   inkscape:version="0.92.4 (unknown)">
  <metadata
     id="metadata202">
    <rdf:RDF>
      <cc:Work
         rdf:about="">
        <dc:format>image/svg+xml</dc:format>
        <dc:type
           rdf:resource="http://purl.org/dc/dcmitype/StillImage" />
        <dc:title></dc:title>
      </cc:Work>
    </rdf:RDF>
  </metadata>
  <defs
     id="defs200" />
  <sodipodi:namedview
     pagecolor="#ffffff"
     bordercolor="#666666"
     borderopacity="1"
     objecttolerance="10"
     gridtolerance="10"
     guidetolerance="10"
     inkscape:pageopacity="0"
     inkscape:pageshadow="2"
     inkscape:window-width="1853"
     inkscape:window-height="1025"
     id="namedview198"
     showgrid="false"
     inkscape:zoom="1.5913734"
     inkscape:cx="237.62063"
     inkscape:cy="165.46343"
     inkscape:window-x="67"
     inkscape:window-y="27"
     inkscape:window-maximized="1"
     inkscape:current-layer="Component_8_2" />
  <g
     id="Group_211"
     data-name="Group 211"
     transform="translate(-73.862,-34.48319)">
    <ellipse
       id="Ellipse_338"
       data-name="Ellipse 338"
       cx="119.5"
       cy="120.5"
       rx="119.5"
       ry="120.5"
       transform="translate(91.939,53.767)"
       style="fill:#000001" />
    <g
       id="Ellipse_339"
       data-name="Ellipse 339"
       transform="translate(74.939,38.767)"
       style="fill:none;stroke:#e47046;stroke-width:30">
      <ellipse
         cx="135"
         cy="136"
         rx="135"
         ry="136"
         id="ellipse173"
         style="stroke:none" />
      <ellipse
         cx="135"
         cy="136"
         rx="120"
         ry="121"
         id="ellipse175"
         style="fill:none" />
    </g>
    <path
       id="Path_1328"
       data-name="Path 1328"
       d="M 1771.391,519.724 C 1721.715,503.659 1669.967,382.637 1579.134,349 c 0.035,0.016 0.486,-0.266 0.627,0.05 0.345,0.19 -0.371,0.986 -1.382,2.243 -0.406,0.506 -1.212,1.478 -2.063,2.677 -0.7,0.993 -1.061,1.428 -1.663,2.279 -0.257,0.365 -0.758,1.143 -1.436,2.051 -0.26,0.348 -1.531,2.356 -2.227,3.324 -0.133,0.184 -0.218,0.308 -0.448,0.686 -0.017,0.008 -0.078,0.169 -0.571,0.986 -0.645,1.07 -1.256,2.015 -2.38,4 -1.124,1.985 -0.569,1.017 -1.383,2.472 l -0.133,0.242 c -0.682,1.216 -1.2,2.282 -1.246,2.292 -1.216,0.284 0.59,0.661 3.376,1.3 89.449,20.574 143.6,97.071 194.692,113.6 10.927,3.534 29.422,1.692 47.1,-0.856 0.8,-0.115 0.264,0.512 -0.228,1.552 -0.226,0.477 -0.364,0.911 -0.755,1.722 -0.141,0.324 -0.435,0.986 -0.435,0.986 l -1.366,2.924 -2.928,5.7 -2.71,4.77 c 0,0 -0.914,1.547 -2.229,3.6 -1.236,1.928 -3.023,4.585 -4.2,6.229 -1.222,1.667 -2.92,3.864 -3.849,5.089 l -1.123,1.407 c -0.689,0.957 -1.112,1.021 -1.118,1.021 a 43.2,43.2 0 0 1 -17.665,-1.622 z"
       transform="matrix(0.819,-0.574,0.574,0.819,-1419.776,785.093)"
       inkscape:connector-curvature="0"
       style="fill:#ffffff" />
  </g>
  <g
     id="Group_251"
     data-name="Group 251"
     transform="translate(-73.862,-34.48319)">
    <ellipse
       id="Ellipse_338-2"
       data-name="Ellipse 338"
       cx="119.5"
       cy="120.5"
       rx="119.5"
       ry="120.5"
       transform="translate(91.939,53.767)"
       style="fill:#000001" />
    <g
       id="Ellipse_339-2"
       data-name="Ellipse 339"
       transform="translate(74.939,38.767)"
       style="fill:none;stroke:#e47046;stroke-width:30">
      <ellipse
         cx="135"
         cy="136"
         rx="135"
         ry="136"
         id="ellipse182"
         style="stroke:none" />
      <ellipse
         cx="135"
         cy="136"
         rx="120"
         ry="121"
         id="ellipse184"
         style="fill:none" />
    </g>
    <path
       id="Path_1328-2"
       data-name="Path 1328"
       d="M 1771.391,519.724 C 1721.715,503.659 1669.967,382.637 1579.134,349 c 0.035,0.016 0.486,-0.266 0.627,0.05 0.345,0.19 -0.371,0.986 -1.382,2.243 -0.406,0.506 -1.212,1.478 -2.063,2.677 -0.7,0.993 -1.061,1.428 -1.663,2.279 -0.257,0.365 -0.758,1.143 -1.436,2.051 -0.26,0.348 -1.531,2.356 -2.227,3.324 -0.133,0.184 -0.218,0.308 -0.448,0.686 -0.017,0.008 -0.078,0.169 -0.571,0.986 -0.645,1.07 -1.256,2.015 -2.38,4 -1.124,1.985 -0.569,1.017 -1.383,2.472 l -0.133,0.242 c -0.682,1.216 -1.2,2.282 -1.246,2.292 -1.216,0.284 0.59,0.661 3.376,1.3 89.449,20.574 143.6,97.071 194.692,113.6 10.927,3.534 29.422,1.692 47.1,-0.856 0.8,-0.115 0.264,0.512 -0.228,1.552 -0.226,0.477 -0.364,0.911 -0.755,1.722 -0.141,0.324 -0.435,0.986 -0.435,0.986 l -1.366,2.924 -2.928,5.7 -2.71,4.77 c 0,0 -0.914,1.547 -2.229,3.6 -1.236,1.928 -3.023,4.585 -4.2,6.229 -1.222,1.667 -2.92,3.864 -3.849,5.089 l -1.123,1.407 c -0.689,0.957 -1.112,1.021 -1.118,1.021 a 43.2,43.2 0 0 1 -17.665,-1.622 z"
       transform="matrix(0.819,-0.574,0.574,0.819,-1419.776,785.093)"
       inkscape:connector-curvature="0"
       style="fill:#ffffff" />
  </g>
  <ellipse
     style="fill:#000001"
     ry="120.5"
     rx="119.5"
     cy="139.78204"
     cx="137.577"
     data-name="Ellipse 338"
     id="Ellipse_338-3" />
  <path
     d="m 136.077,4.2837747 c 74.558,0 135,60.8890353 135,135.9982653 0,75.111 -60.442,136 -135,136 -74.558,0 -135,-60.889 -135,-136 0,-75.10923 60.442,-135.9982653 135,-135.9982653 z"
     id="path190"
     inkscape:connector-curvature="0"
     style="fill:none;stroke:none" />
  <path
     sodipodi:nodetypes="cssscssssss"
     d="m 136.077,34.28381 c -57.89719,0 -105,47.55138 -105,105.99823 0,58.44862 47.10281,106 105,106 57.89719,0 105,-47.55138 105,-106 0,-58.44685 -47.10281,-105.99823 -105,-105.99823 m 0,-30.0000353 c 46.91447,0 88.23963,24.1080073 112.43449,60.6975053 14.25662,21.56006 22.56551,47.45202 22.56551,75.30076 0,75.1107 -60.44156,136 -135,136 -74.55844,0 -135,-60.8893 -135,-136 0,-75.108978 60.44156,-135.9982653 135,-135.9982653 z"
     id="path192"
     inkscape:connector-curvature="0"
     style="fill:#9a9796;fill-opacity:1;stroke:none" />
  <path
     style="fill:#ffffff;stroke-width:1.00011849"
     inkscape:connector-curvature="0"
     d="M 255.45281,159.48531 C 205.54685,174.8421 93.698611,105.42844 -0.001254,130.01787 c 0.037849,-0.007 0.24535,-0.49681 0.542213,-0.31894 0.391615,-0.0424 0.262115,1.02048 0.155624,2.63028 -0.04207,0.64746 -0.144256,1.90617 -0.152999,3.37663 -0.003318,1.21506 -0.049287,1.77854 -0.053851,2.82106 -9.73e-4,0.44645 0.03528,1.37121 0.00119,2.50403 -0.013188,0.43425 0.098455,2.80836 0.084063,4.00066 -0.003311,0.22703 -0.00175,0.37738 0.026852,0.81898 -0.009331,0.0163 0.033124,0.18319 0.098315,1.13529 0.085925,1.24656 0.127946,2.37123 0.34678,4.64212 0.218834,2.27089 0.117747,1.15953 0.286251,2.81841 l 0.029981,0.27454 c 0.139426,1.38737 0.327068,2.55776 0.295134,2.59235 -0.832888,0.93058 0.862624,0.2027 3.511144,-0.87312 85.068207,-34.49362 173.327157,-2.92525 224.659147,-18.71481 10.97773,-3.37775 25.06783,-15.50248 38.08356,-27.73646 0.58919,-0.55339 0.5101,0.26779 0.70411,1.40196 0.0887,0.52038 0.2248,0.95504 0.37009,1.84368 0.0705,0.34629 0.20969,1.05723 0.20969,1.05723 l 0.55963,3.17884 0.87376,6.34897 0.51849,5.46217 c 0,0 0.13942,1.79163 0.24085,4.22785 0.0944,2.28849 0.15596,5.49031 0.13565,7.51235 -0.044,2.0667 -0.17354,4.84069 -0.23125,6.37721 l -0.11211,1.79694 c -0.015,1.17927 -0.32468,1.47449 -0.32959,1.47793 a 43.205119,43.205119 0 0 1 -15.39866,8.81129 z"
     data-name="Path 1328"
     id="Path_1328-3" />
  <ellipse
     style="opacity:0;fill:#ea6d4c;fill-opacity:1;stroke:#ffffff;stroke-opacity:1"
     id="path4840"
     cx="89.859489"
     cy="80.486618"
     rx="207.99643"
     ry="163.38089" />
  <ellipse
     style="opacity:0;fill:#ea6d4c;fill-opacity:1;stroke:#ffffff;stroke-opacity:1"
     id="path4842"
     cx="174.06348"
     cy="23.616825"
     rx="57.183311"
     ry="75.092369" />
</svg>
