<?xml version="1.0" encoding="UTF-8" standalone="no"?>
<svg
   xmlns:dc="http://purl.org/dc/elements/1.1/"
   xmlns:cc="http://creativecommons.org/ns#"
   xmlns:rdf="http://www.w3.org/1999/02/22-rdf-syntax-ns#"
   xmlns:svg="http://www.w3.org/2000/svg"
   xmlns="http://www.w3.org/2000/svg"
   xmlns:sodipodi="http://sodipodi.sourceforge.net/DTD/sodipodi-0.dtd"
   xmlns:inkscape="http://www.inkscape.org/namespaces/inkscape"
   id="Component_8_2"
   data-name="Component 8 – 2"
   width="826.89801"
   height="272.54099"
   viewBox="0 0 826.898 272.541"
   version="1.1"
   sodipodi:docname="frictionless-color-full-logo-3.svg"
   inkscape:version="0.92.4 (unknown)">
  <metadata
     id="metadata202">
    <rdf:RDF>
      <cc:Work
         rdf:about="">
        <dc:format>image/svg+xml</dc:format>
        <dc:type
           rdf:resource="http://purl.org/dc/dcmitype/StillImage" />
        <dc:title></dc:title>
      </cc:Work>
    </rdf:RDF>
  </metadata>
  <defs
     id="defs200" />
  <sodipodi:namedview
     pagecolor="#ffffff"
     bordercolor="#666666"
     borderopacity="1"
     objecttolerance="10"
     gridtolerance="10"
     guidetolerance="10"
     inkscape:pageopacity="0"
     inkscape:pageshadow="2"
     inkscape:window-width="1853"
     inkscape:window-height="1025"
     id="namedview198"
     showgrid="false"
     inkscape:zoom="1.5913734"
     inkscape:cx="418.82062"
     inkscape:cy="190.59895"
     inkscape:window-x="67"
     inkscape:window-y="27"
     inkscape:window-maximized="1"
     inkscape:current-layer="Component_8_2" />
  <g
     id="Group_211"
     data-name="Group 211"
     transform="translate(-73.862,-38.484935)">
    <ellipse
       id="Ellipse_338"
       data-name="Ellipse 338"
       cx="119.5"
       cy="120.5"
       rx="119.5"
       ry="120.5"
       transform="translate(91.939,53.767)"
       style="fill:#000001" />
    <g
       id="Ellipse_339"
       data-name="Ellipse 339"
       transform="translate(74.939,38.767)"
       style="fill:none;stroke:#e47046;stroke-width:30">
      <ellipse
         cx="135"
         cy="136"
         rx="135"
         ry="136"
         id="ellipse173"
         style="stroke:none" />
      <ellipse
         cx="135"
         cy="136"
         rx="120"
         ry="121"
         id="ellipse175"
         style="fill:none" />
    </g>
    <path
       id="Path_1328"
       data-name="Path 1328"
       d="M 1771.391,519.724 C 1721.715,503.659 1669.967,382.637 1579.134,349 c 0.035,0.016 0.486,-0.266 0.627,0.05 0.345,0.19 -0.371,0.986 -1.382,2.243 -0.406,0.506 -1.212,1.478 -2.063,2.677 -0.7,0.993 -1.061,1.428 -1.663,2.279 -0.257,0.365 -0.758,1.143 -1.436,2.051 -0.26,0.348 -1.531,2.356 -2.227,3.324 -0.133,0.184 -0.218,0.308 -0.448,0.686 -0.017,0.008 -0.078,0.169 -0.571,0.986 -0.645,1.07 -1.256,2.015 -2.38,4 -1.124,1.985 -0.569,1.017 -1.383,2.472 l -0.133,0.242 c -0.682,1.216 -1.2,2.282 -1.246,2.292 -1.216,0.284 0.59,0.661 3.376,1.3 89.449,20.574 143.6,97.071 194.692,113.6 10.927,3.534 29.422,1.692 47.1,-0.856 0.8,-0.115 0.264,0.512 -0.228,1.552 -0.226,0.477 -0.364,0.911 -0.755,1.722 -0.141,0.324 -0.435,0.986 -0.435,0.986 l -1.366,2.924 -2.928,5.7 -2.71,4.77 c 0,0 -0.914,1.547 -2.229,3.6 -1.236,1.928 -3.023,4.585 -4.2,6.229 -1.222,1.667 -2.92,3.864 -3.849,5.089 l -1.123,1.407 c -0.689,0.957 -1.112,1.021 -1.118,1.021 a 43.2,43.2 0 0 1 -17.665,-1.622 z"
       transform="matrix(0.819,-0.574,0.574,0.819,-1419.776,785.093)"
       inkscape:connector-curvature="0"
       style="fill:#ffffff" />
  </g>
  <path
     id="Path_1461"
     data-name="Path 1461"
     d="m 331.378,55.705065 h -0.032 a 3.533,3.533 0 0 0 -2.634,1.111 3.569,3.569 0 0 0 -1.111,2.665 v 38.05496 a 3.533,3.533 0 0 0 1.111,2.633975 3.533,3.533 0 0 0 2.634,1.111 3.636,3.636 0 0 0 2.666,-1.111 3.533,3.533 0 0 0 1.111,-2.633975 v -15.29996 h 13.838 a 3.69,3.69 0 0 0 2.666,-1.079 3.755,3.755 0 0 0 0,-5.332 3.69,3.69 0 0 0 -2.666,-1.079 h -13.838 v -11.519 l 19.17,0.063 h 0.032 a 3.533,3.533 0 0 0 2.634,-1.109 3.533,3.533 0 0 0 1.111,-2.634 3.69,3.69 0 0 0 -1.079,-2.666 3.636,3.636 0 0 0 -2.666,-1.111 z m 46.776,18.976 v -11.518 h 9.394 a 7.035,7.035 0 0 1 4.73,1.682 5.225,5.225 0 0 1 0.1,8.093 7.153,7.153 0 0 1 -4.57,1.746 z m 23.55,-5.745 a 12.33,12.33 0 0 0 -4.158,-9.355 14.08,14.08 0 0 0 -10,-3.872 h -13.137 a 3.738,3.738 0 0 0 -3.713,3.745 v 37.82696 a 3.685,3.685 0 0 0 3.713,3.712975 3.738,3.738 0 0 0 3.745,-3.712975 v -15.13796 h 6.443 l 8.411,17.04295 a 3.45,3.45 0 0 0 3.332,2.094985 3.77,3.77 0 0 0 1.65,-0.381 3.782,3.782 0 0 0 1.714,-4.982965 l -7.2,-14.59997 a 13.626,13.626 0 0 0 6.6,-4.792 12.165,12.165 0 0 0 2.599,-7.585 z M 419.978,101.281 a 3.794,3.794 0 0 0 3.745,-3.744975 v -37.86396 a 3.533,3.533 0 0 0 -1.111,-2.634 3.679,3.679 0 0 0 -5.269,0 3.533,3.533 0 0 0 -1.111,2.634 v 37.86396 a 3.794,3.794 0 0 0 3.746,3.744975 z m 40.4,0 a 22.029,22.029 0 0 0 15.3,-5.899965 3.758,3.758 0 0 0 0.222,-5.299975 3.553,3.553 0 0 0 -2.6,-1.237995 3.627,3.627 0 0 0 -2.7,0.984 15.168,15.168 0 0 1 -25.359,-11.2 14.617,14.617 0 0 1 4.437,-10.735 15.117,15.117 0 0 1 19.932,-1.3 3.752,3.752 0 0 0 2.793,0.73 3.573,3.573 0 0 0 2.476,-1.428 3.682,3.682 0 0 0 0.762,-2.793 3.732,3.732 0 0 0 -1.428,-2.476 22.155,22.155 0 0 0 -13.838,-4.7 21.852,21.852 0 0 0 -16.028,6.665 21.837,21.837 0 0 0 -6.633,16.028 21.9,21.9 0 0 0 6.633,16.027975 21.9,21.9 0 0 0 16.031,6.63496 z m 39.73,-3.744975 a 3.636,3.636 0 0 0 1.111,2.665975 3.755,3.755 0 0 0 5.269,0 3.636,3.636 0 0 0 1.111,-2.665975 v -34.34096 h 9.458 a 3.738,3.738 0 0 0 3.713,-3.745 3.738,3.738 0 0 0 -3.713,-3.745 h -26.379 a 3.636,3.636 0 0 0 -2.666,1.111 3.584,3.584 0 0 0 -1.079,2.634 3.584,3.584 0 0 0 1.079,2.634 3.636,3.636 0 0 0 2.666,1.111 h 9.426 z m 36.521,3.744975 a 3.794,3.794 0 0 0 3.745,-3.744975 v -37.86396 a 3.533,3.533 0 0 0 -1.111,-2.634 3.679,3.679 0 0 0 -5.269,0 3.533,3.533 0 0 0 -1.111,2.634 v 37.86396 a 3.794,3.794 0 0 0 3.746,3.744975 z m 40.333,-38.085935 a 15.279,15.279 0 0 1 15.3,15.3 15.333,15.333 0 0 1 -15.3,15.29998 14.655,14.655 0 0 1 -10.791,-4.51398 14.655,14.655 0 0 1 -4.507,-10.791 14.759,14.759 0 0 1 4.507,-10.823 14.706,14.706 0 0 1 10.791,-4.472 z m 0,38.085935 a 21.978,21.978 0 0 0 16.123,-6.69996 21.926,21.926 0 0 0 6.665,-16.090975 22.031,22.031 0 0 0 -6.665,-16.123 22.8,22.8 0 0 0 -32.214,0 21.978,21.978 0 0 0 -6.7,16.123 21.874,21.874 0 0 0 6.7,16.090975 21.874,21.874 0 0 0 16.091,6.69996 z m 68.866,-1.427985 a 2.385,2.385 0 0 0 0.222,0.253985 v 0.032 l 0.032,0.032 a 3.459,3.459 0 0 0 0.286,0.254 0.945,0.945 0 0 0 0.127,0.1 q 0.127,0.1 0.222,0.159 a 0.945,0.945 0 0 0 0.127,0.1 1.741,1.741 0 0 1 0.222,0.1 0.183,0.183 0 0 0 0.127,0.063 0.708,0.708 0 0 0 0.254,0.1 0.327,0.327 0 0 0 0.127,0.063 2.2,2.2 0 0 0 0.254,0.063 q 0.159,0.063 0.127,0.032 0.127,0.032 0.317,0.063 0.127,0.032 0.063,0 a 2.93,2.93 0 0 0 0.413,0.032 4.9,4.9 0 0 0 0.54,-0.032 l 0.1,-0.032 a 2.233,2.233 0 0 0 0.54,-0.127 l 0.063,-0.032 a 5.286,5.286 0 0 0 0.508,-0.222 h 0.032 a 4.642,4.642 0 0 0 0.476,-0.317 l 0.032,-0.032 q 0.127,-0.1 0.032,-0.032 a 0.681,0.681 0 0 0 0.159,-0.127 q 0.127,-0.1 0.127,-0.127 0.032,0 0.127,-0.127 l 0.127,-0.126985 0.1,-0.127 a 1.434,1.434 0 0 0 0.127,-0.19 l 0.1,-0.1 0.1,-0.19 0.1,-0.159 0.063,-0.159 a 0.984,0.984 0 0 0 0.063,-0.189995 0.556,0.556 0 0 0 0.063,-0.159 0.463,0.463 0 0 0 0.063,-0.19 l 0.032,-0.159 a 0.442,0.442 0 0 0 0.032,-0.19 0.869,0.869 0 0 0 0.032,-0.189995 v -0.159 a 0.869,0.869 0 0 0 0.032,-0.19 v -38.10096 a 3.533,3.533 0 0 0 -1.14,-2.632 3.533,3.533 0 0 0 -2.634,-1.111 3.636,3.636 0 0 0 -2.666,1.111 3.584,3.584 0 0 0 -1.079,2.634 v 27.1 l -22.821,-29.387 a 3.65,3.65 0 0 0 -1.873,-1.3 3.519,3.519 0 0 0 -2.285,0.063 3.6,3.6 0 0 0 -1.841,1.365 3.558,3.558 0 0 0 -0.7,2.158 v 38.02196 a 3.745,3.745 0 0 0 7.49,0 v -27.07296 l 22.82,29.35795 v 0.032 z m 27.638,-44.08495 a 3.533,3.533 0 0 0 -2.635,1.113 3.533,3.533 0 0 0 -1.111,2.634 v 38.02096 a 3.794,3.794 0 0 0 3.746,3.744975 h 20.535 a 3.636,3.636 0 0 0 2.666,-1.111 3.755,3.755 0 0 0 0,-5.26896 3.636,3.636 0 0 0 -2.666,-1.110995 h -16.79 v -34.27698 a 3.533,3.533 0 0 0 -1.111,-2.632 3.533,3.533 0 0 0 -2.634,-1.113 z m 44.332,37.99098 v -11.52098 h 13.838 a 3.69,3.69 0 0 0 2.666,-1.079 3.755,3.755 0 0 0 0,-5.332 3.69,3.69 0 0 0 -2.666,-1.079 h -13.838 v -11.521 l 19.17,0.063 H 737 a 3.533,3.533 0 0 0 2.634,-1.111 3.533,3.533 0 0 0 1.111,-2.634 3.69,3.69 0 0 0 -1.08,-2.664 3.636,3.636 0 0 0 -2.666,-1.111 l -22.947,-0.063 h -0.032 a 3.533,3.533 0 0 0 -2.634,1.111 3.569,3.569 0 0 0 -1.108,2.663 v 38.05496 a 3.794,3.794 0 0 0 3.743,3.744975 H 737 A 3.794,3.794 0 0 0 740.745,97.536025 3.636,3.636 0 0 0 739.634,94.87004 3.533,3.533 0 0 0 737,93.759045 Z m 65.311,-6.02998 a 11.049,11.049 0 0 0 -3.174,-8.411 q -4.126,-4.38 -11.9,-4.507 h -0.157 q -4.634,-0.063 -6.6,-2.126 a 4.036,4.036 0 0 1 -1.174,-2.983 6.284,6.284 0 0 1 2.253,-4.57 7.586,7.586 0 0 1 5.142,-1.873 12.145,12.145 0 0 1 5.173,1.047 5.262,5.262 0 0 1 3.142,3.333 3.6,3.6 0 0 0 1.714,2.285 3.666,3.666 0 0 0 2.825,0.381 3.49,3.49 0 0 0 2.253,-1.714 3.587,3.587 0 0 0 0.413,-2.825 12.038,12.038 0 0 0 -6.252,-7.744 19.115,19.115 0 0 0 -9.268,-2.222 14.671,14.671 0 0 0 -10.283,3.936 13.458,13.458 0 0 0 -4.539,9.648 11.108,11.108 0 0 0 3.174,8.411 q 4.126,4.348 11.9,4.475 h 0.159 q 4.634,0.063 6.6,2.158 a 3.936,3.936 0 0 1 1.168,2.953 6.172,6.172 0 0 1 -2.285,4.56999 7.468,7.468 0 0 1 -5.11,1.87299 12.361,12.361 0 0 1 -5.205,-1.048995 5.261,5.261 0 0 1 -3.11,-3.332985 3.6,3.6 0 0 0 -1.714,-2.285 3.666,3.666 0 0 0 -2.825,-0.381 3.6,3.6 0 0 0 -2.285,1.714 3.666,3.666 0 0 0 -0.381,2.82499 12.038,12.038 0 0 0 6.252,7.74396 19.115,19.115 0 0 0 9.272,2.221985 14.744,14.744 0 0 0 10.283,-3.935975 13.427,13.427 0 0 0 4.539,-9.61596 z m 43.761,0 a 11.049,11.049 0 0 0 -3.174,-8.411 q -4.126,-4.38 -11.9,-4.507 h -0.159 q -4.634,-0.063 -6.6,-2.126 a 4.036,4.036 0 0 1 -1.174,-2.983 6.284,6.284 0 0 1 2.253,-4.57 7.586,7.586 0 0 1 5.142,-1.873 12.145,12.145 0 0 1 5.173,1.047 5.262,5.262 0 0 1 3.142,3.333 3.6,3.6 0 0 0 1.714,2.285 3.666,3.666 0 0 0 2.825,0.381 3.49,3.49 0 0 0 2.253,-1.714 3.587,3.587 0 0 0 0.413,-2.825 12.038,12.038 0 0 0 -6.252,-7.744 19.115,19.115 0 0 0 -9.268,-2.222 14.671,14.671 0 0 0 -10.283,3.936 13.458,13.458 0 0 0 -4.539,9.648 11.108,11.108 0 0 0 3.174,8.411 q 4.126,4.348 11.9,4.475 h 0.159 q 4.634,0.063 6.6,2.158 a 3.936,3.936 0 0 1 1.174,2.952 6.172,6.172 0 0 1 -2.285,4.56999 7.468,7.468 0 0 1 -5.11,1.87299 12.361,12.361 0 0 1 -5.205,-1.046995 5.261,5.261 0 0 1 -3.11,-3.332985 3.6,3.6 0 0 0 -1.714,-2.285 3.666,3.666 0 0 0 -2.825,-0.381 3.6,3.6 0 0 0 -2.285,1.714 3.666,3.666 0 0 0 -0.381,2.82499 12.038,12.038 0 0 0 6.252,7.74396 19.115,19.115 0 0 0 9.268,2.220985 14.744,14.744 0 0 0 10.283,-3.935975 13.427,13.427 0 0 0 4.539,-9.61596 z M 335.218,143.29 h 5.84 a 14.565,14.565 0 0 1 10.728,4.475 15.133,15.133 0 0 1 0,21.423 14.654,14.654 0 0 1 -10.759,4.443 l -5.808,0.1 z m -3.713,37.991 9.553,-0.127 a 21.889,21.889 0 0 0 16.06,-6.665 22.68,22.68 0 0 0 0,-32.056 21.942,21.942 0 0 0 -16.06,-6.633 h -9.617 a 3.584,3.584 0 0 0 -2.634,1.081 3.636,3.636 0 0 0 -1.111,2.666 v 37.991 a 3.738,3.738 0 0 0 3.745,3.743 z m 58.583,-17.139 6.09,-14.726 6.125,14.727 z m -11.01,16.853 a 3.74,3.74 0 0 0 1.428,0.286 3.455,3.455 0 0 0 3.459,-2.317 l 3.047,-7.363 h 18.373 l 3.047,7.363 a 3.455,3.455 0 0 0 3.459,2.317 3.74,3.74 0 0 0 1.428,-0.286 3.743,3.743 0 0 0 2.031,-4.888 l -4.031,-9.68 v -0.032 l -11.678,-28.183 a 2.221,2.221 0 0 0 -0.159,-0.317 0.464,0.464 0 0 0 -0.1,-0.159 0.464,0.464 0 0 1 -0.1,-0.159 q 0,-0.032 -0.127,-0.159 l -0.1,-0.127 q 0,-0.032 -0.127,-0.159 -0.1,-0.1 -0.1,-0.127 a 0.681,0.681 0 0 1 -0.159,-0.127 q -0.1,-0.1 -0.127,-0.1 a 1.921,1.921 0 0 0 -0.159,-0.127 l -0.127,-0.1 a 1.349,1.349 0 0 0 -0.19,-0.127 q -0.159,-0.1 -0.127,-0.063 a 2.551,2.551 0 0 0 -0.7,-0.286 q 0.063,0 -0.127,-0.032 a 0.728,0.728 0 0 0 -0.222,-0.063 l -0.159,-0.032 -0.19,-0.032 h -0.73 l -0.159,0.032 a 1.338,1.338 0 0 1 -0.222,0.032 l -0.127,0.032 a 1.326,1.326 0 0 1 -0.222,0.063 0.984,0.984 0 0 1 -0.222,0.063 l -0.127,0.063 q 0.063,-0.032 -0.1,0.063 -0.159,0.063 -0.222,0.1 a 0.7,0.7 0 0 0 -0.19,0.1 l -0.127,0.1 a 1.921,1.921 0 0 1 -0.159,0.127 q -0.159,0.1 -0.127,0.1 -0.032,0 -0.159,0.127 a 0.946,0.946 0 0 0 -0.127,0.1 q 0,0.032 -0.127,0.159 -0.1,0.1 -0.1,0.127 l -0.127,0.127 a 0.464,0.464 0 0 0 -0.1,0.159 1.921,1.921 0 0 0 -0.127,0.159 l -0.063,0.159 a 2.221,2.221 0 0 0 -0.159,0.317 l -11.64,28.171 v 0.032 l -4.031,9.68 a 3.743,3.743 0 0 0 2.031,4.887 z m 59.281,-3.459 a 3.636,3.636 0 0 0 1.111,2.666 3.755,3.755 0 0 0 5.269,0 3.636,3.636 0 0 0 1.111,-2.666 v -34.341 h 9.458 a 3.745,3.745 0 0 0 0,-7.49 h -26.379 a 3.636,3.636 0 0 0 -2.666,1.111 3.755,3.755 0 0 0 0,5.269 3.636,3.636 0 0 0 2.666,1.111 h 9.426 z m 43.316,-13.394 6.094,-14.727 6.125,14.727 z m -11.017,16.853 a 3.74,3.74 0 0 0 1.428,0.286 3.455,3.455 0 0 0 3.459,-2.317 l 3.047,-7.363 h 18.376 l 3.047,7.363 a 3.455,3.455 0 0 0 3.463,2.317 3.74,3.74 0 0 0 1.428,-0.286 3.743,3.743 0 0 0 2.031,-4.888 l -4.031,-9.68 v -0.032 l -11.68,-28.184 a 2.22,2.22 0 0 0 -0.159,-0.317 0.464,0.464 0 0 0 -0.1,-0.159 0.464,0.464 0 0 1 -0.1,-0.159 q 0,-0.032 -0.127,-0.159 l -0.1,-0.127 q 0,-0.032 -0.127,-0.159 -0.1,-0.1 -0.1,-0.127 a 0.681,0.681 0 0 1 -0.159,-0.127 q -0.1,-0.1 -0.127,-0.1 a 1.921,1.921 0 0 0 -0.159,-0.127 l -0.127,-0.1 a 1.35,1.35 0 0 0 -0.19,-0.127 q -0.159,-0.1 -0.127,-0.063 a 2.551,2.551 0 0 0 -0.7,-0.286 q 0.063,0 -0.127,-0.032 a 0.728,0.728 0 0 0 -0.222,-0.063 l -0.159,-0.032 -0.19,-0.032 h -0.73 l -0.159,0.032 a 1.338,1.338 0 0 1 -0.222,0.032 l -0.127,0.032 a 1.326,1.326 0 0 1 -0.222,0.063 0.984,0.984 0 0 1 -0.222,0.063 l -0.127,0.063 q 0.063,-0.032 -0.1,0.063 -0.159,0.063 -0.222,0.1 a 0.7,0.7 0 0 0 -0.19,0.1 l -0.127,0.1 a 1.921,1.921 0 0 1 -0.159,0.127 q -0.159,0.1 -0.127,0.1 -0.032,0 -0.159,0.127 a 0.946,0.946 0 0 0 -0.127,0.1 q 0,0.032 -0.127,0.159 -0.1,0.1 -0.1,0.127 l -0.127,0.127 a 0.464,0.464 0 0 0 -0.1,0.159 1.919,1.919 0 0 0 -0.127,0.159 l -0.063,0.159 a 2.22,2.22 0 0 0 -0.159,0.317 l -11.68,28.184 v 0.032 l -4.031,9.68 a 3.743,3.743 0 0 0 2.031,4.888 z"
     inkscape:connector-curvature="0"
     style="fill:#020003" />
</svg>
