<svg width="248" height="74" viewBox="0 0 248 74" fill="none" xmlns="http://www.w3.org/2000/svg">
<path d="M95.6406 30.9998V10.0898H110.461V13.5398H99.3906V18.5198H109.141V21.9698H99.3906V30.9998H95.6406Z" fill="black"/>
<path d="M119.829 15.9098C120.819 15.9098 121.689 16.1498 122.649 16.7498L120.909 19.9298C120.399 19.5998 119.829 19.4198 119.109 19.4198C116.919 19.4198 115.839 20.7698 115.839 23.5598V30.9998H112.239V16.2098H115.869V18.7298C116.499 16.8998 118.149 15.9098 119.829 15.9098Z" fill="black"/>
<path d="M124.395 13.4198V10.0898H128.175V13.4198H124.395ZM124.485 30.9998V16.2098H128.085V30.9998H124.485Z" fill="black"/>
<path d="M138.158 31.2998C133.328 31.2998 130.988 27.5498 130.988 23.6498C130.988 19.7498 133.298 15.9098 138.128 15.9098C141.068 15.9098 143.378 17.3198 144.518 20.2598L141.098 21.6098C140.708 20.0498 139.598 19.0598 138.128 19.0598C135.638 19.0598 134.678 21.3098 134.678 23.6498C134.678 25.9898 135.608 28.1498 138.128 28.1498C139.568 28.1498 140.708 27.1898 141.098 25.6598L144.368 26.9198C143.378 29.6798 141.098 31.2998 138.158 31.2998Z" fill="black"/>
<path d="M154.993 19.0598H151.303V26.5898C151.303 27.7598 152.023 28.2998 153.193 28.2998C153.703 28.2998 154.333 28.1798 154.993 27.9698V30.8498C154.093 31.1498 153.193 31.2998 152.293 31.2998C149.803 31.2998 147.703 30.0098 147.703 26.8598V19.0598H145.303V16.2098H147.703V13.3598L151.303 10.6898V16.2098H154.993V19.0598Z" fill="black"/>
<path d="M158.058 13.4198V10.0898H161.838V13.4198H158.058ZM158.147 30.9998V16.2098H161.747V30.9998H158.147Z" fill="black"/>
<path d="M172.03 31.2998C167.44 31.2998 164.62 27.7598 164.62 23.5898C164.62 19.3898 167.44 15.9098 172.03 15.9098C176.59 15.9098 179.44 19.3898 179.44 23.5898C179.44 27.7598 176.59 31.2998 172.03 31.2998ZM172.03 28.1498C174.76 28.1498 175.84 25.9898 175.84 23.5898C175.84 21.1598 174.76 19.0598 172.03 19.0598C169.3 19.0598 168.22 21.1598 168.22 23.5898C168.22 25.9898 169.3 28.1498 172.03 28.1498Z" fill="black"/>
<path d="M190.387 15.9098C193.717 15.9098 195.607 17.9498 195.607 21.4598V30.9998H192.007V22.3598C192.007 21.3398 192.007 19.0598 189.277 19.0598C185.917 19.0598 185.917 22.4498 185.917 25.0898V30.9998H182.317V16.2098H185.917V17.9198C186.967 16.5098 188.587 15.9098 190.387 15.9098Z" fill="black"/>
<path d="M202.815 31.2998C200.805 31.2998 199.335 30.0998 199.335 27.4598V10.0898H202.935V27.2198C202.935 27.8798 203.325 28.1498 203.985 28.1498C204.315 28.1498 204.705 28.0898 205.125 27.9698V30.8498C204.315 31.1498 203.505 31.2998 202.815 31.2998Z" fill="black"/>
<path d="M220.435 23.4098C220.435 23.8598 220.405 24.3098 220.345 24.7898H210.205C210.355 26.7398 211.555 28.0298 213.895 28.0298C215.215 28.0298 216.415 27.6098 217.435 26.4398L219.925 28.6298C218.305 30.4298 216.355 31.2998 213.865 31.2998C208.765 31.2998 206.605 27.6398 206.605 23.6798C206.605 19.8098 208.705 15.9098 213.625 15.9098C218.215 15.9098 220.435 19.2998 220.435 23.4098ZM210.175 21.9398H216.985C216.925 20.0498 215.485 18.9098 213.595 18.9098C211.405 18.9098 210.385 20.4698 210.175 21.9398Z" fill="black"/>
<path d="M228.042 31.2998C224.922 31.2998 222.552 29.4098 221.832 27.1598L224.712 25.8698C225.102 26.9498 225.882 28.2998 227.862 28.2998C229.542 28.2998 230.262 27.3398 230.262 26.5598C230.262 24.0698 222.642 25.7198 222.642 20.2298C222.642 17.3798 225.222 15.9098 228.072 15.9098C230.622 15.9098 232.572 17.1098 233.682 19.1198L230.892 20.6498C230.382 19.7198 229.572 18.7598 227.952 18.7598C226.782 18.7598 226.062 19.3298 226.062 20.0198C226.062 22.2698 233.802 20.9498 233.802 26.3498C233.802 29.7998 230.832 31.2998 228.042 31.2998Z" fill="black"/>
<path d="M241.489 31.2998C238.369 31.2998 235.999 29.4098 235.279 27.1598L238.159 25.8698C238.549 26.9498 239.329 28.2998 241.309 28.2998C242.989 28.2998 243.709 27.3398 243.709 26.5598C243.709 24.0698 236.089 25.7198 236.089 20.2298C236.089 17.3798 238.669 15.9098 241.519 15.9098C244.069 15.9098 246.019 17.1098 247.129 19.1198L244.339 20.6498C243.829 19.7198 243.019 18.7598 241.399 18.7598C240.229 18.7598 239.509 19.3298 239.509 20.0198C239.509 22.2698 247.249 20.9498 247.249 26.3498C247.249 29.7998 244.279 31.2998 241.489 31.2998Z" fill="black"/>
<path d="M100.71 43C106.98 43 109.14 47.89 109.14 53.5C109.14 59.11 106.89 64 100.71 64H95.1602V43H100.71ZM100.62 61.69C105.45 61.69 106.59 57.67 106.59 53.5C106.59 49.33 105.45 45.31 100.62 45.31H97.7102V61.69H100.62Z" fill="black"/>
<path d="M125.681 61.78H127.811V64H124.121L123.221 62.26C122.291 63.61 120.731 64.3 118.721 64.3C115.691 64.3 113.651 62.77 113.651 59.98C113.651 53.98 123.191 57.79 123.191 54.58V54.49C123.191 53.17 122.291 51.85 120.101 51.85C118.151 51.85 117.041 52.9 116.441 54.52L114.341 53.44C115.541 50.53 117.911 49.6 120.161 49.6C123.461 49.6 125.681 51.58 125.681 54.61V61.78ZM118.811 62.05C122.231 62.05 123.191 60.07 123.191 58.87V57.04C120.791 58.27 116.141 57.13 116.141 60.07C116.141 61.84 117.701 62.05 118.811 62.05Z" fill="black"/>
<path d="M143.301 59.38L145.401 60.43C144.531 62.92 142.881 64.3 140.151 64.3C136.851 64.3 134.931 62.29 134.931 58.87V52.15H131.151V49.9H134.931V44.86H137.421V49.9H144.711V52.15H137.421V58.48C137.421 59.65 137.421 62.05 140.181 62.05C142.131 62.05 142.701 60.88 143.301 59.38Z" fill="black"/>
<path d="M162.302 61.78H164.432V64H160.742L159.842 62.26C158.912 63.61 157.352 64.3 155.342 64.3C152.312 64.3 150.272 62.77 150.272 59.98C150.272 53.98 159.812 57.79 159.812 54.58V54.49C159.812 53.17 158.912 51.85 156.722 51.85C154.772 51.85 153.662 52.9 153.062 54.52L150.962 53.44C152.162 50.53 154.532 49.6 156.782 49.6C160.082 49.6 162.302 51.58 162.302 54.61V61.78ZM155.432 62.05C158.852 62.05 159.812 60.07 159.812 58.87V57.04C157.412 58.27 152.762 57.13 152.762 60.07C152.762 61.84 154.322 62.05 155.432 62.05Z" fill="black"/>
<rect width="75" height="74" rx="7" fill="url(#paint0_linear_941_2)"/>
<path d="M19.0443 18.4934L31.1823 30.7789H14V44.2211H31.1429L19.0049 56.5066L28.3842 66L38 56.2673V44.2211C35.1232 40.1924 35.1232 34.7677 38 30.739V18.7327L28.3842 9L19.0443 18.4934Z" fill="white"/>
<path d="M43 48V27H58V31.3386H47.645V34.9541H56.787V39.3228H47.645V48H43Z" fill="white"/>
<defs>
<linearGradient id="paint0_linear_941_2" x1="75" y1="-2.26538e-06" x2="-4.68493e-07" y2="74" gradientUnits="userSpaceOnUse">
<stop offset="0.239583"/>
<stop offset="1" stop-color="#F8F8F8"/>
</linearGradient>
</defs>
</svg>
