<?xml version="1.0" standalone="no"?>
<!DOCTYPE svg PUBLIC "-//W3C//DTD SVG 20010904//EN"
 "http://www.w3.org/TR/2001/REC-SVG-20010904/DTD/svg10.dtd">
<svg version="1.0" xmlns="http://www.w3.org/2000/svg"
 width="546.000000pt" height="546.000000pt" viewBox="0 0 546.000000 546.000000"
 preserveAspectRatio="xMidYMid meet">
<metadata>
Created by potrace 1.11, written by Peter Selinger 2001-2013
</metadata>
<g transform="translate(0.000000,546.000000) scale(0.100000,-0.100000)"
fill="#000000" stroke="none">
<path d="M2637 5454 c-1 -1 -47 -5 -102 -8 -55 -4 -107 -9 -116 -12 -9 -2 -36
-6 -60 -9 -24 -2 -55 -7 -69 -9 -14 -3 -36 -8 -50 -11 -14 -2 -38 -8 -55 -12
-16 -4 -34 -7 -40 -8 -48 -6 -324 -91 -400 -124 -22 -10 -60 -26 -85 -36 -61
-26 -249 -123 -282 -146 -14 -11 -29 -19 -32 -19 -13 0 -244 -164 -310 -220
-126 -107 -257 -235 -331 -324 -22 -27 -45 -54 -50 -60 -6 -6 -24 -29 -40 -51
-17 -22 -32 -42 -35 -45 -35 -32 -174 -258 -238 -388 -19 -37 -38 -74 -43 -82
-5 -8 -12 -22 -15 -30 -10 -26 -22 -53 -47 -111 -14 -32 -28 -72 -32 -90 -4
-19 -11 -38 -15 -44 -9 -12 -63 -200 -84 -295 -21 -96 -38 -195 -52 -320 -3
-30 -10 -60 -15 -66 -9 -12 -5 -408 6 -489 4 -27 11 -57 15 -66 5 -8 11 -38
14 -65 5 -41 30 -173 40 -209 2 -5 6 -23 10 -40 4 -16 15 -55 24 -85 9 -30 17
-57 17 -60 3 -20 53 -160 82 -230 65 -157 220 -448 245 -458 4 -2 8 -8 8 -13
0 -7 57 -96 70 -109 3 -3 40 -49 82 -102 98 -122 245 -271 369 -374 117 -96
136 -111 171 -132 16 -9 28 -20 28 -24 0 -4 4 -8 9 -8 5 0 37 -18 70 -40 33
-22 64 -40 70 -40 5 0 11 -4 13 -8 5 -13 178 -105 178 -95 0 4 4 4 8 -2 14
-19 272 -131 272 -118 0 3 6 1 13 -5 6 -5 28 -15 47 -20 100 -29 187 -54 200
-57 8 -2 38 -9 65 -15 71 -17 141 -29 260 -45 167 -22 523 -23 630 -2 11 3 47
8 80 12 32 4 68 9 80 11 56 10 176 37 221 50 28 8 60 16 70 19 11 2 39 11 64
20 25 9 52 18 60 20 53 11 352 143 358 158 2 4 9 7 15 7 22 0 300 174 376 236
156 126 226 190 324 293 29 30 59 62 67 71 13 12 113 138 158 195 17 22 152
226 152 229 0 3 24 50 54 106 63 116 124 255 167 379 29 83 93 319 104 381 8
47 13 82 20 126 3 23 9 64 13 90 9 66 9 650 -1 694 -4 19 -9 51 -11 70 -3 19
-10 59 -16 89 -5 29 -10 56 -10 58 0 2 -5 1 -10 -2 -6 -4 -10 -3 -8 2 4 15
-18 98 -65 243 -12 36 -22 70 -23 75 -10 44 -143 338 -156 343 -4 2 -8 8 -8
14 0 6 -24 51 -52 100 -29 49 -57 97 -63 107 -16 27 -168 234 -185 251 -8 9
-41 46 -73 83 -53 60 -140 147 -208 209 -93 84 -225 188 -238 188 -5 0 -11 4
-13 8 -4 10 -102 76 -168 114 -64 37 -142 79 -165 91 -11 6 -27 14 -35 19 -8
4 -22 11 -30 14 -8 3 -35 15 -60 26 -175 79 -405 151 -590 184 -14 3 -32 7
-40 9 -8 2 -37 7 -65 10 -27 3 -59 8 -70 10 -52 11 -429 27 -438 19z"/>
</g>
</svg>
