<svg width="30" height="27" viewBox="0 0 30 27" fill="none" xmlns="http://www.w3.org/2000/svg">
<path d="M6.5029 1.77801C9.94232 4.36012 13.6418 9.59555 15.0001 12.4052C16.3585 9.59576 20.0577 4.36006 23.4973 1.77801C25.979 -0.0851329 30 -1.52673 30 3.0605C30 3.97664 29.4747 10.7565 29.1667 11.8572C28.0958 15.6839 24.1937 16.6599 20.7228 16.0692C26.79 17.1018 28.3334 20.5222 25.0002 23.9426C18.6697 30.4386 15.9014 22.3127 15.1918 20.2306C15.0617 19.8489 15.0009 19.6703 15 19.8222C14.9991 19.6703 14.9383 19.8489 14.8082 20.2306C14.0989 22.3127 11.3307 30.4388 4.99983 23.9426C1.66654 20.5222 3.20993 17.1016 9.27724 16.0692C5.80616 16.6599 1.90401 15.6839 0.833323 11.8572C0.525245 10.7564 0 3.97653 0 3.0605C0 -1.52673 4.02111 -0.0851329 6.50272 1.77801H6.5029Z" fill="black"/>
</svg>
