<svg width="82" height="23" viewBox="0 0 82 23" fill="none" xmlns="http://www.w3.org/2000/svg">
<mask id="mask0_187_12886" style="mask-type:luminance" maskUnits="userSpaceOnUse" x="0" y="0" width="82" height="23">
<path d="M82 0H0V22.5264H82V0Z" fill="white"/>
</mask>
<g mask="url(#mask0_187_12886)">
<path d="M40.0417 5.00195L29.6817 20.7186L12.2764 15.4797L40.0417 5.00195Z" fill="#D4E5F1"/>
<path d="M15.5359 22.5259L12.2764 15.4805L29.6817 20.7193L15.5359 22.5259Z" fill="#CADBE9"/>
<path d="M0.0546875 3.83984L12.2762 15.4801L8.96157 17.7578L0.0546875 3.83984Z" fill="#ABC1D7"/>
<path d="M15.5361 22.5259L12.2765 15.4805L8.96191 17.7582L15.5361 22.5259Z" fill="#95B0C4"/>
<path d="M10.2979 13.6195L17.7517 0L16.5971 13.8552L12.2772 15.481L10.2979 13.6195Z" fill="#EAE735"/>
<path d="M25.5272 10.4856L17.7513 0L16.5889 13.8552L25.5272 10.4856Z" fill="#ED5248"/>
<path d="M40.0417 5.00195L24.3564 8.89775L25.5503 10.4765L40.0417 5.00195Z" fill="#DEEAF5"/>
<path d="M13.7528 7.31149L0.0546875 3.83984L10.2968 13.6186L13.7528 7.31149Z" fill="#E0E9F5"/>
<path opacity="0.1" d="M11.9787 6.86523L10.2979 13.62L13.7538 7.31295L11.9787 6.86523Z" fill="black"/>
<path opacity="0.1" d="M25.0319 8.73438L25.5503 10.4781L24.3564 8.89935L25.0319 8.73438Z" fill="black"/>
<path opacity="0.1" d="M17.7513 0L18.4032 13.1719L16.5889 13.8552L17.7513 0Z" fill="black"/>
<path opacity="0.1" d="M15.6855 14.1929L17.7513 0L16.5888 13.8552L15.6855 14.1929Z" fill="black"/>
<path d="M12.2607 15.5746L0 3.89512L0.102107 3.78516L12.2922 15.394L40.0182 4.9319L40.0732 5.07328L12.2607 15.5746Z" fill="white"/>
<path d="M44.7227 21.1834C45.3432 21.1049 45.8851 20.9478 46.3328 20.6964C46.9847 20.343 47.5581 19.8717 48.0687 19.3062L46.6706 17.9238L44.7227 21.1834Z" fill="url(#paint0_linear_187_12886)"/>
<path d="M46.5299 13.8565L47.9909 12.2777C47.5117 11.7437 46.9462 11.3195 46.31 10.9896C46.1136 10.8875 45.9016 10.809 45.6816 10.7383L46.4435 13.7544C46.4671 13.7937 46.4985 13.8251 46.5299 13.8565Z" fill="url(#paint1_linear_187_12886)"/>
<path d="M55.6246 14.9071L59.7092 10.7207H56.85L52.585 15.2763V18.0567L54.0225 16.5644L55.6246 14.9071Z" fill="url(#paint2_linear_187_12886)"/>
<path d="M52.5858 14.4216V6.78711H50.2061V21.0036H52.5858V19.6526V18.0582V15.2777V14.4216Z" fill="url(#paint3_linear_187_12886)"/>
<path d="M54.0225 16.5655L57.1169 21.0032H59.8424L55.625 14.9082L54.0225 16.5655Z" fill="url(#paint4_linear_187_12886)"/>
<path d="M65.4505 10.5645C64.61 10.5645 63.8873 10.643 63.2903 10.8001C62.6937 10.9572 62.112 11.1614 61.5391 11.4206L62.1828 13.3057C62.6466 13.1093 63.1099 12.9522 63.5655 12.8423C64.0211 12.7244 64.5392 12.6694 65.1204 12.6694C65.9373 12.6694 66.5657 12.8579 66.9977 13.235C67.4297 13.612 67.6496 14.154 67.6496 14.8687V15.12V16.628C67.6655 16.6359 67.6732 16.6359 67.6891 16.6438V17.2878C67.6891 17.4292 67.6732 17.5627 67.6496 17.6884V21.003H69.9666V14.9079C69.9666 13.5334 69.5976 12.4652 68.8591 11.7034C68.1211 10.9415 66.9818 10.5645 65.4505 10.5645Z" fill="#414242"/>
<path d="M67.4848 18.167C67.3515 18.4341 67.1553 18.6619 66.9113 18.8504C66.6679 19.0389 66.3773 19.1881 66.0477 19.2902C65.7177 19.3923 65.3564 19.4473 64.9638 19.4473C64.4062 19.4473 63.9347 19.3138 63.5498 19.0546C63.1649 18.7954 62.9763 18.4184 62.9763 17.9236V17.8842C62.9763 17.3502 63.1808 16.9418 63.597 16.659C64.0131 16.3762 64.5866 16.227 65.3328 16.227C65.7884 16.227 66.2205 16.2663 66.6289 16.3448C67.0215 16.4155 67.3592 16.5097 67.6498 16.6197V15.1117C67.249 14.986 66.8252 14.876 66.3932 14.7975C65.9611 14.7189 65.4271 14.6797 64.8065 14.6797C64.2094 14.6797 63.6518 14.7504 63.1414 14.8839C62.6309 15.0174 62.1912 15.2216 61.814 15.4965C61.445 15.7714 61.1544 16.117 60.9499 16.5255C60.7459 16.9418 60.6357 17.4287 60.6357 17.9864V18.0256C60.6357 18.544 60.7377 18.9996 60.9345 19.4002C61.1385 19.7929 61.3978 20.1306 61.7356 20.3898C62.0651 20.6569 62.45 20.8532 62.8902 20.9946C63.33 21.1281 63.8009 21.1988 64.2883 21.1988C65.0658 21.1988 65.7254 21.0574 66.2753 20.7669C66.8175 20.4841 67.2649 20.1306 67.6186 19.7143V20.9789H67.6339V17.6643C67.6185 17.8528 67.5632 18.0178 67.4848 18.167Z" fill="url(#paint5_linear_187_12886)"/>
<path d="M81.0493 11.578C80.4127 10.8632 79.5174 10.5098 78.3474 10.5098C77.9466 10.5098 77.5853 10.5569 77.2711 10.659C76.957 10.7611 76.6664 10.8947 76.3994 11.0596C76.1323 11.2246 75.9043 11.4209 75.7003 11.6408C75.4958 11.8608 75.3154 12.0885 75.1504 12.3399V15.2146C75.1504 14.4134 75.3626 13.7851 75.7869 13.3374C76.2108 12.8897 76.7607 12.6697 77.4438 12.6697C78.1352 12.6697 78.6769 12.8897 79.0541 13.3216C79.4313 13.7536 79.6276 14.3742 79.6276 15.1753V21.0033H81.9994V14.4606C81.9994 13.251 81.6853 12.2928 81.0493 11.578Z" fill="url(#paint6_linear_187_12886)"/>
<path d="M75.1506 10.7207H72.7705V21.0021H75.1506V16.3052V15.2134V12.3309V10.7207Z" fill="url(#paint7_linear_187_12886)"/>
<path d="M41.7388 13.5415C41.998 13.2431 42.3122 13.0074 42.6735 12.8346C43.0347 12.6618 43.4354 12.5754 43.8595 12.5754C44.4564 12.5754 44.9591 12.6932 45.3675 12.9367C45.7445 13.1566 46.098 13.4316 46.4357 13.7693L45.6739 10.7532C45.1555 10.5961 44.5585 10.5176 43.883 10.5176C43.1133 10.5176 42.4064 10.6589 41.7466 10.9496C41.0869 11.2323 40.5213 11.625 40.0501 12.1199C39.571 12.6147 39.2018 13.1881 38.9348 13.8321C38.6677 14.484 38.5342 15.1752 38.5342 15.9135C38.5342 16.6518 38.6677 17.3431 38.9348 17.9871L41.1654 14.5154C41.3068 14.1384 41.4953 13.8243 41.7388 13.5415Z" fill="#414242"/>
<path d="M46.6477 17.9087C46.2706 18.2857 45.8701 18.592 45.4538 18.8355C45.0297 19.079 44.5427 19.1968 43.985 19.1968C43.5295 19.1968 43.1132 19.1104 42.7362 18.9376C42.3591 18.7648 42.0371 18.5292 41.7622 18.2307C41.4873 17.9322 41.2752 17.5788 41.126 17.1782C40.9768 16.7776 40.8982 16.3378 40.8982 15.8744C40.8982 15.4188 40.9689 14.9947 41.126 14.602C41.1338 14.5705 41.1496 14.547 41.1574 14.5234L38.9268 17.9951C39.1938 18.6391 39.5708 19.2047 40.0421 19.6916C40.5212 20.1786 41.0867 20.5635 41.7308 20.8384C42.3827 21.1211 43.0896 21.2547 43.8515 21.2547C44.1578 21.2547 44.4405 21.2389 44.7154 21.1997L46.6634 17.9401L46.6477 17.9087Z" fill="url(#paint8_linear_187_12886)"/>
</g>
<defs>
<linearGradient id="paint0_linear_187_12886" x1="44.7222" y1="19.5544" x2="48.0663" y2="19.5544" gradientUnits="userSpaceOnUse">
<stop stop-color="#999999"/>
<stop offset="1"/>
</linearGradient>
<linearGradient id="paint1_linear_187_12886" x1="45.6736" y1="12.3012" x2="47.9891" y2="12.3012" gradientUnits="userSpaceOnUse">
<stop stop-color="#999999"/>
<stop offset="1"/>
</linearGradient>
<linearGradient id="paint2_linear_187_12886" x1="50.8829" y1="18.2226" x2="57.6623" y2="11.4433" gradientUnits="userSpaceOnUse">
<stop stop-color="#999999"/>
<stop offset="1"/>
</linearGradient>
<linearGradient id="paint3_linear_187_12886" x1="51.3968" y1="2.18395" x2="51.3968" y2="17.8571" gradientUnits="userSpaceOnUse">
<stop stop-color="#999999"/>
<stop offset="1"/>
</linearGradient>
<linearGradient id="paint4_linear_187_12886" x1="52.9518" y1="12.595" x2="58.6375" y2="21.4253" gradientUnits="userSpaceOnUse">
<stop stop-color="#999999"/>
<stop offset="1"/>
</linearGradient>
<linearGradient id="paint5_linear_187_12886" x1="70.242" y1="17.9534" x2="63.6047" y2="17.9534" gradientUnits="userSpaceOnUse">
<stop stop-color="#999999"/>
<stop offset="1"/>
</linearGradient>
<linearGradient id="paint6_linear_187_12886" x1="72.694" y1="15.754" x2="80.8381" y2="15.754" gradientUnits="userSpaceOnUse">
<stop stop-color="#999999"/>
<stop offset="1"/>
</linearGradient>
<linearGradient id="paint7_linear_187_12886" x1="73.9616" y1="7.28203" x2="73.9616" y2="21.9304" gradientUnits="userSpaceOnUse">
<stop stop-color="#999999"/>
<stop offset="1"/>
</linearGradient>
<linearGradient id="paint8_linear_187_12886" x1="42.5018" y1="13.6352" x2="43.1048" y2="22.4224" gradientUnits="userSpaceOnUse">
<stop stop-color="#999999"/>
<stop offset="1"/>
</linearGradient>
</defs>
</svg>
