<svg width="30" height="30" viewBox="0 0 30 30" fill="none" xmlns="http://www.w3.org/2000/svg">
<path fill-rule="evenodd" clip-rule="evenodd" d="M5 0C2.23858 0 0 2.23858 0 5V25C0 27.7614 2.23858 30 5 30H25C27.7614 30 30 27.7614 30 25V5C30 2.23858 27.7614 0 25 0H5ZM9.27026 19.6154C6.69897 19.6154 4.61538 17.5489 4.61538 15.0011C4.61538 12.4511 6.69897 10.3845 9.27026 10.3845C11.8404 10.3845 13.924 12.4511 13.924 15.0011C13.924 17.5489 11.8405 19.6154 9.27026 19.6154ZM20.7297 19.6154C18.1596 19.6154 16.076 17.5488 16.076 15.0011C16.076 12.4511 18.1596 10.3845 20.7297 10.3845C23.3011 10.3845 25.3846 12.4511 25.3846 15.0011C25.3846 17.5489 23.301 19.6154 20.7297 19.6154Z" fill="black"/>
</svg>
