<svg width="35" height="30" viewBox="0 0 35 30" fill="none" xmlns="http://www.w3.org/2000/svg">
<path d="M28.269 12.6923C24.8075 12.6923 21.9229 9.80769 21.9229 6.34615C21.9229 2.88462 24.8075 0 28.269 0C31.7305 0 34.6152 2.88462 34.6152 6.34615C34.6152 9.80769 31.7305 12.6923 28.269 12.6923Z" fill="black"/>
<path d="M19.6161 6.34706C19.6161 4.84706 19.9622 3.46244 20.6545 2.30859H5.76991C3.11606 2.30859 0.923753 4.03936 0.231445 6.46244L16.1545 17.0778L22.5007 12.8086C20.7699 11.1932 19.6161 8.88552 19.6161 6.34706Z" fill="black"/>
<path d="M28.2692 14.9999C27 14.9999 25.7308 14.6537 24.6923 14.1922L16.8462 19.3845C16.6154 19.4998 16.3846 19.6152 16.1538 19.6152C15.9231 19.6152 15.6923 19.4998 15.4615 19.3845L0 9.11523V24.2306C0 27.4614 2.53846 29.9999 5.76923 29.9999H26.5385C29.7692 29.9999 32.3077 27.4614 32.3077 24.2306V13.9614C31.1538 14.6537 29.7692 14.9999 28.2692 14.9999Z" fill="black"/>
</svg>
