<svg width="30" height="32" viewBox="0 0 30 32" fill="none" xmlns="http://www.w3.org/2000/svg">
<path d="M29.8789 7.00073C29.4169 3.60312 26.4233 0.925574 22.8746 0.406736C22.2759 0.319064 20.0075 0 14.7527 0H14.7135C9.45734 0 8.32966 0.319064 7.73096 0.406736C4.28108 0.911202 1.13058 3.31712 0.366205 6.75494C-0.00145071 8.44799 -0.0406868 10.325 0.027613 12.0468C0.124976 14.516 0.143868 16.9808 0.370565 19.4399C0.527286 21.0734 0.800684 22.6938 1.18871 24.2891C1.9153 27.2354 4.85655 29.6873 7.73821 30.6876C10.8235 31.7308 14.1414 31.904 17.3205 31.1878C17.6702 31.1073 18.0161 31.0139 18.3581 30.9075C19.1297 30.6646 20.0351 30.393 20.7006 29.9158C20.7098 29.9091 20.7173 29.9005 20.7225 29.8905C20.7278 29.8806 20.7308 29.8696 20.7311 29.8583V27.4754C20.731 27.4649 20.7285 27.4546 20.7238 27.4452C20.719 27.4358 20.7122 27.4275 20.7038 27.4211C20.6955 27.4146 20.6858 27.4101 20.6754 27.4077C20.665 27.4055 20.6543 27.4055 20.644 27.4079C18.6071 27.8891 16.5199 28.1303 14.4258 28.1265C10.8219 28.1265 9.85261 26.4349 9.57503 25.7306C9.35193 25.122 9.21024 24.4871 9.15361 23.8421C9.15304 23.8313 9.15507 23.8205 9.15948 23.8105C9.1639 23.8007 9.17067 23.7919 9.17915 23.785C9.18766 23.7782 9.19767 23.7734 9.20838 23.7711C9.21908 23.7687 9.23019 23.769 9.24081 23.7717C11.2437 24.2496 13.2969 24.4909 15.3573 24.4903C15.8528 24.4903 16.3469 24.4903 16.8424 24.4774C18.9147 24.4199 21.0988 24.315 23.1376 23.9212C23.1885 23.9111 23.2393 23.9025 23.283 23.8896C26.4988 23.2787 29.5592 21.3615 29.8702 16.5065C29.8819 16.3154 29.9109 14.5045 29.9109 14.3061C29.9124 13.6321 30.1304 9.5245 29.8789 7.00073ZM24.9294 19.1151H21.5479V10.9229C21.5479 9.19823 20.8213 8.31867 19.3433 8.31867C17.7187 8.31867 16.9049 9.35922 16.9049 11.4144V15.8986H13.5437V11.4144C13.5437 9.35922 12.7285 8.31867 11.1038 8.31867C9.63462 8.31867 8.90075 9.19823 8.89929 10.9229V19.1151H5.52065V10.6743C5.52065 8.9496 5.96582 7.57945 6.85613 6.56379C7.77454 5.55056 8.97924 5.0303 10.4746 5.0303C12.2053 5.0303 13.5132 5.68852 14.3851 7.00361L15.2265 8.4006L16.0693 7.00361C16.9412 5.68852 18.2491 5.0303 19.977 5.0303C21.4708 5.0303 22.6755 5.55056 23.5968 6.56379C24.4872 7.57848 24.9323 8.94863 24.9323 10.6743L24.9294 19.1151Z" fill="black"/>
</svg>
