<svg width="30" height="23" viewBox="0 0 30 23" fill="none" xmlns="http://www.w3.org/2000/svg">
<path d="M29.1626 3.82817C28.8853 2.29744 27.5639 1.18271 26.0305 0.834693C23.7357 0.348015 19.4889 0 14.894 0C10.3018 0 5.98695 0.348015 3.68951 0.834693C2.15878 1.18271 0.834693 2.22675 0.557368 3.82817C0.277325 5.56824 0 8.00435 0 11.1365C0 14.2686 0.277325 16.7047 0.62534 18.4448C0.905383 19.9755 2.22675 21.0903 3.75748 21.4383C6.19358 21.925 10.3698 22.273 14.9647 22.273C19.5595 22.273 23.7357 21.925 26.1718 21.4383C27.7026 21.0903 29.0239 20.0462 29.304 18.4448C29.5813 16.7047 29.9293 14.1979 30 11.1365C29.8586 8.00435 29.5106 5.56824 29.1626 3.82817ZM11.1365 16.0087V6.26427L19.6275 11.1365L11.1365 16.0087Z" fill="black"/>
</svg>
