<svg xmlns="http://www.w3.org/2000/svg" width="917.727" height="924.679" viewBox="0 0 917.727 924.679">
  <g id="Group_1856" data-name="Group 1856" transform="translate(3030.727 -386.321)">
    <g id="Group_1852" data-name="Group 1852" transform="translate(-4067.727 -3061.679)">
      <g id="Path_1889" data-name="Path 1889" transform="translate(1037 3448)" fill="none">
        <path d="M83.43,0H834.3a83.43,83.43,0,0,1,83.43,83.43V841.25a83.43,83.43,0,0,1-83.43,83.43H83.43A83.43,83.43,0,0,1,0,841.25V83.43A83.43,83.43,0,0,1,83.43,0Z" stroke="none"/>
        <path d="M 83.42974853515625 12 C 44.04327392578125 12 12 44.04327392578125 12 83.42974853515625 L 12 841.249755859375 C 12 880.63623046875 44.04327392578125 912.6795043945313 83.42974853515625 912.6795043945313 L 834.2972412109375 912.6795043945313 C 873.6837768554688 912.6795043945313 905.72705078125 880.63623046875 905.72705078125 841.249755859375 L 905.72705078125 83.42974853515625 C 905.72705078125 44.04327392578125 873.6837768554688 12 834.2972412109375 12 L 83.42974853515625 12 M 83.42974853515625 0 L 834.2972412109375 0 C 880.374267578125 0 917.72705078125 37.35272216796875 917.72705078125 83.42974853515625 L 917.72705078125 841.249755859375 C 917.72705078125 887.3267822265625 880.374267578125 924.6795043945313 834.2972412109375 924.6795043945313 L 83.42974853515625 924.6795043945313 C 37.352783203125 924.6795043945313 0 887.3267822265625 0 841.249755859375 L 0 83.42974853515625 C 0 37.35272216796875 37.352783203125 0 83.42974853515625 0 Z" stroke="none" fill="#e47046"/>
      </g>
      <text id="DATA_HUB" data-name="DATA
HUB" transform="translate(1496.227 3860.179)" fill="none" stroke="#e47046" stroke-width="12" font-size="232" font-family="Quicksand-Light, Quicksand" font-weight="300"><tspan x="-278.284" y="0">DATA</tspan><tspan x="-245.572" y="270">HUB</tspan></text>
    </g>
  </g>
</svg>
