<svg xmlns="http://www.w3.org/2000/svg" width="79.556" height="62.298" viewBox="0 0 79.556 62.298">
  <path id="Path_1485" data-name="Path 1485" d="M23.194,21.338A12.848,12.848,0,0,1,22.382,26a10.346,10.346,0,0,1-2.293,3.6,10.222,10.222,0,0,1-3.55,2.317,12.349,12.349,0,0,1-4.585.82H3.42V9.922h8.534a12.349,12.349,0,0,1,4.585.82,10.166,10.166,0,0,1,3.55,2.325,10.429,10.429,0,0,1,2.293,3.606A12.848,12.848,0,0,1,23.194,21.338Zm-3.168,0a11.451,11.451,0,0,0-.573-3.757,7.919,7.919,0,0,0-1.624-2.8,6.926,6.926,0,0,0-2.547-1.751,8.8,8.8,0,0,0-3.328-.605H6.525V30.238h5.429a8.8,8.8,0,0,0,3.328-.605,6.971,6.971,0,0,0,2.547-1.743A7.837,7.837,0,0,0,19.453,25.1,11.451,11.451,0,0,0,20.026,21.338ZM45.5,32.738H43.112a1.027,1.027,0,0,1-.669-.207,1.273,1.273,0,0,1-.382-.525L39.928,26.5H29.69l-2.133,5.509a1.244,1.244,0,0,1-.382.509,1.017,1.017,0,0,1-.669.223H24.118L33.241,9.922h3.137Zm-14.95-8.47h8.518l-3.582-9.282a17.348,17.348,0,0,1-.685-2.149q-.175.653-.342,1.2T34.132,15ZM61.82,9.922v2.6H54.448v20.22H51.359V12.518h-7.4v-2.6ZM81.738,32.738H79.349a1.027,1.027,0,0,1-.669-.207,1.273,1.273,0,0,1-.382-.525L76.165,26.5H65.928l-2.133,5.509a1.244,1.244,0,0,1-.382.509,1.017,1.017,0,0,1-.669.223H60.355L69.478,9.922h3.137Zm-14.95-8.47h8.518l-3.582-9.282a17.35,17.35,0,0,1-.685-2.149q-.175.653-.342,1.2T70.37,15ZM28.56,70.949h-3.1V60.569H13.164V70.949h-3.1V48.134h3.1V58.308H25.455V48.134h3.1ZM43,68.5a6.371,6.371,0,0,0,2.532-.478,5.309,5.309,0,0,0,1.887-1.337A5.849,5.849,0,0,0,48.6,64.629,8.118,8.118,0,0,0,49,62V48.134h3.073V62a10.406,10.406,0,0,1-.629,3.662,8.508,8.508,0,0,1-1.8,2.922,8.226,8.226,0,0,1-2.858,1.934,10.6,10.6,0,0,1-7.579,0,8.309,8.309,0,0,1-2.866-1.934,8.446,8.446,0,0,1-1.807-2.922A10.406,10.406,0,0,1,33.91,62V48.134h3.073V61.986a8.118,8.118,0,0,0,.406,2.627,5.849,5.849,0,0,0,1.178,2.054,5.378,5.378,0,0,0,1.895,1.345A6.337,6.337,0,0,0,43,68.5Zm14.377,2.452V48.134h7.276a13.911,13.911,0,0,1,3.622.414,7.015,7.015,0,0,1,2.5,1.178A4.647,4.647,0,0,1,72.224,51.6a6.32,6.32,0,0,1,.47,2.492,5.055,5.055,0,0,1-.263,1.624,4.734,4.734,0,0,1-.8,1.449A5.629,5.629,0,0,1,70.3,58.355a7.45,7.45,0,0,1-1.887.86,7.035,7.035,0,0,1,3.773,1.8,4.714,4.714,0,0,1,1.274,3.439,6.408,6.408,0,0,1-.533,2.643,5.662,5.662,0,0,1-1.56,2.054,7.279,7.279,0,0,1-2.516,1.329,11.293,11.293,0,0,1-3.4.47Zm3.089-10.4V68.5H65.4a7.5,7.5,0,0,0,2.269-.3,4.23,4.23,0,0,0,1.56-.852,3.3,3.3,0,0,0,.9-1.306,4.66,4.66,0,0,0,.287-1.664,3.424,3.424,0,0,0-1.25-2.794,5.868,5.868,0,0,0-3.781-1.027Zm0-2.2h4.076a7.913,7.913,0,0,0,2.261-.287,4.576,4.576,0,0,0,1.584-.8,3.113,3.113,0,0,0,.931-1.234,4.071,4.071,0,0,0,.3-1.584,3.5,3.5,0,0,0-1.21-2.945,6.114,6.114,0,0,0-3.757-.939H60.466Z" transform="translate(-2.92 -9.422)" fill="#e47046" stroke="#e47046" stroke-width="1"/>
</svg>
