<svg xmlns="http://www.w3.org/2000/svg" width="582.733" height="582.632" viewBox="0 0 582.733 582.632">
  <g id="noun_waves_702569" transform="translate(-14.899 -9)">
    <g id="Group_1" data-name="Group 1" transform="translate(20 14)">
      <path id="Path_59" data-name="Path 59" d="M55.7,119.979c44.476,17.473,93.718,17.473,161.226-23.032C139.887,48.5,110.5,73.121,55.7,119.979Z" transform="translate(275.489 378.79)" fill="none" stroke="#e47046" stroke-width="10"/>
      <path id="Path_60" data-name="Path 60" d="M53.4,77.855c55.6,35.74,112.779,54.8,191.407,17.473C156.648,46.88,101.053,53.234,53.4,77.855Z" transform="translate(259.522 298.605)" fill="none" stroke="#e47046" stroke-width="10"/>
      <path id="Path_61" data-name="Path 61" d="M174.207,92.644C163.088,85.5,152.763,77.554,142.439,71.2c-30.974,18.267-65.92,31.769-109.6,31.769H24.1A288.367,288.367,0,0,0,132.114,172.86c34.151-15.09,61.155-32.563,84.981-50.83C202.8,112.5,188.5,102.174,174.207,92.644Z" transform="translate(56.116 383.093)" fill="none" stroke="#e47046" stroke-width="10"/>
      <path id="Path_62" data-name="Path 62" d="M154.577,66.807C114.072,48.54,68.8,42.187,14,60.454a286.052,286.052,0,0,0,14.3,82.6c38.917-14.3,76.245-40.505,115.162-68.3A134.73,134.73,0,0,1,154.577,66.807Z" transform="translate(-14 232.613)" fill="none" stroke="#e47046" stroke-width="10"/>
      <path id="Path_63" data-name="Path 63" d="M151.629,88.29C113.506,68.434,71.413,58.109,18.2,73.2c5.56,10.325,11.913,20.65,18.267,30.18C83.326,112.116,119.066,104.174,151.629,88.29Z" transform="translate(15.157 346.942)" fill="none" stroke="#e47046" stroke-width="10"/>
      <path id="Path_64" data-name="Path 64" d="M75.3,88.338c9.531,4.765,19.855,11.119,30.974,18.267a231.687,231.687,0,0,0,23.032-38.123c-1.588-.794-2.383-1.588-3.971-2.383A334.911,334.911,0,0,1,75.3,88.338Z" transform="translate(411.556 347.688)" fill="none" stroke="#e47046" stroke-width="10"/>
      <path id="Path_65" data-name="Path 65" d="M183.369,292.771c80.216-53.213,170.757-93.718,287.507-21.444,30.974,9.531,66.714,23.827,113.573,43.682,0-4.765.794-10.325.794-15.09C585.243,141.869,456.58,14,299.324,14,150.011,14,27.7,128.367,14.2,273.71,80.914,254.648,135.715,268.15,183.369,292.771Z" transform="translate(-12.612 -14)" fill="none" stroke="#e47046" stroke-width="10"/>
      <path id="Path_66" data-name="Path 66" d="M107.415,81.5a92.34,92.34,0,0,1,3.177-14.3C100.267,62.442,90.736,58.471,82,54.5,89.942,63.236,98.679,71.973,107.415,81.5Z" transform="translate(458.069 267.159)" fill="none" stroke="#e47046" stroke-width="10"/>
      <path id="Path_67" data-name="Path 67" d="M175.334,105c-27.8-9.531-53.213-24.621-77.039-41.3C87.97,70.848,78.44,78,68.115,85.144A294.815,294.815,0,0,1,42.7,103.411l21.444,14.3c17.473,11.913,34.151,23.827,50.83,33.357a118.828,118.828,0,0,1,10.325-8.736C141.977,128.826,157.862,115.324,175.334,105Z" transform="translate(185.241 331.027)" fill="none" stroke="#e47046" stroke-width="10"/>
      <path id="Path_68" data-name="Path 68" d="M175.325,93.234,158.646,81.321c-11.119-8.736-22.238-16.679-34.151-24.621C109.4,63.848,92.726,71,75.253,79.732c-15.09,7.148-30.975,14.3-47.653,22.238,33.357,4.765,62.743,17.473,89.747,33.357,11.913-7.942,23.827-16.679,35.74-25.415C161.029,103.559,168.177,98,175.325,93.234Z" transform="translate(80.414 282.431)" fill="none" stroke="#e47046" stroke-width="10"/>
      <path id="Path_69" data-name="Path 69" d="M111.9,79.6c-19.061,15.09-41.3,31.769-68.3,46.859a268.972,268.972,0,0,0,50.83,4.765A279.284,279.284,0,0,0,227.859,97.867a148.6,148.6,0,0,1-31.769,3.177C165.115,100.25,137.318,92.307,111.9,79.6Z" transform="translate(191.489 441.407)" fill="none" stroke="#e47046" stroke-width="10"/>
      <path id="Path_70" data-name="Path 70" d="M183.848,46.015C131.429,42.044,85.365,63.488,39.3,92.079l7.148,4.765C105.22,69.841,147.314,53.163,183.848,46.015Z" transform="translate(161.637 204.958)" fill="none" stroke="#e47046" stroke-width="10"/>
      <path id="Path_71" data-name="Path 71" d="M44.1,94.232c6.354,4.765,13.5,9.531,19.855,14.3,8.736,6.354,16.679,12.707,25.415,19.061,59.566-35.74,131.84-52.418,253.356,19.855,2.383-1.588,4.765-2.383,6.354-3.971-35.74-38.917-69.1-67.509-99.277-86.57C185.471,39.431,140.995,50.55,44.1,94.232Z" transform="translate(194.96 229.015)" fill="none" stroke="#e47046" stroke-width="10"/>
      <path id="Path_72" data-name="Path 72" d="M47.107,55.388c-.794-.794-1.588-.794-2.383-1.588-3.177,2.383-7.148,4.765-10.325,7.148C38.371,58.565,43.136,56.977,47.107,55.388Z" transform="translate(127.621 262.299)" fill="none" stroke="#e47046" stroke-width="10"/>
    </g>
  </g>
</svg>
