<svg xmlns="http://www.w3.org/2000/svg" width="492" height="309" viewBox="0 0 492 309">
  <g id="Group_514" data-name="Group 514" transform="translate(871 3733)">
    <g id="Rectangle_72" data-name="Rectangle 72" transform="translate(-871 -3733)" fill="#fff" stroke="#e077ff" stroke-width="4">
      <rect width="492" height="309" rx="20" stroke="none"/>
      <rect x="2" y="2" width="488" height="305" rx="18" fill="none"/>
    </g>
    <g id="Group_511" data-name="Group 511" transform="translate(2708 -178.09)">
      <g id="Group_461" data-name="Group 461" transform="translate(-3412 -3527.91)">
        <g id="Group_460" data-name="Group 460" transform="translate(53.401 0)">
          <g id="Group_458" data-name="Group 458" transform="translate(0 0)">
            <g id="Group_382" data-name="Group 382" transform="translate(14.754 64.616)" opacity="0.5">
              <path id="Path_289" data-name="Path 289" d="M238.922,247.37,251.7,240a5.024,5.024,0,0,1,4.547,0L291.5,260.351a1.386,1.386,0,0,1,0,2.626l-12.773,7.375a5.026,5.026,0,0,1-4.548,0L238.922,250A1.386,1.386,0,0,1,238.922,247.37Z" transform="translate(-237.98 -239.452)" fill="none" stroke="#c3e1ea" stroke-miterlimit="10" stroke-width="1"/>
            </g>
            <g id="Group_383" data-name="Group 383" transform="translate(37.563 51.166)" opacity="0.5">
              <path id="Path_290" data-name="Path 290" d="M270.849,228.543l12.773-7.374a5.026,5.026,0,0,1,4.548,0l35.255,20.355a1.386,1.386,0,0,1,0,2.626l-12.773,7.374a5.024,5.024,0,0,1-4.547,0l-35.256-20.355A1.386,1.386,0,0,1,270.849,228.543Z" transform="translate(-269.907 -220.625)" fill="none" stroke="#c3e1ea" stroke-miterlimit="10" stroke-width="1"/>
            </g>
            <g id="Group_529" data-name="Group 529" transform="translate(0 0)">
              <g id="Group_528" data-name="Group 528">
                <g id="Group_424" data-name="Group 424" transform="translate(39.255)">
                  <path id="Path_319" data-name="Path 319" d="M434.53,177.189,388.2,150.44a1.871,1.871,0,0,0-1.57-.192l0,0-.084.032-.02.008-1.674.64,1.5.736c-.007.028-.015.053-.022.082l-7.546,34.35a4.339,4.339,0,0,0,1.689,4.483l45.216,26.105-.161,1.916,1.83-.709a2.573,2.573,0,0,0,1.31-1.864l7.546-34.351A4.337,4.337,0,0,0,434.53,177.189Z" transform="translate(-378.692 -150.156)" fill="none" stroke="#c3e1ea" stroke-miterlimit="10" stroke-width="1"/>
                </g>
                <g id="Group_427" data-name="Group 427" transform="translate(36.37 0.644)">
                  <path id="Path_322" data-name="Path 322" d="M419.354,219.418l-46.33-26.749a4.337,4.337,0,0,1-1.689-4.482l7.546-34.351c.378-1.719,1.746-2.5,3.057-1.743l46.33,26.749a4.337,4.337,0,0,1,1.689,4.483l-7.546,34.351C422.034,219.395,420.665,220.175,419.354,219.418Z" transform="translate(-371.238 -151.805)" fill="#c3e1ea" stroke="#c3e1ea" stroke-miterlimit="10" stroke-width="1"/>
                </g>
                <g id="Group_428" data-name="Group 428" transform="translate(45.691 0.485)">
                  <path id="Path_323" data-name="Path 323" d="M443.476,178.43l-46.33-26.748a1.832,1.832,0,0,0-1.824-.079,1.9,1.9,0,0,1,1.379.242l46.33,26.748a4.337,4.337,0,0,1,1.689,4.483l-7.546,34.35a2.611,2.611,0,0,1-1.233,1.822,2.389,2.389,0,0,0,1.678-1.985l7.546-34.35A4.339,4.339,0,0,0,443.476,178.43Z" transform="translate(-395.322 -151.396)" fill="none" stroke="#c3e1ea" stroke-miterlimit="10" stroke-width="1"/>
                </g>
                <g id="Group_429" data-name="Group 429" transform="translate(38.275 3.164)">
                  <path id="Path_324" data-name="Path 324" d="M421.365,220.858l-43.572-25.144a3.97,3.97,0,0,1-1.546-4.1l6.905-31.434c.346-1.573,1.6-2.287,2.8-1.595l43.572,25.143a3.97,3.97,0,0,1,1.546,4.1l-6.906,31.434C423.816,220.837,422.564,221.55,421.365,220.858Z" transform="translate(-376.158 -158.32)" fill="none" stroke="#c3e1ea" stroke-miterlimit="10" stroke-width="1"/>
                </g>
                <g id="Group_430" data-name="Group 430" transform="translate(38.275 3.164)">
                  <path id="Path_325" data-name="Path 325" d="M421.365,220.858l-43.572-25.144a3.97,3.97,0,0,1-1.546-4.1l6.905-31.434c.346-1.573,1.6-2.287,2.8-1.595l43.572,25.143a3.97,3.97,0,0,1,1.546,4.1l-6.906,31.434C423.816,220.837,422.564,221.55,421.365,220.858Z" transform="translate(-376.158 -158.32)" fill="none" stroke="#c3e1ea" stroke-miterlimit="10" stroke-width="1"/>
                </g>
                <g id="Group_431" data-name="Group 431" transform="translate(38.275 3.213)">
                  <path id="Path_326" data-name="Path 326" d="M421.746,220.779l-43.573-25.144a3.97,3.97,0,0,1-1.546-4.1l6.906-31.434a2.412,2.412,0,0,1,1.1-1.654,2.219,2.219,0,0,0-1.478,1.81l-6.905,31.433a3.968,3.968,0,0,0,1.546,4.1l43.572,25.144a1.675,1.675,0,0,0,1.7.06A1.735,1.735,0,0,1,421.746,220.779Z" transform="translate(-376.159 -158.445)" fill="#c3e1ea" stroke="#c3e1ea" stroke-miterlimit="10" stroke-width="1"/>
                </g>
                <g id="Group_432" data-name="Group 432" transform="translate(0.002 44.473)">
                  <path id="Path_327" data-name="Path 327" d="M362.384,290.011l-6.333-.836-40.881-23.6a5.682,5.682,0,0,0-5.113.212L281.09,282.5,277.26,282v2.173h0a1.491,1.491,0,0,0,.879,1.342l46.33,26.749a5.683,5.683,0,0,0,5.113-.212l31.547-18.208a2.064,2.064,0,0,0,1.251-1.72h0Z" transform="translate(-277.26 -265.061)" fill="none" stroke="#c3e1ea" stroke-miterlimit="10" stroke-width="1"/>
                </g>
                <g id="Group_434" data-name="Group 434" transform="translate(0.002 61.408)">
                  <path id="Path_329" data-name="Path 329" d="M278.958,309.047l-1.7-.224V311h0a1.491,1.491,0,0,0,.879,1.342l.817.472Z" transform="translate(-277.258 -308.823)" fill="none" stroke="#c3e1ea" stroke-miterlimit="10" stroke-width="1"/>
                </g>
                <g id="Group_435" data-name="Group 435" transform="translate(47.681 86.773)">
                  <path id="Path_330" data-name="Path 330" d="M400.466,379.482a5.935,5.935,0,0,0,4.344-.27v-4.847h-4.344Z" transform="translate(-400.466 -374.366)" fill="none" stroke="#c3e1ea" stroke-miterlimit="10" stroke-width="1"/>
                </g>
                <g id="Group_436" data-name="Group 436" transform="translate(0 40.871)">
                  <path id="Path_331" data-name="Path 331" d="M324.47,304.385l-46.33-26.748c-1.311-.757-1.146-2.079.367-2.952l31.547-18.208a5.682,5.682,0,0,1,5.113-.212l46.33,26.748c1.311.757,1.146,2.079-.367,2.952l-31.547,18.208A5.683,5.683,0,0,1,324.47,304.385Z" transform="translate(-277.256 -255.754)" fill="#c3e1ea" stroke="#c3e1ea" stroke-miterlimit="10" stroke-width="1"/>
                </g>
                <g id="Group_437" data-name="Group 437" transform="translate(0.003 61.069)">
                  <path id="Path_332" data-name="Path 332" d="M361.134,317.17l-31.547,18.207a5.683,5.683,0,0,1-5.113.212l-46.33-26.748a1.727,1.727,0,0,1-.815-.891,1.4,1.4,0,0,0,.815,1.685l46.33,26.748a5.683,5.683,0,0,0,5.113-.212l31.547-18.208c1.017-.587,1.422-1.377,1.182-2.061A2.465,2.465,0,0,1,361.134,317.17Z" transform="translate(-277.262 -307.95)" fill="none" stroke="#c3e1ea" stroke-miterlimit="10" stroke-width="1"/>
                </g>
                <g id="Group_512" data-name="Group 512" transform="translate(18.38 42.519)">
                  <g id="Group_438" data-name="Group 438" transform="translate(0 8.269)">
                    <path id="Path_333" data-name="Path 333" d="M326.959,284.495l-2.1-1.21c-.168-.1-.147-.267.047-.379l2.474-1.428a.73.73,0,0,1,.657-.028l2.1,1.211c.168.1.147.267-.047.379l-2.474,1.429A.729.729,0,0,1,326.959,284.495Z" transform="translate(-324.749 -281.385)" fill="#c3e1ea" stroke="#c3e1ea" stroke-miterlimit="10" stroke-width="1"/>
                  </g>
                  <g id="Group_439" data-name="Group 439" transform="translate(3.237 10.138)">
                    <path id="Path_334" data-name="Path 334" d="M335.324,289.323l-2.1-1.211c-.168-.1-.147-.267.047-.379l2.474-1.429a.73.73,0,0,1,.657-.027l2.1,1.21c.168.1.147.267-.047.379l-2.474,1.428A.73.73,0,0,1,335.324,289.323Z" transform="translate(-333.114 -286.213)" fill="#c3e1ea" stroke="#c3e1ea" stroke-miterlimit="10" stroke-width="1"/>
                  </g>
                  <g id="Group_440" data-name="Group 440" transform="translate(6.474 12.007)">
                    <path id="Path_335" data-name="Path 335" d="M343.689,294.151l-2.1-1.21c-.168-.1-.147-.267.047-.379l2.474-1.428a.728.728,0,0,1,.656-.027l2.1,1.21c.168.1.147.267-.047.379l-2.474,1.428A.73.73,0,0,1,343.689,294.151Z" transform="translate(-341.479 -291.041)" fill="#c3e1ea" stroke="#c3e1ea" stroke-miterlimit="10" stroke-width="1"/>
                  </g>
                  <g id="Group_441" data-name="Group 441" transform="translate(10.952 10.693)">
                    <path id="Path_336" data-name="Path 336" d="M355.261,290.528l-2.1-1.21c-.168-.1-.147-.267.047-.379l2.077-1.2a.73.73,0,0,1,.657-.027l2.1,1.21c.168.1.147.267-.047.379l-2.077,1.2a.73.73,0,0,1-.657.028Z" transform="translate(-353.051 -287.647)" fill="#c3e1ea" stroke="#c3e1ea" stroke-miterlimit="10" stroke-width="1"/>
                  </g>
                  <g id="Group_442" data-name="Group 442" transform="translate(14.189 12.562)">
                    <path id="Path_337" data-name="Path 337" d="M363.624,295.358l-2.1-1.21c-.168-.1-.147-.267.047-.379l2.077-1.2a.729.729,0,0,1,.656-.027l2.1,1.211c.168.1.147.267-.047.379l-2.077,1.2A.73.73,0,0,1,363.624,295.358Z" transform="translate(-361.414 -292.477)" fill="#c3e1ea" stroke="#c3e1ea" stroke-miterlimit="10" stroke-width="1"/>
                  </g>
                  <g id="Group_443" data-name="Group 443" transform="translate(17.426 14.431)">
                    <path id="Path_338" data-name="Path 338" d="M371.988,300.186l-2.1-1.21c-.168-.1-.147-.267.047-.379l2.077-1.2a.729.729,0,0,1,.656-.027l2.1,1.21c.168.1.147.267-.047.379l-2.077,1.2A.73.73,0,0,1,371.988,300.186Z" transform="translate(-369.779 -297.305)" fill="#c3e1ea" stroke="#c3e1ea" stroke-miterlimit="10" stroke-width="1"/>
                  </g>
                  <g id="Group_444" data-name="Group 444" transform="translate(20.664 16.3)">
                    <path id="Path_339" data-name="Path 339" d="M380.358,305.014l-2.1-1.21c-.168-.1-.148-.267.047-.379l2.077-1.2a.729.729,0,0,1,.656-.027l2.1,1.211c.168.1.147.267-.047.379l-2.077,1.2A.728.728,0,0,1,380.358,305.014Z" transform="translate(-378.148 -302.133)" fill="#c3e1ea" stroke="#c3e1ea" stroke-miterlimit="10" stroke-width="1"/>
                  </g>
                  <g id="Group_445" data-name="Group 445" transform="translate(23.901 18.169)">
                    <path id="Path_340" data-name="Path 340" d="M388.719,309.847l-2.1-1.21c-.168-.1-.147-.267.047-.379l2.077-1.2a.73.73,0,0,1,.657-.027l2.1,1.21c.168.1.147.267-.047.379l-2.077,1.2A.729.729,0,0,1,388.719,309.847Z" transform="translate(-386.509 -306.966)" fill="#c3e1ea" stroke="#c3e1ea" stroke-miterlimit="10" stroke-width="1"/>
                  </g>
                  <g id="Group_446" data-name="Group 446" transform="translate(27.138 20.038)">
                    <path id="Path_341" data-name="Path 341" d="M397.084,314.675l-2.1-1.211c-.168-.1-.147-.267.047-.379l2.077-1.2a.73.73,0,0,1,.657-.027l2.1,1.21c.168.1.148.267-.047.379l-2.077,1.2A.73.73,0,0,1,397.084,314.675Z" transform="translate(-394.874 -311.794)" fill="#c3e1ea" stroke="#c3e1ea" stroke-miterlimit="10" stroke-width="1"/>
                  </g>
                  <g id="Group_447" data-name="Group 447" transform="translate(30.375 21.907)">
                    <path id="Path_342" data-name="Path 342" d="M405.449,319.505l-2.1-1.21c-.168-.1-.147-.267.047-.379l2.077-1.2a.73.73,0,0,1,.657-.027l2.1,1.21c.168.1.147.267-.047.379l-2.077,1.2A.73.73,0,0,1,405.449,319.505Z" transform="translate(-403.239 -316.624)" fill="#c3e1ea" stroke="#c3e1ea" stroke-miterlimit="10" stroke-width="1"/>
                  </g>
                  <g id="Group_448" data-name="Group 448" transform="translate(33.612 23.776)">
                    <path id="Path_343" data-name="Path 343" d="M413.814,324.335l-2.1-1.21c-.168-.1-.147-.267.047-.379l2.077-1.2a.73.73,0,0,1,.657-.027l2.1,1.21c.168.1.147.267-.047.379l-2.077,1.2A.731.731,0,0,1,413.814,324.335Z" transform="translate(-411.604 -321.454)" fill="#c3e1ea" stroke="#c3e1ea" stroke-miterlimit="10" stroke-width="1"/>
                  </g>
                  <g id="Group_449" data-name="Group 449" transform="translate(36.849 25.645)">
                    <path id="Path_344" data-name="Path 344" d="M422.18,329.165l-2.1-1.211c-.168-.1-.147-.267.047-.379l2.077-1.2a.73.73,0,0,1,.657-.028l2.1,1.211c.168.1.147.267-.047.379l-2.077,1.2A.73.73,0,0,1,422.18,329.165Z" transform="translate(-419.97 -326.284)" fill="#c3e1ea" stroke="#c3e1ea" stroke-miterlimit="10" stroke-width="1"/>
                  </g>
                  <g id="Group_450" data-name="Group 450" transform="translate(40.086 27.514)">
                    <path id="Path_345" data-name="Path 345" d="M430.544,333.994l-2.1-1.21c-.168-.1-.147-.267.047-.379l2.077-1.2a.73.73,0,0,1,.657-.027l2.1,1.21c.168.1.147.267-.047.379l-2.077,1.2A.73.73,0,0,1,430.544,333.994Z" transform="translate(-428.334 -331.113)" fill="#c3e1ea" stroke="#c3e1ea" stroke-miterlimit="10" stroke-width="1"/>
                  </g>
                  <g id="Group_451" data-name="Group 451" transform="translate(15.722 9.808)">
                    <path id="Path_346" data-name="Path 346" d="M367.584,288.241l-2.1-1.21c-.168-.1-.147-.267.047-.379l2.077-1.2a.731.731,0,0,1,.657-.027l2.1,1.21c.168.1.147.267-.047.379l-2.077,1.2A.729.729,0,0,1,367.584,288.241Z" transform="translate(-365.374 -285.36)" fill="#c3e1ea" stroke="#c3e1ea" stroke-miterlimit="10" stroke-width="1"/>
                  </g>
                  <g id="Group_452" data-name="Group 452" transform="translate(12.436 7.911)">
                    <path id="Path_347" data-name="Path 347" d="M359.094,283.338l-2.1-1.211c-.168-.1-.147-.267.047-.379l2.077-1.2a.73.73,0,0,1,.657-.028l2.1,1.211c.168.1.147.267-.047.379l-2.077,1.2A.729.729,0,0,1,359.094,283.338Z" transform="translate(-356.884 -280.457)" fill="#c3e1ea" stroke="#c3e1ea" stroke-miterlimit="10" stroke-width="1"/>
                  </g>
                  <g id="Group_453" data-name="Group 453" transform="translate(6.727 4.615)">
                    <path id="Path_348" data-name="Path 348" d="M346.759,276.217l-4.515-2.607c-.168-.1-.147-.267.047-.379l2.077-1.2a.729.729,0,0,1,.657-.027l4.515,2.606c.168.1.147.267-.047.379l-2.077,1.2A.73.73,0,0,1,346.759,276.217Z" transform="translate(-342.131 -271.939)" fill="#c3e1ea" stroke="#c3e1ea" stroke-miterlimit="10" stroke-width="1"/>
                  </g>
                  <g id="Group_454" data-name="Group 454" transform="translate(9.878 2.796)">
                    <path id="Path_349" data-name="Path 349" d="M354.051,271.026l-3.664-2.115c-.168-.1-.147-.267.047-.379l2.077-1.2a.73.73,0,0,1,.657-.027l3.664,2.115c.168.1.147.267-.047.379l-2.077,1.2A.73.73,0,0,1,354.051,271.026Z" transform="translate(-350.274 -267.24)" fill="#c3e1ea" stroke="#c3e1ea" stroke-miterlimit="10" stroke-width="1"/>
                  </g>
                  <g id="Group_455" data-name="Group 455" transform="translate(18.959 11.677)">
                    <path id="Path_350" data-name="Path 350" d="M375.95,293.07l-2.1-1.211c-.168-.1-.147-.267.047-.379l2.077-1.2a.73.73,0,0,1,.657-.027l2.1,1.21c.168.1.147.267-.047.379l-2.077,1.2A.73.73,0,0,1,375.95,293.07Z" transform="translate(-373.74 -290.189)" fill="#c3e1ea" stroke="#c3e1ea" stroke-miterlimit="10" stroke-width="1"/>
                  </g>
                  <g id="Group_456" data-name="Group 456" transform="translate(22.196 13.546)">
                    <path id="Path_351" data-name="Path 351" d="M384.314,297.9l-2.1-1.21c-.168-.1-.147-.267.047-.379l2.077-1.2a.73.73,0,0,1,.657-.028l2.1,1.211c.168.1.147.267-.047.379l-2.077,1.2A.73.73,0,0,1,384.314,297.9Z" transform="translate(-382.104 -295.02)" fill="#c3e1ea" stroke="#c3e1ea" stroke-miterlimit="10" stroke-width="1"/>
                  </g>
                  <g id="Group_457" data-name="Group 457" transform="translate(25.433 15.415)">
                    <path id="Path_352" data-name="Path 352" d="M392.679,302.73l-2.1-1.21c-.168-.1-.147-.267.047-.379l2.077-1.2a.73.73,0,0,1,.657-.027l2.1,1.21c.168.1.147.267-.047.379l-2.077,1.2A.73.73,0,0,1,392.679,302.73Z" transform="translate(-390.469 -299.849)" fill="#c3e1ea" stroke="#c3e1ea" stroke-miterlimit="10" stroke-width="1"/>
                  </g>
                  <g id="Group_458-2" data-name="Group 458" transform="translate(28.67 17.284)">
                    <path id="Path_353" data-name="Path 353" d="M401.044,307.56l-2.1-1.211c-.168-.1-.147-.267.047-.379l2.077-1.2a.729.729,0,0,1,.657-.027l2.1,1.21c.168.1.147.267-.047.379l-2.077,1.2A.73.73,0,0,1,401.044,307.56Z" transform="translate(-398.834 -304.679)" fill="#c3e1ea" stroke="#c3e1ea" stroke-miterlimit="10" stroke-width="1"/>
                  </g>
                  <g id="Group_459" data-name="Group 459" transform="translate(31.908 19.153)">
                    <path id="Path_354" data-name="Path 354" d="M409.41,312.389l-2.1-1.21c-.168-.1-.147-.267.047-.379l2.077-1.2a.73.73,0,0,1,.657-.027l2.1,1.21c.168.1.147.267-.047.379l-2.077,1.2A.73.73,0,0,1,409.41,312.389Z" transform="translate(-407.2 -309.508)" fill="#c3e1ea" stroke="#c3e1ea" stroke-miterlimit="10" stroke-width="1"/>
                  </g>
                  <g id="Group_460-2" data-name="Group 460" transform="translate(35.145 21.022)">
                    <path id="Path_355" data-name="Path 355" d="M417.773,317.218l-2.1-1.211c-.168-.1-.147-.267.047-.379l2.077-1.2a.73.73,0,0,1,.657-.027l2.1,1.21c.168.1.147.267-.047.379l-2.077,1.2A.732.732,0,0,1,417.773,317.218Z" transform="translate(-415.563 -314.337)" fill="#c3e1ea" stroke="#c3e1ea" stroke-miterlimit="10" stroke-width="1"/>
                  </g>
                  <g id="Group_461-2" data-name="Group 461" transform="translate(38.382 22.891)">
                    <path id="Path_356" data-name="Path 356" d="M426.14,322.048l-2.1-1.21c-.168-.1-.147-.267.047-.379l2.077-1.2a.729.729,0,0,1,.656-.027l2.1,1.211c.168.1.148.267-.047.379l-2.077,1.2A.73.73,0,0,1,426.14,322.048Z" transform="translate(-423.93 -319.167)" fill="#c3e1ea" stroke="#c3e1ea" stroke-miterlimit="10" stroke-width="1"/>
                  </g>
                  <g id="Group_462" data-name="Group 462" transform="translate(41.619 24.76)">
                    <path id="Path_357" data-name="Path 357" d="M434.5,326.878l-2.1-1.21c-.168-.1-.147-.267.047-.379l2.077-1.2a.729.729,0,0,1,.656-.027l2.1,1.21c.168.1.147.267-.047.379l-2.077,1.2A.73.73,0,0,1,434.5,326.878Z" transform="translate(-432.295 -323.997)" fill="#c3e1ea" stroke="#c3e1ea" stroke-miterlimit="10" stroke-width="1"/>
                  </g>
                  <g id="Group_463" data-name="Group 463" transform="translate(44.857 26.629)">
                    <path id="Path_358" data-name="Path 358" d="M442.874,331.708l-2.1-1.211c-.168-.1-.147-.267.047-.379l2.077-1.2a.729.729,0,0,1,.657-.027l2.1,1.21c.168.1.147.267-.047.379l-2.077,1.2A.729.729,0,0,1,442.874,331.708Z" transform="translate(-440.664 -328.827)" fill="#c3e1ea" stroke="#c3e1ea" stroke-miterlimit="10" stroke-width="1"/>
                  </g>
                  <g id="Group_464" data-name="Group 464" transform="translate(48.134 28.522)">
                    <path id="Path_359" data-name="Path 359" d="M453.817,338.028l-4.574-2.641c-.168-.1-.147-.267.047-.379l2.077-1.2a.73.73,0,0,1,.657-.027l4.574,2.641c.168.1.147.267-.047.379l-2.077,1.2A.73.73,0,0,1,453.817,338.028Z" transform="translate(-449.129 -333.717)" fill="#c3e1ea" stroke="#c3e1ea" stroke-miterlimit="10" stroke-width="1"/>
                  </g>
                  <g id="Group_465" data-name="Group 465" transform="translate(55.15 25.295)">
                    <path id="Path_360" data-name="Path 360" d="M471.238,329.277l-3.86-2.229c-.168-.1-.147-.267.047-.379l2.077-1.2a.73.73,0,0,1,.657-.027l3.86,2.229c.168.1.147.267-.047.379l-2.077,1.2A.73.73,0,0,1,471.238,329.277Z" transform="translate(-467.264 -325.378)" fill="#c3e1ea" stroke="#c3e1ea" stroke-miterlimit="10" stroke-width="1"/>
                  </g>
                  <g id="Group_466" data-name="Group 466" transform="translate(24.628 11.312)">
                    <path id="Path_361" data-name="Path 361" d="M390.6,292.126l-2.1-1.21c-.168-.1-.147-.267.047-.379l2.077-1.2a.73.73,0,0,1,.657-.027l2.1,1.21c.168.1.147.267-.047.379l-2.077,1.2A.729.729,0,0,1,390.6,292.126Z" transform="translate(-388.388 -289.245)" fill="#c3e1ea" stroke="#c3e1ea" stroke-miterlimit="10" stroke-width="1"/>
                  </g>
                  <g id="Group_467" data-name="Group 467" transform="translate(21.31 9.396)">
                    <path id="Path_362" data-name="Path 362" d="M382.025,287.177l-2.1-1.21c-.168-.1-.147-.267.047-.379l2.077-1.2a.73.73,0,0,1,.657-.027l2.1,1.21c.168.1.147.267-.047.379l-2.077,1.2A.729.729,0,0,1,382.025,287.177Z" transform="translate(-379.815 -284.296)" fill="#c3e1ea" stroke="#c3e1ea" stroke-miterlimit="10" stroke-width="1"/>
                  </g>
                  <g id="Group_468" data-name="Group 468" transform="translate(17.992 7.48)">
                    <path id="Path_363" data-name="Path 363" d="M373.452,282.225l-2.1-1.21c-.168-.1-.147-.267.047-.379l2.077-1.2a.729.729,0,0,1,.656-.027l2.1,1.21c.168.1.147.267-.047.379l-2.077,1.2A.73.73,0,0,1,373.452,282.225Z" transform="translate(-371.242 -279.345)" fill="#c3e1ea" stroke="#c3e1ea" stroke-miterlimit="10" stroke-width="1"/>
                  </g>
                  <g id="Group_469" data-name="Group 469" transform="translate(14.675 5.565)">
                    <path id="Path_364" data-name="Path 364" d="M364.879,277.276l-2.1-1.21c-.168-.1-.147-.267.047-.379l2.077-1.2a.729.729,0,0,1,.657-.027l2.1,1.21c.168.1.147.267-.047.379l-2.077,1.2A.73.73,0,0,1,364.879,277.276Z" transform="translate(-362.669 -274.395)" fill="#c3e1ea" stroke="#c3e1ea" stroke-miterlimit="10" stroke-width="1"/>
                  </g>
                  <g id="Group_470" data-name="Group 470" transform="translate(27.864 13.181)">
                    <path id="Path_365" data-name="Path 365" d="M398.958,296.956l-2.1-1.21c-.168-.1-.147-.267.047-.379l2.077-1.2a.73.73,0,0,1,.657-.027l2.1,1.21c.168.1.147.267-.047.379l-2.077,1.2A.729.729,0,0,1,398.958,296.956Z" transform="translate(-396.748 -294.075)" fill="#c3e1ea" stroke="#c3e1ea" stroke-miterlimit="10" stroke-width="1"/>
                  </g>
                  <g id="Group_471" data-name="Group 471" transform="translate(31.102 15.05)">
                    <path id="Path_366" data-name="Path 366" d="M407.329,301.785l-2.1-1.21c-.168-.1-.147-.267.047-.379l2.077-1.2a.73.73,0,0,1,.657-.027l2.1,1.21c.168.1.147.267-.047.379l-2.077,1.2A.73.73,0,0,1,407.329,301.785Z" transform="translate(-405.119 -298.904)" fill="#c3e1ea" stroke="#c3e1ea" stroke-miterlimit="10" stroke-width="1"/>
                  </g>
                  <g id="Group_472" data-name="Group 472" transform="translate(34.339 16.918)">
                    <path id="Path_367" data-name="Path 367" d="M415.693,306.61l-2.1-1.211c-.169-.1-.147-.267.047-.379l2.077-1.2a.729.729,0,0,1,.657-.027l2.1,1.21c.168.1.147.267-.047.379l-2.077,1.2A.73.73,0,0,1,415.693,306.61Z" transform="translate(-413.483 -303.728)" fill="#c3e1ea" stroke="#c3e1ea" stroke-miterlimit="10" stroke-width="1"/>
                  </g>
                  <g id="Group_473" data-name="Group 473" transform="translate(37.577 18.788)">
                    <path id="Path_368" data-name="Path 368" d="M424.059,311.447l-2.1-1.21c-.168-.1-.147-.267.047-.379l2.077-1.2a.73.73,0,0,1,.657-.027l2.1,1.211c.168.1.147.267-.047.379l-2.077,1.2A.73.73,0,0,1,424.059,311.447Z" transform="translate(-421.849 -308.567)" fill="#c3e1ea" stroke="#c3e1ea" stroke-miterlimit="10" stroke-width="1"/>
                  </g>
                  <g id="Group_474" data-name="Group 474" transform="translate(40.814 20.657)">
                    <path id="Path_369" data-name="Path 369" d="M432.424,316.273l-2.1-1.21c-.168-.1-.147-.267.047-.379l2.077-1.2a.729.729,0,0,1,.656-.027l2.1,1.21c.168.1.147.267-.047.379l-2.077,1.2A.73.73,0,0,1,432.424,316.273Z" transform="translate(-430.214 -313.392)" fill="#c3e1ea" stroke="#c3e1ea" stroke-miterlimit="10" stroke-width="1"/>
                  </g>
                  <g id="Group_475" data-name="Group 475" transform="translate(44.051 22.526)">
                    <path id="Path_370" data-name="Path 370" d="M440.789,321.1l-2.1-1.21c-.168-.1-.147-.267.047-.379l2.077-1.2a.729.729,0,0,1,.656-.027l2.1,1.211c.168.1.147.267-.047.379l-2.077,1.2a.729.729,0,0,1-.657.027Z" transform="translate(-438.579 -318.223)" fill="#c3e1ea" stroke="#c3e1ea" stroke-miterlimit="10" stroke-width="1"/>
                  </g>
                  <g id="Group_476" data-name="Group 476" transform="translate(47.288 24.395)">
                    <path id="Path_371" data-name="Path 371" d="M449.155,325.933l-2.1-1.21c-.168-.1-.147-.267.047-.379l2.077-1.2a.73.73,0,0,1,.657-.027l2.1,1.21c.168.1.147.267-.047.379l-2.077,1.2A.729.729,0,0,1,449.155,325.933Z" transform="translate(-446.944 -323.052)" fill="#c3e1ea" stroke="#c3e1ea" stroke-miterlimit="10" stroke-width="1"/>
                  </g>
                  <g id="Group_477" data-name="Group 477" transform="translate(50.526 26.264)">
                    <path id="Path_372" data-name="Path 372" d="M457.519,330.762l-2.1-1.21c-.168-.1-.147-.267.047-.379l2.077-1.2a.73.73,0,0,1,.657-.027l2.1,1.21c.168.1.147.267-.047.379l-2.077,1.2A.73.73,0,0,1,457.519,330.762Z" transform="translate(-455.309 -327.881)" fill="#c3e1ea" stroke="#c3e1ea" stroke-miterlimit="10" stroke-width="1"/>
                  </g>
                  <g id="Group_478" data-name="Group 478" transform="translate(53.763 28.133)">
                    <path id="Path_373" data-name="Path 373" d="M465.884,335.593l-2.1-1.21c-.168-.1-.147-.267.047-.379l2.077-1.2a.73.73,0,0,1,.657-.027l2.1,1.211c.168.1.147.267-.047.379l-2.077,1.2A.73.73,0,0,1,465.884,335.593Z" transform="translate(-463.674 -332.712)" fill="#c3e1ea" stroke="#c3e1ea" stroke-miterlimit="10" stroke-width="1"/>
                  </g>
                  <g id="Group_479" data-name="Group 479" transform="translate(22.923 6.689)">
                    <path id="Path_374" data-name="Path 374" d="M386.193,280.179l-2.1-1.21c-.168-.1-.147-.267.047-.379l2.077-1.2a.731.731,0,0,1,.657-.027l2.1,1.21c.168.1.147.267-.047.379l-2.077,1.2A.73.73,0,0,1,386.193,280.179Z" transform="translate(-383.983 -277.298)" fill="#c3e1ea" stroke="#c3e1ea" stroke-miterlimit="10" stroke-width="1"/>
                  </g>
                  <g id="Group_480" data-name="Group 480" transform="translate(19.703 4.829)">
                    <path id="Path_375" data-name="Path 375" d="M377.874,275.373l-2.1-1.211c-.168-.1-.147-.267.047-.379l2.077-1.2a.729.729,0,0,1,.657-.027l2.1,1.21c.168.1.147.267-.047.379l-2.077,1.2A.729.729,0,0,1,377.874,275.373Z" transform="translate(-375.664 -272.492)" fill="#c3e1ea" stroke="#c3e1ea" stroke-miterlimit="10" stroke-width="1"/>
                  </g>
                  <g id="Group_481" data-name="Group 481" transform="translate(16.481 2.969)">
                    <path id="Path_376" data-name="Path 376" d="M369.546,270.569l-2.1-1.21c-.168-.1-.147-.267.047-.379l2.077-1.2a.73.73,0,0,1,.657-.027l2.1,1.21c.168.1.147.267-.047.379l-2.077,1.2A.73.73,0,0,1,369.546,270.569Z" transform="translate(-367.336 -267.688)" fill="#c3e1ea" stroke="#c3e1ea" stroke-miterlimit="10" stroke-width="1"/>
                  </g>
                  <g id="Group_482" data-name="Group 482" transform="translate(13.26 1.11)">
                    <path id="Path_377" data-name="Path 377" d="M361.223,265.763l-2.1-1.21c-.168-.1-.147-.267.047-.379l2.077-1.2a.73.73,0,0,1,.657-.028l2.1,1.211c.168.1.147.267-.047.379l-2.077,1.2A.729.729,0,0,1,361.223,265.763Z" transform="translate(-359.013 -262.883)" fill="#c3e1ea" stroke="#c3e1ea" stroke-miterlimit="10" stroke-width="1"/>
                  </g>
                  <g id="Group_483" data-name="Group 483" transform="translate(16.572 0)">
                    <path id="Path_378" data-name="Path 378" d="M369.782,262.093l-2.1-1.211c-.168-.1-.147-.267.047-.379l.687-.4a.731.731,0,0,1,.657-.027l2.1,1.21c.168.1.147.267-.047.379l-.686.4A.73.73,0,0,1,369.782,262.093Z" transform="translate(-367.572 -260.015)" fill="#c3e1ea" stroke="#c3e1ea" stroke-miterlimit="10" stroke-width="1"/>
                  </g>
                  <g id="Group_484" data-name="Group 484" transform="translate(20.776 2.427)">
                    <path id="Path_379" data-name="Path 379" d="M380.644,268.364l-2.1-1.21c-.168-.1-.147-.267.047-.379l.686-.4a.73.73,0,0,1,.657-.027l2.1,1.21c.168.1.147.267-.047.379l-.687.4A.73.73,0,0,1,380.644,268.364Z" transform="translate(-378.434 -266.285)" fill="#c3e1ea" stroke="#c3e1ea" stroke-miterlimit="10" stroke-width="1"/>
                  </g>
                  <g id="Group_485" data-name="Group 485" transform="translate(23.983 4.279)">
                    <path id="Path_380" data-name="Path 380" d="M388.933,273.151l-2.1-1.211c-.168-.1-.147-.267.047-.379l.687-.4a.73.73,0,0,1,.657-.027l2.1,1.21c.168.1.147.267-.047.379l-.687.4a.729.729,0,0,1-.656.028Z" transform="translate(-386.723 -271.073)" fill="#c3e1ea" stroke="#c3e1ea" stroke-miterlimit="10" stroke-width="1"/>
                  </g>
                  <g id="Group_486" data-name="Group 486" transform="translate(27.191 6.131)">
                    <path id="Path_381" data-name="Path 381" d="M397.222,277.936l-2.1-1.21c-.168-.1-.147-.267.047-.379l.687-.4a.73.73,0,0,1,.657-.027l2.1,1.211c.168.1.147.267-.047.379l-.687.4A.73.73,0,0,1,397.222,277.936Z" transform="translate(-395.012 -275.858)" fill="#c3e1ea" stroke="#c3e1ea" stroke-miterlimit="10" stroke-width="1"/>
                  </g>
                  <g id="Group_487" data-name="Group 487" transform="translate(30.399 7.983)">
                    <path id="Path_382" data-name="Path 382" d="M405.511,282.721l-2.1-1.21c-.168-.1-.147-.267.047-.379l.687-.4a.729.729,0,0,1,.656-.027l2.1,1.21c.168.1.147.267-.047.379l-.687.4A.731.731,0,0,1,405.511,282.721Z" transform="translate(-403.301 -280.643)" fill="#c3e1ea" stroke="#c3e1ea" stroke-miterlimit="10" stroke-width="1"/>
                  </g>
                  <g id="Group_488" data-name="Group 488" transform="translate(48.307 18.322)">
                    <path id="Path_383" data-name="Path 383" d="M451.786,309.438l-2.1-1.211c-.168-.1-.148-.267.047-.379l.686-.4a.73.73,0,0,1,.657-.027l2.1,1.21c.168.1.147.267-.047.379l-.687.4a.729.729,0,0,1-.656.028Z" transform="translate(-449.576 -307.36)" fill="#c3e1ea" stroke="#c3e1ea" stroke-miterlimit="10" stroke-width="1"/>
                  </g>
                  <g id="Group_489" data-name="Group 489" transform="translate(51.515 20.174)">
                    <path id="Path_384" data-name="Path 384" d="M460.076,314.223l-2.1-1.21c-.168-.1-.147-.267.047-.379l.687-.4a.728.728,0,0,1,.656-.027l2.1,1.21c.168.1.147.267-.047.379l-.687.4A.73.73,0,0,1,460.076,314.223Z" transform="translate(-457.866 -312.145)" fill="#c3e1ea" stroke="#c3e1ea" stroke-miterlimit="10" stroke-width="1"/>
                  </g>
                  <g id="Group_490" data-name="Group 490" transform="translate(54.722 22.026)">
                    <path id="Path_385" data-name="Path 385" d="M468.359,319.009l-2.1-1.21c-.168-.1-.147-.267.047-.379l.686-.4a.73.73,0,0,1,.657-.027l2.1,1.21c.168.1.147.267-.047.379l-.687.4A.731.731,0,0,1,468.359,319.009Z" transform="translate(-466.149 -316.931)" fill="#c3e1ea" stroke="#c3e1ea" stroke-miterlimit="10" stroke-width="1"/>
                  </g>
                  <g id="Group_491" data-name="Group 491" transform="translate(57.93 23.878)">
                    <path id="Path_386" data-name="Path 386" d="M476.652,323.794l-2.1-1.21c-.168-.1-.147-.267.047-.379l.687-.4a.73.73,0,0,1,.657-.027l2.1,1.21c.168.1.147.267-.047.379l-.686.4A.729.729,0,0,1,476.652,323.794Z" transform="translate(-474.442 -321.716)" fill="#c3e1ea" stroke="#c3e1ea" stroke-miterlimit="10" stroke-width="1"/>
                  </g>
                  <g id="Group_492" data-name="Group 492" transform="translate(26.16 8.558)">
                    <path id="Path_387" data-name="Path 387" d="M394.559,285.01l-2.1-1.211c-.168-.1-.147-.267.047-.379l2.077-1.2a.73.73,0,0,1,.657-.027l2.1,1.21c.168.1.147.267-.047.379l-2.077,1.2A.73.73,0,0,1,394.559,285.01Z" transform="translate(-392.349 -282.129)" fill="#c3e1ea" stroke="#c3e1ea" stroke-miterlimit="10" stroke-width="1"/>
                  </g>
                  <g id="Group_493" data-name="Group 493" transform="translate(29.398 10.427)">
                    <path id="Path_388" data-name="Path 388" d="M402.924,289.838l-2.1-1.21c-.168-.1-.147-.267.047-.379l2.077-1.2a.73.73,0,0,1,.657-.028l2.1,1.21c.168.1.147.267-.047.379l-2.077,1.2A.73.73,0,0,1,402.924,289.838Z" transform="translate(-400.714 -286.957)" fill="#c3e1ea" stroke="#c3e1ea" stroke-miterlimit="10" stroke-width="1"/>
                  </g>
                  <g id="Group_494" data-name="Group 494" transform="translate(32.635 12.296)">
                    <path id="Path_389" data-name="Path 389" d="M411.289,294.668l-2.1-1.21c-.168-.1-.147-.267.047-.379l2.077-1.2a.729.729,0,0,1,.656-.027l2.1,1.21c.168.1.147.267-.047.379l-2.077,1.2A.73.73,0,0,1,411.289,294.668Z" transform="translate(-409.079 -291.787)" fill="#c3e1ea" stroke="#c3e1ea" stroke-miterlimit="10" stroke-width="1"/>
                  </g>
                  <g id="Group_495" data-name="Group 495" transform="translate(35.872 14.165)">
                    <path id="Path_390" data-name="Path 390" d="M419.658,299.5l-2.1-1.211c-.168-.1-.147-.267.047-.379l2.077-1.2a.73.73,0,0,1,.657-.027l2.1,1.21c.168.1.147.267-.047.379l-2.077,1.2A.729.729,0,0,1,419.658,299.5Z" transform="translate(-417.448 -296.617)" fill="#c3e1ea" stroke="#c3e1ea" stroke-miterlimit="10" stroke-width="1"/>
                  </g>
                  <g id="Group_496" data-name="Group 496" transform="translate(39.109 16.034)">
                    <path id="Path_391" data-name="Path 391" d="M428.02,304.328l-2.1-1.21c-.168-.1-.147-.267.047-.379l2.077-1.2a.73.73,0,0,1,.657-.027l2.1,1.21c.168.1.147.267-.047.379l-2.077,1.2A.73.73,0,0,1,428.02,304.328Z" transform="translate(-425.81 -301.447)" fill="#c3e1ea" stroke="#c3e1ea" stroke-miterlimit="10" stroke-width="1"/>
                  </g>
                  <g id="Group_497" data-name="Group 497" transform="translate(42.347 17.903)">
                    <path id="Path_392" data-name="Path 392" d="M436.384,309.158l-2.1-1.211c-.168-.1-.147-.267.047-.379l2.077-1.2a.73.73,0,0,1,.657-.027l2.1,1.21c.168.1.147.267-.047.379l-2.077,1.2a.73.73,0,0,1-.657.027Z" transform="translate(-434.174 -306.277)" fill="#c3e1ea" stroke="#c3e1ea" stroke-miterlimit="10" stroke-width="1"/>
                  </g>
                  <g id="Group_498" data-name="Group 498" transform="translate(45.584 19.772)">
                    <path id="Path_393" data-name="Path 393" d="M444.749,313.988l-2.1-1.21c-.168-.1-.147-.267.047-.379l2.077-1.2a.73.73,0,0,1,.657-.027l2.1,1.211c.168.1.147.267-.047.379l-2.077,1.2A.73.73,0,0,1,444.749,313.988Z" transform="translate(-442.539 -311.107)" fill="#c3e1ea" stroke="#c3e1ea" stroke-miterlimit="10" stroke-width="1"/>
                  </g>
                  <g id="Group_499" data-name="Group 499" transform="translate(48.821 21.641)">
                    <path id="Path_394" data-name="Path 394" d="M453.114,318.817l-2.1-1.21c-.168-.1-.147-.267.047-.379l2.077-1.2A.73.73,0,0,1,453.8,316l2.1,1.21c.168.1.147.267-.047.379l-2.077,1.2A.73.73,0,0,1,453.114,318.817Z" transform="translate(-450.904 -315.936)" fill="#c3e1ea" stroke="#c3e1ea" stroke-miterlimit="10" stroke-width="1"/>
                  </g>
                  <g id="Group_500" data-name="Group 500" transform="translate(52.058 23.51)">
                    <path id="Path_395" data-name="Path 395" d="M461.479,323.648l-2.1-1.21c-.168-.1-.147-.267.047-.379l2.077-1.2a.73.73,0,0,1,.657-.027l2.1,1.211c.168.1.147.267-.047.379l-2.077,1.2A.73.73,0,0,1,461.479,323.648Z" transform="translate(-459.269 -320.767)" fill="#c3e1ea" stroke="#c3e1ea" stroke-miterlimit="10" stroke-width="1"/>
                  </g>
                  <g id="Group_501" data-name="Group 501" transform="translate(3.575 6.434)">
                    <path id="Path_396" data-name="Path 396" d="M340.275,281.877l-6.174-3.564c-.168-.1-.147-.267.047-.379l2.077-1.2a.729.729,0,0,1,.656-.027l6.174,3.564c.168.1.147.267-.047.379l-2.077,1.2A.729.729,0,0,1,340.275,281.877Z" transform="translate(-333.988 -276.642)" fill="#c3e1ea" stroke="#c3e1ea" stroke-miterlimit="10" stroke-width="1"/>
                  </g>
                  <g id="Group_502" data-name="Group 502" transform="translate(43.345 29.396)">
                    <path id="Path_397" data-name="Path 397" d="M443.043,341.212l-6.174-3.564c-.168-.1-.147-.267.047-.379l2.077-1.2a.73.73,0,0,1,.657-.027l6.174,3.564c.168.1.147.267-.047.379l-2.077,1.2A.731.731,0,0,1,443.043,341.212Z" transform="translate(-436.755 -335.978)" fill="#c3e1ea" stroke="#c3e1ea" stroke-miterlimit="10" stroke-width="1"/>
                  </g>
                  <g id="Group_503" data-name="Group 503" transform="translate(34.477 28.174)">
                    <path id="Path_398" data-name="Path 398" d="M416.048,335.929l-2.1-1.21c-.168-.1-.147-.267.047-.379l2.474-1.429a.73.73,0,0,1,.657-.027l2.1,1.21c.168.1.147.267-.047.379L416.7,335.9A.729.729,0,0,1,416.048,335.929Z" transform="translate(-413.838 -332.819)" fill="#c3e1ea" stroke="#c3e1ea" stroke-miterlimit="10" stroke-width="1"/>
                  </g>
                  <g id="Group_504" data-name="Group 504" transform="translate(9.712 13.877)">
                    <path id="Path_399" data-name="Path 399" d="M353.31,299.711l-3.353-1.935c-.168-.1-.147-.267.047-.379l2.474-1.429a.73.73,0,0,1,.657-.027l3.352,1.936c.168.1.147.267-.047.379l-2.474,1.428a.73.73,0,0,1-.657.027Z" transform="translate(-349.844 -295.876)" fill="#c3e1ea" stroke="#c3e1ea" stroke-miterlimit="10" stroke-width="1"/>
                  </g>
                  <g id="Group_505" data-name="Group 505" transform="translate(30.101 25.648)">
                    <path id="Path_400" data-name="Path 400" d="M406,330.128l-3.353-1.935c-.168-.1-.147-.267.047-.379l2.474-1.428a.73.73,0,0,1,.657-.028l3.353,1.936c.168.1.147.267-.047.379l-2.474,1.428A.73.73,0,0,1,406,330.128Z" transform="translate(-402.532 -326.293)" fill="#c3e1ea" stroke="#c3e1ea" stroke-miterlimit="10" stroke-width="1"/>
                  </g>
                  <g id="Group_506" data-name="Group 506" transform="translate(14.382 16.573)">
                    <path id="Path_401" data-name="Path 401" d="M365.38,306.676l-3.353-1.936c-.168-.1-.147-.267.047-.379l2.474-1.429a.731.731,0,0,1,.657-.027l3.353,1.936c.168.1.147.267-.047.379l-2.474,1.429A.73.73,0,0,1,365.38,306.676Z" transform="translate(-361.913 -302.84)" fill="#c3e1ea" stroke="#c3e1ea" stroke-miterlimit="10" stroke-width="1"/>
                  </g>
                  <g id="Group_507" data-name="Group 507" transform="translate(14.519 16.651)">
                    <path id="Path_402" data-name="Path 402" d="M365.444,303.039l14.576,8.415a.2.2,0,0,1,0,.378l-2.523,1.457a.724.724,0,0,1-.655,0l-14.575-8.415Z" transform="translate(-362.266 -303.039)" fill="#c3e1ea" stroke="#c3e1ea" stroke-miterlimit="10" stroke-width="1"/>
                  </g>
                  <g id="Group_508" data-name="Group 508" transform="translate(44.052 34.62)">
                    <path id="Path_403" data-name="Path 403" d="M440.264,349.526l2.335,1.348c.138.08.121.219-.038.311l-1.012.584a.6.6,0,0,1-.538.022l-2.335-1.348c-.138-.08-.121-.219.039-.311l1.012-.584A.6.6,0,0,1,440.264,349.526Z" transform="translate(-438.582 -349.473)" fill="#c3e1ea" stroke="#c3e1ea" stroke-miterlimit="10" stroke-width="1"/>
                  </g>
                  <g id="Group_509" data-name="Group 509" transform="translate(40.788 32.736)">
                    <path id="Path_404" data-name="Path 404" d="M431.833,344.659l2.335,1.348c.138.08.121.219-.039.311l-1.012.584a.6.6,0,0,1-.538.022l-2.334-1.348c-.138-.08-.121-.219.039-.311l1.012-.584A.6.6,0,0,1,431.833,344.659Z" transform="translate(-430.152 -344.606)" fill="#c3e1ea" stroke="#c3e1ea" stroke-miterlimit="10" stroke-width="1"/>
                  </g>
                  <g id="Group_510" data-name="Group 510" transform="translate(37.551 30.866)">
                    <path id="Path_405" data-name="Path 405" d="M423.464,339.828l2.335,1.348c.138.08.121.219-.039.311l-1.012.584a.6.6,0,0,1-.538.022l-2.335-1.348c-.138-.08-.121-.219.039-.311l1.012-.584A.6.6,0,0,1,423.464,339.828Z" transform="translate(-421.782 -339.775)" fill="#c3e1ea" stroke="#c3e1ea" stroke-miterlimit="10" stroke-width="1"/>
                  </g>
                  <g id="Group_511-2" data-name="Group 511" transform="translate(42.575 31.703)">
                    <path id="Path_406" data-name="Path 406" d="M436.448,341.988l2.335,1.348c.138.08.121.219-.038.311l-1.012.584a.6.6,0,0,1-.538.022l-2.335-1.348c-.138-.08-.121-.219.038-.311l1.012-.584A.6.6,0,0,1,436.448,341.988Z" transform="translate(-434.766 -341.934)" fill="#c3e1ea" stroke="#c3e1ea" stroke-miterlimit="10" stroke-width="1"/>
                  </g>
                </g>
                <g id="Group_521" data-name="Group 521" transform="translate(49.151 13.675)">
                  <g id="Group_513" data-name="Group 513" transform="translate(8.836 12.93)">
                    <path id="Path_407" data-name="Path 407" d="M444.537,230.091,427.1,220.024l.224-1.134,17.437,10.068Z" transform="translate(-427.1 -218.89)" fill="none" stroke="#c3e1ea" stroke-miterlimit="10" stroke-width="1"/>
                  </g>
                  <g id="Group_514-2" data-name="Group 514" transform="translate(7.856 17.883)">
                    <path id="Path_408" data-name="Path 408" d="M436.737,239.849l-12.172-7.027.224-1.134,12.172,7.028Z" transform="translate(-424.565 -231.688)" fill="none" stroke="#c3e1ea" stroke-miterlimit="10" stroke-width="1"/>
                  </g>
                  <g id="Group_515" data-name="Group 515" transform="translate(8.346 15.406)">
                    <path id="Path_409" data-name="Path 409" d="M436.361,232.5l-10.53-6.08.224-1.134,10.53,6.08Z" transform="translate(-425.831 -225.289)" fill="none" stroke="#c3e1ea" stroke-miterlimit="10" stroke-width="1"/>
                  </g>
                  <g id="Group_516" data-name="Group 516" transform="translate(20.518 22.433)">
                    <path id="Path_410" data-name="Path 410" d="M462.549,247.618l-5.265-3.04.224-1.134,5.265,3.04Z" transform="translate(-457.284 -243.444)" fill="none" stroke="#c3e1ea" stroke-miterlimit="10" stroke-width="1"/>
                  </g>
                  <g id="Group_517" data-name="Group 517" transform="translate(1.713)">
                    <path id="Path_411" data-name="Path 411" d="M413.955,189.652l-5.265-3.04.224-1.134,5.265,3.04Z" transform="translate(-408.69 -185.479)" fill="none" stroke="#c3e1ea" stroke-miterlimit="10" stroke-width="1"/>
                  </g>
                  <g id="Group_518" data-name="Group 518" transform="translate(1.143 2.635)">
                    <path id="Path_412" data-name="Path 412" d="M412.482,196.46l-5.265-3.04.224-1.133,5.265,3.039Z" transform="translate(-407.217 -192.287)" fill="none" stroke="#c3e1ea" stroke-miterlimit="10" stroke-width="1"/>
                  </g>
                  <g id="Group_519" data-name="Group 519" transform="translate(26.984 39.175)">
                    <path id="Path_413" data-name="Path 413" d="M479.255,290.882l-5.265-3.04.224-1.134,5.265,3.04Z" transform="translate(-473.99 -286.709)" fill="none" stroke="#c3e1ea" stroke-miterlimit="10" stroke-width="1"/>
                  </g>
                  <g id="Group_520" data-name="Group 520" transform="translate(0 7.903)">
                    <path id="Path_414" data-name="Path 414" d="M409.53,210.074l-5.265-3.04.224-1.134,5.265,3.04Z" transform="translate(-404.265 -205.9)" fill="none" stroke="#c3e1ea" stroke-miterlimit="10" stroke-width="1"/>
                  </g>
                </g>
                <g id="Group_526" data-name="Group 526" transform="translate(64.44 25.435)">
                  <g id="Group_522" data-name="Group 522" transform="translate(0 0)">
                    <path id="Path_415" data-name="Path 415" d="M445.136,216.99a.657.657,0,0,1-.947.292.825.825,0,0,1-.339-1.034.657.657,0,0,1,.947-.291A.823.823,0,0,1,445.136,216.99Z" transform="translate(-443.784 -215.857)" fill="none" stroke="#c3e1ea" stroke-miterlimit="10" stroke-width="1"/>
                  </g>
                  <g id="Group_523" data-name="Group 523" transform="translate(2.268 1.309)">
                    <path id="Path_416" data-name="Path 416" d="M451,220.374a.657.657,0,0,1-.947.291.824.824,0,0,1-.339-1.034.657.657,0,0,1,.947-.292A.824.824,0,0,1,451,220.374Z" transform="translate(-449.645 -219.241)" fill="none" stroke="#c3e1ea" stroke-miterlimit="10" stroke-width="1"/>
                  </g>
                  <g id="Group_524" data-name="Group 524" transform="translate(4.535 2.619)">
                    <path id="Path_417" data-name="Path 417" d="M456.856,223.757a.657.657,0,0,1-.947.292.824.824,0,0,1-.339-1.034.657.657,0,0,1,.947-.291A.824.824,0,0,1,456.856,223.757Z" transform="translate(-455.503 -222.624)" fill="none" stroke="#c3e1ea" stroke-miterlimit="10" stroke-width="1"/>
                  </g>
                  <g id="Group_525" data-name="Group 525" transform="translate(6.804 3.928)">
                    <path id="Path_418" data-name="Path 418" d="M462.717,227.14a.657.657,0,0,1-.947.291.824.824,0,0,1-.339-1.034.657.657,0,0,1,.947-.291A.825.825,0,0,1,462.717,227.14Z" transform="translate(-461.365 -226.007)" fill="none" stroke="#c3e1ea" stroke-miterlimit="10" stroke-width="1"/>
                  </g>
                </g>
                <g id="Group_527" data-name="Group 527" transform="translate(20.548 63.466)">
                  <path id="Path_419" data-name="Path 419" d="M343.8,327.425l-13.186-7.613c-.384-.222-.336-.609.108-.865l7.957-4.594a1.664,1.664,0,0,1,1.5-.062l13.186,7.613c.384.222.336.609-.108.865l-7.957,4.594A1.666,1.666,0,0,1,343.8,327.425Z" transform="translate(-330.354 -314.141)" fill="none" stroke="#c3e1ea" stroke-miterlimit="10" stroke-width="1"/>
                </g>
              </g>
            </g>
          </g>
        </g>
        <g id="Group_463-2" data-name="Group 463" transform="translate(0 30.425)">
          <g id="Group_565" data-name="Group 565" transform="translate(26.926 69.534)">
            <path id="Path_443" data-name="Path 443" d="M199.964,360.514a.571.571,0,0,1-.289-.079l-30.426-18.018a.569.569,0,1,1,.579-.979l30.428,18.018a.569.569,0,0,1-.291,1.058Z" transform="translate(-168.969 -341.358)" fill="none" stroke="#6e7d76" stroke-miterlimit="10" stroke-width="1"/>
          </g>
          <g id="Group_458-3" data-name="Group 458" transform="translate(0 0)">
            <g id="Group_563" data-name="Group 563" transform="translate(78.05)">
              <g id="Group_553" data-name="Group 553" transform="translate(24.546 22.24)">
                <g id="Group_546" data-name="Group 546" transform="translate(31.472 169.027)">
                  <path id="Path_427" data-name="Path 427" d="M305.188,369.027a6.467,6.467,0,0,1,3.65,6.469,10.844,10.844,0,0,1-.532,3.163c-.751,1.578-3.214,3.741-7.142,2.188s-12.658-9.753-12.984-15.121C287.573,355.755,298.974,366.372,305.188,369.027Z" transform="translate(-288.156 -361.537)" stroke="#6e7d76" stroke-miterlimit="10" stroke-width="1"/>
                </g>
                <g id="Group_547" data-name="Group 547" transform="translate(0 185.412)">
                  <path id="Path_428" data-name="Path 428" d="M292.4,380.156s.941,5.748.485,6.8-3.193,3.3-7.234,2.817-15.663-4.495-18.254-12.155c-4.013-11.877,22.439.89,22.439.89Z" transform="translate(-266.987 -372.562)" stroke="#6e7d76" stroke-miterlimit="10" stroke-width="1"/>
                </g>
                <g id="Group_548" data-name="Group 548" transform="translate(13.158 95.805)">
                  <path id="Path_429" data-name="Path 429" d="M276.739,317.585l-.9,89.739a6.287,6.287,0,0,0,4.889,6.22c.34.058.7.1,1.093.138a5.586,5.586,0,0,0,5.331-2.206,6.576,6.576,0,0,0,1.2-3.622l1.146-38.309,5.719-34.251,7.914,60.621a5.238,5.238,0,0,0,2.175,3.993,6.067,6.067,0,0,0,3.607.978,6.63,6.63,0,0,0,4.8-2.362,4.812,4.812,0,0,0,1.146-3.246l-3.138-36.474-1.167-46.524Z" transform="translate(-275.838 -312.281)" fill="#cfe1e6" stroke="#6e7d76" stroke-miterlimit="10" stroke-width="1"/>
                </g>
                <g id="Group_549" data-name="Group 549" transform="translate(18.549 20.781)">
                  <path id="Path_430" data-name="Path 430" d="M286.595,261.8l1.42,8.178a3.748,3.748,0,0,1-3.064,3.563c-3.115.773-4.077-1.238-4.077-1.238l-1.409-9.209Z" transform="translate(-279.465 -261.8)" fill="#d37c59" stroke="#6e7d76" stroke-miterlimit="10" stroke-width="1"/>
                </g>
                <g id="Group_550" data-name="Group 550" transform="translate(4.802 0)">
                  <path id="Path_431" data-name="Path 431" d="M274.465,268.847c5.205,5.184,13.154,5.618,17.753.969s4.11-12.622-1.1-17.8-13.152-5.618-17.753-.969S269.259,263.664,274.465,268.847Z" transform="translate(-270.216 -247.821)" fill="#de8e68" stroke="#6e7d76" stroke-miterlimit="10" stroke-width="1"/>
                </g>
                <g id="Group_551" data-name="Group 551" transform="translate(10.132 25.416)">
                  <path id="Path_432" data-name="Path 432" d="M288.979,268.609c.216-.088,13.216-8.459,18.022.3,7.836,14.284,7.375,60.265,4.9,66.221-2.289,5.513-8.007,9.575-12.014,11.865a23.988,23.988,0,0,1-11.662,3.318c-4.062.033-11.854-3.579-11.57-8.89,1.3-24.428-.858-45.018-2.854-65C273.8,276.427,276.295,273.744,288.979,268.609Z" transform="translate(-273.802 -264.917)" fill="#ffd278"/>
                </g>
              </g>
              <g id="Group_554" data-name="Group 554" transform="translate(1.216 29.36)">
                <path id="Path_434" data-name="Path 434" d="M258.353,277.294l-7.064-23.137,3.731-1.547,8.328,18.131Z" transform="translate(-251.289 -252.61)" fill="#ffd167"/>
              </g>
              <g id="Group_555" data-name="Group 555" transform="translate(69.982 11.719)">
                <path id="Path_435" data-name="Path 435" d="M307.066,264.828l-5.3-24.089-4.217.047,1.584,19.978Z" transform="translate(-297.554 -240.739)" fill="#ffd167"/>
              </g>
              <g id="Group_556" data-name="Group 556" transform="translate(8.199 45.816)">
                <path id="Path_436" data-name="Path 436" d="M282.466,277.03s-12.693,2.532-20.764-12.246a2.007,2.007,0,0,0-3.349-.352c-1.295,1.972-3.008,4.993-2.121,8.257,3.931,14.444,25.269,17.635,29.1,26.013S282.466,277.03,282.466,277.03Z" transform="translate(-255.988 -263.68)" fill="#ffd278"/>
              </g>
              <g id="Group_557" data-name="Group 557" transform="translate(58.101 30.002)">
                <path id="Path_437" data-name="Path 437" d="M289.561,271.385s10.052.773,11.5-7.928a66.581,66.581,0,0,0,1.011-8.7,1.754,1.754,0,0,1,1.971-1.7c2.408.3,6.134,1.017,6.639,2.629.755,2.409,2.176,14.224-7.753,32.353C296.424,299.913,289.561,271.385,289.561,271.385Z" transform="translate(-289.561 -253.041)" fill="#ffd278"/>
              </g>
              <g id="Group_558" data-name="Group 558" transform="translate(63.992)">
                <path id="Path_438" data-name="Path 438" d="M303.746,244.633l-.1-2.747a5.661,5.661,0,0,0-.82-2.742l-2.785-4.573-.727-.915a2.116,2.116,0,0,0-2.782-.476l-.641.4a2.632,2.632,0,0,0-1.225,2.4l1.439,3.908-1.821-.352a.647.647,0,0,0-.76.52h0a.645.645,0,0,0,.394.713l2.974,1.2,2.7,3.823Z" transform="translate(-293.517 -232.855)" fill="#de8e68" stroke="#6e7d76" stroke-miterlimit="10" stroke-width="1"/>
              </g>
              <g id="Group_559" data-name="Group 559" transform="translate(0 17.758)">
                <path id="Path_439" data-name="Path 439" d="M251.588,258.073l-.841-2.616a5.654,5.654,0,0,1-.161-2.858l1.066-5.248.373-1.107a2.115,2.115,0,0,1,2.455-1.391l.739.161a2.635,2.635,0,0,1,1.966,1.837l-.028,4.166,1.593-.951a.648.648,0,0,1,.892.232h0a.646.646,0,0,1-.129.806l-2.39,2.139-1.4,5.073Z" transform="translate(-250.473 -244.804)" fill="#de8e68" stroke="#6e7d76" stroke-miterlimit="10" stroke-width="1"/>
              </g>
              <g id="Group_560" data-name="Group 560" transform="translate(13.882 63.567)">
                <path id="Path_440" data-name="Path 440" d="M286.552,288.724c1.158,5.278-2.088,46.243,8.48,56.384-4.062.033-11.852-3.581-11.57-8.89a325.063,325.063,0,0,0-.969-44.922c-4.146-5.37-15.547-8.789-22.682-15.675C260.335,275.782,285.407,283.5,286.552,288.724Z" transform="translate(-259.812 -275.622)" fill="#ffd278"/>
              </g>
              <g id="Group_561" data-name="Group 561" transform="translate(41.933 47.184)">
                <path id="Path_441" data-name="Path 441" d="M291.279,266.454l-1.8-1.854s-2.971,3.034-5.355,3.56a28.093,28.093,0,0,1-4.275.886l-1.162,3.2S288.138,271.571,291.279,266.454Z" transform="translate(-278.682 -264.6)" fill="#fcc486"/>
              </g>
              <g id="Group_562" data-name="Group 562" transform="translate(23.465 19.471)">
                <path id="Path_442" data-name="Path 442" d="M284.012,266.012a1.525,1.525,0,0,1-1.4,0c-.768-.4-2.014-3.459-3.612-3.236-2.5.349-6.121,5.6-10.627-1.723-2.343-3.806-.969-5.861-2.109-8.02,0,0,.4,1.173,10.212-4.817s17.836,1.311,20.323,5.485,4.1,12.329-2.336,16.932c-1.069.763-7.94-.6-8.081-1.174s1.7-1.5.658-2.85A2.159,2.159,0,0,0,284.012,266.012Z" transform="translate(-266.263 -245.952)"/>
              </g>
            </g>
            <g id="Group_384" data-name="Group 384" transform="translate(0 112.515)" opacity="0.5">
              <path id="Path_291" data-name="Path 291" d="M147.8,350.188l37.807-21.558c1.383-.8,1.209-2.193-.387-3.114l-21.754-12.56a6,6,0,0,0-5.394-.224l-37.807,21.559c-1.382.8-1.21,2.192.387,3.114l21.754,12.559A6,6,0,0,0,147.8,350.188Z" transform="translate(-119.331 -312.194)" stroke="#6e7d76" stroke-miterlimit="10" stroke-width="1"/>
            </g>
            <g id="Group_669" data-name="Group 669" transform="translate(0 16.8)">
              <g id="Group_668" data-name="Group 668" transform="translate(0 0)">
                <g id="Group_604" data-name="Group 604">
                  <g id="Group_579" data-name="Group 579">
                    <g id="Group_566" data-name="Group 566" transform="translate(0.003 11.527)">
                      <path id="Path_444" data-name="Path 444" d="M119.341,284.683h0v-86.5l34.389-9,6.334-3.657a6.3,6.3,0,0,1,5.671.235l5.91,3.412,18.342-.01-5.431,83.506a1.644,1.644,0,0,1-.974,1.52L149.264,300.08a6.306,6.306,0,0,1-5.671-.235l-22.871-13.2A2.246,2.246,0,0,1,119.341,284.683Z" transform="translate(-119.337 -184.957)" fill="#e077ff" stroke="#fff" stroke-miterlimit="10" stroke-width="1"/>
                    </g>
                    <g id="Group_567" data-name="Group 567" transform="translate(26.889 11.531)">
                      <path id="Path_445" data-name="Path 445" d="M174.883,184.964a6.542,6.542,0,0,1,3.04.8l5.91,3.412,18.342-.01V275.9a1.642,1.642,0,0,1-.974,1.519l-39.749,22.666a5.132,5.132,0,0,1-2.632.562l-.41-87.277Z" transform="translate(-158.41 -184.964)" fill="#e077ff" stroke="#fff" stroke-miterlimit="10" stroke-width="1"/>
                    </g>
                    <g id="Group_568" data-name="Group 568" transform="translate(25.032 38.904)">
                      <path id="Path_446" data-name="Path 446" d="M160.244,312.667a6.459,6.459,0,0,1-4.533-.051V224.743h4.533Z" transform="translate(-155.711 -224.743)" fill="#e077ff" stroke="#fff" stroke-miterlimit="10" stroke-width="1"/>
                    </g>
                    <g id="Group_569" data-name="Group 569">
                      <path id="Path_447" data-name="Path 447" d="M149.262,208.151l39.749-22.665c1.454-.84,1.272-2.306-.407-3.275l-22.871-13.2a6.3,6.3,0,0,0-5.671-.235l-39.749,22.665c-1.453.84-1.272,2.305.407,3.274l22.871,13.2A6.3,6.3,0,0,0,149.262,208.151Z" transform="translate(-119.331 -168.206)" fill="#e077ff" stroke="#fff" stroke-miterlimit="10" stroke-width="1"/>
                    </g>
                    <g id="Group_570" data-name="Group 570" transform="translate(0.004 15.028)">
                      <path id="Path_448" data-name="Path 448" d="M120.722,199.915l22.871,13.2a6.306,6.306,0,0,0,5.671.235l39.749-22.666a2.187,2.187,0,0,0,.725-.643,1.523,1.523,0,0,1-.725,2.252l-39.749,22.665a6.3,6.3,0,0,1-5.671-.235l-22.871-13.2c-1.3-.753-1.7-1.8-1.133-2.631a3.169,3.169,0,0,0,1.133,1.022Z" transform="translate(-119.337 -190.046)" fill="#e077ff" stroke="#fff" stroke-miterlimit="10" stroke-width="1"/>
                    </g>
                    <g id="Group_578" data-name="Group 578" transform="translate(14.8 7.333)">
                      <g id="Group_571" data-name="Group 571" transform="translate(0 0)">
                        <path id="Path_449" data-name="Path 449" d="M154.847,202.289l26.464-15.34c.68-.393.595-1.079-.191-1.532l-10.7-6.179a2.952,2.952,0,0,0-2.654-.11L141.3,194.468c-.68.392-.594,1.078.191,1.532l10.7,6.179A2.95,2.95,0,0,0,154.847,202.289Z" transform="translate(-140.841 -178.862)" fill="#e077ff" stroke="#fff" stroke-miterlimit="10" stroke-width="1"/>
                      </g>
                      <g id="Group_576" data-name="Group 576" transform="translate(10.985 6.771)">
                        <g id="Group_572" data-name="Group 572" transform="translate(15.37 0)">
                          <path id="Path_450" data-name="Path 450" d="M181.081,190.709l1.534-.885c.094-.054.082-.149-.027-.212l-1.481-.855a.407.407,0,0,0-.367-.015l-1.534.885c-.094.054-.082.149.027.212l1.48.855A.409.409,0,0,0,181.081,190.709Z" transform="translate(-179.143 -188.706)" fill="#e077ff" stroke="#fff" stroke-miterlimit="10" stroke-width="1"/>
                        </g>
                        <g id="Group_573" data-name="Group 573" transform="translate(10.247 2.946)">
                          <path id="Path_451" data-name="Path 451" d="M173.639,194.99l1.533-.885c.094-.054.082-.149-.026-.212l-1.481-.855a.409.409,0,0,0-.367-.015l-1.533.886c-.094.054-.083.149.026.212l1.481.855A.407.407,0,0,0,173.639,194.99Z" transform="translate(-171.701 -192.987)" fill="#e077ff" stroke="#fff" stroke-miterlimit="10" stroke-width="1"/>
                        </g>
                        <g id="Group_574" data-name="Group 574" transform="translate(5.124 5.891)">
                          <path id="Path_452" data-name="Path 452" d="M166.193,199.272l1.534-.886c.094-.054.082-.149-.026-.212l-1.481-.855a.409.409,0,0,0-.367-.015l-1.534.886c-.094.054-.082.149.027.212l1.481.855A.407.407,0,0,0,166.193,199.272Z" transform="translate(-164.256 -197.268)" fill="#e077ff" stroke="#fff" stroke-miterlimit="10" stroke-width="1"/>
                        </g>
                        <g id="Group_575" data-name="Group 575" transform="translate(0 8.837)">
                          <path id="Path_453" data-name="Path 453" d="M158.741,203.552l1.533-.886c.094-.054.083-.149-.026-.212l-1.481-.855a.407.407,0,0,0-.367-.016l-1.534.886c-.094.054-.083.149.026.212l1.481.855A.409.409,0,0,0,158.741,203.552Z" transform="translate(-156.802 -201.548)" fill="#e077ff" stroke="#fff" stroke-miterlimit="10" stroke-width="1"/>
                        </g>
                      </g>
                      <g id="Group_577" data-name="Group 577" transform="translate(0.004 0)">
                        <path id="Path_454" data-name="Path 454" d="M181.313,186.949l-.032.018a1.879,1.879,0,0,0-.159-.109l-10.7-6.179a2.949,2.949,0,0,0-2.654-.109L141.333,195.89c-.627-.448-.66-1.06-.032-1.422l26.464-15.341a2.952,2.952,0,0,1,2.654.11l10.7,6.179C181.907,185.87,181.992,186.556,181.313,186.949Z" transform="translate(-140.846 -178.862)" fill="#e077ff" stroke="#fff" stroke-miterlimit="10" stroke-width="1"/>
                      </g>
                    </g>
                  </g>
                  <g id="Group_585" data-name="Group 585" transform="translate(3.214 38.816)">
                    <g id="Group_580" data-name="Group 580" transform="translate(0 0)">
                      <path id="Path_455" data-name="Path 455" d="M140.58,242.888l-15.047-8.616A3.67,3.67,0,0,1,124,231.344v-5.381c0-1.128.686-1.647,1.533-1.159l15.046,8.615a3.674,3.674,0,0,1,1.533,2.929v5.381C142.113,242.858,141.426,243.377,140.58,242.888Z" transform="translate(-124 -224.62)" fill="#e077ff" stroke="#fff" stroke-miterlimit="10" stroke-width="1"/>
                    </g>
                    <g id="Group_581" data-name="Group 581" transform="translate(0 0.021)">
                      <path id="Path_456" data-name="Path 456" d="M124.788,224.647a1.5,1.5,0,0,0-.384,1.12v5.381a3.671,3.671,0,0,0,1.533,2.929l15.046,8.615a1.1,1.1,0,0,0,.745.162.915.915,0,0,1-1.148.04l-15.046-8.616A3.668,3.668,0,0,1,124,231.349v-5.381C124,225.2,124.32,224.727,124.788,224.647Z" transform="translate(-124 -224.647)" fill="#e077ff" stroke="#fff" stroke-miterlimit="10" stroke-width="1"/>
                    </g>
                    <g id="Group_584" data-name="Group 584" transform="translate(5.725 6.556)">
                      <g id="Group_582" data-name="Group 582" transform="translate(4.615 2.664)">
                        <path id="Path_457" data-name="Path 457" d="M140.744,241.22l-1.38-.8a.8.8,0,0,1-.334-.639V238.31c0-.246.15-.359.334-.253l1.38.8a.8.8,0,0,1,.335.638v1.475C141.078,241.213,140.928,241.327,140.744,241.22Z" transform="translate(-139.029 -238.018)" fill="#e077ff" stroke="#fff" stroke-miterlimit="10" stroke-width="1"/>
                      </g>
                      <g id="Group_583" data-name="Group 583" transform="translate(0 0)">
                        <path id="Path_458" data-name="Path 458" d="M134.038,237.352l-1.38-.8a.8.8,0,0,1-.334-.639v-1.473c0-.246.149-.359.334-.253l1.38.8a.8.8,0,0,1,.333.638V237.1C134.371,237.345,134.222,237.458,134.038,237.352Z" transform="translate(-132.323 -234.15)" fill="#e077ff" stroke="#fff" stroke-miterlimit="10" stroke-width="1"/>
                      </g>
                    </g>
                  </g>
                  <g id="Group_591" data-name="Group 591" transform="translate(3.214 77.698)">
                    <g id="Group_586" data-name="Group 586" transform="translate(0 0)">
                      <path id="Path_459" data-name="Path 459" d="M140.58,299.392l-15.047-8.616A3.67,3.67,0,0,1,124,287.847v-5.381c0-1.129.686-1.648,1.533-1.159l15.047,8.614a3.673,3.673,0,0,1,1.533,2.929v5.381C142.113,299.362,141.426,299.881,140.58,299.392Z" transform="translate(-124 -281.124)" fill="#e077ff" stroke="#fff" stroke-miterlimit="10" stroke-width="1"/>
                    </g>
                    <g id="Group_587" data-name="Group 587" transform="translate(0 0.022)">
                      <path id="Path_460" data-name="Path 460" d="M124.788,281.155a1.5,1.5,0,0,0-.384,1.12v5.381a3.671,3.671,0,0,0,1.533,2.929l15.046,8.615a1.105,1.105,0,0,0,.745.163.915.915,0,0,1-1.148.04l-15.047-8.615A3.67,3.67,0,0,1,124,287.857v-5.381C124,281.71,124.32,281.235,124.788,281.155Z" transform="translate(-124 -281.155)" fill="#e077ff" stroke="#fff" stroke-miterlimit="10" stroke-width="1"/>
                    </g>
                    <g id="Group_590" data-name="Group 590" transform="translate(5.725 6.557)">
                      <g id="Group_588" data-name="Group 588" transform="translate(4.615 2.664)">
                        <path id="Path_461" data-name="Path 461" d="M140.744,297.73l-1.38-.8a.8.8,0,0,1-.334-.638V294.82c0-.246.15-.359.334-.253l1.38.8a.8.8,0,0,1,.335.639v1.473C141.078,297.723,140.928,297.837,140.744,297.73Z" transform="translate(-139.029 -294.528)" fill="#e077ff" stroke="#fff" stroke-miterlimit="10" stroke-width="1"/>
                      </g>
                      <g id="Group_589" data-name="Group 589" transform="translate(0 0)">
                        <path id="Path_462" data-name="Path 462" d="M134.038,293.86l-1.38-.8a.8.8,0,0,1-.334-.638v-1.473c0-.246.149-.359.334-.253l1.38.8a.8.8,0,0,1,.333.638v1.475C134.371,293.854,134.222,293.966,134.038,293.86Z" transform="translate(-132.323 -290.658)" fill="#e077ff" stroke="#fff" stroke-miterlimit="10" stroke-width="1"/>
                      </g>
                    </g>
                  </g>
                  <g id="Group_597" data-name="Group 597" transform="translate(3.214 97.139)">
                    <g id="Group_592" data-name="Group 592" transform="translate(0 0)">
                      <path id="Path_463" data-name="Path 463" d="M140.58,327.645l-15.047-8.615A3.67,3.67,0,0,1,124,316.1v-5.381c0-1.129.686-1.648,1.533-1.159l15.046,8.615a3.672,3.672,0,0,1,1.533,2.929v5.381C142.113,327.616,141.426,328.135,140.58,327.645Z" transform="translate(-124 -309.378)" fill="#e077ff" stroke="#fff" stroke-miterlimit="10" stroke-width="1"/>
                    </g>
                    <g id="Group_593" data-name="Group 593" transform="translate(0 0.022)">
                      <path id="Path_464" data-name="Path 464" d="M124.788,309.409a1.5,1.5,0,0,0-.384,1.12v5.381a3.671,3.671,0,0,0,1.533,2.929l15.046,8.615a1.106,1.106,0,0,0,.745.162.914.914,0,0,1-1.148.039l-15.047-8.615A3.67,3.67,0,0,1,124,316.111V310.73C124,309.964,124.32,309.489,124.788,309.409Z" transform="translate(-124 -309.409)" fill="#e077ff" stroke="#fff" stroke-miterlimit="10" stroke-width="1"/>
                    </g>
                    <g id="Group_596" data-name="Group 596" transform="translate(5.725 6.556)">
                      <g id="Group_594" data-name="Group 594" transform="translate(4.615 2.665)">
                        <path id="Path_465" data-name="Path 465" d="M140.744,325.981l-1.38-.8a.8.8,0,0,1-.334-.638v-1.475c0-.246.15-.359.334-.253l1.38.8a.8.8,0,0,1,.335.638v1.474C141.078,325.974,140.928,326.087,140.744,325.981Z" transform="translate(-139.029 -322.779)" fill="#e077ff" stroke="#fff" stroke-miterlimit="10" stroke-width="1"/>
                      </g>
                      <g id="Group_595" data-name="Group 595" transform="translate(0 0)">
                        <path id="Path_466" data-name="Path 466" d="M134.038,322.109l-1.38-.8a.8.8,0,0,1-.334-.639V319.2c0-.246.149-.36.334-.253l1.38.8a.8.8,0,0,1,.333.639v1.475C134.371,322.1,134.222,322.216,134.038,322.109Z" transform="translate(-132.323 -318.907)" fill="#e077ff" stroke="#fff" stroke-miterlimit="10" stroke-width="1"/>
                      </g>
                    </g>
                  </g>
                  <g id="Group_603" data-name="Group 603" transform="translate(3.214 58.257)">
                    <g id="Group_598" data-name="Group 598" transform="translate(0 0)">
                      <path id="Path_467" data-name="Path 467" d="M140.58,271.138l-15.047-8.615A3.67,3.67,0,0,1,124,259.594v-5.381c0-1.128.686-1.647,1.533-1.159l15.046,8.615a3.673,3.673,0,0,1,1.533,2.929v5.381C142.113,271.108,141.426,271.627,140.58,271.138Z" transform="translate(-124 -252.87)" fill="#e077ff" stroke="#fff" stroke-miterlimit="10" stroke-width="1"/>
                    </g>
                    <g id="Group_599" data-name="Group 599" transform="translate(0 0.021)">
                      <path id="Path_468" data-name="Path 468" d="M124.788,252.9a1.5,1.5,0,0,0-.384,1.12V259.4a3.672,3.672,0,0,0,1.533,2.929l15.046,8.615a1.105,1.105,0,0,0,.745.162.914.914,0,0,1-1.148.039l-15.047-8.615A3.671,3.671,0,0,1,124,259.6v-5.381C124,253.455,124.32,252.98,124.788,252.9Z" transform="translate(-124 -252.9)" fill="#e077ff" stroke="#fff" stroke-miterlimit="10" stroke-width="1"/>
                    </g>
                    <g id="Group_602" data-name="Group 602" transform="translate(5.725 6.557)">
                      <g id="Group_600" data-name="Group 600" transform="translate(4.615 2.663)">
                        <path id="Path_469" data-name="Path 469" d="M140.744,269.473l-1.38-.8a.8.8,0,0,1-.334-.639v-1.475c0-.246.15-.359.334-.253l1.38.8a.8.8,0,0,1,.335.638v1.473C141.078,269.466,140.928,269.58,140.744,269.473Z" transform="translate(-139.029 -266.271)" fill="#e077ff" stroke="#fff" stroke-miterlimit="10" stroke-width="1"/>
                      </g>
                      <g id="Group_601" data-name="Group 601" transform="translate(0 0)">
                        <path id="Path_470" data-name="Path 470" d="M134.038,265.606l-1.38-.8a.8.8,0,0,1-.334-.639V262.7c0-.246.149-.359.334-.252l1.38.8a.8.8,0,0,1,.333.638v1.475C134.371,265.6,134.222,265.712,134.038,265.606Z" transform="translate(-132.323 -262.405)" fill="#e077ff" stroke="#fff" stroke-miterlimit="10" stroke-width="1"/>
                      </g>
                    </g>
                  </g>
                </g>
                <g id="Group_613" data-name="Group 613" transform="translate(31.419 20.994)">
                  <g id="Group_605" data-name="Group 605" transform="translate(0 0)">
                    <path id="Path_471" data-name="Path 471" d="M166.4,229.3l34.713-20.042a3.37,3.37,0,0,0,1.407-2.688v-6.619c0-1.036-.63-1.512-1.407-1.063L166.4,218.926a3.368,3.368,0,0,0-1.407,2.688v6.619C164.993,229.269,165.623,229.745,166.4,229.3Z" transform="translate(-164.993 -198.715)" fill="#e077ff" stroke="#fff" stroke-miterlimit="10" stroke-width="1"/>
                  </g>
                  <g id="Group_606" data-name="Group 606" transform="translate(1.69 2.404)" opacity="0.4">
                    <path id="Path_472" data-name="Path 472" d="M168.163,228.066l32.72-18.892a1.709,1.709,0,0,0,.714-1.364v-4.976c0-.525-.319-.767-.714-.539l-32.72,18.891a1.709,1.709,0,0,0-.714,1.364v4.976C167.449,228.051,167.768,228.293,168.163,228.066Z" transform="translate(-167.449 -202.209)" fill="#e077ff" stroke="#fff" stroke-miterlimit="10" stroke-width="1"/>
                  </g>
                  <g id="Group_607" data-name="Group 607" transform="translate(27.612 6.041)">
                    <path id="Path_473" data-name="Path 473" d="M205.815,212.248l4.883-2.818a1.661,1.661,0,0,0,.693-1.325h0c0-.51-.31-.744-.693-.524l-4.883,2.818a1.661,1.661,0,0,0-.693,1.325h0C205.122,212.235,205.432,212.469,205.815,212.248Z" transform="translate(-205.122 -207.498)" fill="#e077ff" stroke="#fff" stroke-miterlimit="10" stroke-width="1"/>
                  </g>
                  <g id="Group_608" data-name="Group 608" transform="translate(24.144 10.773)">
                    <path id="Path_474" data-name="Path 474" d="M200.081,215.866c0,.511.359.717.8.461a1.769,1.769,0,0,0,.8-1.386c0-.511-.359-.717-.8-.462a1.77,1.77,0,0,0-.8,1.387Z" transform="translate(-200.081 -214.369)" fill="#e077ff" stroke="#fff" stroke-miterlimit="10" stroke-width="1"/>
                  </g>
                  <g id="Group_609" data-name="Group 609" transform="translate(21.321 12.403)">
                    <path id="Path_475" data-name="Path 475" d="M195.978,218.235c0,.511.359.717.8.461a1.767,1.767,0,0,0,.8-1.386c0-.511-.358-.717-.8-.462A1.77,1.77,0,0,0,195.978,218.235Z" transform="translate(-195.978 -216.738)" fill="#e077ff" stroke="#fff" stroke-miterlimit="10" stroke-width="1"/>
                  </g>
                  <g id="Group_610" data-name="Group 610" transform="translate(18.497 14.034)">
                    <path id="Path_476" data-name="Path 476" d="M191.875,220.607c0,.511.358.717.8.462a1.77,1.77,0,0,0,.8-1.386c0-.511-.359-.717-.8-.462A1.768,1.768,0,0,0,191.875,220.607Z" transform="translate(-191.875 -219.111)" fill="#e077ff" stroke="#fff" stroke-miterlimit="10" stroke-width="1"/>
                  </g>
                  <g id="Group_611" data-name="Group 611" transform="translate(15.673 15.663)">
                    <path id="Path_477" data-name="Path 477" d="M187.771,222.973c0,.511.359.717.8.461a1.766,1.766,0,0,0,.8-1.386c0-.511-.359-.717-.8-.462A1.77,1.77,0,0,0,187.771,222.973Z" transform="translate(-187.771 -221.476)" fill="#e077ff" stroke="#fff" stroke-miterlimit="10" stroke-width="1"/>
                  </g>
                  <g id="Group_612" data-name="Group 612" transform="translate(3.335 21.56)">
                    <path id="Path_478" data-name="Path 478" d="M170.285,233.978l1.645-.95a1.065,1.065,0,0,0,.445-.85v-1.74c0-.327-.2-.478-.445-.336l-1.645.95a1.065,1.065,0,0,0-.445.85v1.74C169.84,233.97,170.039,234.12,170.285,233.978Z" transform="translate(-169.84 -230.049)" fill="#e077ff" stroke="#fff" stroke-miterlimit="10" stroke-width="1"/>
                  </g>
                </g>
                <g id="Group_622" data-name="Group 622" transform="translate(31.419 32.666)">
                  <g id="Group_614" data-name="Group 614" transform="translate(0 0)">
                    <path id="Path_479" data-name="Path 479" d="M166.4,246.262l34.713-20.042a3.37,3.37,0,0,0,1.407-2.688v-6.619c0-1.036-.63-1.512-1.407-1.063L166.4,235.891a3.369,3.369,0,0,0-1.407,2.688v6.62C164.993,246.234,165.623,246.71,166.4,246.262Z" transform="translate(-164.993 -215.68)" fill="#e077ff" stroke="#fff" stroke-miterlimit="10" stroke-width="1"/>
                  </g>
                  <g id="Group_615" data-name="Group 615" transform="translate(1.69 2.404)" opacity="0.4">
                    <path id="Path_480" data-name="Path 480" d="M168.163,245.029l32.72-18.891a1.71,1.71,0,0,0,.714-1.364V219.8c0-.525-.319-.766-.714-.539l-32.72,18.892a1.709,1.709,0,0,0-.714,1.364v4.976C167.449,245.015,167.768,245.257,168.163,245.029Z" transform="translate(-167.449 -219.173)" fill="#e077ff" stroke="#fff" stroke-miterlimit="10" stroke-width="1"/>
                  </g>
                  <g id="Group_616" data-name="Group 616" transform="translate(27.612 6.04)">
                    <path id="Path_481" data-name="Path 481" d="M205.815,229.211l4.883-2.818a1.662,1.662,0,0,0,.693-1.325h0c0-.511-.31-.745-.693-.524l-4.883,2.819a1.661,1.661,0,0,0-.693,1.325h0C205.122,229.2,205.432,229.432,205.815,229.211Z" transform="translate(-205.122 -224.461)" fill="#e077ff" stroke="#fff" stroke-miterlimit="10" stroke-width="1"/>
                  </g>
                  <g id="Group_617" data-name="Group 617" transform="translate(24.144 10.773)">
                    <path id="Path_482" data-name="Path 482" d="M200.081,232.828c0,.51.359.717.8.461a1.769,1.769,0,0,0,.8-1.387c0-.51-.359-.717-.8-.461A1.77,1.77,0,0,0,200.081,232.828Z" transform="translate(-200.081 -231.332)" fill="#e077ff" stroke="#fff" stroke-miterlimit="10" stroke-width="1"/>
                  </g>
                  <g id="Group_618" data-name="Group 618" transform="translate(21.321 12.403)">
                    <path id="Path_483" data-name="Path 483" d="M195.978,235.2c0,.51.359.717.8.461a1.768,1.768,0,0,0,.8-1.387c0-.51-.358-.717-.8-.461A1.77,1.77,0,0,0,195.978,235.2Z" transform="translate(-195.978 -233.701)" fill="#e077ff" stroke="#fff" stroke-miterlimit="10" stroke-width="1"/>
                  </g>
                  <g id="Group_619" data-name="Group 619" transform="translate(18.497 14.033)">
                    <path id="Path_484" data-name="Path 484" d="M191.875,237.568c0,.51.358.717.8.461a1.77,1.77,0,0,0,.8-1.386c0-.511-.359-.717-.8-.462A1.768,1.768,0,0,0,191.875,237.568Z" transform="translate(-191.875 -236.071)" fill="#e077ff" stroke="#fff" stroke-miterlimit="10" stroke-width="1"/>
                  </g>
                  <g id="Group_620" data-name="Group 620" transform="translate(15.673 15.664)">
                    <path id="Path_485" data-name="Path 485" d="M187.771,239.937c0,.51.359.717.8.461a1.769,1.769,0,0,0,.8-1.386c0-.511-.359-.717-.8-.462A1.77,1.77,0,0,0,187.771,239.937Z" transform="translate(-187.771 -238.44)" fill="#e077ff" stroke="#fff" stroke-miterlimit="10" stroke-width="1"/>
                  </g>
                  <g id="Group_621" data-name="Group 621" transform="translate(3.335 21.56)">
                    <path id="Path_486" data-name="Path 486" d="M170.285,250.942l1.645-.95a1.065,1.065,0,0,0,.445-.85V247.4c0-.327-.2-.478-.445-.336l-1.645.95a1.065,1.065,0,0,0-.445.85v1.74C169.84,250.933,170.039,251.084,170.285,250.942Z" transform="translate(-169.84 -247.013)" fill="#e077ff" stroke="#fff" stroke-miterlimit="10" stroke-width="1"/>
                  </g>
                </g>
                <g id="Group_631" data-name="Group 631" transform="translate(31.419 44.339)">
                  <g id="Group_623" data-name="Group 623" transform="translate(0 0)">
                    <path id="Path_487" data-name="Path 487" d="M166.4,263.226l34.713-20.042a3.37,3.37,0,0,0,1.407-2.688v-6.619c0-1.036-.63-1.512-1.407-1.063L166.4,252.855a3.369,3.369,0,0,0-1.407,2.688v6.619C164.993,263.2,165.623,263.674,166.4,263.226Z" transform="translate(-164.993 -232.644)" fill="#e077ff" stroke="#fff" stroke-miterlimit="10" stroke-width="1"/>
                  </g>
                  <g id="Group_624" data-name="Group 624" transform="translate(1.69 2.404)" opacity="0.4">
                    <path id="Path_488" data-name="Path 488" d="M168.166,261.993,200.887,243.1a1.708,1.708,0,0,0,.714-1.364v-4.976c0-.525-.319-.767-.714-.54l-32.72,18.892a1.709,1.709,0,0,0-.714,1.364v4.976C167.452,261.979,167.772,262.221,168.166,261.993Z" transform="translate(-167.453 -236.136)" fill="#e077ff" stroke="#fff" stroke-miterlimit="10" stroke-width="1"/>
                  </g>
                  <g id="Group_625" data-name="Group 625" transform="translate(27.612 6.04)">
                    <path id="Path_489" data-name="Path 489" d="M205.815,246.171l4.883-2.82a1.659,1.659,0,0,0,.693-1.324h0c0-.511-.31-.745-.693-.524l-4.883,2.82a1.66,1.66,0,0,0-.693,1.324h0C205.122,246.158,205.432,246.392,205.815,246.171Z" transform="translate(-205.122 -241.42)" fill="#e077ff" stroke="#fff" stroke-miterlimit="10" stroke-width="1"/>
                  </g>
                  <g id="Group_626" data-name="Group 626" transform="translate(24.144 10.774)">
                    <path id="Path_490" data-name="Path 490" d="M200.081,249.8c0,.511.359.717.8.462a1.769,1.769,0,0,0,.8-1.386c0-.511-.359-.717-.8-.461A1.769,1.769,0,0,0,200.081,249.8Z" transform="translate(-200.081 -248.301)" fill="#e077ff" stroke="#fff" stroke-miterlimit="10" stroke-width="1"/>
                  </g>
                  <g id="Group_627" data-name="Group 627" transform="translate(21.321 12.404)">
                    <path id="Path_491" data-name="Path 491" d="M195.978,252.164c0,.511.359.717.8.462a1.768,1.768,0,0,0,.8-1.386c0-.511-.358-.717-.8-.461A1.77,1.77,0,0,0,195.978,252.164Z" transform="translate(-195.978 -250.669)" fill="#e077ff" stroke="#fff" stroke-miterlimit="10" stroke-width="1"/>
                  </g>
                  <g id="Group_628" data-name="Group 628" transform="translate(18.497 14.034)">
                    <path id="Path_492" data-name="Path 492" d="M191.875,254.532c0,.511.358.717.8.462a1.77,1.77,0,0,0,.8-1.387c0-.511-.359-.717-.8-.461A1.768,1.768,0,0,0,191.875,254.532Z" transform="translate(-191.875 -253.037)" fill="#e077ff" stroke="#fff" stroke-miterlimit="10" stroke-width="1"/>
                  </g>
                  <g id="Group_629" data-name="Group 629" transform="translate(15.673 15.664)">
                    <path id="Path_493" data-name="Path 493" d="M187.771,256.9c0,.511.359.717.8.462a1.769,1.769,0,0,0,.8-1.386c0-.51-.359-.717-.8-.461A1.77,1.77,0,0,0,187.771,256.9Z" transform="translate(-187.771 -255.407)" fill="#e077ff" stroke="#fff" stroke-miterlimit="10" stroke-width="1"/>
                  </g>
                  <g id="Group_630" data-name="Group 630" transform="translate(3.335 21.56)">
                    <path id="Path_494" data-name="Path 494" d="M170.285,267.905l1.645-.95a1.065,1.065,0,0,0,.445-.85v-1.74c0-.328-.2-.478-.445-.336l-1.645.95a1.065,1.065,0,0,0-.445.85v1.74C169.84,267.9,170.039,268.047,170.285,267.905Z" transform="translate(-169.84 -263.976)" fill="#e077ff" stroke="#fff" stroke-miterlimit="10" stroke-width="1"/>
                  </g>
                </g>
                <g id="Group_640" data-name="Group 640" transform="translate(31.419 56.011)">
                  <g id="Group_632" data-name="Group 632" transform="translate(0 0)">
                    <path id="Path_495" data-name="Path 495" d="M166.4,280.188l34.713-20.042a3.37,3.37,0,0,0,1.407-2.688v-6.619c0-1.036-.63-1.512-1.407-1.063L166.4,269.817a3.368,3.368,0,0,0-1.407,2.688v6.619C164.993,280.16,165.623,280.637,166.4,280.188Z" transform="translate(-164.993 -249.606)" fill="#e077ff" stroke="#fff" stroke-miterlimit="10" stroke-width="1"/>
                  </g>
                  <g id="Group_633" data-name="Group 633" transform="translate(1.69 2.404)" opacity="0.4">
                    <path id="Path_496" data-name="Path 496" d="M168.163,278.958l32.72-18.891a1.709,1.709,0,0,0,.714-1.364v-4.976c0-.525-.319-.767-.714-.539l-32.72,18.891a1.71,1.71,0,0,0-.714,1.364v4.976C167.449,278.943,167.768,279.185,168.163,278.958Z" transform="translate(-167.449 -253.101)" fill="#e077ff" stroke="#fff" stroke-miterlimit="10" stroke-width="1"/>
                  </g>
                  <g id="Group_634" data-name="Group 634" transform="translate(27.612 6.041)">
                    <path id="Path_497" data-name="Path 497" d="M205.815,263.139l4.883-2.818a1.661,1.661,0,0,0,.693-1.325h0c0-.51-.31-.744-.693-.524l-4.883,2.819a1.661,1.661,0,0,0-.693,1.325h0C205.122,263.126,205.432,263.361,205.815,263.139Z" transform="translate(-205.122 -258.389)" fill="#e077ff" stroke="#fff" stroke-miterlimit="10" stroke-width="1"/>
                  </g>
                  <g id="Group_635" data-name="Group 635" transform="translate(24.144 10.773)">
                    <path id="Path_498" data-name="Path 498" d="M200.081,266.756c0,.51.359.717.8.461a1.767,1.767,0,0,0,.8-1.386c0-.511-.359-.717-.8-.462a1.77,1.77,0,0,0-.8,1.387Z" transform="translate(-200.081 -265.26)" fill="#e077ff" stroke="#fff" stroke-miterlimit="10" stroke-width="1"/>
                  </g>
                  <g id="Group_636" data-name="Group 636" transform="translate(21.321 12.403)">
                    <path id="Path_499" data-name="Path 499" d="M195.978,269.127c0,.511.359.717.8.462a1.768,1.768,0,0,0,.8-1.386c0-.511-.358-.717-.8-.462A1.77,1.77,0,0,0,195.978,269.127Z" transform="translate(-195.978 -267.632)" fill="#e077ff" stroke="#fff" stroke-miterlimit="10" stroke-width="1"/>
                  </g>
                  <g id="Group_637" data-name="Group 637" transform="translate(18.497 14.034)">
                    <path id="Path_500" data-name="Path 500" d="M191.875,271.5c0,.51.358.717.8.462a1.77,1.77,0,0,0,.8-1.386c0-.511-.359-.717-.8-.462A1.768,1.768,0,0,0,191.875,271.5Z" transform="translate(-191.875 -270)" fill="#e077ff" stroke="#fff" stroke-miterlimit="10" stroke-width="1"/>
                  </g>
                  <g id="Group_638" data-name="Group 638" transform="translate(15.673 15.664)">
                    <path id="Path_501" data-name="Path 501" d="M187.771,273.865c0,.511.359.717.8.462a1.769,1.769,0,0,0,.8-1.387c0-.511-.359-.717-.8-.461A1.768,1.768,0,0,0,187.771,273.865Z" transform="translate(-187.771 -272.37)" fill="#e077ff" stroke="#fff" stroke-miterlimit="10" stroke-width="1"/>
                  </g>
                  <g id="Group_639" data-name="Group 639" transform="translate(3.335 21.56)">
                    <path id="Path_502" data-name="Path 502" d="M170.285,284.868l1.645-.95a1.065,1.065,0,0,0,.445-.85v-1.74c0-.328-.2-.478-.445-.337l-1.645.95a1.065,1.065,0,0,0-.445.85v1.741C169.84,284.86,170.039,285.01,170.285,284.868Z" transform="translate(-169.84 -280.939)" fill="#e077ff" stroke="#fff" stroke-miterlimit="10" stroke-width="1"/>
                  </g>
                </g>
                <g id="Group_649" data-name="Group 649" transform="translate(31.419 67.684)">
                  <g id="Group_641" data-name="Group 641" transform="translate(0 0)">
                    <path id="Path_503" data-name="Path 503" d="M166.4,297.153l34.714-20.042a3.37,3.37,0,0,0,1.407-2.688V267.8c0-1.036-.63-1.512-1.407-1.063L166.4,286.782a3.369,3.369,0,0,0-1.407,2.688v6.62C164.993,297.125,165.623,297.6,166.4,297.153Z" transform="translate(-164.993 -266.571)" fill="#e077ff" stroke="#fff" stroke-miterlimit="10" stroke-width="1"/>
                  </g>
                  <g id="Group_642" data-name="Group 642" transform="translate(1.69 2.405)" opacity="0.4">
                    <path id="Path_504" data-name="Path 504" d="M168.163,295.921l32.72-18.891a1.709,1.709,0,0,0,.714-1.364V270.69c0-.525-.319-.767-.714-.539l-32.72,18.891a1.709,1.709,0,0,0-.714,1.364v4.976C167.449,295.907,167.768,296.149,168.163,295.921Z" transform="translate(-167.449 -270.065)" fill="#e077ff" stroke="#fff" stroke-miterlimit="10" stroke-width="1"/>
                  </g>
                  <g id="Group_643" data-name="Group 643" transform="translate(27.612 6.041)">
                    <path id="Path_505" data-name="Path 505" d="M205.815,280.1l4.883-2.819a1.66,1.66,0,0,0,.693-1.325h0c0-.51-.31-.745-.693-.524l-4.883,2.818a1.661,1.661,0,0,0-.693,1.325h0C205.122,280.089,205.432,280.324,205.815,280.1Z" transform="translate(-205.122 -275.353)" fill="#e077ff" stroke="#fff" stroke-miterlimit="10" stroke-width="1"/>
                  </g>
                  <g id="Group_644" data-name="Group 644" transform="translate(24.144 10.773)">
                    <path id="Path_506" data-name="Path 506" d="M200.081,283.717c0,.51.359.717.8.461a1.769,1.769,0,0,0,.8-1.386c0-.511-.359-.717-.8-.462A1.77,1.77,0,0,0,200.081,283.717Z" transform="translate(-200.081 -282.221)" fill="#e077ff" stroke="#fff" stroke-miterlimit="10" stroke-width="1"/>
                  </g>
                  <g id="Group_645" data-name="Group 645" transform="translate(21.321 12.403)">
                    <path id="Path_507" data-name="Path 507" d="M195.978,286.09c0,.511.359.717.8.461a1.768,1.768,0,0,0,.8-1.386c0-.511-.358-.717-.8-.462A1.77,1.77,0,0,0,195.978,286.09Z" transform="translate(-195.978 -284.593)" fill="#e077ff" stroke="#fff" stroke-miterlimit="10" stroke-width="1"/>
                  </g>
                  <g id="Group_646" data-name="Group 646" transform="translate(18.497 14.033)">
                    <path id="Path_508" data-name="Path 508" d="M191.875,288.459c0,.51.358.717.8.461a1.77,1.77,0,0,0,.8-1.386c0-.511-.359-.717-.8-.462A1.768,1.768,0,0,0,191.875,288.459Z" transform="translate(-191.875 -286.962)" fill="#e077ff" stroke="#fff" stroke-miterlimit="10" stroke-width="1"/>
                  </g>
                  <g id="Group_647" data-name="Group 647" transform="translate(15.673 15.664)">
                    <path id="Path_509" data-name="Path 509" d="M187.771,290.828c0,.511.359.717.8.461a1.769,1.769,0,0,0,.8-1.386c0-.511-.359-.717-.8-.462A1.77,1.77,0,0,0,187.771,290.828Z" transform="translate(-187.771 -289.332)" fill="#e077ff" stroke="#fff" stroke-miterlimit="10" stroke-width="1"/>
                  </g>
                  <g id="Group_648" data-name="Group 648" transform="translate(3.335 21.561)">
                    <path id="Path_510" data-name="Path 510" d="M170.285,301.832l1.645-.95a1.065,1.065,0,0,0,.445-.85v-1.74c0-.328-.2-.478-.445-.337l-1.645.95a1.065,1.065,0,0,0-.445.85v1.74C169.84,301.823,170.039,301.974,170.285,301.832Z" transform="translate(-169.84 -297.903)" fill="#e077ff" stroke="#fff" stroke-miterlimit="10" stroke-width="1"/>
                  </g>
                </g>
                <g id="Group_658" data-name="Group 658" transform="translate(31.419 79.356)">
                  <g id="Group_650" data-name="Group 650" transform="translate(0 0)">
                    <path id="Path_511" data-name="Path 511" d="M166.4,314.116l34.713-20.042a3.37,3.37,0,0,0,1.407-2.688v-6.619c0-1.036-.63-1.513-1.407-1.063L166.4,303.745a3.369,3.369,0,0,0-1.407,2.688v6.619C164.993,314.089,165.623,314.565,166.4,314.116Z" transform="translate(-164.993 -283.535)" fill="#e077ff" stroke="#fff" stroke-miterlimit="10" stroke-width="1"/>
                  </g>
                  <g id="Group_651" data-name="Group 651" transform="translate(1.69 2.404)" opacity="0.4">
                    <path id="Path_512" data-name="Path 512" d="M168.163,312.884l32.72-18.892a1.708,1.708,0,0,0,.714-1.364v-4.976c0-.525-.319-.767-.714-.539L168.163,306a1.709,1.709,0,0,0-.714,1.364v4.976C167.449,312.87,167.768,313.112,168.163,312.884Z" transform="translate(-167.449 -287.027)" fill="#e077ff" stroke="#fff" stroke-miterlimit="10" stroke-width="1"/>
                  </g>
                  <g id="Group_652" data-name="Group 652" transform="translate(27.612 6.041)">
                    <path id="Path_513" data-name="Path 513" d="M205.815,297.07l4.883-2.819a1.661,1.661,0,0,0,.693-1.324h0c0-.511-.31-.745-.693-.524l-4.883,2.82a1.66,1.66,0,0,0-.693,1.324h0C205.122,297.056,205.432,297.29,205.815,297.07Z" transform="translate(-205.122 -292.32)" fill="#e077ff" stroke="#fff" stroke-miterlimit="10" stroke-width="1"/>
                  </g>
                  <g id="Group_653" data-name="Group 653" transform="translate(24.144 10.774)">
                    <path id="Path_514" data-name="Path 514" d="M200.081,300.687c0,.511.359.717.8.462a1.769,1.769,0,0,0,.8-1.386c0-.51-.359-.717-.8-.461A1.77,1.77,0,0,0,200.081,300.687Z" transform="translate(-200.081 -299.192)" fill="#e077ff" stroke="#fff" stroke-miterlimit="10" stroke-width="1"/>
                  </g>
                  <g id="Group_654" data-name="Group 654" transform="translate(21.321 12.404)">
                    <path id="Path_515" data-name="Path 515" d="M195.978,303.056c0,.511.359.717.8.462a1.768,1.768,0,0,0,.8-1.386c0-.51-.358-.717-.8-.461a1.77,1.77,0,0,0-.8,1.385Z" transform="translate(-195.978 -301.561)" fill="#e077ff" stroke="#fff" stroke-miterlimit="10" stroke-width="1"/>
                  </g>
                  <g id="Group_655" data-name="Group 655" transform="translate(18.497 14.033)">
                    <path id="Path_516" data-name="Path 516" d="M191.875,305.417c0,.51.358.717.8.461a1.77,1.77,0,0,0,.8-1.386c0-.51-.359-.717-.8-.461a1.768,1.768,0,0,0-.8,1.386Z" transform="translate(-191.875 -303.921)" fill="#e077ff" stroke="#fff" stroke-miterlimit="10" stroke-width="1"/>
                  </g>
                  <g id="Group_656" data-name="Group 656" transform="translate(15.673 15.664)">
                    <path id="Path_517" data-name="Path 517" d="M187.771,307.793c0,.511.359.717.8.462a1.769,1.769,0,0,0,.8-1.387c0-.51-.359-.717-.8-.461A1.77,1.77,0,0,0,187.771,307.793Z" transform="translate(-187.771 -306.298)" fill="#e077ff" stroke="#fff" stroke-miterlimit="10" stroke-width="1"/>
                  </g>
                  <g id="Group_657" data-name="Group 657" transform="translate(3.335 21.56)">
                    <path id="Path_518" data-name="Path 518" d="M170.285,318.8l1.645-.95a1.066,1.066,0,0,0,.445-.85v-1.74c0-.328-.2-.478-.445-.336l-1.645.95a1.065,1.065,0,0,0-.445.85v1.74C169.84,318.787,170.039,318.938,170.285,318.8Z" transform="translate(-169.84 -314.867)" fill="#e077ff" stroke="#fff" stroke-miterlimit="10" stroke-width="1"/>
                  </g>
                </g>
                <g id="Group_667" data-name="Group 667" transform="translate(31.419 91.029)">
                  <g id="Group_659" data-name="Group 659" transform="translate(0 0)">
                    <path id="Path_519" data-name="Path 519" d="M166.4,331.079l34.714-20.042a3.37,3.37,0,0,0,1.407-2.688v-6.619c0-1.036-.63-1.512-1.407-1.063L166.4,320.708a3.368,3.368,0,0,0-1.407,2.688v6.619C164.993,331.051,165.623,331.528,166.4,331.079Z" transform="translate(-164.993 -300.497)" fill="#e077ff" stroke="#fff" stroke-miterlimit="10" stroke-width="1"/>
                  </g>
                  <g id="Group_660" data-name="Group 660" transform="translate(1.69 2.404)" opacity="0.4">
                    <path id="Path_520" data-name="Path 520" d="M168.163,329.849l32.72-18.892a1.709,1.709,0,0,0,.714-1.364v-4.976c0-.525-.319-.767-.714-.539l-32.72,18.892a1.708,1.708,0,0,0-.714,1.363v4.977C167.449,329.835,167.768,330.077,168.163,329.849Z" transform="translate(-167.449 -303.992)" fill="#e077ff" stroke="#fff" stroke-miterlimit="10" stroke-width="1"/>
                  </g>
                  <g id="Group_661" data-name="Group 661" transform="translate(27.612 6.04)">
                    <path id="Path_521" data-name="Path 521" d="M205.815,314.029l4.883-2.819a1.66,1.66,0,0,0,.693-1.324h0c0-.511-.31-.745-.693-.524l-4.883,2.82a1.659,1.659,0,0,0-.693,1.324h0C205.122,314.016,205.432,314.251,205.815,314.029Z" transform="translate(-205.122 -309.28)" fill="#e077ff" stroke="#fff" stroke-miterlimit="10" stroke-width="1"/>
                  </g>
                  <g id="Group_662" data-name="Group 662" transform="translate(23.251 10.076)">
                    <path id="Path_522" data-name="Path 522" d="M198.784,317.965c0,.964.677,1.355,1.512.873a3.343,3.343,0,0,0,1.512-2.619c0-.964-.677-1.355-1.512-.872A3.341,3.341,0,0,0,198.784,317.965Z" transform="translate(-198.784 -315.14)" fill="#e077ff" stroke="#fff" stroke-miterlimit="10" stroke-width="1"/>
                  </g>
                  <g id="Group_663" data-name="Group 663" transform="translate(17.403 14.828)">
                    <path id="Path_523" data-name="Path 523" d="M190.285,323.542c0,.511.359.717.8.462a1.77,1.77,0,0,0,.8-1.386c0-.51-.359-.717-.8-.461A1.769,1.769,0,0,0,190.285,323.542Z" transform="translate(-190.285 -322.047)" fill="#e077ff" stroke="#fff" stroke-miterlimit="10" stroke-width="1"/>
                  </g>
                  <g id="Group_664" data-name="Group 664" transform="translate(14.58 16.458)">
                    <path id="Path_524" data-name="Path 524" d="M186.182,325.91c0,.511.359.717.8.462a1.768,1.768,0,0,0,.8-1.387c0-.51-.358-.717-.8-.461A1.77,1.77,0,0,0,186.182,325.91Z" transform="translate(-186.182 -324.415)" fill="#e077ff" stroke="#fff" stroke-miterlimit="10" stroke-width="1"/>
                  </g>
                  <g id="Group_665" data-name="Group 665" transform="translate(11.757 18.087)">
                    <path id="Path_525" data-name="Path 525" d="M182.079,328.276c0,.51.359.717.8.461a1.77,1.77,0,0,0,.8-1.387c0-.51-.359-.717-.8-.461A1.77,1.77,0,0,0,182.079,328.276Z" transform="translate(-182.079 -326.78)" fill="#e077ff" stroke="#fff" stroke-miterlimit="10" stroke-width="1"/>
                  </g>
                  <g id="Group_666" data-name="Group 666" transform="translate(3.335 21.56)">
                    <path id="Path_526" data-name="Path 526" d="M170.285,335.76l1.645-.95a1.065,1.065,0,0,0,.445-.85v-1.74c0-.328-.2-.478-.445-.336l-1.645.95a1.067,1.067,0,0,0-.445.85v1.74C169.84,335.752,170.039,335.9,170.285,335.76Z" transform="translate(-169.84 -331.831)" fill="#e077ff" stroke="#fff" stroke-miterlimit="10" stroke-width="1"/>
                  </g>
                </g>
              </g>
            </g>
            <g id="Group_544" data-name="Group 544" transform="translate(47.561 0.042)">
              <path id="Path_426" data-name="Path 426" d="M228.357,373.618a12.074,12.074,0,0,1-5.95-1.581l-8.069-4.49a.828.828,0,0,1-.32-1.173.945.945,0,0,1,1.249-.3l8.073,4.493a10.251,10.251,0,0,0,10.089-.036,8.98,8.98,0,0,0,4.613-8.43l-.172-2.286c-2.833-37.425-8.108-107.088,23.143-114.6,10.766-2.587,18.136-5.065,23.517-6.875,16.036-5.393,17.136-5.1,39.244,10.59a.822.822,0,0,1,.178,1.2.95.95,0,0,1-1.276.167c-21.96-15.581-22.251-15.485-37.534-10.344-5.415,1.819-12.83,4.314-23.677,6.921-29.777,7.16-24.575,75.9-21.779,112.822l.173,2.286a10.5,10.5,0,0,1-5.476,10.01A12.039,12.039,0,0,1,228.357,373.618Z" transform="translate(-213.891 -235.179)" stroke="#000" stroke-miterlimit="10" stroke-width="1"/>
            </g>
          </g>
        </g>
      </g>
    </g>
  </g>
</svg>
