<svg xmlns="http://www.w3.org/2000/svg" width="65.24" height="82.053" viewBox="0 0 65.24 82.053">
  <g id="Group_422" data-name="Group 422" transform="translate(1.499 1.5)">
    <g id="Group_1400" data-name="Group 1400" transform="translate(0)">
      <path id="Path_1531" data-name="Path 1531" d="M113.788-57.313a2.8,2.8,0,0,1,2.29,2.981c-.044,8.059-.021,16.12-.021,24.181V-29.1h3.07c.5,0,.994-.01,1.491,0,1.836.048,3.01,1.02,3.046,2.532.019.744.023,1.49,0,2.233a2.649,2.649,0,0,1-2.936,2.451q-9.041.029-18.081,0a3.137,3.137,0,0,1-2.032-.66,2.134,2.134,0,0,1-.839-1.667c-.038-.82-.038-1.643-.006-2.463.054-1.436,1.205-2.383,2.968-2.419,1.485-.031,2.97-.006,4.521-.006V-45.518c-.071,0-.146-.02-.179,0-2.013,1.374-3.2,1.325-5.064-.216-.527-.435-1.078-.854-1.566-1.317a2.015,2.015,0,0,1,.017-3.213c2.555-2.173,5.166-4.3,7.779-6.421a6.641,6.641,0,0,1,1.251-.63Z" transform="translate(-62.898 57.313)" fill="none" stroke="#e47046" stroke-width="3"/>
      <path id="Path_1532" data-name="Path 1532" d="M125.27,8.288V23.079c0,2.078-1.062,2.959-3.563,2.959h-19.86c-2.407,0-3.486-.874-3.489-2.854q-.008-14.907,0-29.813c0-1.944,1.073-2.839,3.4-2.842q10.024-.012,20.047,0c2.378,0,3.457.911,3.459,2.891Q125.274.853,125.27,8.288Zm-18.126-9.76V17.99h9.322V-1.472Z" transform="translate(-63.029 53.015)" fill="none" stroke="#e47046" stroke-width="3"/>
      <path id="Path_1533" data-name="Path 1533" d="M93.172-39.525v14.636c0,2.2-1,3.031-3.646,3.031H69.761c-2.389,0-3.5-.9-3.5-2.854q0-14.829,0-29.659c0-1.923,1.093-2.83,3.428-2.832q10.022-.011,20.045,0c2.389,0,3.435.884,3.437,2.89Q93.178-46.92,93.172-39.525Zm-8.788,9.648V-49.193H75.058v19.316Z" transform="translate(-66.258 57.3)" fill="none" stroke="#e47046" stroke-width="3"/>
      <path id="Path_1534" data-name="Path 1534" d="M83.995,18.8c1.5,0,2.888-.006,4.279,0,2.141.013,3.287.944,3.326,2.7.014.667.028,1.335-.005,2-.079,1.578-1.244,2.517-3.152,2.521q-8.807.014-17.615,0c-1.921,0-3.085-.924-3.169-2.5a20.305,20.305,0,0,1,0-2.232c.091-1.54,1.244-2.456,3.106-2.486,1.428-.024,2.857-.019,4.285-.028.025,0,.052-.022.137-.061V2.122c-.276.182-.5.328-.723.476a3.253,3.253,0,0,1-3.821-.034A28.7,28.7,0,0,1,68.4.716a2,2,0,0,1-.047-3.206Q72.206-5.783,76.2-8.965c1.125-.9,5.434-.889,6.658-.094A2.447,2.447,0,0,1,84-6.81q-.015,9.51-.006,19.021Z" transform="translate(-66.126 53.027)" fill="none" stroke="#e47046" stroke-width="3"/>
    </g>
  </g>
</svg>
