<svg xmlns="http://www.w3.org/2000/svg" width="583.576" height="587.997" viewBox="0 0 583.576 587.997">
  <g id="Group_1851" data-name="Group 1851" transform="translate(-718 -3448)">
    <g id="Path_1888" data-name="Path 1888" transform="translate(718 3448)" fill="none">
      <path d="M53.052,0H530.523a53.052,53.052,0,0,1,53.052,53.052V534.944A53.052,53.052,0,0,1,530.523,588H53.052A53.052,53.052,0,0,1,0,534.944V53.052A53.052,53.052,0,0,1,53.052,0Z" stroke="none"/>
      <path d="M 53.0523681640625 9.99993896484375 C 29.31317138671875 9.99993896484375 10 29.3131103515625 10 53.05230712890625 L 10 534.9443969726563 C 10 558.6835327148438 29.31317138671875 577.9967041015625 53.0523681640625 577.9967041015625 L 530.5233154296875 577.9967041015625 C 554.2625122070313 577.9967041015625 573.57568359375 558.6835327148438 573.57568359375 534.9443969726563 L 573.57568359375 53.05230712890625 C 573.57568359375 29.3131103515625 554.2625122070313 9.99993896484375 530.5233154296875 9.99993896484375 L 53.0523681640625 9.99993896484375 M 53.0523681640625 -6.103515625e-05 L 530.5233154296875 -6.103515625e-05 C 559.8233642578125 -6.103515625e-05 583.57568359375 23.7523193359375 583.57568359375 53.05230712890625 L 583.57568359375 534.9443969726563 C 583.57568359375 564.244384765625 559.8233642578125 587.9967041015625 530.5233154296875 587.9967041015625 L 53.0523681640625 587.9967041015625 C 23.7523193359375 587.9967041015625 0 564.244384765625 0 534.9443969726563 L 0 53.05230712890625 C 0 23.7523193359375 23.7523193359375 -6.103515625e-05 53.0523681640625 -6.103515625e-05 Z" stroke="none" fill="#e47046"/>
    </g>
    <g id="Group_1401" data-name="Group 1401" transform="translate(885.999 3549.684)">
      <g id="Group_1400" data-name="Group 1400" transform="translate(0 0)">
        <path id="Path_1531" data-name="Path 1531" d="M156.417-57.313c6.769,2.48,9.231,7.348,9.2,14.483-.177,39.153-.084,78.31-.084,117.467v5.111h12.335c1.994,0,3.992-.049,5.991.018,7.374.234,12.091,4.956,12.237,12.3.075,3.616.093,7.237-.009,10.849-.19,6.963-4.9,11.879-11.8,11.906q-36.321.139-72.633-.009c-6.627-.031-11.269-4.731-11.534-11.3-.159-3.983-.146-7.98-.027-11.968.217-6.976,4.841-11.574,11.924-11.751,5.964-.146,11.932-.031,18.162-.031V-.021c-.283,0-.588-.1-.721.013-8.086,6.676-12.839,6.437-20.341-1.048-2.118-2.113-4.333-4.151-6.291-6.4-4.151-4.77-4.328-11.084.071-15.606,10.261-10.549,20.752-20.881,31.252-31.19,1.362-1.34,3.338-2.056,5.031-3.059Z" transform="translate(48.017 57.313)" fill="none" stroke="#e47046" stroke-width="10"/>
        <path id="Path_1532" data-name="Path 1532" d="M206.475,76.82q0,35.93,0,71.855c0,10.093-4.271,14.373-14.311,14.373q-39.889.007-79.777,0c-9.669,0-14.006-4.244-14.01-13.855q-.033-72.416,0-144.828c0-9.443,4.311-13.794,13.674-13.807q40.267-.06,80.529,0c9.554.009,13.886,4.425,13.9,14.041Q206.49,40.7,206.475,76.82ZM133.656,29.409v94.544H171.1V29.409Z" transform="translate(43.557 220.98)" fill="none" stroke="#e47046" stroke-width="10"/>
        <path id="Path_1533" data-name="Path 1533" d="M174.373,28.7q0,35.552,0,71.1c0,10.686-4.032,14.726-14.647,14.726q-39.7,0-79.4,0c-9.6,0-14.059-4.377-14.059-13.869q-.02-72.038,0-144.077c0-9.342,4.39-13.749,13.771-13.758q40.26-.053,80.52,0c9.6.013,13.8,4.293,13.807,14.037Q174.4-7.232,174.373,28.7Zm-35.3,46.867V-18.273H101.607V75.563Z" transform="translate(-66.256 57.656)" fill="none" stroke="#e47046" stroke-width="10"/>
        <path id="Path_1534" data-name="Path 1534" d="M133.559,128.534c6.013,0,11.6-.031,17.189,0,8.6.062,13.206,4.585,13.36,13.126.057,3.241.111,6.486-.022,9.722-.318,7.666-5,12.229-12.662,12.246q-35.379.066-70.759,0c-7.719-.013-12.392-4.487-12.733-12.158-.159-3.608-.168-7.237.009-10.845.367-7.48,5-11.932,12.476-12.078,5.739-.115,11.477-.093,17.215-.137.1,0,.208-.106.548-.3v-80.6c-1.11.884-2.012,1.592-2.9,2.312-4.845,3.913-10.743,3.952-15.35-.168a123.263,123.263,0,0,1-9.014-8.97c-4.28-4.7-4.576-11.039-.19-15.575Q86.2,9.119,102.24-6.334c4.518-4.355,21.831-4.319,26.747-.455,3.537,2.785,4.6,6.574,4.593,10.924q-.06,46.2-.022,92.4Z" transform="translate(-61.774 220.383)" fill="none" stroke="#e47046" stroke-width="10"/>
      </g>
    </g>
  </g>
</svg>
