<svg xmlns="http://www.w3.org/2000/svg" width="274.197" height="76.893" viewBox="0 0 274.197 76.893">
  <g id="Group_1" transform="translate(191.299 893.179)">
    <text id="frictionless" transform="translate(-103.102 -860.089)" fill="#070000" font-size="34" font-family="Quicksand-Light, Quicksand" font-weight="300"><tspan x="0" y="0">frictionless</tspan></text>
    <path id="Path_66" d="M-141.591-893c20.367,0,27.723,17.944,27.723,38.311s-18.3,38.581-38.581,38.581-38.85-15.432-38.85-35.8S-161.871-893-141.591-893Z" transform="translate(0 -0.179)" fill="#1ea2ff"/>
    <text id="data" transform="translate(-103.102 -826.891)" fill="#070000" font-size="34" font-family="Quicksand-Light, Quicksand" font-weight="300"><tspan x="0" y="0">data</tspan></text>
    <text id="frictionless-2" data-name="frictionless" transform="translate(-103.102 -860.089)" fill="#01060a" font-size="34" font-family="Quicksand-Light, Quicksand" font-weight="300"><tspan x="0" y="0">frictionless</tspan></text>
    <g id="Group_2" data-name="Group 2" transform="translate(-168.276 -871.591)">
      <path id="Path_2" data-name="Path 2" d="M-135.1-865.292a2.544,2.544,0,0,0-1.2-.2,3.6,3.6,0,0,0-1.1.2c-1.405.3-2.71,1.706-4.114,4.315-.4.7-1.505,3.111-3.511,7.721l2.91.1a10.354,10.354,0,0,0,2.006-.2c0,.2-1.1.8-1.505.9a8.383,8.383,0,0,1-3.513.4h-.4c-1.606,3.913-2.509,6.523-3.111,7.827s-1.2,2.408-1.706,3.412c-.5.9-1.2,1.9-1.9,2.91a19.324,19.324,0,0,1-2.408,2.509,9.7,9.7,0,0,1-2.613,1.907,6.669,6.669,0,0,1-3.412.6c-2.207-.2-3.612-.9-4.114-2.207a1.091,1.091,0,0,1-.1-.5v-.5c0-.1.1-.2.1-.3a1.7,1.7,0,0,1,.2-.5,1.7,1.7,0,0,0,.2-.5,3.948,3.948,0,0,1,.2-.6c.1-.3.3-.5.3-.6s.1-.2.2-.3a.368.368,0,0,1,.3.1c.1.1,0,.3-.1.6a3.563,3.563,0,0,0-.2,1,2.969,2.969,0,0,0,.2,1c.5,1.307,1.606,1.9,3.513,2.107h.5a4.039,4.039,0,0,0,2.006-.7c1.806-.9,3.207-2.809,4.817-5.921a41.558,41.558,0,0,0,2.71-6.121c1-2.613,2.006-4.415,2.308-5.318l-.9.1a8.347,8.347,0,0,0-1.2.1h-1.9a3.518,3.518,0,0,1,1.706-1.2,10.906,10.906,0,0,1,1.806-.1l1-.1c2.809-6.523,5.318-10.537,7.626-12.141a7.616,7.616,0,0,1,4.616-1.2,2.671,2.671,0,0,1,1.2.3c.3.2.3.5.3.9l-.1,1.405a.216.216,0,0,1-.2.2h-.2a1.5,1.5,0,0,0-1.213-1.4Z" transform="translate(164.899 866.714)" fill="#fff" stroke="#fff" stroke-width="1"/>
    </g>
    <text id="data-2" data-name="data" transform="translate(-103.102 -826.891)" fill="#000305" font-size="34" font-family="Quicksand-Light, Quicksand" font-weight="300"><tspan x="0" y="0">data</tspan></text>
  </g>
</svg>
