<?xml version="1.0" encoding="utf-8"?>
<!-- Generator: Adobe Illustrator 27.3.1, SVG Export Plug-In . SVG Version: 6.00 Build 0)  -->
<svg version="1.1" id="Ebene_2" xmlns="http://www.w3.org/2000/svg" xmlns:xlink="http://www.w3.org/1999/xlink" x="0px" y="0px"
	 viewBox="0 0 587.7 166.1" style="enable-background:new 0 0 587.7 166.1;" xml:space="preserve">
<style type="text/css">
	.st0{enable-background:new    ;}
</style>
<g>
	<g>
		<path d="M83.1,54.7c13.9,0,25.8,10.1,27.9,23.9l12.1-12.1l30.4-30.4L130,12.6L99.6,42.9V0H66.4v60.1
			C71.3,56.6,77.1,54.7,83.1,54.7z M104.1,47.4L130,21.6l14.5,14.5l-25.8,25.8l-4.9,4.9c-3.2-6.2-8.3-11.2-14.5-14.5
			C99.3,52.3,104.1,47.4,104.1,47.4z M93.4,6.4V50c-6.7-2-13.8-2-20.5,0.1V6.3C72.8,6.3,93.4,6.3,93.4,6.4z"/>
		<path d="M111,87.5c-2.4,15.4-17,26-32.4,23.5c-4.4-0.7-8.6-2.4-12.2-5v60.1h33.2v-43l30.4,30.4l23.5-23.5l-30.4-30.4L111,87.5z
			 M93.4,123.1v36.6H72.8v-43.6c6.7,2.1,13.8,2.1,20.5,0.1L93.4,123.1L93.4,123.1z M130,144.5l-25.8-25.9l-4.9-4.9
			c6.2-3.2,11.2-8.3,14.5-14.5l4.9,4.9l25.9,25.8L130,144.5L130,144.5z"/>
		<path d="M12.6,36.1L43,66.5H0v33.2h42.9L12.6,130l23.5,23.5l24-24V99.7c-7.2-9.9-7.2-23.4,0-33.3V36.7L36,12.6L12.6,36.1
			L12.6,36.1z"/>
	</g>
	<g>
		<g class="st0">
			<path d="M166.4,82.1c0-11.8,7.2-19.5,17.9-19.5s17.9,7.8,17.9,19.5s-7.2,19.5-17.9,19.5C173.6,101.6,166.4,93.8,166.4,82.1z
				 M195.4,82.1c0-8.1-4.3-13.2-11.2-13.2s-11.2,5-11.2,13.2c0,8.1,4.3,13.1,11.2,13.1S195.4,90.1,195.4,82.1z"/>
		</g>
		<g class="st0">
			<path d="M234.4,87.6c0,8.6-4.7,13.7-11.2,13.7c-3,0-6-1.2-7.6-3.2v13.6h-6.4V74.3h6.4v2.6c1.8-2.3,4.8-3.2,7.6-3.2
				C230.5,73.8,234.4,79.6,234.4,87.6z M228,87.5c0-5.2-2-8.1-6.3-8.1c-4.7,0-6.7,3.4-6.7,8.1c0,4.6,2,8.2,6.6,8.2
				C225.9,95.7,228,92.7,228,87.5z"/>
		</g>
		<g class="st0">
			<path d="M263.5,89.7h-18.1c0.3,3.5,2.4,5.8,6.6,5.8c2.4,0,4.5-0.8,6.3-2.8l4.5,3.9c-2.9,3.2-6.4,4.8-10.8,4.8
				c-9.1,0-13-6.6-13-13.6c0-6.9,3.8-13.9,12.6-13.9c8.2,0,12.2,6.1,12.2,13.4C263.6,88,263.6,88.8,263.5,89.7z M257.4,84.6
				c-0.1-3.4-2.7-5.4-6.1-5.4c-3.9,0-5.7,2.8-6.1,5.4H257.4z"/>
		</g>
		<g class="st0">
			<path d="M294.8,83.7v17.1h-6.4V85.3c0-1.8,0-5.9-4.9-5.9c-6,0-6,6.1-6,10.8v10.6H271V74.3h6.4v3.1c1.9-2.5,4.8-3.6,8-3.6
				C291.4,73.8,294.8,77.4,294.8,83.7z"/>
		</g>
		<g class="st0">
			<path d="M343.1,100.8L332,82.2l-7.1,7.2v11.4h-6.7V63.4h6.7V81l16.8-17.6h8.8l-13.9,14.2l14.3,23.3L343.1,100.8L343.1,100.8z"/>
			<path d="M379.3,83.7v17.1h-6.4V85.3c0-1.8,0-5.9-4.9-5.9c-6,0-6,6.1-6,10.8v10.6h-6.4V74.3h6.4v3.1c1.9-2.5,4.8-3.6,8-3.6
				C375.9,73.8,379.3,77.4,379.3,83.7z"/>
		</g>
		<g class="st0">
			<path d="M381.9,87.5c0-7.5,5-13.7,13.3-13.7c8.2,0,13.3,6.2,13.3,13.7s-5.1,13.8-13.3,13.8S381.9,95,381.9,87.5z M402,87.5
				c0-4.3-1.9-8.1-6.8-8.1s-6.8,3.8-6.8,8.1c0,4.3,1.9,8.2,6.8,8.2S402,91.8,402,87.5z"/>
		</g>
		<g class="st0">
			<path d="M411.3,74.3h6.9l4.5,16.6l5-16.6h5.5l5,16.5l4.6-16.5h6.9l-8.2,26.5h-5.8l-5.2-17.3l-5.2,17.3h-5.8L411.3,74.3z"/>
		</g>
		<g class="st0">
			<path d="M455.7,94.4v-31h6.4v30.7c0,1.2,0.7,1.7,1.9,1.7c0.6,0,1.3-0.1,2-0.3v5.2c-1.4,0.5-2.9,0.8-4.1,0.8
				C458.3,101.3,455.7,99.2,455.7,94.4z"/>
		</g>
		<g class="st0">
			<path d="M493.7,89.7h-18.1c0.3,3.5,2.4,5.8,6.6,5.8c2.4,0,4.5-0.8,6.3-2.8l4.5,3.9c-2.9,3.2-6.4,4.8-10.8,4.8
				c-9.1,0-13-6.6-13-13.6c0-6.9,3.8-13.9,12.6-13.9c8.2,0,12.2,6.1,12.2,13.4C493.9,88,493.8,88.8,493.7,89.7z M487.7,84.6
				c-0.1-3.4-2.7-5.4-6.1-5.4c-3.9,0-5.7,2.8-6.1,5.4H487.7z"/>
		</g>
		<g class="st0">
			<path d="M524.3,63.4v37.4h-6.4v-2.6c-1.8,2.3-4.8,3.2-7.6,3.2c-7.2,0-11.2-5.9-11.2-13.8c0-8.6,4.7-13.7,11.2-13.7
				c3,0,6,1.2,7.6,3.2V63.4H524.3z M518.5,87.6c0-4.4-2-7.9-6.6-7.9c-4.3,0-6.3,3-6.3,7.9s2,7.8,6.3,7.8
				C516.5,95.4,518.5,92,518.5,87.6z"/>
		</g>
		<g class="st0">
			<path d="M555.6,104.4c0,5.5-5,7.9-12.2,7.9c-7.9,0-12.4-2.9-12.4-8.4c0-0.6,0.1-0.9,0.1-1.2l3.8-2.4c-1.9-1-3.2-2.7-3.2-5.4
				c0-2.3,0.9-4,2.5-5.3c-1.3-1.7-2.1-3.8-2.1-6.1c0-5.7,4.9-9.7,10.8-9.7c2.3,0,4.5,0.6,6.2,1.7l4-3.4l3.4,4.1l-3.8,3.1
				c0.7,1.3,1.1,2.9,1.1,4.6c0,5.9-4.9,9.7-10.7,9.7c-1.8,0-3.5-0.4-5.1-1c-0.5,0.3-0.8,0.8-0.8,1.4c0,1.9,2.7,2.5,6,2.9
				C548.6,97.5,555.6,98,555.6,104.4z M549.1,105c0-2-3.4-2.3-7.2-2.8l-2.2-0.3l-2.3,2.2c-0.1,0.2-0.1,0.3-0.1,0.4
				c0,2.3,3.3,3,6.3,3C546.4,107.4,549.1,106.8,549.1,105z M538.5,83.7c0,2.5,1.5,4.6,4.5,4.6s4.4-2,4.4-4.6c0-2.7-1.7-4.5-4.4-4.5
				S538.5,81,538.5,83.7z"/>
		</g>
		<g class="st0">
			<path d="M583.4,89.7h-18.1c0.3,3.5,2.4,5.8,6.6,5.8c2.4,0,4.5-0.8,6.3-2.8l4.5,3.9c-2.9,3.2-6.4,4.8-10.8,4.8
				c-9.1,0-13-6.6-13-13.6c0-6.9,3.8-13.9,12.6-13.9c8.2,0,12.2,6.1,12.2,13.4C583.6,88,583.5,88.8,583.4,89.7z M577.4,84.6
				c-0.1-3.4-2.7-5.4-6.1-5.4c-3.9,0-5.7,2.8-6.1,5.4H577.4z"/>
		</g>
	</g>
</g>
</svg>
