<?xml version="1.0" encoding="utf-8"?>
<!-- Generator: Adobe Illustrator 27.4.1, SVG Export Plug-In . SVG Version: 6.00 Build 0)  -->
<svg version="1.1" id="Camada_1" xmlns="http://www.w3.org/2000/svg" xmlns:xlink="http://www.w3.org/1999/xlink" x="0px" y="0px"
	 viewBox="0 0 1500 1500" style="enable-background:new 0 0 1500 1500;" xml:space="preserve">
<image style="overflow:visible;" width="1450" height="993" xlink:href="../../Library/CloudStorage/GoogleDrive-lucas.pretti@okfn.org/.shortcut-targets-by-id/0B79xBlVd-Nf6ZzMzUlZSTWwxV28/Open Knowledge All Team/Brand 2023/Illustrations/L 1500px - web transp/Icons/board.png"  transform="matrix(1 0 0 1 -3164.6372 4237.4756)">
</image>
<image style="overflow:visible;" width="1133" height="1032" xlink:href="../../Library/CloudStorage/GoogleDrive-lucas.pretti@okfn.org/.shortcut-targets-by-id/0B79xBlVd-Nf6ZzMzUlZSTWwxV28/Open Knowledge All Team/Brand 2023/Illustrations/L 1500px - web transp/Icons/books.png"  transform="matrix(1 0 0 1 -3164.6372 4237.4756)">
</image>
<image style="overflow:visible;" width="1357" height="1143" xlink:href="../../Library/CloudStorage/GoogleDrive-lucas.pretti@okfn.org/.shortcut-targets-by-id/0B79xBlVd-Nf6ZzMzUlZSTWwxV28/Open Knowledge All Team/Brand 2023/Illustrations/L 1500px - web transp/Icons/campagne.png"  transform="matrix(1 0 0 1 -3164.6372 4237.4756)">
</image>
<image style="overflow:visible;" width="845" height="1103" xlink:href="../../Library/CloudStorage/GoogleDrive-lucas.pretti@okfn.org/.shortcut-targets-by-id/0B79xBlVd-Nf6ZzMzUlZSTWwxV28/Open Knowledge All Team/Brand 2023/Illustrations/L 1500px - web transp/Icons/case-study.png"  transform="matrix(1 0 0 1 -3164.6372 4237.4756)">
</image>
<image style="overflow:visible;" width="1265" height="951" xlink:href="../../Library/CloudStorage/GoogleDrive-lucas.pretti@okfn.org/.shortcut-targets-by-id/0B79xBlVd-Nf6ZzMzUlZSTWwxV28/Open Knowledge All Team/Brand 2023/Illustrations/L 1500px - web transp/Icons/collaboration.png"  transform="matrix(1 0 0 1 -3164.6372 4237.4756)">
</image>
<image style="overflow:visible;" width="1339" height="1035" xlink:href="../../Library/CloudStorage/GoogleDrive-lucas.pretti@okfn.org/.shortcut-targets-by-id/0B79xBlVd-Nf6ZzMzUlZSTWwxV28/Open Knowledge All Team/Brand 2023/Illustrations/L 1500px - web transp/Icons/connect-community.png"  transform="matrix(1 0 0 1 -3164.6372 4237.4756)">
</image>
<image style="overflow:visible;" width="1357" height="681" xlink:href="../../Library/CloudStorage/GoogleDrive-lucas.pretti@okfn.org/.shortcut-targets-by-id/0B79xBlVd-Nf6ZzMzUlZSTWwxV28/Open Knowledge All Team/Brand 2023/Illustrations/L 1500px - web transp/Icons/contact.png"  transform="matrix(1 0 0 1 -3164.6372 4237.4756)">
</image>
<image style="overflow:visible;" width="1059" height="1080" xlink:href="../../Library/CloudStorage/GoogleDrive-lucas.pretti@okfn.org/.shortcut-targets-by-id/0B79xBlVd-Nf6ZzMzUlZSTWwxV28/Open Knowledge All Team/Brand 2023/Illustrations/L 1500px - web transp/Icons/create-open-data.png"  transform="matrix(1 0 0 1 -3164.6372 4237.4756)">
</image>
<image style="overflow:visible;" width="1198" height="998" xlink:href="../../Library/CloudStorage/GoogleDrive-lucas.pretti@okfn.org/.shortcut-targets-by-id/0B79xBlVd-Nf6ZzMzUlZSTWwxV28/Open Knowledge All Team/Brand 2023/Illustrations/L 1500px - web transp/Icons/data.png"  transform="matrix(1 0 0 1 -3164.6372 4237.4756)">
</image>
<image style="overflow:visible;" width="1162" height="1032" xlink:href="../../Library/CloudStorage/GoogleDrive-lucas.pretti@okfn.org/.shortcut-targets-by-id/0B79xBlVd-Nf6ZzMzUlZSTWwxV28/Open Knowledge All Team/Brand 2023/Illustrations/L 1500px - web transp/Icons/funders.png"  transform="matrix(1 0 0 1 -3164.6372 4237.4756)">
</image>
<image style="overflow:visible;" width="1005" height="1001" xlink:href="../../Library/CloudStorage/GoogleDrive-lucas.pretti@okfn.org/.shortcut-targets-by-id/0B79xBlVd-Nf6ZzMzUlZSTWwxV28/Open Knowledge All Team/Brand 2023/Illustrations/L 1500px - web transp/Icons/governance.png"  transform="matrix(1 0 0 1 -3164.6372 4237.4756)">
</image>
<image style="overflow:visible;" width="1255" height="807" xlink:href="../../Library/CloudStorage/GoogleDrive-lucas.pretti@okfn.org/.shortcut-targets-by-id/0B79xBlVd-Nf6ZzMzUlZSTWwxV28/Open Knowledge All Team/Brand 2023/Illustrations/L 1500px - web transp/Icons/impact.png"  transform="matrix(1 0 0 1 -3164.6372 4237.4756)">
</image>
<image style="overflow:visible;" width="1275" height="1127" xlink:href="../../Library/CloudStorage/GoogleDrive-lucas.pretti@okfn.org/.shortcut-targets-by-id/0B79xBlVd-Nf6ZzMzUlZSTWwxV28/Open Knowledge All Team/Brand 2023/Illustrations/L 1500px - web transp/Icons/jobs.png"  transform="matrix(1 0 0 1 -3164.6372 4237.4756)">
</image>
<image style="overflow:visible;" width="1246" height="1065" xlink:href="../../Library/CloudStorage/GoogleDrive-lucas.pretti@okfn.org/.shortcut-targets-by-id/0B79xBlVd-Nf6ZzMzUlZSTWwxV28/Open Knowledge All Team/Brand 2023/Illustrations/L 1500px - web transp/Icons/knowledge.png"  transform="matrix(1 0 0 1 -3164.6372 4237.4756)">
</image>
<image style="overflow:visible;" width="1163" height="1026" xlink:href="../../Library/CloudStorage/GoogleDrive-lucas.pretti@okfn.org/.shortcut-targets-by-id/0B79xBlVd-Nf6ZzMzUlZSTWwxV28/Open Knowledge All Team/Brand 2023/Illustrations/L 1500px - web transp/Icons/mission.png"  transform="matrix(1 0 0 1 -3164.6372 4237.4756)">
</image>
<image style="overflow:visible;" width="943" height="914" xlink:href="../../Library/CloudStorage/GoogleDrive-lucas.pretti@okfn.org/.shortcut-targets-by-id/0B79xBlVd-Nf6ZzMzUlZSTWwxV28/Open Knowledge All Team/Brand 2023/Illustrations/L 1500px - web transp/Icons/policy.png"  transform="matrix(1 0 0 1 -3164.6372 4237.4756)">
</image>
<image style="overflow:visible;" width="1413" height="1197" xlink:href="../../Library/CloudStorage/GoogleDrive-lucas.pretti@okfn.org/.shortcut-targets-by-id/0B79xBlVd-Nf6ZzMzUlZSTWwxV28/Open Knowledge All Team/Brand 2023/Illustrations/L 1500px - web transp/Icons/press.png"  transform="matrix(1 0 0 1 -3164.6372 4237.4756)">
</image>
<image style="overflow:visible;" width="1302" height="998" xlink:href="../../Library/CloudStorage/GoogleDrive-lucas.pretti@okfn.org/.shortcut-targets-by-id/0B79xBlVd-Nf6ZzMzUlZSTWwxV28/Open Knowledge All Team/Brand 2023/Illustrations/L 1500px - web transp/Icons/reproducible-research.png"  transform="matrix(1 0 0 1 -3164.6372 4237.4756)">
</image>
<g>
	<path d="M1111.4,388.9c1.4-5.3,3.2-10,3.7-14.7c1.1-9.4,1.2-18.9,2.1-28.3c2-21.2,4.3-42.3,6.3-63.4c0.6-5.9,0.6-11.9,0.6-17.9
		c0-7.9,2.5-10.3,10.1-12.2c2.6-0.6,4.3-4.3,6.8-6.1c1.3-0.9,4.1-1.6,5.1-0.9c25.8,18.7,45.9,42.3,58.6,71.7
		c7,16.2,10.5,33.5,11.8,51.2c1,12.8,0.6,25.6-3.8,37.4c-5.2,14.1-12.1,27.8-20,40.6c-12.2,19.9-29.1,35.4-49.8,46.5
		c-0.6,0.3-1.2,0.6-1.7,1c-0.2,0.2-0.2,0.6-0.6,1.7c13,2.3,25.9,4.3,38.6,7c10,2.1,20,4.9,29.8,8c2.1,0.7,4.5,4.4,4.5,6.7
		c0.2,11.5-4.1,21.8-9.2,31.9c-8.4,16.9-21.4,29.2-37.9,37.8c-4.8,2.5-10.2,3.6-15.4,5.3c-0.2,0.1-0.3,0.1-0.5,0.1
		c-1.8-0.2-3.5-0.4-5.3-0.6c1.2,1.8,2.3,3.7,3.6,5.4c4.3,5.7,9.3,10.9,12.7,17.1c3.8,6.9,4.2,15,3.4,22.9c-0.2,2-1.4,4-2.2,5.9
		c-1.3,2.8-2.3,5.8-4,8.4c-3.1,4.6-6.7,8.9-10.1,13.3c-2.9,3.8-6.2,7.3-9,11.2c-5.1,7.2-4.8,7.2,0.2,14.7
		c6.6,9.9,14.4,19.1,17.7,30.9c1.6,5.7,2.4,11.7,3.6,17.6c0.1,0.5-0.1,1,0,1.5c2.4,13-3.6,23.2-11.2,32.6
		c-6.7,8.3-13.9,16.2-20.5,23.9c3.1,7.3,6.9,14.1,8.9,21.3c4.7,17.1,4.3,34.3-3.8,50.4c-2.5,5-6.9,9.2-10.6,13.6
		c-5.4,6.5-5,13.6-2.8,21.2c2.6,8.7,5.8,17.6,6.5,26.5c1.1,14.3-6.1,25.3-17.7,33.4c-3.9,2.7-7.8,5.5-11.6,8.3
		c-2.1,1.6-3.6,3.8-7.2,2.3c-1-0.4-5.6,3.7-5.7,5.9c-0.9,13.3-1,26.6-1.2,39.9c0,1.2,1,2.9,2,3.4c7,3.8,14.6,6.8,21.2,11.3
		c12.6,8.6,24.9,17.6,34.4,29.9c3.6,4.7,7.5,9.3,10.2,14.5c3.7,7.1,6.6,14.6,9.4,22.2c1.5,4.3,2.5,8.9,2.9,13.4
		c0.4,5.3-0.4,10.8-0.1,16.1c0.7,11.4-1.1,22.5-3.8,33.4c-1.7,7-4.5,13.9-7.5,20.4c-3.3,7-7.2,13.8-11.5,20.3
		c-6.8,10.4-14.5,20.1-24.4,27.8c-4,3.2-7.8,6.7-11.6,10.1c-10.6,9.5-22.8,14.5-37.3,12.7c-5.4-0.7-7.4-4.3-9.2-8.9
		c-4.6-12.3-0.7-24.5-0.6-36.8c0.1-19.5,0.7-39.1,0.2-58.6c-0.2-7.6-2.8-15.2-4.3-22.7c-1.1-5.1-5.2-7.3-9.5-8.7
		c-14-4.3-28.2-7.7-43.1-3.8c-4.8,1.3-9.9,1-14.8,1.8c-4.5,0.7-9,1.8-13.5,2.9c-4,1-7.9,2.1-12.3,3.3c-0.9,9.7-1.9,20-2.8,30.4
		c-1.5,18.2-2.6,36.3-4.2,54.5c-1.2,13.2-2.8,26.4-4.3,39.6c-0.5,4.5-3.6,6.5-7.7,7.1c-1,0.1-2.3-0.8-3.2-1.5
		c-1.4-1.1-2.5-2.4-3.7-3.5c0-14.9-0.3-30.3,0.1-45.7c0.2-8.8,1.6-17.5,2.3-26.3c0.7-9.1,0.7-18.3,1.6-27.3c1-9.5,2.8-19,4.3-28.4
		c0.2-1,0.8-2,1.2-2.8c-0.9-0.4-1.7-0.7-2.5-1.1c0.2-0.7,0.2-1.1,0.5-1.3c15.2-12.7,34-15.5,52.5-18c15.2-2,30.1,2.3,44.7,6.5
		c12.3,3.6,24.6,7.2,34.4,16.2c2.3,2.1,4.3,3.7,3.2,7.9c-0.9,3.6,1.2,7.9,1.6,12c1.5,14.2,2,28.4-0.4,42.7
		c-3.1,18.5-5,37.2-7.7,57.6c4.9-1.4,8.7-2.1,12-3.6c16.2-7.5,26.7-20.4,34.3-36.1c6.3-13.1,13.3-26,18.6-39.6
		c2.8-7.3,3-15.8,3.6-23.9c2.6-39.9-10.2-73-44-96.4c-20.4-14.1-42.4-24.6-67.3-27.2c-12.1-1.3-24.6-0.9-36.7,0.3
		c-11.5,1.2-22.9,3.9-34,7.2c-6.9,2-13.3,6-19.4,9.9c-12.1,7.9-21.8,18.5-31.2,29.5c-11.1,12.9-19,27.5-25.9,42.7
		c-2.5,5.6-3.7,11.7-5.6,17.6c-5.8,17.6-5.4,35.6-3.4,53.7c1.5,13.1,7.6,24.5,13.8,36c7.2,13.2,17.3,21.9,31.5,26.5
		c4.1,1.3,6.2,5.7,5.1,9c-0.9,2.7-6.5,4.4-10.1,3.7c-17.5-3.1-27.8-15.3-36.2-29.3c-6.2-10.3-11.6-21.1-16.7-32
		c-6.2-13.3-6.8-27.7-6.6-42c0.3-29.7,9.5-57,25.5-81.8c13.3-20.6,29.7-38.4,50.9-51.3c3.5-2.1,7.5-3.7,11.4-4.8
		c2.9-0.8,4.3-2,4.5-5c0.7-10.9,1.6-21.9,2.1-32.8c0.1-1.5-1.1-3.5-2.3-4.6c-3-2.8-6.2-5.5-9.5-7.9c-1-0.7-2.8-0.9-4-0.6
		c-6.6,1.9-12.9,4.5-20.2,4.6c-8.8,0-17.7,1.5-26.5,2.1c-13.1,0.9-26.2,2.4-39.3,2.2c-16.6-0.2-33.2-1.3-49.7-3.1
		c-19.3-2.1-37.8-7.4-55.6-15.7c-15-7-30.3-14.2-46.3-17.9c-16.5-3.8-33.9-4.1-50.9-4.7c-13.4-0.5-26.9,0.9-40.4,1.5
		c-2.2,0.1-4.3,0.7-6.4,0.7c-3.1-0.1-4.3,1.1-4.6,4.3c-1.6,15.5-3.4,31.1-5.3,46.6c-0.8,6.8-2.2,13.9-7.6,18.6
		c-4.2,3.6-9.5,5.9-14.4,8.6c-20.5,11.7-43,13.2-65.8,14.1c-14.9,0.6-29.8,2.3-44.7,3.7c-12.1,1.1-24.1,2.7-36.2,3.6
		c-11.9,0.9-23.8,1.2-35.7,1.9c-2.6,0.2-5.2,0.8-7.8,1.4c-5.4,1.2-12.1-3.6-12.1-9.8c0-1.1-1-2.2-2-4.3c4.6-1.7,9.3-4.2,14.3-5.2
		c14.8-3,29.6-6.2,44.6-8.1c22.9-2.8,46-4.6,69-6.7c14.7-1.3,29.5-2.5,44.3-3.4c9.9-0.6,18.2-5.1,26.8-9.2c1.3-0.6,2.4-2.7,2.5-4.3
		c1-9.5,1.6-19,2.4-28.5c0.8-10.2,1.8-20.5,2.5-30.7c1.5-19.8,3.2-39.7,4.4-59.5c0.6-10.6,0.5-21.2,0.6-31.8
		c0.2-17.3,0.5-34.5,0.5-51.8c0-13.6-0.6-27.3-0.3-40.9c0.2-10.1,0.8-20.2,2.2-30.2c1.9-13.4,0.6-26.4-0.9-39.7
		c-1.9-16.8-3.2-33.7-4.8-51.4c-12.5-4.9-26.5-6.7-41.5-5.4c-19.8,1.8-39.7,2.3-59.6,2.9c-14.9,0.4-29.8,0.3-44.7,0.1
		c-7.9-0.1-15.8-0.9-23.8-1.3c-16.8-0.9-33.5-1.7-50.3-2.6c-16.5-0.9-33.1-0.9-49.6-0.1c-2.4,0.1-4.9,1-7.2,1.6
		c-4.6,1.3-7.1-0.8-7-5.7c0-1.4-0.7-2.7-1.1-4.2c6.4-6.6,14.9-8.6,23.5-9.3c11.9-1,23.9-1.3,35.8-1.3c7.4,0,14.8,1.3,22.2,1.8
		c6.5,0.4,13,0.5,19.5,0.7c19.4,0.3,38.8,1,58.2,0.8c24.2-0.2,48.4-1,72.6-1.8c15.3-0.5,30.6-1.4,45.7,1.9
		c6.1,1.3,11.8,4.2,17.7,6.4c2.4,0.9,5.9,1.4,6.9,3.2c3.6,6.5,8.8,12.5,7,20.9c-0.1,0.6,0,1.2,0,1.7c15.1-1.9,30-3.8,45-5.5
		c12.4-1.5,24.9-2.2,37.2-4.5c6-1.1,11.5-5,17-8c30.7-16.9,59.3-36.8,87.7-57.2c9.6-6.9,21.2-11.1,31.3-17.5
		c27.1-17.2,57.6-23.4,88.4-29.2c9.6-1.8,19.2-4,28.8-5.9c4.9-0.9,9.9-1.2,14.7-2.3c7.7-1.7,15.2-3.7,23.3-5.7
		c-6.4-4.9-12.8-8.9-18.1-14c-5.5-5.3-10.1-11.6-15-17.4c-2.7-3.2-5.2-6.4-7.9-9.6c-9.1-11-14.4-24.1-18.5-37.3
		c-2.9-9.5-2.3-20.1-2.6-30.3c-0.3-11.2,3-21.8,5.3-32.7c4.2-20.2,14.3-37.5,25.2-54.3c6.1-9.5,13.9-18.2,22.2-25.8
		c5.8-5.3,13.6-8.5,20.9-11.9c7.7-3.7,15.8-6.6,23.8-9.6c4.4-1.7,8.9-1.7,13.1,1.3c3.2,2.3,4.9,5.1,4.6,9.2
		c-1.6,22.7-3,45.4-4.5,68.1c-0.7,11.1-1.6,22.2-2.2,33.3c-0.1,2,0.3,4.7,1.6,5.9c6.5,6.4,12.7,13.6,20.4,18.1
		c7.5,4.4,16.5,6.7,25.2,8.7C1077,396.9,1094.7,393.7,1111.4,388.9z M1199.6,529.3c-2.4-0.9-4.1-1.8-6-2.3
		c-8.2-2.3-16.3-4.7-24.6-6.6c-9.4-2.2-18.9-3.6-28.3-5.8c-21.8-5.1-43.6-10.5-65.4-15.6c-4.2-1-6.2-3.8-8.2-7.2
		c-2.7-4.6-0.3-6.8,3.9-6.4c7.4,0.8,14.7,1.7,22.1,2.5c4.9,0.5,9.9,0.1,14.5,1.5c5,1.5,9.4,1.1,13.9-0.6c11.3-4.4,21-11.4,29.7-19.9
		c15.9-15.6,27.2-34.3,37-54.1c5.5-11.2,8.6-23.1,7.3-35.5c-1.3-12.5-4.4-24.8-6-37.3c-1.7-13.5-7.5-25.6-14.2-36.8
		c-7.7-13-17.7-24.6-27-36.7c-2.3-3-5.7-5.1-8.5-7.6c0,0.1-0.2,0.8-0.2,1.4c-0.7,14.3-1.3,28.5-1.9,42.8c-0.9,19-1.8,37.9-2.6,56.9
		c-0.4,8.5-0.3,17-4.7,24.6c-0.4,0.7-1.3,1.7-1.1,2.2c2.7,5.2-2,6.1-4.7,7.9c-2.9,1.9-6.1,3.4-9.4,4.6c-23.8,9-48.3,12.1-73.5,8.9
		c-9.6-1.2-19-3.4-26.6-9.8c-4.1-3.5-7.5-7.7-11.5-11.4c-5.9-5.5-10.2-11.5-11.2-20.1c-0.7-6.5-1.5-12.5,2.4-18.3
		c1-1.5,1.1-3.8,1.3-5.7c1.4-21.7,2.7-43.4,4.1-65.1c0.4-7,0.8-14,1.2-22c-3,1-5,1.3-6.6,2.3c-6.1,3.6-12.2,7.3-18.1,11.3
		c-4.1,2.7-7.8,6-11.6,9.1c-2.2,1.9-4.4,3.8-6.3,6c-2.6,3-4.9,6.2-7.4,9.3c-3.4,4.3-7.3,8.3-9.9,13c-6.2,11.1-11.9,22.5-17.5,34
		c-1.3,2.7-1.3,6.1-1.6,9.2c-0.3,3.3,0,6.6-0.2,9.9c-0.1,1.6-0.9,3.2-1.1,4.8c-4.3,25.4,5,47.7,17.9,68.3
		c8.4,13.4,19.7,24.9,32.5,34.7c9.3,7.1,19.7,11.7,31.1,14.2c3.6,0.8,7.6,0.3,11.2-0.3c9.5-1.5,19-3.5,28.1-5.1
		c0.5,3.5,0.8,5.8,1.2,8.4c-9.7,9.9-9.6,10.2-22.9,14.4c-8,2.5-16.4,4-24.6,6c-17.2,4.1-34.4,8.6-51.8,12.3
		c-13.5,2.9-27.3,4.3-40.7,7.3c-17.1,3.8-34,8.4-50.8,13.2c-8.7,2.5-17.5,5.7-25.5,9.9c-11.6,6-22.5,13.3-33.7,20
		c-4.2,2.5-9,4.3-12.9,7.2c-9.3,6.8-17.9,14.6-27.4,21c-11.7,7.9-23.9,15.1-36.1,22.2c-11.3,6.6-22.8,12.7-34.3,18.8
		c-3.4,1.8-7.1,5.3-10.9,2.7c-5.2-3.5-10.1-2-15.2-1.1c-3.3,0.6-6.4,1.7-9.7,2.3c-11.1,2-22.2,3.7-33.2,5.7
		c-6.1,1.1-12.2,2.5-18.7,3.9c0.8,4.7,1.5,8.4,1.9,12.1c0.9,7.4,2.3,14.8,2.3,22.3c0,13.5-0.9,27.1-1.3,40.6
		c-0.3,10.4-0.5,20.9-0.3,31.3c0.3,12.9,1.4,25.8,1.5,38.7c0.1,15-0.2,30.1-0.9,45.1c-0.6,13.6-2.1,27.1-3.1,40.7
		c-0.4,5.8-0.1,11.6-0.9,17.3c-0.8,6.3,0.2,7.8,6.6,7.4c21.5-1.2,42.9-2.9,64.4-3.1c11.5-0.1,23.4,0.8,34.5,3.8
		c16.6,4.5,32.5,11.3,48.8,16.9c13,4.5,25.9,9.6,39.2,12.8c24.6,5.9,49.8,5.6,74.9,6.4c11.9,0.4,23.9,0.6,35.8,0.7
		c8.4,0.1,16.8,0,26.4,0c-8.3-16.6-8.1-31.3,2-45.5c0.9,1.1,1.8,2.2,2.9,3.6c1-0.8,1.8-1.5,2.7-2.1c4.7,4.1,8.9,8.5,8.7,15
		c-0.1,4.4-1.9,8.8-2,13.3c-0.1,4.8-0.7,10.7,1.7,14.4c9.5,15,25.3,20.3,41.7,22c12.3,1.3,24.9-1.2,37.3-1.1
		c13.3,0.1,26.6,1.1,39.8,1.7c8.1,0.3,16.1-1.4,22.8-5.6c5-3.1,8.5-8.4,13.2-12.1c6.9-5.4,8.7-12.9,10.1-20.8
		c2-11.3-1.6-21.6-5.3-32c-2.2-6.3-3.5-12.8-0.5-18.9c2.6-5.3,6.7-9.7,10-14.7c5.8-8.6,8.1-18.4,9.2-28.4c1.2-11.1,0-22.2-5.7-32.3
		c-1.5-2.6-2.6-5.5-3.1-8.4c-0.4-2-0.2-4.7,1-6.3c5.4-7.5,11.3-14.7,16.9-22c1.5-2,3.1-4,4.2-6.2c7.9-16.1,8.9-32.7,1.3-49
		c-4.7-10-11.1-19.2-16.9-28.8c-2.6-4.3-3.9-8.3-0.6-13.1c5.2-7.6,10.1-15.6,15-23.4c5.2-8.3,8.1-17.5,7.8-27.3
		c-0.3-9.9-5.4-22-19.9-22.5c-6.9-0.3-13.9-0.7-20.8-1.2c-10.2-0.8-20.6-0.7-29.9-6c-3.2-1.8-6-1.6-9.4-0.4
		c-9.7,3.6-19.4,7.9-29.5,9.9c-22.3,4.3-44.9,7.3-67.3,10.9c-2.7,0.4-4.7,1-5,4.4c-0.8,9.5-3.6,18.6-4.3,28.3
		c-1.1,15.4,4.4,27,15.4,36.5c4.4,3.8,4.6,8.5,6.6,13.8c-12.5-0.8-21-7-28.7-16c-3.4,10.9-6.6,20.9-10.1,31.9c4-1.6,6.9-2.6,9.8-3.8
		c22.2-9.7,45.3-15.2,69.4-17.3c16.3-1.4,32.4-3.9,48.6-5.9c2.3-0.3,3.3,0.3,2.3,3.1c-1.9,5-6.1,6.7-10.4,8.1
		c-11.6,3.8-23.3,7.5-35.2,10.6c-10.3,2.8-21.1,4.2-31.3,7.2c-9,2.7-17.4,7.2-26.3,10.1c-20,6.5-29.3,22.3-34.9,40.5
		c-2.3,7.6-0.5,16.5-0.6,24.8c-0.1,6.8,1.4,8,8.2,7.5c14.1-0.9,28.2-1.3,42.3-2.1c16.2-0.9,32.5-2.2,48.7-3
		c8.2-0.4,16.5-0.1,24.8-0.1c-0.3,0.6-0.8,1.5-1.3,2.6c1.9,0.2,3.7,0.4,5.3,0.6c-0.2,1.8-0.4,3.2-0.5,4.2c-3.1,1.9-5.8,4.5-9,5.4
		c-7.7,2-15.6,3.4-23.5,4.5c-14.3,2-28.5,4-42.9,5.2c-13.2,1.1-26.5,1.1-39.8,1.6c-6,0.3-12.6,4.3-12.8,8.4
		c-0.3,6.3-0.6,12.7,0.4,18.9c2.1,13,5.1,25.9,7.7,39c-3,1.6-6.4,0-9.5-3.8c-6.8-8.4-8.4-19-12.3-28.6c-1.8-4.3-2.5-9.2-2.9-14
		c-0.6-7.1-0.9-14.2-0.6-21.3c0.1-2.4,2.4-4.6,3.7-6.9c1.1-1.9,3.7-4.1,3.2-5.4c-2.1-5.8-4.9-11.3-7.7-17.3
		c-7.8,11.1-11.7,24.1-20.7,34.2c-4.8,5.4-7.6,12.6-11.4,19c-2.7,4.4-6.3,8.2-8.3,12.9c-2.8,6.5-6.8,11.7-12.8,15.2
		c-2.3,1.3-5.6,1.1-8.3,0.7c-0.6-0.1-0.7-3.9-1-6.2c-0.3,0-1-0.2-2.1-0.3c1.2-1.7,2.6-3,3.3-4.6c4-9.5,7.6-19.2,11.7-28.6
		c6.8-15.3,13.9-30.5,20.9-45.7c4.5-9.8,9.4-19.5,13.7-29.4c7.5-17.3,11.6-35.7,16.2-53.9c5.4-21.6,12.2-42.9,18-64.4
		c1.6-6,1.8-12.3,2.7-18.7c-5.4,0-9.6,0-13.9,0c-7.1,0.1-13.4-1.8-18-7.6c-2.5-3.2-2.1-5.4,1.7-6.5c3.4-0.9,6.8-1.7,10.2-2.2
		c16.9-2.5,33.9-4.3,50.6-7.5c20.1-3.9,40-8.7,59.8-13.7c9.2-2.3,18-5.9,27.2-8.5c3-0.9,6.5-0.7,9.7-0.2c1.4,0.2,2.5,3.1,3.9,3.2
		c27.8,2.9,55.5,9.5,83.5,1.5c7.3-2.1,15-3.4,21.8-6.6C1181.8,555.2,1191.8,543.7,1199.6,529.3z M1066.1,982.6
		c-9.9,0.5-19.3,1-28.7,1.4c-5.2,0.2-10.6-0.3-15.7,0.5c-8.3,1.3-16.5,3.1-25,0.9c-3.9-1-8.2-0.4-12-1.6c-4.9-1.5-9.6-3.9-15-6.2
		c-0.8,8.9-1.6,17.2-2.5,26.7c35.6-7.8,69.1-4.9,101.7,9.4c-5.2-3.9-5.2-9-4.4-14.5C1065.3,993.9,1065.6,988.4,1066.1,982.6z"/>
	<path d="M945.1,878.6c4.2,0.3,7.6,0.9,11,0.7c17.1-0.8,34.1-2.1,51.2-2.8c7.8-0.3,15.7,0.5,23.5,0.3c6.9-0.1,13.7-0.8,20.6-1.4
		c6.3-0.6,9.5,2.5,10,8.6c-3.5,4.5-8.7,4.8-14.1,5.3c-14.9,1.1-29.7,2.7-44.6,3.6c-13.3,0.8-26.6,1.4-39.9,0.9
		c-6.4-0.2-13.5-0.9-17.7-8C943.1,882.6,943,880.6,945.1,878.6z"/>
	<path d="M1174.6,535.3c-0.2,1.4-0.5,2.5-0.8,4.5c1.7-0.9,2.8-1.4,3.9-1.9c-2.8,5-7.5,6.9-12.3,6.6c-16.9-1.2-33.8-3.2-49.3-10.8
		c-3.1-1.5-5.8-4-8.7-6c6-8.8,11.1-9.9,18.9-6.6c12.6,5.4,25.2,10.4,39,11.6C1168.2,532.8,1171.2,534.3,1174.6,535.3z"/>
</g>
</svg>
