<svg xmlns="http://www.w3.org/2000/svg" width="198.51" height="64" viewBox="0 0 198.51 64">
  <g id="Group_309" data-name="Group 309" transform="translate(-189 -4017)">
    <g id="sloan-foundation" transform="translate(189.155 4017)">
      <path id="Path_2056" data-name="Path 2056" d="M20.146,24.02a8.527,8.527,0,0,1-1.312-3.088C14.873,8.535,13.486,3.708,12.649.746c0-.112-.134-.194-.607-.194s-.364,0-.4.112C9.623,6.741,6.39,14.921,3.655,21.472a7.957,7.957,0,0,1-1.216,2.241c-.438.5-.607.613-2.43.737-.073,0-.073.262,0,.262,2.114-.084,4.642-.084,6.465,0,.073,0,.1-.306,0-.306-2.285-.153-2.625-.262-2.625-1.154a5.924,5.924,0,0,1,.414-1.628c.644-1.809.972-2.782,1.652-4.4a.332.332,0,0,1,.344-.194H9.319c2.662,0,4.277,0,4.776.084.535,1.851,1.385,4.46,1.719,5.663.206.737.17,1.049,0,1.238s-.7.306-2.151.417c-.073,0-.073.306,0,.306,1.981-.084,2.855,0,4.035,0s2.99.084,4.861.111c.073,0,.073-.348,0-.348C20.669,24.367,20.426,24.325,20.146,24.02ZM6.219,16.48C7.3,13.571,9.051,9.148,10.425,5.448h0c.875,2.658,2.358,7.276,3.5,11.13C11.944,16.619,8.274,16.577,6.219,16.48Z" transform="translate(0.046 0.221)"/>
      <path id="Path_2057" data-name="Path 2057" d="M26.723,24.5c-2.053-.084-2.187-.111-2.261-.194a2.957,2.957,0,0,1-.267-1.586V12.28c0-4.174,0-7.6.073-11.6,0-.262,0-.348-.229-.348-2.053.084-3.33.084-5.25,0-.134,0-.134.348,0,.348,1.957.084,2.09.084,2.187.194s.1.348.1.918c.073,4.271.073,8.167.073,13.454,0,2.42-.1,5.969-.1,7.86,0,.765,0,.96-.1,1.085s-.364.153-2.187.153c-.073,0-.1.348,0,.348,3.094,0,4.982,0,7.948.111C26.82,24.843,26.82,24.5,26.723,24.5Z" transform="translate(4.079 0.133)"/>
      <path id="Path_2058" data-name="Path 2058" d="M34.755,24.585c-2.588,0-2.965-.153-3.063-.262s-.1-.153-.1-1.392c0-3.353,0-9.321-.073-12.409h4.071c.1,0,.134-.417,0-.417h-4.07V6.749a13.207,13.207,0,0,1,.7-4.9A2.368,2.368,0,0,1,34.658.395c1.823,0,2.588,1.154,2.358,1.392s-.8.194-1.312.765a1.886,1.886,0,0,0-.438,1.312,1.86,1.86,0,0,0,.49,1.249,1.409,1.409,0,0,0,1.127.457,1.553,1.553,0,0,0,1.237-.617,2.06,2.06,0,0,0,.415-1.47A3.725,3.725,0,0,0,34.621,0a5.274,5.274,0,0,0-4.338,2.087c-1.58,1.809-1.884,4.425-1.8,7.93H25.823c-.1,0-.1.417,0,.417h2.662c.1,1.92.1,10.363.1,12.285,0,1.312,0,1.613-.134,1.767a9.162,9.162,0,0,1-2.552.153c-.17,0-.134.348,0,.348,2.358,0,7.972-.084,8.847-.084C34.853,24.891,34.853,24.585,34.755,24.585Z" transform="translate(5.598 0.003)"/>
      <path id="Path_2059" data-name="Path 2059" d="M43.775,6.816c-1.92,0-3.094,2.7-4.071,5.565H39.63c0-1.2.073-3.542.073-4.549,0-.543,0-.613-.607-.613s-4.01.112-4.982.112c-.134,0-.134.306,0,.306,1.957,0,2.114.084,2.224.194a18.955,18.955,0,0,1,.3,4.814V19a13.555,13.555,0,0,1-.206,2.782c-.1.111-.344.111-2.588.153-.134,0-.1.348,0,.348h8.708c.134,0,.134-.348,0-.348A8.837,8.837,0,0,1,39.93,21.7a10.592,10.592,0,0,1-.166-2.781V14.872a8.719,8.719,0,0,1,.839-3.854c.839-1.892,1.884-3.506,2.831-3.506.364,0,.535.194.535.348a3.529,3.529,0,0,0-.972,2.2,1.872,1.872,0,0,0,.47,1.289,1.413,1.413,0,0,0,1.147.478A2.206,2.206,0,0,0,46.5,9.4a2.935,2.935,0,0,0-.873-1.968A2.223,2.223,0,0,0,43.775,6.816Z" transform="translate(7.323 2.663)"/>
      <path id="Path_2060" data-name="Path 2060" d="M52.036,6.65a6.692,6.692,0,0,0-5.019,2.7,8.308,8.308,0,0,0-1.957,5.273,7.944,7.944,0,0,0,1.957,5.565,7.65,7.65,0,0,0,5.554,2.588,6.211,6.211,0,0,0,5.784-4.8c0-.153-.3-.306-.364-.194-.972,2.894-2.759,4.46-5.042,4.46A3.275,3.275,0,0,1,49.486,20a14.89,14.89,0,0,1-.8-5.7c1.719-.084,4.3-.111,9.722-.084a.306.306,0,0,0,.206-.348,7.756,7.756,0,0,0-1.833-4.953A6.313,6.313,0,0,0,52.036,6.65Zm-3.4,7.165a14.807,14.807,0,0,1,.815-5.286,2.642,2.642,0,0,1,2.43-1.586c2.151,0,3.094,1.968,3.33,6.775Z" transform="translate(9.754 2.606)"/>
      <path id="Path_2061" data-name="Path 2061" d="M73.075,24.517c-1.981,0-2.224,0-2.321-.153s-.206-.543-.206-2.115c0-3.659-.073-5.772-.073-9.905,0-3.269.1-8.125.17-11.675,0-.306-.073-.394-.229-.394-2.054.118-3.428.164-5.591.164-.073,0-.073.348,0,.348,2.151,0,2.429.108,2.429.232a8.031,8.031,0,0,1,.134,1.388v9.172h0a5.136,5.136,0,0,0-3.645-2.351A6.186,6.186,0,0,0,59.6,11.69,8.838,8.838,0,0,0,57.41,17.7a8.674,8.674,0,0,0,2.018,5.746,4.847,4.847,0,0,0,3.645,1.916,4.939,4.939,0,0,0,4.169-3.353h0c.1,2.616.17,2.894.3,2.894,1.385,0,3.2-.084,5.42-.084C73.233,24.823,73.233,24.517,73.075,24.517Zm-5.958-2.782a4.11,4.11,0,0,1-3.4,2.782,2.133,2.133,0,0,1-2.151-1.461c-.438-1-.644-2.351-.644-5.746a14.17,14.17,0,0,1,.778-5.746A2.7,2.7,0,0,1,64.127,9.8a4.627,4.627,0,0,1,3.24,2.352c.134.348.17.807.17,3.965-.048,4.425-.121,4.966-.425,5.621Z" transform="translate(12.413 0.112)"/>
      <path id="Path_2062" data-name="Path 2062" d="M86.9,24.088c-3.646,0-3.731-.084-3.84-.194s-.1-.5-.1-5.464V13.616a.088.088,0,0,1,.021-.06.067.067,0,0,1,.053-.024,16.754,16.754,0,0,0,2.053.111,10.344,10.344,0,0,0,7.887-3.269,4.992,4.992,0,0,0,1.385-3.506A4.674,4.674,0,0,0,93.22,3.6c-1.409-1.613-4.01-2.546-7.644-2.546H76.392c-.1,0-.1.348,0,.348,2.358,0,2.795.084,2.892.194a55.892,55.892,0,0,1,.206,6.051v8.709c0,6.859-.073,7.513-.17,7.624a20.451,20.451,0,0,1-3.094.236c-.1,0-.1.348,0,.348,1.786-.084,3.293-.111,5.156-.111h5.481C87,24.435,86.965,24.088,86.9,24.088ZM82.93,5.05c0-3.241,0-3.395.134-3.464s.344-.194,2.261-.194c2.855,0,4.108.417,4.776,2a9.418,9.418,0,0,1,.573,3.542,9.563,9.563,0,0,1-.5,3.77c-.7,1.613-2.43,2.462-5.214,2.462-1.786,0-1.884-.084-1.957-.153s-.073-.194-.073-1.392Z" transform="translate(16.447 0.417)"/>
      <path id="Path_2063" data-name="Path 2063" d="M91.762,14.68a1.877,1.877,0,0,0-1.454.658,2.473,2.473,0,0,0-.6,1.652,2.347,2.347,0,0,0,1.92,2.5,2.4,2.4,0,0,0,2.081-2.616,2.121,2.121,0,0,0-1.948-2.2Z" transform="translate(19.366 5.747)"/>
      <path id="Path_2064" data-name="Path 2064" d="M108.895,10.535c-3.646-1.112-5.019-2-5.019-4.46a4.894,4.894,0,0,1,1.106-3.2,4.442,4.442,0,0,1,3.731-1.5,4.957,4.957,0,0,1,3.937,1.76,16.871,16.871,0,0,1,2.625,5.425c0,.153.267.084.267,0a51.8,51.8,0,0,1,.073-7.6.135.135,0,0,0-.267,0c-.4.96-.875,1.892-1.106,1.892a9.2,9.2,0,0,0-5.518-1.806A7,7,0,0,0,101.651,8.1a5.479,5.479,0,0,0,1.312,4.006c1.008,1.154,2.7,2,6.073,3.005,3.974,1.154,5.42,2.42,5.42,4.9a4.516,4.516,0,0,1-1.106,3.241,4.773,4.773,0,0,1-3.646,1.392,6.283,6.283,0,0,1-4.861-1.968,19.847,19.847,0,0,1-3.2-6.428.116.116,0,0,0-.146-.072.142.142,0,0,0-.083.156,67.7,67.7,0,0,1,.229,8.347.142.142,0,0,0,.083.156.117.117,0,0,0,.147-.072c.535-1.085,1.146-1.809,1.519-1.809.7,0,2.43,2.115,6.222,2.115a7.006,7.006,0,0,0,7.17-7.1,5.581,5.581,0,0,0-1.349-4.09C114.448,12.691,112.7,11.647,108.895,10.535Z" transform="translate(21.886 0.336)"/>
      <path id="Path_2065" data-name="Path 2065" d="M123.754,24.5c-2.053-.084-2.187-.111-2.261-.194a2.949,2.949,0,0,1-.267-1.586V12.28c0-4.174,0-7.6.073-11.6,0-.262,0-.348-.229-.348-2.053.084-3.33.084-5.25,0-.134,0-.134.348,0,.348,1.957.084,2.09.084,2.187.194s.1.348.1.918c.073,4.271.073,8.167.073,13.454,0,2.42-.1,5.969-.1,7.86,0,.765,0,.96-.1,1.085s-.364.153-2.187.153c-.073,0-.1.348,0,.348,3.094,0,4.982,0,7.948.111C123.85,24.843,123.85,24.5,123.754,24.5Z" transform="translate(24.964 0.133)"/>
      <path id="Path_2066" data-name="Path 2066" d="M130.986,6.7a7.333,7.333,0,0,0-5.481,2.546,8.434,8.434,0,0,0-2.114,5.565,7.741,7.741,0,0,0,1.957,5.37,7.52,7.52,0,0,0,5.348,2.588,6.955,6.955,0,0,0,5.25-2.546,7.934,7.934,0,0,0,2.151-5.314,8.558,8.558,0,0,0-2.187-5.815A6.485,6.485,0,0,0,130.986,6.7Zm2.723,13.787a2.794,2.794,0,0,1-2.965,1.934c-2.285,0-3.8-1.92-3.8-7.6a13.817,13.817,0,0,1,.875-5.565,3.229,3.229,0,0,1,3.135-2.142,2.827,2.827,0,0,1,2.9,1.781,12.69,12.69,0,0,1,.644,4.549c.024,3.965-.256,5.815-.789,7.053Z" transform="translate(26.616 2.626)"/>
      <path id="Path_2067" data-name="Path 2067" d="M151.281,18.883c-.344,1.968-1.082,2.894-1.823,2.894s-.875-.394-.875-1.238c0-2.588.1-6.2.1-8.125a5.565,5.565,0,0,0-1.216-3.924,5.147,5.147,0,0,0-4.108-1.7A5.349,5.349,0,0,0,139.25,8.6a2.834,2.834,0,0,0-.839,2,1.865,1.865,0,0,0,1.7,1.867,1.839,1.839,0,0,0,1.766-1.783c0-1.653-1.479-1.739-1.479-2.2S141.478,7.1,143.021,7.1a2.249,2.249,0,0,1,1.884.737,3.36,3.36,0,0,1,.644,2.31v3.506c-4.01.348-6.073,1.238-7.291,2.616a3.577,3.577,0,0,0-.972,2.42,3.831,3.831,0,0,0,3.937,3.812,5.29,5.29,0,0,0,4.229-2.42,2.932,2.932,0,0,0,3.026,2.546c1.823,0,2.795-1.5,3.094-3.659a.2.2,0,0,0-.128-.12.175.175,0,0,0-.163.036Zm-5.76-1.085a5.254,5.254,0,0,1-.17,1.767,4.407,4.407,0,0,1-3.135,2.157c-1.216,0-1.689-1.049-1.689-3.2,0-3.395.875-4.048,5.042-4.425-.013,2.281-.013,2.519-.048,3.715Z" transform="translate(29.606 2.658)"/>
      <path id="Path_2068" data-name="Path 2068" d="M166.1,22.077a5.953,5.953,0,0,1-1.981-.194c-.17-.236-.229-1-.229-4.619v-5.01c0-3.7-1.519-5.565-4.035-5.565-2.285,0-3.646,1.968-5.019,4.924h0c0-1,.073-2.7.1-3.924,0-.262,0-.348-.229-.348h-5.348c-.134,0-.134.306,0,.306,1.823,0,2.053.084,2.151.194a6.74,6.74,0,0,1,.229,2.351V18.9a10.637,10.637,0,0,1-.17,2.921c-.1.111-.4.111-2.224.153-.1,0-.134.306,0,.306,2.552-.084,5.116,0,7.571,0a.157.157,0,0,0,0-.306c-1.678-.084-1.884-.194-1.957-.262a8.224,8.224,0,0,1-.134-2.087c0-1.238-.073-4.174-.073-5.565a5.188,5.188,0,0,1,.4-2.546c.778-1.767,2.151-3.7,3.646-3.7s1.92,1.266,1.92,3.422v8.975a4.757,4.757,0,0,1-.1,1.544c-.1.111-.4.111-1.543.153-.1,0-.1.306,0,.306,2.43,0,3.876,0,6.963.084C166.2,22.425,166.2,22.077,166.1,22.077Z" transform="translate(32.184 2.623)"/>
    </g>
    <path id="Path_2069" data-name="Path 2069" d="M185.407,1c-3.731.084-4.642,0-9.357,0h-7.1c-.1,0-.1.306,0,.306,2.7.084,2.892.194,2.989.306s.073.262.1,2.087c0,2.393.073,6.165.073,8.515V22.23a4.3,4.3,0,0,1-.17,1.7c-.1.111-.51.153-3.232.262-.073,0-.073.306,0,.306h10.771c.073,0,.073-.306,0-.306-3.232-.084-3.5-.153-3.646-.262s-.206-.5-.206-1.392c0-1.266-.1-8.347-.073-10.017.134,0,1.106-.084,1.75-.084,2.114,0,2.723.194,2.989.543a9.9,9.9,0,0,1,.948,3.7c0,.084.229.084.229,0,0-1.238-.073-2.782-.073-4.174s.1-3.395.17-4.924c0-.153-.3-.153-.3,0-.344,3.088-.573,3.617-.875,3.965a4.113,4.113,0,0,1-2.759.584,6.078,6.078,0,0,1-2.09-.112V3.92a10.763,10.763,0,0,1,.1-2.2A13.817,13.817,0,0,1,179,1.61c2.892,0,3.269.236,3.974,1.049s1.216,2.157,2.224,6.247c0,.112.229.112.229,0,.134-2.782.134-5.05.17-7.4C185.65,1.112,185.577,1,185.407,1Z" transform="translate(20.344 4055.93)"/>
    <path id="Path_2070" data-name="Path 2070" d="M190.516,6.7a7.332,7.332,0,0,0-5.481,2.546,8.434,8.434,0,0,0-2.114,5.565,7.731,7.731,0,0,0,1.981,5.356,7.52,7.52,0,0,0,5.348,2.588,6.955,6.955,0,0,0,5.251-2.544,7.951,7.951,0,0,0,2.1-5.3A8.558,8.558,0,0,0,195.417,9.1a6.488,6.488,0,0,0-4.9-2.4Zm2.723,13.787a2.8,2.8,0,0,1-2.929,1.934c-2.285,0-3.8-1.92-3.8-7.6a13.817,13.817,0,0,1,.875-5.565,3.232,3.232,0,0,1,3.111-2.142,2.839,2.839,0,0,1,2.929,1.851,12.689,12.689,0,0,1,.644,4.549c-.013,3.9-.28,5.746-.815,6.984Z" transform="translate(23.413 4058.162)"/>
    <path id="Path_2071" data-name="Path 2071" d="M212.464,21.842c-2.09-.084-2.261-.084-2.43-.236a5.538,5.538,0,0,1-.1-1.739c0-3.812.134-12.331.134-12.521s-.17-.236-.741-.236c-.134,0-4.24,0-5.214.084-.17,0-.134.348,0,.348,2.187,0,2.358.084,2.528.236s.267.807.267,2.31c0,1.238-.073,3.353-.073,5.565a5.745,5.745,0,0,1-.573,2.588c-.8,1.851-1.884,3.117-3.026,3.117a2.092,2.092,0,0,1-1.554-.881,2.746,2.746,0,0,1-.5-1.9V7.622c0-.348-.073-.459-.344-.459-.778,0-2.528.112-5.156.084-.17,0-.17.348,0,.348,1.719.084,2.09.112,2.224.262s.206.5.206,1.613c0,1.392-.073,6.622-.073,8.473a4.733,4.733,0,0,0,.948,3.422,3.856,3.856,0,0,0,2.99,1.266c2.018,0,3.646-1.92,4.715-4.425h0c-.073,3.464.206,4.048.438,4.048,1.312,0,4.01-.084,5.25-.084C212.6,22.191,212.6,21.842,212.464,21.842Z" transform="translate(26.134 4058.322)"/>
    <path id="Path_2072" data-name="Path 2072" d="M226.684,22.077a5.953,5.953,0,0,1-1.981-.194c-.17-.236-.229-1-.229-4.619v-5.01c0-3.7-1.519-5.565-4.035-5.565-2.285,0-3.646,1.968-5.019,4.924h0c0-1,.073-2.7.1-3.924,0-.262,0-.348-.229-.348h-5.348c-.134,0-.134.306,0,.306,1.823,0,2.053.084,2.151.194a6.74,6.74,0,0,1,.229,2.351V18.9a10.64,10.64,0,0,1-.17,2.921c-.1.112-.4.112-2.224.153-.1,0-.134.306,0,.306,2.552-.084,5.116,0,7.571,0a.157.157,0,0,0,0-.306c-1.678-.084-1.884-.194-1.957-.262a8.221,8.221,0,0,1-.134-2.087c0-1.238-.073-4.174-.073-5.565a5.188,5.188,0,0,1,.4-2.546c.778-1.767,2.151-3.7,3.646-3.7s1.92,1.266,1.92,3.422v8.975a4.759,4.759,0,0,1-.1,1.544c-.1.112-.4.112-1.543.153-.1,0-.1.306,0,.306,2.43,0,3.876,0,6.963.084C226.793,22.425,226.793,22.077,226.684,22.077Z" transform="translate(29.208 4058.157)"/>
    <path id="Path_2073" data-name="Path 2073" d="M239.994,24.517c-1.981,0-2.224,0-2.322-.153s-.206-.543-.206-2.115c0-3.659-.073-5.772-.073-9.905,0-3.269.1-8.125.17-11.675,0-.306-.073-.394-.229-.394-2.053.118-3.427.164-5.589.164-.073,0-.073.348,0,.348,2.151,0,2.43.112,2.43.236a8.029,8.029,0,0,1,.134,1.392v9.164h0a5.136,5.136,0,0,0-3.646-2.351,6.186,6.186,0,0,0-4.145,2.462A8.838,8.838,0,0,0,224.33,17.7a8.669,8.669,0,0,0,2.029,5.732,4.847,4.847,0,0,0,3.646,1.92A4.939,4.939,0,0,0,234.174,22h0c.1,2.616.17,2.894.3,2.894,1.385,0,3.2-.084,5.42-.084C240.164,24.823,240.164,24.517,239.994,24.517Zm-5.958-2.782a4.11,4.11,0,0,1-3.4,2.782,2.133,2.133,0,0,1-2.151-1.461c-.438-1-.644-2.351-.644-5.746a14.171,14.171,0,0,1,.778-5.746A2.7,2.7,0,0,1,231.056,9.8a4.617,4.617,0,0,1,3.232,2.351c.134.348.17.807.17,3.965-.048,4.425-.115,4.966-.414,5.621Z" transform="translate(32.327 4055.647)"/>
    <path id="Path_2074" data-name="Path 2074" d="M252.4,18.883c-.344,1.968-1.082,2.894-1.823,2.894s-.875-.394-.875-1.238c0-2.588.1-6.2.1-8.125a5.567,5.567,0,0,0-1.21-3.923,5.147,5.147,0,0,0-4.108-1.7A5.349,5.349,0,0,0,240.376,8.6a2.834,2.834,0,0,0-.839,2,1.865,1.865,0,0,0,1.7,1.867A1.839,1.839,0,0,0,243,10.689c.048-1.67-1.446-1.739-1.446-2.212s1.082-1.392,2.625-1.392a2.249,2.249,0,0,1,1.884.737,3.36,3.36,0,0,1,.644,2.31v3.506c-4.01.348-6.073,1.238-7.291,2.616a3.576,3.576,0,0,0-.972,2.42,3.831,3.831,0,0,0,3.937,3.812,5.321,5.321,0,0,0,4.108-2.462,2.932,2.932,0,0,0,3.026,2.546c1.823,0,2.795-1.5,3.094-3.659C252.67,18.814,252.487,18.814,252.4,18.883ZM246.644,17.8a5.253,5.253,0,0,1-.17,1.767,4.407,4.407,0,0,1-3.135,2.157c-1.216,0-1.689-1.049-1.689-3.2,0-3.395.875-4.048,5.042-4.425-.013,2.281-.013,2.519-.048,3.715Z" transform="translate(35.365 4058.194)"/>
    <path id="Path_2075" data-name="Path 2075" d="M259.836,19.3c-.573,2.588-1.58,3.924-2.662,3.924a1.74,1.74,0,0,1-1.652-1c-.206-.417-.267-.737-.267-3.117,0-3.353.073-8.125.17-9.823.267,0,1.385-.084,4.035-.084.134,0,.206-.348.073-.348l-4.108-.084c0-1.312,0-4.006.134-5.565,0-.194-.206-.194-.229,0a13.179,13.179,0,0,1-2.018,4.745c-.51.584-1.216.807-3.33.918-.134,0-.17.348,0,.348h2.43c-.1,2.963-.134,7.708-.134,10.059a4.583,4.583,0,0,0,.917,3.353,3.868,3.868,0,0,0,3.094,1.266c1.981,0,3.293-1.586,3.84-4.619C260.139,19.145,259.874,19.145,259.836,19.3Z" transform="translate(37.824 4056.735)"/>
    <path id="Path_2076" data-name="Path 2076" d="M267.024,21.821c-1.92,0-2.358-.084-2.43-.194a22.591,22.591,0,0,1-.17-4.591V7.408c0-.262-.073-.348-.267-.348-.668,0-2.855.084-5.554.111-.1,0-.1.348,0,.348,2.187,0,2.43,0,2.552.153a1.98,1.98,0,0,1,.206,1.112c.073,2,.134,6.316.134,7.777v3.311a5.11,5.11,0,0,1-.17,1.739c-.134.153-.644.153-2.552.194-.134,0-.1.306,0,.306h8.349C267.122,22.169,267.122,21.821,267.024,21.821Z" transform="translate(39.688 4058.303)"/>
    <path id="Path_2077" data-name="Path 2077" d="M262.3,4.862a2.316,2.316,0,0,0,2.018-2.338A1.8,1.8,0,0,0,262.639.661a1.847,1.847,0,0,0-1.519.7,2.308,2.308,0,0,0-.51,1.5,1.927,1.927,0,0,0,1.689,2Z" transform="translate(40.135 4055.796)"/>
    <path id="Path_2078" data-name="Path 2078" d="M273.843,6.7a7.333,7.333,0,0,0-5.469,2.546,8.434,8.434,0,0,0-2.114,5.565,7.731,7.731,0,0,0,1.981,5.356,7.52,7.52,0,0,0,5.348,2.588,6.955,6.955,0,0,0,5.249-2.544,7.934,7.934,0,0,0,2.151-5.314A8.557,8.557,0,0,0,278.8,9.082,6.477,6.477,0,0,0,273.843,6.7Zm2.723,13.787A2.794,2.794,0,0,1,273.6,22.42c-2.285,0-3.8-1.92-3.8-7.6a13.817,13.817,0,0,1,.875-5.565,3.229,3.229,0,0,1,3.135-2.142,2.839,2.839,0,0,1,2.927,1.851,12.69,12.69,0,0,1,.644,4.549c-.013,3.9-.28,5.746-.815,6.984Z" transform="translate(41.353 4058.162)"/>
    <path id="Path_2079" data-name="Path 2079" d="M296.224,22.077a5.953,5.953,0,0,1-1.981-.194c-.17-.236-.229-1-.229-4.619v-5.01c0-3.7-1.519-5.565-4.035-5.565-2.285,0-3.646,1.968-5.019,4.924h0c0-1,.073-2.7.1-3.924,0-.262,0-.348-.229-.348h-5.348c-.134,0-.134.306,0,.306,1.823,0,2.053.084,2.151.194a6.738,6.738,0,0,1,.229,2.351V18.9a10.639,10.639,0,0,1-.17,2.921c-.1.111-.4.111-2.224.153-.1,0-.134.306,0,.306,2.552-.084,5.116,0,7.571,0a.157.157,0,0,0,0-.306c-1.678-.084-1.884-.194-1.956-.262A8.241,8.241,0,0,1,285,19.642c0-1.238-.073-4.174-.073-5.565a5.189,5.189,0,0,1,.4-2.546c.778-1.767,2.151-3.7,3.646-3.7s1.92,1.266,1.92,3.422v8.974a4.762,4.762,0,0,1-.1,1.544c-.1.111-.4.111-1.543.153-.1,0-.1.306,0,.306,2.43,0,3.876,0,6.963.084C296.321,22.425,296.321,22.077,296.224,22.077Z" transform="translate(44.176 4058.157)"/>
  </g>
</svg>
