<svg xmlns="http://www.w3.org/2000/svg" width="1828.127" height="433.733" viewBox="0 0 1828.127 433.733">
  <g id="Group_516" data-name="Group 516" transform="translate(-53.873 -3505.197)">
    <g id="Group_505" data-name="Group 505" transform="translate(56 3508.197)">
      <g id="Group_247" data-name="Group 247" transform="translate(0 0)">
        <path id="Path_1439" data-name="Path 1439" d="M10781-9336.969l105.757,106.105h245.922l75.658,74.514h300.97l210.752-212.025h377.915l90.514,115.235h86.726l51.284-50.715" transform="translate(-10781 9368.375)" fill="none" stroke="#c3e1ea" stroke-width="6"/>
        <path id="Path_1440" data-name="Path 1440" d="M10781-9350.7l93.688,93.595h244.934l73.767,73.457h328.654l212.215-210.681h348.4l91.591,115.2h321.009" transform="translate(-10781 9425.432)" fill="none" stroke="#c3e1ea" stroke-width="6"/>
        <path id="Path_1441" data-name="Path 1441" d="M10781-9363.193l79.722,80.122H11107.5l72.29,73.987h356.485l210.316-208.858h321.779l89.744,113.478h223.628" transform="translate(-10781 9481.251)" fill="none" stroke="#c3e1ea" stroke-width="6"/>
        <path id="Path_1442" data-name="Path 1442" d="M10781-9379l68.1,67.978h245.311l73.91,73.728H11549.1l210.72-210.523h293.557l90.065,114.519h362.541l29.73,30.092" transform="translate(-10781 9540.854)" fill="none" stroke="#c3e1ea" stroke-width="6"/>
        <path id="Path_1444" data-name="Path 1444" d="M10781-9407.443l42,42.2h244.371l74.883,74.712h431.942l210.6-211.051h238.734l90.12,114.754h319.465" transform="translate(-10781 9655.948)" fill="none" stroke="#c3e1ea" stroke-width="6"/>
        <path id="Path_1443" data-name="Path 1443" d="M10781-9392.538l54.641,54.614H11081.1l76.229,75H11561.4l211.19-210.484h264.365l94.517,115.049h156.266" transform="translate(-10781 9597.717)" fill="none" stroke="#c3e1ea" stroke-width="6"/>
        <path id="Path_1446" data-name="Path 1446" d="M10781-9423.031l30.438,29.186H11054.5l76.742,75.227,455.508-.2,212.1-212.223h209.282l92.206,116.295H12355.8" transform="translate(-10781 9715.333)" fill="none" stroke="#c3e1ea" stroke-width="6"/>
        <path id="Path_1447" data-name="Path 1447" d="M10781-9437.884l16.5,15.581h246.8l73.448,75.579,483.636-1.567,211.117-210.823h181.312l90.7,117.134h421.146l35.523,35.369" transform="translate(-10781 9774.453)" fill="none" stroke="#c3e1ea" stroke-width="6"/>
      </g>
      <g id="Ellipse_340" data-name="Ellipse 340" transform="translate(1544 57.803)" fill="#c3e1ea" stroke="#c3e1ea" stroke-width="1">
        <ellipse cx="4.5" cy="4" rx="4.5" ry="4" stroke="none"/>
        <ellipse cx="4.5" cy="4" rx="4" ry="3.5" fill="none"/>
      </g>
      <g id="Ellipse_341" data-name="Ellipse 341" transform="translate(1713 141.803)" fill="#c3e1ea" stroke="#c3e1ea" stroke-width="1">
        <ellipse cx="5" cy="4.5" rx="5" ry="4.5" stroke="none"/>
        <ellipse cx="5" cy="4.5" rx="4.5" ry="4" fill="none"/>
      </g>
      <g id="Ellipse_342" data-name="Ellipse 342" transform="translate(1599 171.803)" fill="#c3e1ea" stroke="#c3e1ea" stroke-width="1">
        <circle cx="4.5" cy="4.5" r="4.5" stroke="none"/>
        <circle cx="4.5" cy="4.5" r="4" fill="none"/>
      </g>
      <g id="Ellipse_343" data-name="Ellipse 343" transform="translate(1506 234.803)" fill="#c3e1ea" stroke="#c3e1ea" stroke-width="1">
        <ellipse cx="5" cy="4.5" rx="5" ry="4.5" stroke="none"/>
        <ellipse cx="5" cy="4.5" rx="4.5" ry="4" fill="none"/>
      </g>
      <g id="Ellipse_344" data-name="Ellipse 344" transform="translate(1651 264.803)" fill="#c3e1ea" stroke="#c3e1ea" stroke-width="1">
        <circle cx="4.5" cy="4.5" r="4.5" stroke="none"/>
        <circle cx="4.5" cy="4.5" r="4" fill="none"/>
      </g>
      <g id="Ellipse_345" data-name="Ellipse 345" transform="translate(1574 295.803)" fill="#c3e1ea" stroke="#c3e1ea" stroke-width="1">
        <circle cx="4.5" cy="4.5" r="4.5" stroke="none"/>
        <circle cx="4.5" cy="4.5" r="4" fill="none"/>
      </g>
      <g id="Ellipse_346" data-name="Ellipse 346" transform="translate(1757 364.803)" fill="#c3e1ea" stroke="#c3e1ea" stroke-width="1">
        <circle cx="4.5" cy="4.5" r="4.5" stroke="none"/>
        <circle cx="4.5" cy="4.5" r="4" fill="none"/>
      </g>
      <g id="Ellipse_347" data-name="Ellipse 347" transform="translate(1751 234.803)" fill="#c3e1ea" stroke="#c3e1ea" stroke-width="1">
        <ellipse cx="4.5" cy="4" rx="4.5" ry="4" stroke="none"/>
        <ellipse cx="4.5" cy="4" rx="4" ry="3.5" fill="none"/>
      </g>
    </g>
    <g id="Group_515" data-name="Group 515">
      <g id="Group_506" data-name="Group 506" transform="translate(68.071 3599.663)" opacity="0.62">
        <g id="Group_248" data-name="Group 248" transform="translate(0 0)">
          <path id="Path_1448" data-name="Path 1448" d="M11117.7-9120.079l39.205,39.579h69.085l73.143-90.652h292.063l164.4,162.071H11992.2l57.924-57.1h193.563l90.352-92.638h288.924" transform="translate(-10980.155 9171.152)" fill="none" stroke="#e47046" stroke-width="6"/>
          <path id="Path_1449" data-name="Path 1449" d="M10845.227-9031.679h250.5l70.474-89.532h272.231l163.277,165.67h257.173l57.836-59.416h193.813l86.9-90.765h178.5" transform="translate(-10836 9144.729)" fill="none" stroke="#e47046" stroke-width="6"/>
          <path id="Path_1450" data-name="Path 1450" d="M11398.625-8981.259l72.579-90.147h249.971l163.6,165.1h276.308l59.268-58.321h190.908l89.892-90.173h290.966" transform="translate(-11128.784 9118.38)" fill="none" stroke="#e47046" stroke-width="6"/>
          <path id="Path_1451" data-name="Path 1451" d="M10825.633-8952.162h281.617l72.13-91.691h227.367l162.846,164.139h297.662l57.823-56.748h190.811l92.825-91.394H12542l35.809-35.714" transform="translate(-10825.633 9114.233)" fill="none" stroke="#e47046" stroke-width="6"/>
          <path id="Path_1452" data-name="Path 1452" d="M11189.6-8879.048h122.147l72.376-89.054h205.532l162.24,163.611h318.326l59.116-58.094h188.943l91.6-91.3h414.8" transform="translate(-11018.197 9063.725)" fill="none" stroke="#e47046" stroke-width="6"/>
          <path id="Path_1453" data-name="Path 1453" d="M10950.406-8824.716h246.749l70.133-92.48h186.348l163.724,163.768h336.392l56.57-56.953h190.866l93.525-92.664h271.4" transform="translate(-10891.646 9036.792)" fill="none" stroke="#e47046" stroke-width="6"/>
          <path id="Path_1454" data-name="Path 1454" d="M11082.078-8775.977h195.569l70.926-91.516h166.444l162.774,163.836h354.662l57.715-56.629h192.016l89.8-91.044h188.677" transform="translate(-10961.311 9010.495)" fill="none" stroke="#e47046" stroke-width="6"/>
          <path id="Path_1455" data-name="Path 1455" d="M11189.6-8723.021h156.948l70.07-91.1h141.886l166.917,166.512h377.568l59.433-58.62h188.614l91.05-92.818h200.365" transform="translate(-11018.197 8982.256)" fill="none" stroke="#e47046" stroke-width="6"/>
        </g>
        <g id="Ellipse_348" data-name="Ellipse 348" transform="translate(1641.929 8.337)" fill="#e47046" stroke="#e47046" stroke-width="1">
          <circle cx="4.5" cy="4.5" r="4.5" stroke="none"/>
          <circle cx="4.5" cy="4.5" r="4" fill="none"/>
        </g>
        <g id="Ellipse_349" data-name="Ellipse 349" transform="translate(1538.929 34.337)" fill="#e47046" stroke="#e47046" stroke-width="1">
          <ellipse cx="5" cy="4.5" rx="5" ry="4.5" stroke="none"/>
          <ellipse cx="5" cy="4.5" rx="4.5" ry="4" fill="none"/>
        </g>
        <g id="Ellipse_350" data-name="Ellipse 350" transform="translate(1661.929 59.337)" fill="#e47046" stroke="#e47046" stroke-width="1">
          <ellipse cx="4.5" cy="4" rx="4.5" ry="4" stroke="none"/>
          <ellipse cx="4.5" cy="4" rx="4" ry="3.5" fill="none"/>
        </g>
        <g id="Ellipse_351" data-name="Ellipse 351" transform="translate(1748.929 44.337)" fill="#e47046" stroke="#e47046" stroke-width="1">
          <circle cx="4.5" cy="4.5" r="4.5" stroke="none"/>
          <circle cx="4.5" cy="4.5" r="4" fill="none"/>
        </g>
        <g id="Ellipse_352" data-name="Ellipse 352" transform="translate(1804.929 104.337)" fill="#e47046" stroke="#e47046" stroke-width="1">
          <ellipse cx="4.5" cy="5" rx="4.5" ry="5" stroke="none"/>
          <ellipse cx="4.5" cy="5" rx="4" ry="4.5" fill="none"/>
        </g>
        <g id="Ellipse_353" data-name="Ellipse 353" transform="translate(1670.929 129.337)" fill="#e47046" stroke="#e47046" stroke-width="1">
          <ellipse cx="5.5" cy="5" rx="5.5" ry="5" stroke="none"/>
          <ellipse cx="5.5" cy="5" rx="5" ry="4.5" fill="none"/>
        </g>
        <g id="Ellipse_354" data-name="Ellipse 354" transform="translate(1597.929 154.337)" fill="#e47046" stroke="#e47046" stroke-width="1">
          <ellipse cx="5" cy="4.5" rx="5" ry="4.5" stroke="none"/>
          <ellipse cx="5" cy="4.5" rx="4.5" ry="4" fill="none"/>
        </g>
        <g id="Ellipse_355" data-name="Ellipse 355" transform="translate(1620.929 178.337)" fill="#e47046" stroke="#e47046" stroke-width="1">
          <ellipse cx="5" cy="4.5" rx="5" ry="4.5" stroke="none"/>
          <ellipse cx="5" cy="4.5" rx="4.5" ry="4" fill="none"/>
        </g>
      </g>
    </g>
  </g>
</svg>
