<svg xmlns="http://www.w3.org/2000/svg" width="85.317" height="85.338" viewBox="0 0 85.317 85.338">
  <path id="Path_2084" data-name="Path 2084" d="M-327.992,68.586c1.331.556,2.664,1.107,3.992,1.668,4.354,1.839,8.713,3.668,13.059,5.527,3.819,1.634,7.623,3.3,11.431,4.957,4.348,1.892,8.69,3.794,13.043,5.675a.826.826,0,0,1,.59.884q-.01,23.7.02,47.412c0,.341-.164.437-.413.544q-9.14,3.925-18.279,7.855c-7.4,3.174-14.8,6.327-22.19,9.529a2.684,2.684,0,0,1-2.339,0c-8.046-3.442-16.115-6.832-24.164-10.266-5.23-2.232-10.44-4.511-15.659-6.771-1.161-.5-1.176-.505-1.2-1.788-.038-2.224-.078-4.449-.076-6.674q.025-20.048.064-40.092a.518.518,0,0,1,.364-.57q19.9-8.559,39.782-17.137c.573-.247,1.144-.5,1.716-.753Zm-40.544,19.93V89.3q-.022,22.138-.059,44.275c0,.39.177.509.472.638q19.437,8.382,38.87,16.773c.108.047.223.078.372.129v-.623q-.031-15.527-.059-31.053l-.027-13.524c0-.226.028-.427-.268-.554-1.493-.645-2.967-1.337-4.461-1.979-3.58-1.537-7.17-3.054-10.755-4.579-.153-.065-.308-.123-.52-.208v.629c-.021,3.129-.031,6.259-.069,9.388-.017,1.323-.3,1.52-1.541,1.008-1.548-.639-3.074-1.334-4.6-2.028-1.143-.52-1.15-.536-1.173-1.818q-.09-5.016-.15-10.033a.522.522,0,0,0-.37-.57q-6.309-2.675-12.611-5.376c-.983-.416-1.972-.824-3.052-1.275Zm41.354,62.591c.21-.083.343-.13.472-.186q19.483-8.379,38.967-16.754a.5.5,0,0,0,.367-.531q-.05-21.683-.083-43.367V88.528c-.488.2-.871.354-1.251.515q-17.175,7.355-34.349,14.713c-1.172.5-2.329,1.045-3.518,1.5a.884.884,0,0,0-.649,1q.036,22.178.042,44.357Zm14.594-74.164c-.172-.091-.245-.136-.324-.17q-7.371-3.2-14.741-6.394a.783.783,0,0,0-.524.007c-.525.189-1.04.406-1.554.626q-17.594,7.536-35.186,15.078c-.771.33-1.533.679-2.359,1.047.2.1.326.166.456.222q7.3,3.143,14.606,6.274a.9.9,0,0,0,.64-.012q17.7-7.554,35.4-15.13c1.165-.5,2.33-1,3.588-1.546Zm23.605,10.378.014-.134a9.181,9.181,0,0,0-.853-.472q-6.894-2.948-13.792-5.891a1.351,1.351,0,0,0-1.155-.026c-.549.244-1.126.424-1.679.661q-17.338,7.432-34.673,14.874c-.708.3-1.41.623-2.189.968.287.146.5.266.715.361q5.965,2.607,11.932,5.211c.558.244,1.111.505,1.651.788a1.541,1.541,0,0,0,1.752.074,4.1,4.1,0,0,1,.739-.407q18.542-7.9,37.089-15.8c.149-.065.3-.141.448-.212Zm-17.525-7.6a5.332,5.332,0,0,0-.58-.389c-.811-.394-1.638-.758-2.442-1.166a1.471,1.471,0,0,0-1.28-.067c-1.4.551-2.814,1.061-4.2,1.651Q-331.288,86.7-347.56,93.671c-.708.3-1.415.624-2.154.953a1.13,1.13,0,0,0,.2.153c1.288.518,2.573,1.041,3.869,1.533a.86.86,0,0,0,.567-.059q2.262-.936,4.514-1.9,15.3-6.562,30.6-13.129C-308.832,80.741-307.71,80.243-306.508,79.72Zm-40.141,28.126a4.488,4.488,0,0,0,.069-.5q.047-4.606.074-9.213a.508.508,0,0,0-.282-.343c-1.192-.527-2.393-1.034-3.593-1.545-.124-.052-.255-.09-.335-.118,0,3.275,0,6.519.011,9.762a.468.468,0,0,0,.244.329c1,.462,2.011.907,3.021,1.349.231.1.477.173.789.282Z" transform="translate(370.675 -68.086)" fill="#e47046" stroke="#e47046" stroke-width="1"/>
</svg>
