<svg xmlns="http://www.w3.org/2000/svg" width="94.22" height="94.194" viewBox="0 0 94.22 94.194">
  <g id="noun_waves_702569" transform="translate(1.526 1.5)">
    <g id="Group_1" data-name="Group 1" transform="translate(0 0)">
      <path id="Path_59" data-name="Path 59" d="M55.7,78.447c7.083,2.783,14.925,2.783,25.676-3.668C69.107,67.064,64.427,70.985,55.7,78.447Z" transform="translate(-2.957 0.984)" fill="none" stroke="#e47046" stroke-width="3"/>
      <path id="Path_60" data-name="Path 60" d="M53.4,62.028c8.854,5.692,17.961,8.727,30.482,2.783C69.843,57.1,60.989,58.107,53.4,62.028Z" transform="translate(-3.566 -2.075)" fill="none" stroke="#e47046" stroke-width="3"/>
      <path id="Path_61" data-name="Path 61" d="M48.005,74.615c-1.771-1.138-3.415-2.4-5.059-3.415a33.348,33.348,0,0,1-17.455,5.059H24.1A45.923,45.923,0,0,0,41.3,87.39a64.9,64.9,0,0,0,13.534-8.095C52.558,77.777,50.282,76.133,48.005,74.615Z" transform="translate(-11.325 1.148)" fill="none" stroke="#e47046" stroke-width="3"/>
      <path id="Path_62" data-name="Path 62" d="M36.387,52.276A29.292,29.292,0,0,0,14,51.264a45.555,45.555,0,0,0,2.277,13.154c6.2-2.277,12.142-6.451,18.34-10.878a21.456,21.456,0,0,1,1.771-1.265Z" transform="translate(-14 -4.593)" fill="none" stroke="#e47046" stroke-width="3"/>
      <path id="Path_63" data-name="Path 63" d="M39.449,69.544c-6.071-3.162-12.775-4.806-21.249-2.4.885,1.644,1.9,3.288,2.909,4.806A27.916,27.916,0,0,0,39.449,69.544Z" transform="translate(-12.888 -0.231)" fill="none" stroke="#e47046" stroke-width="3"/>
      <path id="Path_64" data-name="Path 64" d="M75.3,69.642a54.994,54.994,0,0,1,4.933,2.909A36.9,36.9,0,0,0,83.9,66.479c-.253-.127-.379-.253-.632-.379A53.337,53.337,0,0,1,75.3,69.642Z" transform="translate(2.234 -0.203)" fill="none" stroke="#e47046" stroke-width="3"/>
      <path id="Path_65" data-name="Path 65" d="M41.141,58.4C53.915,49.922,68.334,43.47,86.927,54.98c4.933,1.518,10.624,3.795,18.087,6.957,0-.759.127-1.644.127-2.4A45.568,45.568,0,0,0,14.2,55.36C24.824,52.324,33.552,54.474,41.141,58.4Z" transform="translate(-13.947 -14)" fill="none" stroke="#e47046" stroke-width="3"/>
      <path id="Path_66" data-name="Path 66" d="M86.047,58.8a14.706,14.706,0,0,1,.506-2.277C84.909,55.765,83.391,55.132,82,54.5,83.265,55.891,84.656,57.283,86.047,58.8Z" transform="translate(4.008 -3.275)" fill="none" stroke="#e47046" stroke-width="3"/>
      <path id="Path_67" data-name="Path 67" d="M63.823,70.277A49.853,49.853,0,0,1,51.554,63.7c-1.644,1.138-3.162,2.277-4.806,3.415A46.95,46.95,0,0,1,42.7,70.024L46.115,72.3c2.783,1.9,5.439,3.795,8.095,5.312a18.923,18.923,0,0,1,1.644-1.391A68.532,68.532,0,0,1,63.823,70.277Z" transform="translate(-6.4 -0.838)" fill="none" stroke="#e47046" stroke-width="3"/>
      <path id="Path_68" data-name="Path 68" d="M51.126,62.518l-2.656-1.9C46.7,59.23,44.928,57.965,43.031,56.7c-2.4,1.138-5.059,2.277-7.842,3.668-2.4,1.138-4.933,2.277-7.589,3.542a38.885,38.885,0,0,1,14.292,5.312c1.9-1.265,3.795-2.656,5.692-4.047C48.849,64.162,49.987,63.277,51.126,62.518Z" transform="translate(-10.398 -2.692)" fill="none" stroke="#e47046" stroke-width="3"/>
      <path id="Path_69" data-name="Path 69" d="M54.478,79.6A80.921,80.921,0,0,1,43.6,87.062a42.832,42.832,0,0,0,8.095.759,44.477,44.477,0,0,0,21.249-5.312,23.665,23.665,0,0,1-5.059.506A31.389,31.389,0,0,1,54.478,79.6Z" transform="translate(-6.161 3.372)" fill="none" stroke="#e47046" stroke-width="3"/>
      <path id="Path_70" data-name="Path 70" d="M62.319,45.616C53.971,44.983,46.635,48.4,39.3,52.952l1.138.759C49.8,49.41,56.5,46.754,62.319,45.616Z" transform="translate(-7.3 -5.647)" fill="none" stroke="#e47046" stroke-width="3"/>
      <path id="Path_71" data-name="Path 71" d="M44.1,56.207c1.012.759,2.15,1.518,3.162,2.277,1.391,1.012,2.656,2.023,4.047,3.035,9.486-5.692,21-8.348,40.348,3.162a7.039,7.039,0,0,0,1.012-.632,80.988,80.988,0,0,0-15.81-13.787C66.614,47.48,59.531,49.251,44.1,56.207Z" transform="translate(-6.029 -4.729)" fill="none" stroke="#e47046" stroke-width="3"/>
      <path id="Path_72" data-name="Path 72" d="M36.421,54.053c-.127-.127-.253-.127-.379-.253-.506.379-1.138.759-1.644,1.138A14.054,14.054,0,0,1,36.421,54.053Z" transform="translate(-8.595 -3.46)" fill="none" stroke="#e47046" stroke-width="3"/>
    </g>
  </g>
</svg>
