<svg xmlns="http://www.w3.org/2000/svg" width="355.196" height="355.196" viewBox="0 0 355.196 355.196">
  <path id="Path_2084" data-name="Path 2084" d="M-192.475,68.586c5.606,2.342,11.222,4.664,16.819,7.028,18.342,7.748,36.7,15.452,55.009,23.284,16.085,6.882,32.111,13.9,48.154,20.882,18.315,7.969,36.609,15.984,54.943,23.908a3.465,3.465,0,0,1,2.485,3.722q-.042,99.861.082,199.722c0,1.435-.691,1.84-1.745,2.293q-38.508,16.532-77,33.09c-31.162,13.37-62.363,26.655-93.477,40.14a11.308,11.308,0,0,1-9.85,0c-33.893-14.5-67.884-28.779-101.793-43.246-22.033-9.4-43.979-19.005-65.962-28.525-4.892-2.118-4.953-2.129-5.044-7.533-.16-9.37-.331-18.741-.32-28.113q.1-84.443.27-168.886a2.182,2.182,0,0,1,1.536-2.4q83.809-36.053,167.581-72.19c2.416-1.042,4.819-2.113,7.227-3.171Zm-170.791,83.965c0,1.377,0,2.341,0,3.3q-.094,93.255-.237,186.507c0,1.643.736,2.147,1.991,2.688q81.877,35.308,163.737,70.655c.455.2.94.327,1.568.542,0-1.056,0-1.839,0-2.623q-.13-65.4-.259-130.81-.057-28.484-.115-56.968c0-.95.117-1.8-1.127-2.334-6.291-2.716-12.5-5.635-18.793-8.338-15.083-6.473-30.2-12.865-45.305-19.289-.643-.273-1.3-.518-2.191-.875,0,1.091.006,1.871,0,2.651-.089,13.182-.131,26.365-.292,39.547-.069,5.574-1.273,6.4-6.493,4.245-6.523-2.693-12.952-5.621-19.376-8.545-4.813-2.191-4.842-2.258-4.939-7.658q-.377-21.131-.634-42.265a2.2,2.2,0,0,0-1.559-2.4q-26.587-11.267-53.125-22.648C-354.56,156.17-358.728,154.451-363.266,152.551Zm174.2,263.662c.884-.347,1.447-.549,1.994-.784Q-105,380.132-22.92,344.854a2.086,2.086,0,0,0,1.547-2.239q-.208-91.341-.347-182.682c0-2.341,0-4.683,0-7.332-2.055.844-3.671,1.483-5.267,2.168q-72.349,30.985-144.693,61.98c-4.937,2.116-9.808,4.4-14.82,6.315-2.2.84-2.747,2-2.742,4.225q.152,93.427.178,186.856ZM-127.587,103.8c-.726-.383-1.034-.573-1.363-.716q-31.04-13.489-62.1-26.934a3.3,3.3,0,0,0-2.206.027c-2.212.8-4.383,1.71-6.545,2.636q-74.115,31.747-148.222,63.515c-3.247,1.392-6.46,2.862-9.941,4.408.843.413,1.37.7,1.92.937q30.751,13.242,61.525,26.432a3.811,3.811,0,0,0,2.7-.05q74.576-31.822,149.112-63.736C-137.791,108.215-132.883,106.083-127.587,103.8Zm99.437,43.71.057-.567a38.651,38.651,0,0,0-3.591-1.993q-29.039-12.43-58.1-24.813a5.691,5.691,0,0,0-4.864-.11c-2.312,1.029-4.743,1.787-7.071,2.784q-73.043,31.314-146.072,62.665c-2.984,1.282-5.942,2.625-9.222,4.078,1.209.615,2.087,1.12,3.009,1.523q25.13,10.981,50.265,21.949c2.352,1.029,4.68,2.129,6.956,3.318,2.443,1.276,4.811,2.108,7.382.311a17.287,17.287,0,0,1,3.113-1.714q78.108-33.284,156.23-66.538C-29.409,148.127-28.784,147.806-28.15,147.509Zm-73.828-32.02a22.483,22.483,0,0,0-2.443-1.637c-3.418-1.661-6.9-3.191-10.288-4.912a6.2,6.2,0,0,0-5.391-.283c-5.893,2.32-11.854,4.48-17.676,6.965q-68.592,29.269-137.137,58.645c-2.99,1.28-5.95,2.631-9.073,4.015a4.759,4.759,0,0,0,.848.644c5.424,2.181,10.84,4.385,16.3,6.468a3.621,3.621,0,0,0,2.391-.259q9.532-3.945,19.015-8.011,64.465-27.64,128.919-55.3C-111.763,119.781-107.035,117.692-101.978,115.488ZM-271.072,233.974a18.911,18.911,0,0,0,.291-2.115c.131-12.936.258-25.874.31-38.811a2.139,2.139,0,0,0-1.189-1.443c-5.023-2.218-10.08-4.358-15.133-6.508-.523-.222-1.075-.376-1.412-.493,0,13.8-.01,27.459.045,41.12a1.972,1.972,0,0,0,1.029,1.386c4.218,1.946,8.47,3.821,12.727,5.681C-273.426,233.221-272.388,233.513-271.072,233.974Z" transform="translate(370.178 -68.586)" fill="#e47046"/>
</svg>
