<svg xmlns="http://www.w3.org/2000/svg" width="1593.637" height="1565.225" viewBox="0 0 1593.637 1565.225">
  <g id="Group_1854" data-name="Group 1854" transform="translate(-67.347 -75.567)">
    <g id="Group_1835" data-name="Group 1835" transform="translate(69.847 78.112)">
      <g id="Group_1822" data-name="Group 1822" transform="translate(72.734 306.149)">
        <rect id="Rectangle_343" data-name="Rectangle 343" width="1441.084" height="349.159" transform="translate(64.965)" fill="#fff" stroke="gray" stroke-miterlimit="10" stroke-width="5"/>
        <rect id="Rectangle_344" data-name="Rectangle 344" width="1441.084" height="349.16" transform="translate(32.482 32.482)" fill="#fff" stroke="gray" stroke-miterlimit="10" stroke-width="5"/>
        <rect id="Rectangle_345" data-name="Rectangle 345" width="1441.085" height="349.16" transform="translate(0 64.965)" fill="#fff" stroke="gray" stroke-miterlimit="10" stroke-width="5"/>
        <rect id="Rectangle_346" data-name="Rectangle 346" width="211.653" height="1303.572" transform="translate(1372.328 133.718) rotate(90)" fill="#fff" stroke="gray" stroke-miterlimit="10" stroke-width="5"/>
        <rect id="Rectangle_347" data-name="Rectangle 347" width="211.653" height="7.64" transform="translate(1153.035 345.371) rotate(-90)" fill="#fff" stroke="gray" stroke-miterlimit="10" stroke-width="5"/>
        <rect id="Rectangle_348" data-name="Rectangle 348" width="153.297" height="7.639" transform="translate(101.239 316.193) rotate(-90)" fill="#fff" stroke="gray" stroke-miterlimit="10" stroke-width="5"/>
        <g id="Group_1821" data-name="Group 1821" transform="translate(1225.393 198.439)">
          <path id="Path_2001" data-name="Path 2001" d="M386.863,255.812a33.815,33.815,0,1,1,23.913-57.722h0a33.807,33.807,0,0,1-23.913,57.722Zm0-58.451a24.644,24.644,0,1,0,17.432,7.21h0A24.565,24.565,0,0,0,386.863,197.361Z" transform="translate(-353.055 -188.197)" fill="#fff" stroke="#000" stroke-miterlimit="10" stroke-width="5"/>
          <path id="Path_2002" data-name="Path 2002" d="M391.679,231.4a4.571,4.571,0,0,1-3.241-1.343l-23.152-23.152a4.583,4.583,0,0,1,6.481-6.481l23.152,23.152a4.584,4.584,0,0,1-3.241,7.824Z" transform="translate(-314.029 -149.174)" fill="#fff" stroke="#000" stroke-miterlimit="10" stroke-width="5"/>
        </g>
      </g>
      <g id="Group_1823" data-name="Group 1823" transform="translate(876.876 95.059)">
        <rect id="Rectangle_349" data-name="Rectangle 349" width="144.113" height="3.572" fill="#9fc6ff" stroke="#707070" stroke-width="5"/>
        <rect id="Rectangle_350" data-name="Rectangle 350" width="144.113" height="3.572" transform="translate(0 15.187)" fill="#9fc6ff" stroke="#707070" stroke-width="5"/>
        <rect id="Rectangle_351" data-name="Rectangle 351" width="144.113" height="3.572" transform="translate(0 30.374)" fill="#9fc6ff" stroke="#707070" stroke-width="5"/>
        <rect id="Rectangle_352" data-name="Rectangle 352" width="144.113" height="3.572" transform="translate(0 45.561)" fill="#9fc6ff" stroke="#707070" stroke-width="5"/>
        <rect id="Rectangle_353" data-name="Rectangle 353" width="144.113" height="3.572" transform="translate(0 60.749)" fill="#9fc6ff" stroke="#707070" stroke-width="5"/>
        <rect id="Rectangle_354" data-name="Rectangle 354" width="93.955" height="3.572" transform="translate(0.004 75.938)" fill="#9fc6ff" stroke="#707070" stroke-width="5"/>
      </g>
      <g id="Group_1824" data-name="Group 1824" transform="translate(0 750.454)">
        <rect id="Rectangle_355" data-name="Rectangle 355" width="153.552" height="2.287" stroke="#707070" stroke-width="5"/>
        <rect id="Rectangle_356" data-name="Rectangle 356" width="153.552" height="2.287" transform="translate(0 9.725)" stroke="#707070" stroke-width="5"/>
        <rect id="Rectangle_357" data-name="Rectangle 357" width="153.552" height="2.287" transform="translate(0 19.451)" stroke="#707070" stroke-width="5"/>
        <rect id="Rectangle_358" data-name="Rectangle 358" width="153.552" height="2.287" transform="translate(0 29.176)" stroke="#707070" stroke-width="5"/>
        <rect id="Rectangle_359" data-name="Rectangle 359" width="153.552" height="2.287" transform="translate(0 38.901)" stroke="#707070" stroke-width="5"/>
        <rect id="Rectangle_360" data-name="Rectangle 360" width="96.511" height="2.287" transform="translate(0 48.627)" stroke="#707070" stroke-width="5"/>
      </g>
      <g id="Group_1825" data-name="Group 1825" transform="translate(629.244 60.6)">
        <path id="Path_2003" data-name="Path 2003" d="M236.1,103.762h0a28.968,28.968,0,0,0-28.969,28.969V228.3A28.968,28.968,0,0,0,236.1,257.273h0A28.972,28.972,0,0,0,265.069,228.3V132.731A28.972,28.972,0,0,0,236.1,103.762Z" transform="translate(-207.127 -46.792)" fill="#fff" stroke="#000" stroke-miterlimit="10" stroke-width="5"/>
        <path id="Path_2004" data-name="Path 2004" d="M251.938,91.333h0a28.973,28.973,0,0,0-28.973,28.973V272.845a28.972,28.972,0,0,0,28.973,28.969h0a28.972,28.972,0,0,0,28.973-28.969V120.306A28.973,28.973,0,0,0,251.938,91.333Z" transform="translate(-150.369 -91.333)" fill="#fff" stroke="#000" stroke-miterlimit="10" stroke-width="5"/>
        <path id="Path_2005" data-name="Path 2005" d="M267.777,116.19h0A28.973,28.973,0,0,0,238.8,145.163v38.6a28.972,28.972,0,0,0,28.973,28.969h0a28.971,28.971,0,0,0,28.968-28.969v-38.6A28.972,28.972,0,0,0,267.777,116.19Z" transform="translate(-93.608 -2.254)" fill="#fff" stroke="#000" stroke-miterlimit="10" stroke-width="5"/>
      </g>
      <g id="Group_1827" data-name="Group 1827" transform="translate(1302.695 622.343)">
        <g id="Group_1826" data-name="Group 1826" transform="translate(29.743)">
          <path id="Path_2006" data-name="Path 2006" d="M443.362,421.247H560.489L360.541,213.887h0l82.821,207.36" transform="translate(-360.541 -213.887)" fill="#fff" stroke="#000" stroke-miterlimit="10" stroke-width="5"/>
        </g>
        <path id="Path_2007" data-name="Path 2007" d="M354.052,311.818,383.8,213.887l16.856,97.931Z" transform="translate(-354.052 -213.887)" fill="#fff" stroke="#000" stroke-miterlimit="10" stroke-width="5" style="mix-blend-mode: multiply;isolation: isolate"/>
        <path id="Path_2008" data-name="Path 2008" d="M360.541,213.887V504.068l20.7-20.7,62.116-62.117Z" transform="translate(-330.798 -213.887)" fill="#fff" stroke="#000" stroke-miterlimit="10" stroke-width="5"/>
      </g>
      <g id="Group_1828" data-name="Group 1828" transform="translate(1233.785)">
        <path id="Path_2009" data-name="Path 2009" d="M644.77,78.112H388.118a49.31,49.31,0,0,0-49.1,49.1V259.743a49.31,49.31,0,0,0,49.1,49.1H576.441l-1.37,46.354,47.55-46.354H644.77a49.31,49.31,0,0,0,49.1-49.1V127.212A49.31,49.31,0,0,0,644.77,78.112ZM382.278,134.6a13.779,13.779,0,0,1,13.733-13.737h59.06a13.65,13.65,0,0,1,0,27.3h-59.06A13.744,13.744,0,0,1,382.278,134.6Zm247.9,128.237H528.034a13.561,13.561,0,1,1,0-27.121H630.18a13.561,13.561,0,0,1,0,27.121Zm0-57.337H409.748a13.563,13.563,0,0,1,0-27.126H630.18a13.563,13.563,0,0,1,0,27.126Zm0-57.337H499.707a13.65,13.65,0,0,1,0-27.3H630.18a13.65,13.65,0,0,1,0,27.3Z" transform="translate(-339.018 -78.112)" fill="#fff" stroke="#e47046" stroke-miterlimit="10" stroke-width="5"/>
      </g>
      <g id="Group_1834" data-name="Group 1834" transform="translate(178.559 0)">
        <g id="Group_1831" data-name="Group 1831" transform="translate(0)">
          <path id="Path_2010" data-name="Path 2010" d="M756.246,246.9A286.638,286.638,0,0,0,698.871,152H274.505a286.606,286.606,0,0,0-57.375,94.9l58.71,292.268A286.777,286.777,0,0,0,756.246,246.9Z" transform="translate(342.338 -14.157)" fill="#fff" stroke="#000" stroke-miterlimit="10" stroke-width="5"/>
          <path id="Path_2011" data-name="Path 2011" d="M787.125,280.955a285.807,285.807,0,0,1-75.576,181.093H289.8a287.2,287.2,0,0,1-58.71-292.268H770.206A285.093,285.093,0,0,1,787.125,280.955Z" transform="translate(328.379 62.959)" fill="#fff" stroke="#000" stroke-miterlimit="10" stroke-width="5"/>
          <path id="Path_2012" data-name="Path 2012" d="M787.125,434.352a286.151,286.151,0,1,1-16.919-111.175A285.806,285.806,0,0,1,787.125,434.352Z" transform="translate(328.379 -90.437)" fill="#fff" stroke="#e47046" stroke-miterlimit="10" stroke-width="5" opacity="0.4"/>
          <path id="Path_2013" data-name="Path 2013" d="M659.1,176.568,246.734,552.615c-2.119-3.806-4.142-7.67-6.1-11.56a282.894,282.894,0,0,1-25.982-80.016v-.032L570.818,136.2A284.461,284.461,0,0,1,659.1,176.568Z" transform="translate(331.59 -82.677)" fill="#fff" stroke="#e47046" stroke-miterlimit="10" stroke-width="5" opacity="0.4"/>
          <path id="Path_2014" data-name="Path 2014" d="M718.116,261.028,330.428,614.546A286.344,286.344,0,0,1,226.48,536.409L649.832,150.333A286.82,286.82,0,0,1,718.116,261.028Z" transform="translate(382.891 -21.387)" fill="#fff" stroke="#e47046" stroke-miterlimit="10" stroke-width="5" opacity="0.4"/>
          <path id="Path_2015" data-name="Path 2015" d="M822.745,291.514C731.409,133.376,529.153,79.219,371.015,170.556s-212.3,293.592-120.964,451.729C341.4,780.449,543.66,834.607,701.8,743.27S914.1,449.678,822.745,291.514ZM310.453,587.4C238.395,462.626,281.1,303.037,405.9,230.958c41.932-24.219,87.789-35.473,134.8-34.983,87.353.892,173.789,47.577,221.639,130.424,72.08,124.8,29.371,284.39-95.425,356.47S382.539,712.191,310.453,587.4Z" transform="translate(292.63 -126.173)" fill="#fff" stroke="#e47046" stroke-miterlimit="10" stroke-width="5"/>
          <g id="Group_1830" data-name="Group 1830" transform="translate(49.653 670.982)">
            <path id="Path_2016" data-name="Path 2016" d="M140.023,251.89l40.867,9.527L147.037,286.7s-24.3-11.032-25.427-28.266Z" transform="translate(-121.61 -251.89)" fill="#fff" stroke="#945dd6" stroke-miterlimit="10" stroke-width="5"/>
            <path id="Path_2017" data-name="Path 2017" d="M182.131,280.886l-29.488,19.632-26.27-21.561,33.854-25.282Z" transform="translate(-100.947 -244.149)" fill="#fff" stroke="#945dd6" stroke-miterlimit="10" stroke-width="5"/>
          </g>
          <path id="Path_2018" data-name="Path 2018" d="M705.608,269.433c-43.461,32.114-87.98,62.4-132.8,92.158q-67.282,44.561-135.71,87.131c-45.665,28.293-91.5,56.3-137.76,83.576-23.025,13.813-46.338,27.13-69.5,40.718-11.454,7.013-23.569,12.879-37.046,16.385a114.777,114.777,0,0,1-21.2,3.555,89.546,89.546,0,0,1-23.975-1.244A43.834,43.834,0,0,1,113.15,540.2a49.658,49.658,0,0,1,1.495-5.572,89.6,89.6,0,0,1,10.9-21.386,115.249,115.249,0,0,1,13.674-16.594c9.773-9.917,20.906-17.48,32.7-23.9,23.345-13.268,46.53-26.809,70-39.853,46.744-26.441,93.909-52.145,141.24-77.561q71.116-37.908,143.284-74.012C574.62,257.371,623.1,233.94,672.634,212.34a33.175,33.175,0,0,1,32.974,57.093Z" transform="translate(-112.307 235.528)" fill="#fff" stroke="#e47046" stroke-miterlimit="10" stroke-width="5"/>
        </g>
        <g id="Group_1833" data-name="Group 1833" transform="translate(30.371 142.301)">
          <path id="Path_2019" data-name="Path 2019" d="M214.936,223.6c-2.663,4.3-5.732,9.559-8.593,14.448-2.861,5.006-5.7,10.066-8.4,15.211-5.545,10.2-10.872,20.554-15.846,31.068-4.857,10.568-9.666,21.152-14.048,31.906-2.092,5.407-4.344,10.771-6.319,16.215l-2.983,8.166c-.6,1.537-.694,2.162-1.084,3.272-.342.966-.555,2.2-.859,3.3-2.076,9.4-2.973,20.8-3.122,32.173-.3,11.438.123,23.158.6,34.938.5,11.79,1.324,23.655,2.4,35.525.833,11.875,2.113,23.868,3.218,35.626l-20.612,4.232c-3.613-11.934-6.437-23.756-9.281-35.759-2.6-12.009-4.964-24.1-7.008-36.331-2.012-12.249-3.512-24.637-4.409-37.35-.721-12.756-1.164-25.656,1.014-40.056.352-1.857.577-3.613,1.062-5.556.443-1.793.977-4.131,1.388-5.439l2.61-9.068c1.729-6.058,3.715-12.009,5.716-17.971,4.12-11.859,8.588-23.591,13.61-35.071,5.049-11.47,10.36-22.817,16.161-33.945,2.925-5.546,6-11.027,9.148-16.492,3.208-5.561,6.325-10.69,10.237-16.519Z" transform="translate(-117.997 52.251)" fill="#fff" stroke="#4c4b4b" stroke-miterlimit="10" stroke-width="5"/>
          <path id="Path_2020" data-name="Path 2020" d="M141.426,419.552a50.891,50.891,0,0,1-10.973-1.484,1,1,0,0,1-.742-.79.983.983,0,0,1,.432-.992c1.42-.934,14.053-9.052,18.873-6.891a3.35,3.35,0,0,1,1.959,2.765,5.6,5.6,0,0,1-1.628,5.225C147.575,419,144.624,419.552,141.426,419.552Zm-8.187-2.893c7.243,1.441,12.681,1.2,14.779-.731a3.7,3.7,0,0,0,1.009-3.5,1.4,1.4,0,0,0-.822-1.244C145.659,410.057,138.385,413.548,133.239,416.659Z" transform="translate(-67.257 958.351)" fill="#fff" stroke="#4c4b4b" stroke-miterlimit="10" stroke-width="5"/>
          <path id="Path_2021" data-name="Path 2021" d="M130.683,426.016a.973.973,0,0,1-.5-.134.984.984,0,0,1-.491-.849c0-.507.059-12.473,4.574-16.471a5.082,5.082,0,0,1,4.169-1.313,3.43,3.43,0,0,1,3.309,2.743c.939,4.681-6.613,13.642-10.579,15.895A.932.932,0,0,1,130.683,426.016Zm7.072-16.844a3.208,3.208,0,0,0-2.177.859c-2.7,2.391-3.619,9.111-3.848,13.088,3.95-3.155,8.662-9.891,8.091-12.741-.1-.464-.363-1.025-1.623-1.179A4.23,4.23,0,0,0,137.755,409.172Z" transform="translate(-67.257 950.424)" fill="#fff" stroke="#4c4b4b" stroke-miterlimit="10" stroke-width="5"/>
          <path id="Path_2022" data-name="Path 2022" d="M178.578,419.553A71.025,71.025,0,0,1,165.5,418.07a.994.994,0,0,1-.785-.827.975.975,0,0,1,.523-1.009c1.868-.977,18.419-9.42,23.521-6.645a3.157,3.157,0,0,1,1.67,2.616,5.445,5.445,0,0,1-1.777,4.787C186.525,418.913,182.714,419.553,178.578,419.553Zm-9.8-2.888c9.218,1.527,16.055,1.132,18.568-1.137a3.533,3.533,0,0,0,1.132-3.149,1.233,1.233,0,0,0-.656-1.067C185.063,409.8,175.584,413.4,168.773,416.666Z" transform="translate(84.595 958.355)" fill="#fff" stroke="#4c4b4b" stroke-miterlimit="10" stroke-width="5"/>
          <path id="Path_2023" data-name="Path 2023" d="M165.692,426.009a.936.936,0,0,1-.566-.182.971.971,0,0,1-.416-.88c.037-.475,1-11.656,6.223-16.012a7.222,7.222,0,0,1,5.449-1.7c2.727.278,3.512,1.66,3.693,2.776.769,4.7-9.025,13.669-13.978,15.911A.981.981,0,0,1,165.692,426.009Zm9.9-16.845a5.146,5.146,0,0,0-3.4,1.287c-3.432,2.86-4.814,9.559-5.294,12.82,5.049-3.064,11.7-10.114,11.24-12.937-.043-.236-.16-.956-1.953-1.137A5.694,5.694,0,0,0,175.593,409.165Z" transform="translate(84.597 950.431)" fill="#fff" stroke="#4c4b4b" stroke-miterlimit="10" stroke-width="5"/>
          <path id="Path_2024" data-name="Path 2024" d="M153.958,174.494c3.224,24.914,10.888,75.453-7.392,90.749,0,0,5.1,25.395,50.816,28.367,50.271,3.261,25.646-23.393,25.646-23.393-27.012-8.337-24.978-28.645-18.958-47.448Z" transform="translate(5.912 -58.895)" fill="#fff" stroke="#4c4b4b" stroke-miterlimit="10" stroke-width="5"/>
          <path id="Path_2025" data-name="Path 2025" d="M167.074,175.866a1.967,1.967,0,0,1-1.735-2.9,19.52,19.52,0,0,1,14.587-10.487,1.966,1.966,0,0,1,.342,3.918h0a15.6,15.6,0,0,0-11.459,8.438A1.974,1.974,0,0,1,167.074,175.866Z" transform="translate(86.322 -111.02)" fill="#fff" stroke="#4c4b4b" stroke-miterlimit="10" stroke-width="5"/>
          <path id="Path_2026" data-name="Path 2026" d="M168.159,169.1s7.013,13.834,13.9,20.175c-4.019,4.526-11.683,3.352-11.683,3.352Z" transform="translate(99.567 -82.282)" fill="#fff" stroke="#4c4b4b" stroke-miterlimit="10" stroke-width="5"/>
          <path id="Path_2027" data-name="Path 2027" d="M167.532,173.3c.315,3.336,2.338,5.876,4.521,5.668s3.694-3.08,3.378-6.416-2.338-5.871-4.521-5.668S167.217,169.968,167.532,173.3Z" transform="translate(96.666 -91.933)" fill="#fff" stroke="#4c4b4b" stroke-miterlimit="10" stroke-width="5"/>
          <path id="Path_2028" data-name="Path 2028" d="M167.954,169.425l7.8-3.069S172.229,173.006,167.954,169.425Z" transform="translate(98.677 -94.192)" fill="#fff" stroke="#4c4b4b" stroke-miterlimit="10" stroke-width="5"/>
          <path id="Path_2029" data-name="Path 2029" d="M156.332,488.734h41.549l2.774-96.218H159.106Z" transform="translate(48.27 886.722)" fill="#fff" stroke="#4c4b4b" stroke-miterlimit="10" stroke-width="5"/>
          <path id="Path_2030" data-name="Path 2030" d="M120.962,488.734h41.549l13.358-96.218H134.32Z" transform="translate(-105.138 886.722)" fill="#fff" stroke="#4c4b4b" stroke-miterlimit="10" stroke-width="5"/>
          <path id="Path_2031" data-name="Path 2031" d="M174.226,409.642H127.552a3.291,3.291,0,0,0-3.32,2.84l-5.316,36.933a6.675,6.675,0,0,0,6.661,7.387c16.273-.283,24.114-1.238,44.646-1.238,12.628,0,31.079,1.313,48.516,1.313,17.058,0,18.371-17.244,11.107-18.8-32.563-7-37.7-16.663-48.67-25.875A10.874,10.874,0,0,0,174.226,409.642Z" transform="translate(-114.28 961.002)" fill="#fff" stroke="#4c4b4b" stroke-miterlimit="10" stroke-width="5"/>
          <path id="Path_2032" data-name="Path 2032" d="M209.384,409.642H162.7a3.291,3.291,0,0,0-3.32,2.84l-5.316,36.933a6.678,6.678,0,0,0,6.661,7.387c16.273-.283,24.119-1.238,44.646-1.238,12.628,0,38.749,1.313,56.191,1.313,17.053,0,18.365-17.244,11.107-18.8-32.563-7-45.378-16.663-56.346-25.875A10.871,10.871,0,0,0,209.384,409.642Z" transform="translate(38.193 961.002)" fill="#fff" stroke="#4c4b4b" stroke-miterlimit="10" stroke-width="5"/>
          <g id="Group_1832" data-name="Group 1832" transform="translate(22.263 1279.264)">
            <path id="Path_2033" data-name="Path 2033" d="M199.569,392.521l-1.422,49.6H156.58l1.422-49.6Z" transform="translate(27.085 -392.521)" fill="#fff" stroke="#4c4b4b" stroke-miterlimit="10" stroke-width="5"/>
            <path id="Path_2034" data-name="Path 2034" d="M129.074,392.521H170.64l-6.906,49.6H122.169Z" transform="translate(-122.169 -392.521)" fill="#fff" stroke="#4c4b4b" stroke-miterlimit="10" stroke-width="5"/>
          </g>
          <path id="Path_2035" data-name="Path 2035" d="M208.269,263.813C197.487,281.585,181,298.078,181,298.078l-4.75-3.149L123.62,259.756s28.875-63.62,50.33-67.09c20.655-3.309,35.706,18.04,42.8,40.884C219.317,241.823,214.887,253.031,208.269,263.813Z" transform="translate(-93.61 18.448)" fill="#fff" stroke="#4c4b4b" stroke-miterlimit="10" stroke-width="5"/>
          <path id="Path_2036" data-name="Path 2036" d="M165.5,216.433C154.722,234.206,138.23,250.7,138.23,250.7l-4.75-3.149c2.348-19.214,9.82-38.268,18.36-44.3C157.071,203.784,161.714,209.334,165.5,216.433Z" transform="translate(-50.845 65.827)" fill="#fff" stroke="#4c4b4b" stroke-miterlimit="10" stroke-width="5"/>
          <path id="Path_2037" data-name="Path 2037" d="M347.394,299.409v.054c-2.508,15.958-5.764,34.852-10.141,57.215C331.7,385.285,324.444,419.6,315,460.648c-66.823-4.377-135.887-8.86-168.39-10.941,7.259-68.37,10.087-110.641-13.557-253.413,0,0,35.813-5.391,72.16-4.75,28.394.48,51.664,1.068,76.429,4.964,32.664,5.124,69.384,15.158,69.384,15.158S360.417,215.667,347.394,299.409Z" transform="translate(-52.71 14.821)" fill="#fff" stroke="#4c4b4b" stroke-miterlimit="10" stroke-width="5"/>
          <path id="Path_2038" data-name="Path 2038" d="M200.145,214.79v.053C197.636,230.8,194.38,249.7,190,272.058c-7.152-13.93-17.239-41.1-23-61.058h31.277Z" transform="translate(94.54 99.441)" fill="#fff" stroke="#4c4b4b" stroke-miterlimit="10" stroke-width="5"/>
          <path id="Path_2039" data-name="Path 2039" d="M146.858,221.28c6.383,40.739,8.214,58.123,30.892,77.2,34.116,28.7,82.759,11.95,88.679-29.873,5.327-37.649-6-97.944-47.651-110.471C177.745,145.8,140.48,180.541,146.858,221.28Z" transform="translate(4.077 -140.785)" fill="#fff" stroke="#4c4b4b" stroke-miterlimit="10" stroke-width="5"/>
          <path id="Path_2040" data-name="Path 2040" d="M321.794,247.876s-2.669,74.134-9.073,167.643c-5.337,78.458-13.4,170.472-24.658,243.806-.107.694-.213,1.334-.32,2.028C267.514,791.155,177.9,1094.578,177.9,1094.578H121.22s46.7-293.016,56.949-421.43C204.161,348.27,139.046,311.5,197.916,239.87Z" transform="translate(-104.02 224.657)" fill="#fff" stroke="#4c4b4b" stroke-miterlimit="10" stroke-width="5"/>
          <path id="Path_2041" data-name="Path 2041" d="M201.007,339.1c-5.337,78.458-13.4,170.472-24.658,243.806-19.161-95.27-50.651-234.413-8.38-325.413C178.057,283.216,189.959,312.464,201.007,339.1Z" transform="translate(7.694 301.08)" fill="#fff" stroke="#4c4b4b" stroke-miterlimit="10" stroke-width="5"/>
          <path id="Path_2042" data-name="Path 2042" d="M267.344,248.426s47.9,284.737,45.18,411.438C309.69,791.658,261.4,1092.236,261.4,1092.236H205.213s8.892-292.877,3.928-422.311c-5.417-141.1-65.109-429.51-65.109-429.51Z" transform="translate(-5.078 227.021)" fill="#fff" stroke="#4c4b4b" stroke-miterlimit="10" stroke-width="5"/>
          <path id="Path_2043" data-name="Path 2043" d="M155.877,421.044h75.31l5.876-25.275-83.86.577Z" transform="translate(34.696 900.83)" fill="#fff" stroke="#4c4b4b" stroke-miterlimit="10" stroke-width="5"/>
          <path id="Path_2044" data-name="Path 2044" d="M119.682,421.044h75.31l5.876-25.275-80.664.577Z" transform="translate(-110.691 900.83)" fill="#fff" stroke="#4c4b4b" stroke-miterlimit="10" stroke-width="5"/>
          <path id="Path_2045" data-name="Path 2045" d="M142.343,238.873l-8.572,14.581c-.667,1.132.64,2.413,2.588,2.541l176.594,11.47c1.516.1,2.824-.561,2.983-1.511l2.5-14.976c.17-1.035-1.089-2.007-2.749-2.114L145.166,237.79A3.055,3.055,0,0,0,142.343,238.873Z" transform="translate(-50.346 215.588)" fill="#fff" stroke="#4c4b4b" stroke-miterlimit="10" stroke-width="5"/>
          <path id="Path_2046" data-name="Path 2046" d="M144.211,259.562l-4.569-.294c-.912-.059-1.574-.577-1.473-1.142l3.416-19.444c.1-.571.923-.987,1.836-.929l4.563.3c.913.059,1.574.571,1.473,1.142l-3.416,19.444C145.946,259.2,145.118,259.62,144.211,259.562Z" transform="translate(-30.551 215.453)" fill="#fff" stroke="#4c4b4b" stroke-miterlimit="10" stroke-width="5"/>
          <path id="Path_2047" data-name="Path 2047" d="M164.947,260.914l-4.568-.3c-.907-.058-1.569-.571-1.468-1.142l3.41-19.444c.1-.571.929-.987,1.836-.929l4.569.3c.907.059,1.569.571,1.473,1.142l-3.416,19.444C166.681,260.556,165.86,260.973,164.947,260.914Z" transform="translate(59.408 221.296)" fill="#fff" stroke="#4c4b4b" stroke-miterlimit="10" stroke-width="5"/>
          <path id="Path_2048" data-name="Path 2048" d="M208.9,203.314c6.389,21.392,12.494,42.959,18.419,64.511l17.864,64.522,2.247,8.006.561,2,.278.982.176.512a16.108,16.108,0,0,0,.688,2.1,32.3,32.3,0,0,0,5.583,8.956c5.29,6.106,13.21,11.87,21.862,16.866,17.421,10.072,38.343,17.624,58.63,23.7l-3.048,20.821c-23.884-1.441-46.658-5.924-69.817-15.072-11.427-4.862-23-10.872-33.566-20.735a66.113,66.113,0,0,1-13.925-18.265,54.254,54.254,0,0,1-2.508-5.668l-.576-1.457-.363-1.014-.71-2.012-2.834-8.032q-11.16-32.1-20.949-64.357c-6.7-21.5-13.028-43.045-18.888-64.81Z" transform="translate(98.973 66.105)" fill="#fff" stroke="#4c4b4b" stroke-miterlimit="10" stroke-width="5"/>
          <path id="Path_2049" data-name="Path 2049" d="M218.462,198.652c21.306,6.976,43.76,76.819,43.76,76.819l-77.075,33.171s-32.205-78.34-17.837-96.273C182.271,193.693,193.959,190.63,218.462,198.652Z" transform="translate(79.873 27.839)" fill="#fff" stroke="#4c4b4b" stroke-miterlimit="10" stroke-width="5"/>
          <path id="Path_2050" data-name="Path 2050" d="M321.3,167.88c-13.642-16.834-118.781-28.843-124.4,16.967-37.244,26.137-1.895,93.706,3.442,110.908-25.8,7.114-108.816,35.557-48.329,90.717s151.957,45.767,169.811-11.3c12.484-39.928-27.188-106.7-26.3-130.117S344.6,196.632,321.3,167.88Z" transform="translate(-64.171 -152.835)" fill="#fff" stroke="#4c4b4b" stroke-miterlimit="10" stroke-width="5"/>
          <path id="Path_2052" data-name="Path 2052" d="M159.937,180.545a35.253,35.253,0,0,0,10.45,20.394c7.584,7.237,14.731,2.268,15.43-6.933.635-8.283-2.551-22.027-11.518-25.832C165.467,164.426,158.784,171.285,159.937,180.545Z" transform="translate(63.345 -90.837)" fill="#fff" stroke="#4c4b4b" stroke-miterlimit="10" stroke-width="5"/>
        </g>
      </g>
    </g>
  </g>
</svg>
