<svg xmlns="http://www.w3.org/2000/svg" width="1199.508" height="1514.137" viewBox="0 0 1199.508 1514.137">
  <g id="Group_1853" data-name="Group 1853" transform="translate(-726.738 -118.324)">
    <path id="Rectangle_126" data-name="Rectangle 126" d="M28.193,0h724.7a28.194,28.194,0,0,1,28.194,28.194V1323.487a28.195,28.195,0,0,1-28.195,28.195H28.195A28.195,28.195,0,0,1,0,1323.487V28.193A28.193,28.193,0,0,1,28.193,0Z" transform="translate(980.978 199.557)" fill="none" stroke="gray" stroke-miterlimit="10" stroke-width="5"/>
    <path id="Rectangle_127" data-name="Rectangle 127" d="M27.858,0h682.5a27.858,27.858,0,0,1,27.858,27.858V1249.245A27.858,27.858,0,0,1,710.36,1277.1H27.857A27.857,27.857,0,0,1,0,1249.245V27.858A27.858,27.858,0,0,1,27.858,0Z" transform="translate(1002.41 236.846)" fill="none" stroke="gray" stroke-miterlimit="10" stroke-width="5"/>
    <rect id="Rectangle_128" data-name="Rectangle 128" width="232.755" height="52.56" transform="translate(1255.141 774.32)" fill="none" stroke="gray" stroke-miterlimit="10" stroke-width="5"/>
    <g id="Group_220" data-name="Group 220" transform="translate(729.32 131.334)">
      <path id="Path_193" data-name="Path 193" d="M1344.193,1095.271s-25.218,0-80.263,173.588c-18.916,59.645,86.5,105.625,86.5,105.625Z" transform="translate(-1261.658 -842.054)" fill="#fff" stroke="#e47046" stroke-miterlimit="10" stroke-width="5"/>
      <g id="Group_192" data-name="Group 192" transform="translate(101.44 47.837)">
        <g id="Group_191" data-name="Group 191">
          <path id="Path_179" data-name="Path 179" d="M1472.569,1115.674s14.785-25.877-8.664-95.226c-22.68-67.067-101.187-60.988-126.137-18.019s-16.519,69.658,20.212,118.172S1457.323,1137.847,1472.569,1115.674Z" transform="translate(-1323.506 -970.052)" fill="#fff" stroke="#e47046" stroke-miterlimit="10" stroke-width="5"/>
        </g>
      </g>
      <g id="Group_194" data-name="Group 194" transform="translate(17.113 1382.912)">
        <g id="Group_193" data-name="Group 193">
          <path id="Path_180" data-name="Path 180" d="M1323.135,1787.712s-3.883,28.479-4.37,32.756-43.214-2.517-43.214-2.517l-3.459-33.9S1317.794,1783.7,1323.135,1787.712Z" transform="translate(-1272.092 -1784.04)" fill="none" stroke="#945dd6" stroke-miterlimit="10" stroke-width="5"/>
        </g>
      </g>
      <g id="Group_196" data-name="Group 196" transform="translate(10.433 1413.797)">
        <g id="Group_195" data-name="Group 195">
          <path id="Path_181" data-name="Path 181" d="M1321.827,1804.8s13.539,17.162,26.635,24.641,33.671,10.442,41.413,18.187c5.588,5.59,20.355,29.65-34.027,29.165s-80.6,3.4-86.431-5.826,8.432-68.1,8.432-68.1S1291.162,1806.62,1321.827,1804.8Z" transform="translate(-1268.019 -1802.869)" fill="#fff" stroke="#e47046" stroke-miterlimit="10" stroke-width="5"/>
        </g>
      </g>
      <g id="Group_198" data-name="Group 198" transform="translate(312.972 1382.912)">
        <g id="Group_197" data-name="Group 197">
          <path id="Path_182" data-name="Path 182" d="M1503.519,1787.712s-3.885,28.479-4.367,32.756-43.219-2.517-43.219-2.517l-3.457-33.9S1498.18,1783.7,1503.519,1787.712Z" transform="translate(-1452.475 -1784.04)" fill="none" stroke="#945dd6" stroke-miterlimit="10" stroke-width="5"/>
        </g>
      </g>
      <g id="Group_200" data-name="Group 200" transform="translate(306.292 1413.797)">
        <g id="Group_199" data-name="Group 199">
          <path id="Path_183" data-name="Path 183" d="M1502.213,1804.8s13.537,17.162,26.63,24.641,61.281,13.623,69.022,21.367c5.587,5.591,14.885,28.089-61.633,25.985-54.367-1.494-80.6,3.4-86.431-5.826s8.429-68.1,8.429-68.1S1475.126,1805.875,1502.213,1804.8Z" transform="translate(-1448.403 -1802.869)" fill="#fff" stroke="#e47046" stroke-miterlimit="10" stroke-width="5"/>
        </g>
      </g>
      <g id="Group_202" data-name="Group 202" transform="translate(2.271 677.438)">
        <g id="Group_201" data-name="Group 201">
          <path id="Path_184" data-name="Path 184" d="M1343.316,1353.917s-21.908,68.081-19.024,126.751-11.329,122.875-17.137,184.161c-6.479,68.332-32.986,230.085-33.949,266.637s-10.163,149.985-10.163,149.985l67.341,4.553s44.567-282.792,56.111-311.646,68.778-234.562,70.7-257.647S1343.316,1353.917,1343.316,1353.917Z" transform="translate(-1263.043 -1353.917)" fill="#fff" stroke="#e47046" stroke-miterlimit="10" stroke-width="5"/>
        </g>
      </g>
      <g id="Group_204" data-name="Group 204" transform="translate(82.543 655.903)">
        <g id="Group_203" data-name="Group 203">
          <path id="Path_185" data-name="Path 185" d="M1531.995,1355.233s32.213,180.011,36.061,215.922,6.413,173.776,8.336,196.222,12.826,293.688,23.086,327.034h-72.368s-47.545-197.189-47.545-290.484-40.233-202.828-66.2-264.384-85.415-63.01-101.381-177.221C1311.984,1362.322,1510.383,1319.01,1531.995,1355.233Z" transform="translate(-1311.984 -1340.786)" fill="#fff" stroke="#e47046" stroke-miterlimit="10" stroke-width="5"/>
        </g>
      </g>
      <g id="Group_206" data-name="Group 206" transform="translate(134.958 190.528)">
        <g id="Group_205" data-name="Group 205">
          <path id="Path_186" data-name="Path 186" d="M1438.027,1078.289s-6.677,19.427,0,33.289-85.273,5.542-85.273,5.542,4.16-28.647-7.855-52.212S1438.027,1078.289,1438.027,1078.289Z" transform="translate(-1343.941 -1057.05)" fill="#fff" stroke="#e47046" stroke-miterlimit="10" stroke-width="5"/>
        </g>
      </g>
      <g id="Group_208" data-name="Group 208" transform="translate(78.279 670.349)">
        <g id="Group_207" data-name="Group 207">
          <path id="Path_187" data-name="Path 187" d="M1309.384,1371.515s33.067,33.968,227.236-5.292l-2.959-16.629-220.73,8.31Z" transform="translate(-1309.384 -1349.594)" fill="none" stroke="#945dd6" stroke-miterlimit="10" stroke-width="5"/>
        </g>
      </g>
      <g id="Group_210" data-name="Group 210" transform="translate(50.656 90.793)">
        <g id="Group_209" data-name="Group 209">
          <path id="Path_188" data-name="Path 188" d="M1777.539,1006.739c-5.909,22.563-23.4,73.009-28.689,88.826-6.569,19.627-21.5,57.809-27.032,62.735-4.473,3.937-38.445,29.909-77.708,48.618a258.972,258.972,0,0,1-29.661,12.061,429.982,429.982,0,0,0-88.292,41.151H1292.543c6.033-49.48,22.976-84.97,29.375-96.994,17.806-1.146,44.763-4.344,58.259-4.92,16.864-.656,34.669-8.084,34.669-8.084l5.948.409,17.971,1.274,46.076,3.2s33.969,3.446,43.652,5.291c9.725,1.846,75.04-11.692,88.417-13.046a24.975,24.975,0,0,0,6.564-2.009c19.772-8.29,64.208-39.1,65.847-43.163,1.847-4.593,24.128-90.425,28.517-105.235C1718.862,993.572,1778.154,1004.439,1777.539,1006.739Z" transform="translate(-1292.543 -996.242)" fill="#fff" stroke="#e47046" stroke-miterlimit="10" stroke-width="5"/>
        </g>
      </g>
      <g id="Group_212" data-name="Group 212" transform="translate(10.449 239.804)">
        <g id="Group_211" data-name="Group 211">
          <path id="Path_189" data-name="Path 189" d="M1306.144,1241.768c0,.039,0,.039,0,.08,7.221,29.05,18.667,91.985,21.456,121.236,3.486,36.022-59.572,549.323-59.572,549.323,29.7,23.056,354.972,29.454,353.574,19.734-1.392-9.685-72.208-561.424-66.668-580.134s16.658-73.479,19.406-108.149c2.79-34.628,33.149-54.853,33.149-54.853l52.312-40.248c5.252-25.643-20.637-61.665-20.637-61.665s-79.346,8.738-90.1,7.384c-8.9-1.147-63.636-7.3-63.636-7.3-13.169,3.978-23.262,5.823-30.975,6.482-8.74.7-14.4-.166-17.971-1.275-4.348-1.35-5.66-3.158-5.66-3.158,0,.125-59.605,2.523-90.713,11.283C1340.113,1100.508,1298.417,1159.179,1306.144,1241.768Z" transform="translate(-1268.029 -1087.093)" fill="#fff" stroke="#e47046" stroke-miterlimit="10" stroke-width="5"/>
        </g>
      </g>
      <g id="Group_214" data-name="Group 214" transform="translate(96.847 41.941)">
        <g id="Group_213" data-name="Group 213">
          <path id="Path_190" data-name="Path 190" d="M1359.773,1122.9s12.167,1.074,38.043-7.858,27.806-54.179,33.4-48.822c11.417,10.936,22.2,3.39,26.513-3.078,0,0-12.631-16.635-6.779-24.644s15.382-13.854,15.382-13.854-18.2-87.717-101.016-47.753C1268.285,1023.712,1359.773,1122.9,1359.773,1122.9Z" transform="translate(-1320.706 -966.458)" fill="#fff" stroke="#e47046" stroke-miterlimit="10" stroke-width="5"/>
        </g>
      </g>
      <g id="Group_216" data-name="Group 216" transform="translate(141.387 232.25)">
        <g id="Group_215" data-name="Group 215">
          <path id="Path_191" data-name="Path 191" d="M1435.516,1095.293l-2.919-12.682s-52.86-1.075-81.7,3.109l-3.034,15.154S1384.793,1117.624,1435.516,1095.293Z" transform="translate(-1347.861 -1082.487)" fill="#fff" stroke="#e47046" stroke-miterlimit="10" stroke-width="5"/>
        </g>
      </g>
      <g id="Group_218" data-name="Group 218" transform="translate(191.303 123.723)">
        <g id="Group_217" data-name="Group 217">
          <path id="Path_192" data-name="Path 192" d="M1402.995,1023.213c-4.8-7.979-22.558-13.36-24.643,9.243-1.615,17.52,31.728,36.656,32.036,20.331S1406.192,1028.523,1402.995,1023.213Z" transform="translate(-1378.295 -1016.32)" fill="#fff" stroke="#e47046" stroke-miterlimit="10" stroke-width="5"/>
        </g>
      </g>
      <g id="Group_219" data-name="Group 219" transform="translate(433.621 6.05)">
        <rect id="Rectangle_129" data-name="Rectangle 129" width="137.781" height="10.232" transform="matrix(0.573, -0.82, 0.82, 0.573, 0, 112.92)" fill="#fff" stroke="#e47046" stroke-miterlimit="10" stroke-width="5"/>
      </g>
      <path id="Path_194" data-name="Path 194" d="M1622.17,971.726s1.4,6.461.639,9.586c0,0-1.829,5.582-2.886,9.624a28.353,28.353,0,0,0-.685,3.159c-.387,3.113-.306,10.064-3.338,17.282s-16.283,31.6-16.283,31.6l-22.8-7.622-20.831-.842s-7.327-46.937-5.289-53.982a20.341,20.341,0,0,1,.69-1.975c2.311-5.8,6.465-9.142,8.02-12.048.579-1.062,7.04-11.247,10.617-11.7,4.963-.635,8.658.938,10.89,3.542,0,0,9.772-.814,15.206,2.934,0,0,8.99-1.041,14.422,5.545C1610.545,966.832,1619.784,966.8,1622.17,971.726Z" transform="translate(-1073.87 -932.063)" fill="#fff" stroke="#e47046" stroke-miterlimit="10" stroke-width="5"/>
      <path id="Path_195" data-name="Path 195" d="M1582.555,952.8l2.4-11.914-10.791,6.052Z" transform="translate(-1061.599 -940.886)" fill="none" stroke="#e47046" stroke-miterlimit="10" stroke-width="5"/>
    </g>
    <g id="Group_380" data-name="Group 380" transform="translate(1207.952 120.852)">
      <path id="Path_268" data-name="Path 268" d="M1904.137,1117.331s-1.812-43.883,10.747-84.871-85.9,54.649-85.9,54.649c1.033.732,1.228,4.827.644,10.54a116.228,116.228,0,0,1-3.161,16.94C1822.872,1128.291,1840.125,1145.53,1904.137,1117.331Z" transform="translate(-1376.896 -885.628)" fill="#fff" stroke="#4c4b4b" stroke-miterlimit="10" stroke-width="5"/>
      <g id="Group_363" data-name="Group 363" transform="translate(28.462 381.816)">
        <g id="Group_362" data-name="Group 362">
          <path id="Path_253" data-name="Path 253" d="M1653.747,1218.621s-10.757-23.26-12.512-26.763-12.034-9.064-24.249-12.142c-11.867-2.989-28.01-8.979-29.853-7.829s-4,1.313-6.2,6.438a21.153,21.153,0,0,0-1.231,10.665s-5.679,5.045-3.978,11.781a11.219,11.219,0,0,0-1.939,12.326s-4.872,5.01-2.107,10.145c0,0,9.529,5.405,12.476,8.425s23.534,12.911,44.738,19.357C1628.895,1251.022,1650.989,1250.334,1653.747,1218.621Z" transform="translate(-1570.831 -1171.742)" fill="#fff" stroke="#4c4b4b" stroke-miterlimit="10" stroke-width="5"/>
        </g>
      </g>
      <g id="Group_365" data-name="Group 365" transform="translate(86.526 418.557)">
        <g id="Group_364" data-name="Group 364">
          <path id="Path_254" data-name="Path 254" d="M1606.232,1236.681s26.3,4.59,35.223-.545-1.466-31.928-1.466-31.928l-16.651-10.064Z" transform="translate(-1606.232 -1194.143)" fill="#fff" stroke="#4c4b4b" stroke-miterlimit="10" stroke-width="5"/>
        </g>
      </g>
      <g id="Group_369" data-name="Group 369" transform="translate(28.115 381.82)">
        <g id="Group_368" data-name="Group 368">
          <path id="Path_256" data-name="Path 256" d="M1590.567,1173s28.727,13.955,27.051,18.86-5.265,5.691-5.265,5.691l9.219,11.108s1.952,10.8-10.384,9.772c0,0,2.87,9.9-8.922,7.484,0,0-1.02,7.375-6.678,7.222s-23.771-9.9-23.771-9.9-3.51-3.867,1.5-10.231c0,0-3.331-7.1,2.075-12.577,0,0-1.65-8.731,4.246-14.6,0,0-.6-9.893,7.874-14.089C1587.507,1171.745,1589.361,1172.4,1590.567,1173Z" transform="translate(-1570.62 -1171.745)" fill="#fff" stroke="#4c4b4b" stroke-miterlimit="10" stroke-width="5"/>
        </g>
      </g>
      <g id="Group_372" data-name="Group 372" transform="translate(36.389 381.79)">
        <path id="Path_258" data-name="Path 258" d="M1576.4,1185.845s32.8,11.221,35.03,13.933,6.444-9.255,4.376-11.442-27.6-15.8-30.408-16.551S1572.948,1177.614,1576.4,1185.845Z" transform="translate(-1575.664 -1171.726)" fill="#fff" stroke="#4c4b4b" stroke-miterlimit="10" stroke-width="5"/>
      </g>
      <g id="Group_373" data-name="Group 373" transform="translate(0 377.001)">
        <path id="Path_259" data-name="Path 259" d="M1605.71,1175.022s-51.071-10.463-52.112-4.24,3.9,7.269,45.756,19.481C1640.049,1202.136,1605.71,1175.022,1605.71,1175.022Z" transform="translate(-1553.478 -1168.806)" fill="#fff" stroke="#4c4b4b" stroke-miterlimit="10" stroke-width="5"/>
      </g>
      <g id="Group_374" data-name="Group 374" transform="translate(318.585 1426.226)">
        <path id="Path_260" data-name="Path 260" d="M1832.311,1812.951s-16.276,24.352-39.1,29.608-45.32,13.63-45.489,28.037,66,23,92.133,8.473c38.991-21.674,42.952-15.141,47.276-25.977s-5.192-39.81-4.91-43.256C1882.563,1805.578,1832.311,1812.951,1832.311,1812.951Z" transform="translate(-1747.717 -1808.512)" fill="#fff" stroke="#4c4b4b" stroke-miterlimit="10" stroke-width="5"/>
      </g>
      <g id="Group_375" data-name="Group 375" transform="translate(403.135 1411.576)">
        <path id="Path_261" data-name="Path 261" d="M1801.842,1806.657s-2.971,11.764-2.53,12.013,51.445,6.325,49.907-3.113c-1.253-7.659-3.039-15.977-3.039-15.977Z" transform="translate(-1799.267 -1799.58)" fill="#fff" stroke="#4c4b4b" stroke-miterlimit="10" stroke-width="5"/>
      </g>
      <g id="Group_376" data-name="Group 376" transform="translate(505.563 1423.01)">
        <path id="Path_262" data-name="Path 262" d="M1930.987,1812.589s-11.608,23.293-31.444,31.228c-21.2,8.479-38.205,18.229-37.819,32.264s51.83,28.268,89.262,1.323c23.644-17.022,31.139-17.1,34.932-27.823s-6.583-38.572-6.444-41.941C1979.644,1803.481,1930.987,1812.589,1930.987,1812.589Z" transform="translate(-1861.717 -1806.552)" fill="#fff" stroke="#4c4b4b" stroke-miterlimit="10" stroke-width="5"/>
      </g>
      <g id="Group_377" data-name="Group 377" transform="translate(574.256 1407.9)">
        <path id="Path_263" data-name="Path 263" d="M1903.6,1806.392s.139,11.873.577,12.1,49.74,4.29,48.484-4.947c-1-7.336-4.781-16.2-4.781-16.2Z" transform="translate(-1903.598 -1797.339)" fill="#fff" stroke="#4c4b4b" stroke-miterlimit="10" stroke-width="5"/>
      </g>
      <g id="Group_378" data-name="Group 378" transform="translate(324.238 651.283)">
        <path id="Path_264" data-name="Path 264" d="M1820.431,1390.161s-45.8,202.019-56.257,263.556c-8.9,52.371-16,106.908-11.737,144.717,5.28,46.81,71.547,289.41,68.775,303.133s79,5.379,79,5.379-60.06-273.792-49.992-324.156c7.458-37.3,72.785-285.105,82.8-272.394s22.427,233.867,29.842,270.576,30.178,326.79,30.178,326.79,50.894,7.51,64.489-4c0,0,6.185-247.685,1.464-316.515-1.8-26.23,30.73-314.5-10.988-430.56C2025.955,1295.354,1820.431,1390.161,1820.431,1390.161Z" transform="translate(-1751.164 -1336.034)" fill="#fff" stroke="#4c4b4b" stroke-miterlimit="10" stroke-width="5"/>
      </g>
      <g id="Group_379" data-name="Group 379" transform="translate(94.407 249.946)">
        <path id="Path_265" data-name="Path 265" d="M1611.037,1312.448s158.663,35.181,190.235,27.411c14.594-3.59,33.82-23.736,52.085-47.425,6.023-7.8,11.93-15.986,17.546-24.088a.049.049,0,0,0,.019-.033c22.414-32.359,39.976-63.376,39.976-63.376s66.246-77.637,13.086-112.245c0,0-19.293-7.23-37.009,11.761s-38.532,58.713-43.179,68.844-69.717,103.971-73.088,106.086-31.805-5.368-54.6-7.264c-37.172-3.1-92.879-17.577-92.879-17.577Z" transform="translate(-1611.037 -1091.342)" fill="#fff" stroke="#4c4b4b" stroke-miterlimit="10" stroke-width="5"/>
      </g>
      <path id="Path_266" data-name="Path 266" d="M1871.792,1081.6s-68.2,14.1-76.289,21.269c-8.784,7.631-24.276,82.323-25.2,103.128s8.222,107.723,17,140.085,7.171,191.777,1.625,236.628c0,0,137.312,39,272.32,21.429,0,0-22.633-167.711-17.23-212.064,6.927-56.814,23.583-187.718,23.583-187.718s-11.951-91.184-23.973-101.354-94.855-21.4-94.855-21.4Z" transform="translate(-1414.716 -847.627)" fill="#fff" stroke="#4c4b4b" stroke-miterlimit="10" stroke-width="5"/>
      <path id="Path_267" data-name="Path 267" d="M1879.454,954.555s-82.036-30.356-76.909,78.661,24.353,120.094,78.318,104.867,58.486-84.029,65.513-117.125S1906.279,959.313,1879.454,954.555Z" transform="translate(-1394.181 -931.448)" fill="#fff" stroke="#4c4b4b" stroke-miterlimit="10" stroke-width="5"/>
      <path id="Path_269" data-name="Path 269" d="M1935.841,1082.528s.233-29.121-11.875-31.8-13.7-12.365-13.7-12.365l-6.952,1.611s1.272-5.129-10.272-11.894-80.614-.823-89.283-10.758,3.905-68.945,22.746-74.738,62.622-5.261,102.608,5.973c0,0,30.362,7.659,32.663,43.4C1963.261,1015.093,1945.694,1066.739,1935.841,1082.528Z" transform="translate(-1395.049 -938.951)" fill="#fff" stroke="#4c4b4b" stroke-miterlimit="10" stroke-width="5"/>
      <path id="Path_271" data-name="Path 271" d="M1838.83,1099.334s-11.578,17.081-18.569,60.927-5.8,119.385-5.8,119.385l16.1,1.959s24.369-154.055,20.177-180.9Z" transform="translate(-1386.456 -836.279)" fill="#fff" stroke="#4c4b4b" stroke-miterlimit="10" stroke-width="5"/>
      <path id="Path_272" data-name="Path 272" d="M1870.311,1001.96c3.621-9.606,24.081-8.4,21.987,6.834s-19.007,38.684-25.8,34.287S1865.312,1015.207,1870.311,1001.96Z" transform="translate(-1355.103 -902.547)" fill="#fff" stroke="#4c4b4b" stroke-miterlimit="10" stroke-width="5"/>
      <path id="Path_273" data-name="Path 273" d="M1811.019,1101.27s-38.749,51.266-24.391,185.4c25.94,242.384-41.992,631.467-41.992,631.467l70.081,21.935s66.969-497.391,49.917-677.9c-7.772-82.264-30.838-109.634,5.551-178.166C1870.184,1084,1834.748,1085.8,1811.019,1101.27Z" transform="translate(-1431.105 -846.095)" fill="#fff" stroke="#4c4b4b" stroke-miterlimit="10" stroke-width="5"/>
      <path id="Path_274" data-name="Path 274" d="M1946.178,1083.311s-110.927,112.048-119.615,196.99-22.837,660.207-22.837,660.207l264.085-15.376s-24.273-303.672-30.2-341.66-18.18-256.1,8.552-357.313c14.357-54.374-2.727-123.359-35.532-130.888S1946.178,1083.311,1946.178,1083.311Z" transform="translate(-1393.276 -846.537)" fill="#fff" stroke="#4c4b4b" stroke-miterlimit="10" stroke-width="5"/>
      <path id="Path_276" data-name="Path 276" d="M1716.4,1395.481l193.223,199.959,128.34-124.016L1849.76,1266.616Z" transform="translate(-1449.179 -729.19)" fill="#fff" stroke="#4c4b4b" stroke-miterlimit="10" stroke-width="5"/>
      <path id="Path_277" data-name="Path 277" d="M1727.541,1392.277l171.6,177.588,113.985-110.143-167.155-181.891Z" transform="translate(-1442.049 -722.011)" fill="#fff" stroke="#4c4b4b" stroke-miterlimit="10" stroke-width="5"/>
      <path id="Path_278" data-name="Path 278" d="M1756.352,1351.761l-12.046-12.465,46.082-44.531,13.846,10.728Z" transform="translate(-1431.317 -711.17)" fill="#fff" stroke="#4c4b4b" stroke-miterlimit="10" stroke-width="5"/>
      <path id="Path_279" data-name="Path 279" d="M1900.9,1072.822s-33.463,20.182-66.572,24.729l17.613,28.1,55.8-38.423Z" transform="translate(-1373.685 -853.252)" fill="#fff" stroke="#4c4b4b" stroke-miterlimit="10" stroke-width="5"/>
      <path id="Path_280" data-name="Path 280" d="M1829.714,1078.548s3.526,11.567,11.076,15.338l-16.543,23.066.607-30.592Z" transform="translate(-1380.14 -849.587)" fill="#fff" stroke="#4c4b4b" stroke-miterlimit="10" stroke-width="5"/>
      <path id="Path_281" data-name="Path 281" d="M1839.444,1087.9l-13.1,18.263s8.287,10.485,26.141,2.54Z" transform="translate(-1378.797 -843.599)" fill="#fff" stroke="#4c4b4b" stroke-miterlimit="10" stroke-width="5"/>
      <rect id="Rectangle_151" data-name="Rectangle 151" width="31.131" height="47.531" transform="translate(407.434 429.389) rotate(180)" fill="#fff" stroke="#4c4b4b" stroke-miterlimit="10" stroke-width="5"/>
      <path id="Path_284" data-name="Path 284" d="M1880.713,1310.9s-2.848,5.639-7.585,7.539c-8.178,3.284-21.255-1.924-26.317,9.775s27.562,39.19,35.737,40.617,19.76-11.953,27.314-37.763S1880.713,1310.9,1880.713,1310.9Z" transform="translate(-1366.035 -701.175)" fill="#fff" stroke="#4c4b4b" stroke-miterlimit="10" stroke-width="5"/>
      <path id="Path_285" data-name="Path 285" d="M1867.5,1319.017a358.347,358.347,0,0,0-27.928,28.515c-12.176,14-23.9,32.813-21.8,36.365,4.66,7.89,15.987-9.73,29.007-22.767,11.99-12,10.008-9.9,10.008-9.9s.02-1.278-10.447,14.46c-11.258,16.913-21.062,35.463-18.4,39.581,1.3,2.005,6.536,6.913,9.049-1.174-2.25,3.779-2.648,2.852-1.143,4,7.781,5.937,28.235-16.19,36.354-24.978-6.192,6.791-10,12.47-2.981,13.046,8.032.661,35.512-31.992,46.5-42.7C1927.695,1341.8,1867.5,1319.017,1867.5,1319.017Z" transform="translate(-1384.446 -695.644)" fill="#fff" stroke="#4c4b4b" stroke-miterlimit="10" stroke-width="5"/>
      <path id="Path_286" data-name="Path 286" d="M1942.071,1096.693c-8.941,3.464-12.323,19.336-8.651,65.341s19.87,67.167,25.911,77.809,39.274,76.237,33.3,84.863-62.39,64.29-65.654,68.821-66.255,61.551-66.255,61.551l32.07,44.814s136.014-106.244,146.627-116.849,42.329-32.892,30.6-69.944c-11.923-37.663-33.354-125.826-37.159-132.72S2001.2,1073.8,1942.071,1096.693Z" transform="translate(-1356.79 -846.119)" fill="#fff" stroke="#4c4b4b" stroke-miterlimit="10" stroke-width="5"/>
    </g>
  </g>
</svg>
