<svg xmlns="http://www.w3.org/2000/svg" width="23.997" height="23.407" viewBox="0 0 23.997 23.407">
  <path id="Path_1521" data-name="Path 1521" d="M12,2a12,12,0,0,1,3.8,23.387c-.609.109-.828-.266-.828-.578,0-.391.016-1.687.016-3.3a2.83,2.83,0,0,0-.812-2.218c2.672-.3,5.484-1.312,5.484-5.921a4.647,4.647,0,0,0-1.234-3.218,4.34,4.34,0,0,0-.125-3.187C17.294,6.655,15,8.2,15,8.2a11.279,11.279,0,0,0-6,0S6.7,6.655,5.7,6.968a4.34,4.34,0,0,0-.125,3.187,4.647,4.647,0,0,0-1.234,3.218c0,4.593,2.8,5.624,5.468,5.921A2.64,2.64,0,0,0,9.046,20.9a2.53,2.53,0,0,1-3.484-1,2.516,2.516,0,0,0-1.844-1.234c-1.172-.016-.078.734-.078.734.781.359,1.328,1.75,1.328,1.75.7,2.14,4.046,1.422,4.046,1.422,0,1,.016,1.937.016,2.234,0,.312-.219.687-.828.578A12,12,0,0,1,12,2ZM4.546,19.232c.031-.062-.016-.141-.109-.187-.094-.031-.172-.016-.2.031-.031.063.016.141.109.187A.143.143,0,0,0,4.546,19.232Zm.484.531c.062-.047.047-.156-.031-.25-.078-.078-.187-.109-.25-.047-.062.047-.047.156.031.25C4.859,19.794,4.968,19.825,5.031,19.763Zm.469.7a.215.215,0,0,0,0-.3.188.188,0,0,0-.266-.094c-.078.047-.078.172,0,.281S5.437,20.513,5.5,20.466Zm.656.656c.062-.062.031-.2-.062-.3-.109-.109-.25-.125-.312-.047-.078.063-.047.2.062.3C5.952,21.185,6.093,21.2,6.155,21.122Zm.89.391c.031-.094-.062-.2-.2-.25a.249.249,0,0,0-.3.109c-.031.094.062.2.2.234a.228.228,0,0,0,.3-.094Zm.984.078c0-.109-.125-.187-.266-.172-.141,0-.25.078-.25.172,0,.109.109.187.266.172C7.921,21.763,8.03,21.685,8.03,21.591Zm.906-.156c-.016-.094-.141-.156-.281-.141-.141.031-.234.125-.219.234.016.094.141.156.281.125s.234-.125.219-.219Z" transform="translate(0 -2)" fill="#444"/>
</svg>
