<svg xmlns="http://www.w3.org/2000/svg" width="347.087" height="97.72" viewBox="0 0 347.087 97.72">
  <g id="Group_1" transform="translate(191.299 893.179)">
    <text id="frictionless" transform="translate(-79.212 -850.794)" fill="#070000" font-size="43" font-family="Quicksand-Light, Quicksand" font-weight="300"><tspan x="0" y="0">frictionless</tspan></text>
    <path id="Path_66" d="M-128.126-893c25.884,0,35.232,22.8,35.232,48.689s-23.261,49.031-49.031,49.031S-191.3-814.892-191.3-840.771-153.9-893-128.126-893Z" transform="translate(0 -0.179)" fill="#fff"/>
    <text id="data" transform="translate(-79.212 -808.604)" fill="#070000" font-size="43" font-family="Quicksand-Light, Quicksand" font-weight="300"><tspan x="0" y="0">data</tspan></text>
    <text id="frictionless-2" data-name="frictionless" transform="translate(-79.212 -850.794)" fill="#fff" font-size="43" font-family="Quicksand-Light, Quicksand" font-weight="300"><tspan x="0" y="0">frictionless</tspan></text>
    <g id="Group_2" data-name="Group 2" transform="translate(-161.195 -863.209)">
      <path id="Path_2" data-name="Path 2" d="M-131.035-865.1a2.893,2.893,0,0,0-1.369-.228,4.1,4.1,0,0,0-1.254.228c-1.6.341-3.079,1.938-4.675,4.9-.456.8-1.71,3.535-3.99,8.774l3.307.113a11.773,11.773,0,0,0,2.28-.228c0,.228-1.254.913-1.71,1.026a9.525,9.525,0,0,1-3.992.456h-.456c-1.825,4.446-2.851,7.412-3.535,8.894s-1.369,2.736-1.938,3.877c-.57,1.026-1.369,2.16-2.16,3.307a21.966,21.966,0,0,1-2.736,2.851,11.019,11.019,0,0,1-2.97,2.167,7.578,7.578,0,0,1-3.877.685c-2.508-.228-4.1-1.026-4.675-2.508a1.24,1.24,0,0,1-.113-.57v-.57c0-.113.113-.228.113-.341a1.926,1.926,0,0,1,.228-.57,1.926,1.926,0,0,0,.228-.57,4.482,4.482,0,0,1,.228-.684c.113-.341.342-.57.342-.684s.113-.228.228-.341a.419.419,0,0,1,.342.113c.113.113,0,.342-.113.684a4.048,4.048,0,0,0-.228,1.141,3.374,3.374,0,0,0,.228,1.141c.57,1.485,1.825,2.16,3.992,2.395h.57a4.589,4.589,0,0,0,2.28-.8c2.052-1.026,3.645-3.193,5.474-6.728a47.228,47.228,0,0,0,3.079-6.956c1.141-2.97,2.28-5.017,2.623-6.043l-1.026.113a9.485,9.485,0,0,0-1.369.115h-2.16A4,4,0,0,1-147.9-851.3a12.415,12.415,0,0,1,2.052-.113l1.141-.113c3.192-7.412,6.043-11.973,8.666-13.8A8.655,8.655,0,0,1-130.8-866.7a3.036,3.036,0,0,1,1.369.341c.341.228.341.57.341,1.026l-.113,1.6a.246.246,0,0,1-.228.228h-.228a1.707,1.707,0,0,0-1.378-1.594Z" transform="translate(164.899 866.714)" fill="#1ea2ff" stroke="#1ea2ff" stroke-width="1"/>
    </g>
    <text id="data-2" data-name="data" transform="translate(-79.212 -808.604)" fill="#fff" font-size="43" font-family="Quicksand-Light, Quicksand" font-weight="300"><tspan x="0" y="0">data</tspan></text>
  </g>
</svg>
