<svg xmlns="http://www.w3.org/2000/svg" width="205.776" height="49.5" viewBox="0 0 205.776 49.5">
  <g id="Group_310" data-name="Group 310" transform="translate(-181 -4171)">
    <path id="Path_2080" data-name="Path 2080" d="M124.3,38.148h2.969V49.1H124.3Zm0-4.125h2.969v2.485H124.3Zm38.454-8.757a5.032,5.032,0,0,1-.6.155c-.214,0-.447.082-.681.1l-.712.1a4.638,4.638,0,0,0-.651.165,1.868,1.868,0,0,0-.57.288,1.3,1.3,0,0,0-.387.453,1.45,1.45,0,0,0-.143.7,1.412,1.412,0,0,0,.143.68,1.189,1.189,0,0,0,.4.433,1.724,1.724,0,0,0,.58.227,3.813,3.813,0,0,0,.691.062,2.6,2.6,0,0,0,1.353-.3,1.976,1.976,0,0,0,.712-.712,2.362,2.362,0,0,0,.284-.835,5.728,5.728,0,0,0,0-.67V24.95a1.287,1.287,0,0,1-.468.268m-5.869-4.248A3.56,3.56,0,0,1,158,19.846a5.043,5.043,0,0,1,1.6-.608,9.213,9.213,0,0,1,1.79-.175,11.639,11.639,0,0,1,1.647.113,5.033,5.033,0,0,1,1.526.453,3.063,3.063,0,0,1,1.139.99,2.667,2.667,0,0,1,.437,1.6v5.62a12.018,12.018,0,0,0,.081,1.423,2.584,2.584,0,0,0,.3,1.031h-3.058a4.408,4.408,0,0,1-.133-.525,4.864,4.864,0,0,1-.071-.536,3.805,3.805,0,0,1-1.677,1.031,6.558,6.558,0,0,1-1.963.3,5.211,5.211,0,0,1-1.445-.2A3.267,3.267,0,0,1,157,29.775a2.81,2.81,0,0,1-.784-1.031,3.506,3.506,0,0,1-.274-1.465,3.2,3.2,0,0,1,.325-1.537,2.7,2.7,0,0,1,.834-.97,3.657,3.657,0,0,1,1.169-.536,11.919,11.919,0,0,1,1.322-.288c.447-.072.885-.127,1.312-.165a8.036,8.036,0,0,0,1.149-.2,2.021,2.021,0,0,0,.794-.371.82.82,0,0,0,.274-.712,1.586,1.586,0,0,0-.153-.773,1.148,1.148,0,0,0-.417-.443,1.613,1.613,0,0,0-.6-.217,5.137,5.137,0,0,0-.742,0,2.255,2.255,0,0,0-1.377.381,1.722,1.722,0,0,0-.58,1.269h-2.969a3.479,3.479,0,0,1,.518-1.763m-2.034-1.608v2.062H152.6v5.392a1.5,1.5,0,0,0,.244,1.031,1.439,1.439,0,0,0,1.016.247h.478l.437-.062v2.284a7.236,7.236,0,0,1-.834.082h-.9a8.72,8.72,0,0,1-1.3-.093,3.083,3.083,0,0,1-1.088-.371,1.948,1.948,0,0,1-.742-.783,2.848,2.848,0,0,1-.274-1.33V21.373h-1.8V19.31h1.8V16.073h2.969v3.279ZM143.3,25.208a4.869,4.869,0,0,1-.6.155l-.681.1-.712.1a4.687,4.687,0,0,0-.661.165,1.913,1.913,0,0,0-.57.288,1.273,1.273,0,0,0-.387.453,1.45,1.45,0,0,0-.143.7,1.412,1.412,0,0,0,.143.68,1.149,1.149,0,0,0,.4.433,1.785,1.785,0,0,0,.58.227,3.873,3.873,0,0,0,.691.062,2.614,2.614,0,0,0,1.363-.3,1.966,1.966,0,0,0,.712-.712,2.29,2.29,0,0,0,.284-.835,5.442,5.442,0,0,0,.051-.67V24.95a1.247,1.247,0,0,1-.468.268m-5.859-4.248a3.57,3.57,0,0,1,1.169-1.124,5.043,5.043,0,0,1,1.6-.608,9.223,9.223,0,0,1,1.79-.175,11.688,11.688,0,0,1,1.657.113,5.033,5.033,0,0,1,1.526.453,3.06,3.06,0,0,1,1.19.99,2.667,2.667,0,0,1,.437,1.6v5.62a11.3,11.3,0,0,0,.081,1.423,2.584,2.584,0,0,0,.3,1.031h-3.051a4.59,4.59,0,0,1-.133-.525,4.485,4.485,0,0,1-.071-.536,3.846,3.846,0,0,1-1.677,1.031,6.557,6.557,0,0,1-1.963.3,5.211,5.211,0,0,1-1.445-.2,3.277,3.277,0,0,1-1.169-.588,2.728,2.728,0,0,1-.784-1.031,3.486,3.486,0,0,1-.284-1.465,3.244,3.244,0,0,1,.325-1.537,2.774,2.774,0,0,1,.834-.97,3.687,3.687,0,0,1,1.169-.536,11.916,11.916,0,0,1,1.322-.288c.447-.072.885-.127,1.312-.165a8.035,8.035,0,0,0,1.149-.2,1.951,1.951,0,0,0,.794-.371.821.821,0,0,0,.274-.712,1.627,1.627,0,0,0-.153-.773,1.135,1.135,0,0,0-.417-.443,1.633,1.633,0,0,0-.6-.217,5.186,5.186,0,0,0-.742,0,2.23,2.23,0,0,0-1.377.381,1.712,1.712,0,0,0-.58,1.269h-2.969a3.551,3.551,0,0,1,.518-1.763m-5.435,7.906a3.067,3.067,0,0,1-1.363,1.278,4.494,4.494,0,0,1-1.912.392,4.579,4.579,0,0,1-2.136-.475,4.271,4.271,0,0,1-1.515-1.289,5.953,5.953,0,0,1-.9-1.877,8.031,8.031,0,0,1-.305-2.207,7.52,7.52,0,0,1,.305-2.135,5.691,5.691,0,0,1,.9-1.815,4.521,4.521,0,0,1,1.495-1.258,4.4,4.4,0,0,1,2.084-.475,4.208,4.208,0,0,1,1.83.412,3.188,3.188,0,0,1,1.363,1.217h0V15.181h2.969v15.13h-2.817Zm-.125-5.413a3.119,3.119,0,0,0-.427-1.1,2.4,2.4,0,0,0-.784-.773,2.244,2.244,0,0,0-1.21-.3,2.364,2.364,0,0,0-1.231.3,2.3,2.3,0,0,0-.8.783,3.409,3.409,0,0,0-.437,1.113,6.006,6.006,0,0,0-.133,1.3,5.558,5.558,0,0,0,.143,1.269,3.438,3.438,0,0,0,.468,1.135,2.58,2.58,0,0,0,.814.8,2.154,2.154,0,0,0,1.179.31,2.3,2.3,0,0,0,1.221-.3,2.233,2.233,0,0,0,.784-.794,3.5,3.5,0,0,0,.417-1.135,6.649,6.649,0,0,0,.125-1.31,6.477,6.477,0,0,0-.125-1.3m60.3,14.692V40.21h-2.166v5.423a1.04,1.04,0,0,0,.26,1.005,1.007,1.007,0,0,0,.991.264h.478l.437-.062v2.33a7.238,7.238,0,0,1-.834.082h-.9a8.489,8.489,0,0,1-1.3-.093,3.083,3.083,0,0,1-1.088-.371,1.948,1.948,0,0,1-.742-.783,2.858,2.858,0,0,1-.274-1.33V40.158h-1.8v-2.01h1.78v-3.29h2.969v3.29h2.166ZM180.955,49.1V47.578h-.061a3.365,3.365,0,0,1-1.465,1.382,4.313,4.313,0,0,1-1.84.423,5.113,5.113,0,0,1-1.953-.32,2.8,2.8,0,0,1-1.2-.9,3.55,3.55,0,0,1-.626-1.413,8.942,8.942,0,0,1-.173-1.855v-6.75h2.969v6.187a3.88,3.88,0,0,0,.417,2.062,1.608,1.608,0,0,0,1.485.66,2.021,2.021,0,0,0,1.76-.732,4.171,4.171,0,0,0,.54-2.4V38.148h2.969V49.1Zm-8.848-10.95v2.062H169.93v5.423a1.04,1.04,0,0,0,.26,1.005,1.007,1.007,0,0,0,.991.264h.478l.437-.062v2.33a7.375,7.375,0,0,1-.834.082h-.9a8.559,8.559,0,0,1-1.3-.093,3.022,3.022,0,0,1-1.088-.371,1.916,1.916,0,0,1-.742-.783,2.806,2.806,0,0,1-.274-1.33V40.158h-1.8v-2.01h1.8v-3.29h2.969v3.29H172.1ZM163.665,49.1h-3.051V38.148h3.051Zm-3.051-15.078h3.051v2.485h-3.051Zm-1.922,4.125V40.21h-2.147v5.423a1.04,1.04,0,0,0,.26,1.005,1.007,1.007,0,0,0,.991.264h.478l.437-.062v2.33a7.377,7.377,0,0,1-.834.082h-.9a8.56,8.56,0,0,1-1.3-.093,3.1,3.1,0,0,1-1.088-.371,1.968,1.968,0,0,1-.742-.783,2.858,2.858,0,0,1-.274-1.33V40.158h-1.8v-2.01h1.8v-3.29h2.969v3.29h2.166ZM144.037,46.4a1.745,1.745,0,0,0,.508.577,2.173,2.173,0,0,0,.722.33,3.272,3.272,0,0,0,.844.1,3.011,3.011,0,0,0,.661-.072,2.109,2.109,0,0,0,.626-.227,1.481,1.481,0,0,0,.468-.423,1.124,1.124,0,0,0,.193-.67c0-.453-.3-.794-.885-1.031a17.164,17.164,0,0,0-2.481-.68c-.437-.1-.854-.217-1.261-.35a4.388,4.388,0,0,1-1.1-.525,2.563,2.563,0,0,1-.772-.825,2.346,2.346,0,0,1-.3-1.217,3.326,3.326,0,0,1,.407-1.742,3.07,3.07,0,0,1,1.078-1.031,4.7,4.7,0,0,1,1.5-.547,9.162,9.162,0,0,1,1.719-.155,8.58,8.58,0,0,1,1.7.165,4.47,4.47,0,0,1,1.475.577,3.386,3.386,0,0,1,1.078,1.031,3.676,3.676,0,0,1,.508,1.69h-2.817a1.314,1.314,0,0,0-.651-1.175,2.946,2.946,0,0,0-1.377-.31h-.54a1.741,1.741,0,0,0-.528.135,1.079,1.079,0,0,0-.407.31.916.916,0,0,0,.125,1.2,2.244,2.244,0,0,0,.762.412,9.658,9.658,0,0,0,1.068.33l1.231.278a11.972,11.972,0,0,1,1.261.36,4.047,4.047,0,0,1,1.1.567,2.74,2.74,0,0,1,.772.866,2.586,2.586,0,0,1,.3,1.278,3.333,3.333,0,0,1-1.546,2.99,4.521,4.521,0,0,1-1.576.635,9.113,9.113,0,0,1-1.81.175,8.852,8.852,0,0,1-1.84-.185,4.843,4.843,0,0,1-1.6-.635,3.5,3.5,0,0,1-1.637-3.01h2.828a1.648,1.648,0,0,0,.193.835M132.18,38.177V39.7h.061a3.437,3.437,0,0,1,1.465-1.4,4.184,4.184,0,0,1,1.84-.433,5.023,5.023,0,0,1,1.953.33,2.913,2.913,0,0,1,1.2.918,3.528,3.528,0,0,1,.626,1.413,9.188,9.188,0,0,1,.173,1.855v6.733h-2.969V42.931a3.911,3.911,0,0,0-.417-2.062,1.618,1.618,0,0,0-1.485-.67,2.021,2.021,0,0,0-1.76.732,4.107,4.107,0,0,0-.54,2.4v5.743h-2.939V38.148ZM164.6.349V1.872h.081A3.448,3.448,0,0,1,166.127.495a4.184,4.184,0,0,1,1.835-.434,5.023,5.023,0,0,1,1.953.33,2.913,2.913,0,0,1,1.2.907,3.55,3.55,0,0,1,.626,1.423,8.934,8.934,0,0,1,.173,1.855V11.34h-2.969V5.153a3.88,3.88,0,0,0-.417-2.062,1.608,1.608,0,0,0-1.485-.66,2.021,2.021,0,0,0-1.759.732,4.171,4.171,0,0,0-.54,2.4V11.34h-2.969V.349Zm-11.642,8.33a3.017,3.017,0,0,0,3.468.206,1.9,1.9,0,0,0,.794-.97h2.605A5.033,5.033,0,0,1,157.9,10.73a5.606,5.606,0,0,1-3.13.845,6.1,6.1,0,0,1-2.3-.412,4.736,4.736,0,0,1-1.739-1.175,5.323,5.323,0,0,1-1.1-1.825,6.755,6.755,0,0,1-.387-2.33,6.424,6.424,0,0,1,.4-2.284A5.311,5.311,0,0,1,152.477.5,5.527,5.527,0,0,1,154.73.059a5.107,5.107,0,0,1,2.4.536,4.867,4.867,0,0,1,1.739,1.465,6.017,6.017,0,0,1,.956,2.062,7.939,7.939,0,0,1,.2,2.433h-7.79a3.119,3.119,0,0,0,.732,2.124m43.97,37.789a3.017,3.017,0,0,0,3.468.206,1.9,1.9,0,0,0,.794-.97h2.614a5.033,5.033,0,0,1-1.922,2.815,5.606,5.606,0,0,1-3.13.845,6.1,6.1,0,0,1-2.3-.412,4.736,4.736,0,0,1-1.739-1.175,5.324,5.324,0,0,1-1.1-1.825,6.753,6.753,0,0,1-.387-2.33,6.424,6.424,0,0,1,.4-2.284,5.25,5.25,0,0,1,2.868-3.093,5.527,5.527,0,0,1,2.253-.443,5.108,5.108,0,0,1,2.4.536,4.869,4.869,0,0,1,1.677,1.454,6.017,6.017,0,0,1,.956,2.062,7.94,7.94,0,0,1,.2,2.433h-7.78a3.119,3.119,0,0,0,.732,2.124m3.356-5.763a2.089,2.089,0,0,0-1.627-.6,2.554,2.554,0,0,0-1.179.247,2.222,2.222,0,0,0-.751.6,2.3,2.3,0,0,0-.4.761,3.639,3.639,0,0,0-.133.722h4.831a3.519,3.519,0,0,0-.742-1.742m-44-37.72a2.089,2.089,0,0,0-1.627-.6,2.554,2.554,0,0,0-1.179.247,2.222,2.222,0,0,0-.751.6,2.3,2.3,0,0,0-.4.761,3.642,3.642,0,0,0-.133.722h4.831a3.52,3.52,0,0,0-.742-1.742M139.623.349v1.4h0A3.31,3.31,0,0,1,141.048.453a4.232,4.232,0,0,1,1.84-.4,4.635,4.635,0,0,1,2.2.485,4.531,4.531,0,0,1,1.526,1.289,5.489,5.489,0,0,1,.9,1.877,8.483,8.483,0,0,1,.3,2.237,7.674,7.674,0,0,1-.3,2.113,5.412,5.412,0,0,1-.885,1.8,4.284,4.284,0,0,1-3.519,1.712,4.162,4.162,0,0,1-1.851-.412,3.5,3.5,0,0,1-1.377-1.217h0v5.15H136.9V.349Zm3.854,8.682a2.466,2.466,0,0,0,.794-.773,3.3,3.3,0,0,0,.427-1.113,6.8,6.8,0,0,0,.125-1.289,6.059,6.059,0,0,0-.133-1.289,3.43,3.43,0,0,0-.447-1.135,2.508,2.508,0,0,0-.8-.8,2.229,2.229,0,0,0-1.2-.31,2.274,2.274,0,0,0-1.221.31,2.457,2.457,0,0,0-.794.794,3.223,3.223,0,0,0-.427,1.124,6.643,6.643,0,0,0-.125,1.31,6.062,6.062,0,0,0,.133,1.289,3.312,3.312,0,0,0,.468,1.1,2.269,2.269,0,0,0,2.034,1.031,2.314,2.314,0,0,0,1.221-.3M124.307,3.453a5.166,5.166,0,0,1,1.127-1.825A4.977,4.977,0,0,1,127.193.473a6.1,6.1,0,0,1,2.3-.412A6.183,6.183,0,0,1,131.8.473a4.966,4.966,0,0,1,2.888,2.99,6.879,6.879,0,0,1,.4,2.382,6.785,6.785,0,0,1-.4,2.372,5.166,5.166,0,0,1-1.127,1.815,4.936,4.936,0,0,1-1.759,1.155,6.319,6.319,0,0,1-2.308.4,6.238,6.238,0,0,1-2.3-.4,4.886,4.886,0,0,1-1.76-1.155,5.164,5.164,0,0,1-1.127-1.783,6.713,6.713,0,0,1-.4-2.372,6.81,6.81,0,0,1,.4-2.382m2.746,3.63a3.341,3.341,0,0,0,.387,1.124,2.313,2.313,0,0,0,.8.794,2.444,2.444,0,0,0,1.252.3,2.5,2.5,0,0,0,1.261-.3,2.231,2.231,0,0,0,.814-.794A3.492,3.492,0,0,0,132,7.124a6.375,6.375,0,0,0,.143-1.278,6.539,6.539,0,0,0-.125-1.289,3.368,3.368,0,0,0-.427-1.124,2.385,2.385,0,0,0-.814-.794,2.424,2.424,0,0,0-1.261-.31,2.261,2.261,0,0,0-2.034,1.1,3.222,3.222,0,0,0-.427,1.113,6.529,6.529,0,0,0-.125,1.289,6.384,6.384,0,0,0,.125,1.289" transform="translate(182.756 4171.012)"/>
    <path id="Path_2081" data-name="Path 2081" d="M114.724.4V49.089H92.35V32.8c-3.057,10.063-11.92,16.27-23.574,16.27H47.794V32.922A24.375,24.375,0,0,1,20.663,49.138,24.652,24.652,0,0,1,.345,24.74,24.652,24.652,0,0,1,20.663.343,24.375,24.375,0,0,1,47.794,16.559V.392H68.745c11.642,0,20.524,6.187,23.574,16.27V.4Z" transform="translate(180.654 4171.01)"/>
  </g>
</svg>
