<svg xmlns="http://www.w3.org/2000/svg" width="24.622" height="19.997" viewBox="0 0 24.622 19.997">
  <path id="Path_1465" data-name="Path 1465" d="M25.309,6.374a10.849,10.849,0,0,1-2.531,2.609c.016.219.016.437.016.656A14.259,14.259,0,0,1,8.436,24,14.26,14.26,0,0,1,.687,21.731a10.434,10.434,0,0,0,1.219.063,10.106,10.106,0,0,0,6.265-2.156,5.055,5.055,0,0,1-4.718-3.5,6.361,6.361,0,0,0,.953.078,5.335,5.335,0,0,0,1.328-.172,5.047,5.047,0,0,1-4.046-4.952V11.03a5.083,5.083,0,0,0,2.281.641A5.054,5.054,0,0,1,2.406,4.921a14.343,14.343,0,0,0,10.4,5.281,5.7,5.7,0,0,1-.125-1.156,5.051,5.051,0,0,1,8.733-3.453,9.935,9.935,0,0,0,3.2-1.219A5.032,5.032,0,0,1,22.4,7.155a10.118,10.118,0,0,0,2.906-.781Z" transform="translate(-0.687 -4)" fill="#6a6a6a"/>
</svg>
