<?xml version="1.0" encoding="UTF-8" standalone="no"?>
<svg
   xmlns:dc="http://purl.org/dc/elements/1.1/"
   xmlns:cc="http://creativecommons.org/ns#"
   xmlns:rdf="http://www.w3.org/1999/02/22-rdf-syntax-ns#"
   xmlns:svg="http://www.w3.org/2000/svg"
   xmlns="http://www.w3.org/2000/svg"
   xmlns:sodipodi="http://sodipodi.sourceforge.net/DTD/sodipodi-0.dtd"
   xmlns:inkscape="http://www.inkscape.org/namespaces/inkscape"
   id="Component_8_2"
   data-name="Component 8 – 2"
   width="838.898"
   height="282.541"
   viewBox="0 0 838.898 282.541"
   version="1.1"
   sodipodi:docname="frictionless-black-full-logo2.svg"
   inkscape:version="0.92.4 (unknown)">
  <metadata
     id="metadata202">
    <rdf:RDF>
      <cc:Work
         rdf:about="">
        <dc:format>image/svg+xml</dc:format>
        <dc:type
           rdf:resource="http://purl.org/dc/dcmitype/StillImage" />
        <dc:title></dc:title>
      </cc:Work>
    </rdf:RDF>
  </metadata>
  <defs
     id="defs200" />
  <sodipodi:namedview
     pagecolor="#ffffff"
     bordercolor="#666666"
     borderopacity="1"
     objecttolerance="10"
     gridtolerance="10"
     guidetolerance="10"
     inkscape:pageopacity="0"
     inkscape:pageshadow="2"
     inkscape:window-width="1853"
     inkscape:window-height="1025"
     id="namedview198"
     showgrid="false"
     inkscape:zoom="1.5913734"
     inkscape:cx="419.44901"
     inkscape:cy="140.32791"
     inkscape:window-x="67"
     inkscape:window-y="27"
     inkscape:window-maximized="1"
     inkscape:current-layer="Component_8_2" />
  <g
     id="Group_211"
     data-name="Group 211"
     transform="translate(-61.862 -32.485)">
    <ellipse
       id="Ellipse_338"
       data-name="Ellipse 338"
       cx="119.5"
       cy="120.5"
       rx="119.5"
       ry="120.5"
       transform="translate(91.939 53.767)"
       fill="#000001" />
    <g
       id="Ellipse_339"
       data-name="Ellipse 339"
       transform="translate(74.939 38.767)"
       fill="none"
       stroke="#e47046"
       stroke-width="30">
      <ellipse
         cx="135"
         cy="136"
         rx="135"
         ry="136"
         stroke="none"
         id="ellipse173" />
      <ellipse
         cx="135"
         cy="136"
         rx="120"
         ry="121"
         fill="none"
         id="ellipse175" />
    </g>
    <path
       id="Path_1328"
       data-name="Path 1328"
       d="M1771.391,519.724C1721.715,503.659,1669.967,382.637,1579.134,349c.035.016.486-.266.627.05.345.19-.371.986-1.382,2.243-.406.506-1.212,1.478-2.063,2.677-.7.993-1.061,1.428-1.663,2.279-.257.365-.758,1.143-1.436,2.051-.26.348-1.531,2.356-2.227,3.324-.133.184-.218.308-.448.686-.017.008-.078.169-.571.986-.645,1.07-1.256,2.015-2.38,4s-.569,1.017-1.383,2.472l-.133.242c-.682,1.216-1.2,2.282-1.246,2.292-1.216.284.59.661,3.376,1.3,89.449,20.574,143.6,97.071,194.692,113.6,10.927,3.534,29.422,1.692,47.1-.856.8-.115.264.512-.228,1.552-.226.477-.364.911-.755,1.722-.141.324-.435.986-.435.986l-1.366,2.924-2.928,5.7-2.71,4.77s-.914,1.547-2.229,3.6c-1.236,1.928-3.023,4.585-4.2,6.229-1.222,1.667-2.92,3.864-3.849,5.089l-1.123,1.407c-.689.957-1.112,1.021-1.118,1.021A43.2,43.2,0,0,1,1771.391,519.724Z"
       transform="matrix(0.819, -0.574, 0.574, 0.819, -1419.776, 785.093)"
       fill="#fff" />
  </g>
  <path
     id="Path_1461"
     data-name="Path 1461"
     d="M7.3,8.424H7.268A3.533,3.533,0,0,0,4.634,9.535,3.569,3.569,0,0,0,3.523,12.2V50.255a3.533,3.533,0,0,0,1.111,2.634A3.533,3.533,0,0,0,7.268,54a3.636,3.636,0,0,0,2.666-1.111,3.533,3.533,0,0,0,1.111-2.634v-15.3H24.883a3.69,3.69,0,0,0,2.666-1.079,3.755,3.755,0,0,0,0-5.332,3.69,3.69,0,0,0-2.666-1.079H11.045V15.946l19.17.063h.032A3.533,3.533,0,0,0,32.881,14.9a3.533,3.533,0,0,0,1.111-2.634A3.69,3.69,0,0,0,32.913,9.6a3.636,3.636,0,0,0-2.666-1.111ZM54.076,27.4V15.882H63.47A7.035,7.035,0,0,1,68.2,17.564a5.225,5.225,0,0,1,.1,8.093,7.153,7.153,0,0,1-4.57,1.746Zm23.55-5.745A12.33,12.33,0,0,0,73.468,12.3a14.08,14.08,0,0,0-10-3.872H50.331a3.738,3.738,0,0,0-3.713,3.745V50a3.685,3.685,0,0,0,3.713,3.713A3.738,3.738,0,0,0,54.076,50V34.862h6.443l8.411,17.043A3.45,3.45,0,0,0,72.262,54a3.77,3.77,0,0,0,1.65-.381,3.782,3.782,0,0,0,1.714-4.983l-7.2-14.6a13.626,13.626,0,0,0,6.6-4.792A12.165,12.165,0,0,0,77.625,21.659ZM95.9,54a3.794,3.794,0,0,0,3.745-3.745V12.391a3.533,3.533,0,0,0-1.111-2.634,3.679,3.679,0,0,0-5.269,0,3.533,3.533,0,0,0-1.111,2.634V50.255A3.794,3.794,0,0,0,95.9,54Zm40.4,0a22.029,22.029,0,0,0,15.3-5.9,3.758,3.758,0,0,0,.222-5.3,3.553,3.553,0,0,0-2.6-1.238,3.627,3.627,0,0,0-2.7.984,15.168,15.168,0,0,1-25.359-11.2A14.617,14.617,0,0,1,125.6,20.611a15.117,15.117,0,0,1,19.932-1.3,3.752,3.752,0,0,0,2.793.73,3.573,3.573,0,0,0,2.476-1.428,3.682,3.682,0,0,0,.762-2.793,3.732,3.732,0,0,0-1.428-2.476,22.155,22.155,0,0,0-13.838-4.7,21.852,21.852,0,0,0-16.028,6.665,21.837,21.837,0,0,0-6.633,16.028,21.9,21.9,0,0,0,6.633,16.028A21.9,21.9,0,0,0,136.3,54Zm39.73-3.745a3.636,3.636,0,0,0,1.111,2.666,3.755,3.755,0,0,0,5.269,0,3.636,3.636,0,0,0,1.111-2.666V15.914h9.458a3.738,3.738,0,0,0,3.713-3.745,3.738,3.738,0,0,0-3.713-3.745H166.6a3.636,3.636,0,0,0-2.666,1.111,3.584,3.584,0,0,0-1.079,2.634,3.584,3.584,0,0,0,1.079,2.634,3.636,3.636,0,0,0,2.666,1.111h9.426ZM212.551,54a3.794,3.794,0,0,0,3.745-3.745V12.391a3.533,3.533,0,0,0-1.111-2.634,3.679,3.679,0,0,0-5.269,0,3.533,3.533,0,0,0-1.111,2.634V50.255A3.794,3.794,0,0,0,212.551,54Zm40.333-38.086a15.279,15.279,0,0,1,15.3,15.3,15.333,15.333,0,0,1-15.3,15.3A14.655,14.655,0,0,1,242.093,42a14.655,14.655,0,0,1-4.507-10.791,14.759,14.759,0,0,1,4.507-10.823A14.706,14.706,0,0,1,252.884,15.914Zm0,38.086a21.978,21.978,0,0,0,16.123-6.7,21.926,21.926,0,0,0,6.665-16.091,22.031,22.031,0,0,0-6.665-16.123,22.8,22.8,0,0,0-32.214,0,21.978,21.978,0,0,0-6.7,16.123,21.874,21.874,0,0,0,6.7,16.091A21.874,21.874,0,0,0,252.884,54Zm68.866-1.428a2.385,2.385,0,0,0,.222.254v.032l.032.032a3.459,3.459,0,0,0,.286.254.945.945,0,0,0,.127.1q.127.1.222.159a.945.945,0,0,0,.127.1,1.741,1.741,0,0,1,.222.1.183.183,0,0,0,.127.063.708.708,0,0,0,.254.1.327.327,0,0,0,.127.063,2.2,2.2,0,0,0,.254.063q.159.063.127.032.127.032.317.063.127.032.063,0a2.93,2.93,0,0,0,.413.032,4.9,4.9,0,0,0,.54-.032l.1-.032a2.233,2.233,0,0,0,.54-.127l.063-.032a5.286,5.286,0,0,0,.508-.222h.032a4.642,4.642,0,0,0,.476-.317l.032-.032q.127-.1.032-.032a.681.681,0,0,0,.159-.127q.127-.1.127-.127.032,0,.127-.127l.127-.127.1-.127a1.434,1.434,0,0,0,.127-.19l.1-.1.1-.19.1-.159.063-.159a.984.984,0,0,0,.063-.19.556.556,0,0,0,.063-.159.463.463,0,0,0,.063-.19l.032-.159a.442.442,0,0,0,.032-.19.869.869,0,0,0,.032-.19v-.159a.869.869,0,0,0,.032-.19V12.232A3.533,3.533,0,0,0,327.3,9.6a3.533,3.533,0,0,0-2.634-1.111A3.636,3.636,0,0,0,322,9.6a3.584,3.584,0,0,0-1.079,2.634v27.1L298.1,9.947a3.65,3.65,0,0,0-1.873-1.3,3.519,3.519,0,0,0-2.285.063,3.6,3.6,0,0,0-1.841,1.365,3.558,3.558,0,0,0-.7,2.158V50.255a3.745,3.745,0,0,0,7.49,0V23.182l22.82,29.358v.032ZM349.388,8.487A3.533,3.533,0,0,0,346.753,9.6a3.533,3.533,0,0,0-1.111,2.634V50.255A3.794,3.794,0,0,0,349.388,54h20.535a3.636,3.636,0,0,0,2.666-1.111,3.755,3.755,0,0,0,0-5.269,3.636,3.636,0,0,0-2.666-1.111h-16.79V12.232A3.533,3.533,0,0,0,352.022,9.6,3.533,3.533,0,0,0,349.388,8.487ZM393.72,46.478V34.957h13.838a3.69,3.69,0,0,0,2.666-1.079,3.755,3.755,0,0,0,0-5.332,3.69,3.69,0,0,0-2.666-1.079H393.72V15.946l19.17.063h.032a3.533,3.533,0,0,0,2.634-1.111,3.533,3.533,0,0,0,1.111-2.634A3.69,3.69,0,0,0,415.587,9.6a3.636,3.636,0,0,0-2.666-1.111l-22.947-.063h-.032a3.533,3.533,0,0,0-2.634,1.111A3.569,3.569,0,0,0,386.2,12.2V50.255A3.794,3.794,0,0,0,389.943,54h22.979a3.794,3.794,0,0,0,3.745-3.745,3.636,3.636,0,0,0-1.111-2.666,3.533,3.533,0,0,0-2.634-1.111Zm65.311-6.03a11.049,11.049,0,0,0-3.174-8.411q-4.126-4.38-11.9-4.507H443.8q-4.634-.063-6.6-2.126a4.036,4.036,0,0,1-1.174-2.983,6.284,6.284,0,0,1,2.253-4.57,7.586,7.586,0,0,1,5.142-1.873,12.145,12.145,0,0,1,5.173,1.047,5.262,5.262,0,0,1,3.142,3.333,3.6,3.6,0,0,0,1.714,2.285,3.666,3.666,0,0,0,2.825.381,3.49,3.49,0,0,0,2.253-1.714,3.587,3.587,0,0,0,.413-2.825,12.038,12.038,0,0,0-6.252-7.744,19.115,19.115,0,0,0-9.268-2.222,14.671,14.671,0,0,0-10.283,3.936,13.458,13.458,0,0,0-4.539,9.648,11.108,11.108,0,0,0,3.174,8.411q4.126,4.348,11.9,4.475h.159q4.634.063,6.6,2.158A3.936,3.936,0,0,1,451.6,40.1a6.172,6.172,0,0,1-2.285,4.57,7.468,7.468,0,0,1-5.11,1.873A12.361,12.361,0,0,1,439,45.494a5.261,5.261,0,0,1-3.11-3.333,3.6,3.6,0,0,0-1.714-2.285,3.666,3.666,0,0,0-2.825-.381,3.6,3.6,0,0,0-2.285,1.714,3.666,3.666,0,0,0-.381,2.825,12.038,12.038,0,0,0,6.252,7.744A19.115,19.115,0,0,0,444.209,54a14.744,14.744,0,0,0,10.283-3.936A13.427,13.427,0,0,0,459.031,40.448Zm43.761,0a11.049,11.049,0,0,0-3.174-8.411q-4.126-4.38-11.9-4.507h-.159q-4.634-.063-6.6-2.126a4.036,4.036,0,0,1-1.174-2.983,6.284,6.284,0,0,1,2.253-4.57,7.586,7.586,0,0,1,5.142-1.873,12.145,12.145,0,0,1,5.173,1.047,5.262,5.262,0,0,1,3.142,3.333,3.6,3.6,0,0,0,1.714,2.285,3.666,3.666,0,0,0,2.825.381,3.49,3.49,0,0,0,2.253-1.714,3.587,3.587,0,0,0,.413-2.825,12.038,12.038,0,0,0-6.252-7.744,19.115,19.115,0,0,0-9.268-2.222,14.671,14.671,0,0,0-10.283,3.936,13.458,13.458,0,0,0-4.539,9.648,11.108,11.108,0,0,0,3.174,8.411q4.126,4.348,11.9,4.475h.159q4.634.063,6.6,2.158a3.936,3.936,0,0,1,1.174,2.952,6.172,6.172,0,0,1-2.285,4.57,7.468,7.468,0,0,1-5.11,1.873,12.361,12.361,0,0,1-5.205-1.047,5.261,5.261,0,0,1-3.11-3.333,3.6,3.6,0,0,0-1.714-2.285,3.666,3.666,0,0,0-2.825-.381,3.6,3.6,0,0,0-2.285,1.714,3.666,3.666,0,0,0-.381,2.825,12.038,12.038,0,0,0,6.252,7.744A19.115,19.115,0,0,0,487.97,54a14.744,14.744,0,0,0,10.283-3.936A13.427,13.427,0,0,0,502.792,40.448ZM11.14,96.009h5.84a14.565,14.565,0,0,1,10.728,4.475,15.133,15.133,0,0,1,0,21.423,14.654,14.654,0,0,1-10.759,4.443l-5.808.1ZM7.427,134l9.553-.127a21.889,21.889,0,0,0,16.06-6.665,22.68,22.68,0,0,0,0-32.056,21.942,21.942,0,0,0-16.06-6.633H7.363A3.584,3.584,0,0,0,4.729,89.6a3.636,3.636,0,0,0-1.111,2.666v37.991A3.738,3.738,0,0,0,7.363,134Zm58.583-17.139L72.1,102.135l6.125,14.727ZM55,133.714a3.74,3.74,0,0,0,1.428.286,3.455,3.455,0,0,0,3.459-2.317l3.047-7.363H81.307l3.047,7.363A3.455,3.455,0,0,0,87.813,134a3.74,3.74,0,0,0,1.428-.286,3.743,3.743,0,0,0,2.031-4.888l-4.031-9.68v-.032L75.563,90.931a2.221,2.221,0,0,0-.159-.317.464.464,0,0,0-.1-.159.464.464,0,0,1-.1-.159q0-.032-.127-.159l-.1-.127q0-.032-.127-.159-.1-.1-.1-.127a.681.681,0,0,1-.159-.127q-.1-.1-.127-.1a1.921,1.921,0,0,0-.159-.127l-.127-.1a1.349,1.349,0,0,0-.19-.127q-.159-.1-.127-.063a2.551,2.551,0,0,0-.7-.286q.063,0-.127-.032a.728.728,0,0,0-.222-.063l-.159-.032-.19-.032h-.73l-.159.032a1.338,1.338,0,0,1-.222.032l-.127.032a1.326,1.326,0,0,1-.222.063.984.984,0,0,1-.222.063l-.127.063q.063-.032-.1.063-.159.063-.222.1a.7.7,0,0,0-.19.1l-.127.1a1.921,1.921,0,0,1-.159.127q-.159.1-.127.1-.032,0-.159.127a.946.946,0,0,0-.127.1q0,.032-.127.159-.1.1-.1.127l-.127.127a.464.464,0,0,0-.1.159,1.921,1.921,0,0,0-.127.159l-.063.159a2.221,2.221,0,0,0-.159.317L57,119.115v.032l-4.031,9.68A3.743,3.743,0,0,0,55,133.714Zm59.281-3.459a3.636,3.636,0,0,0,1.111,2.666,3.755,3.755,0,0,0,5.269,0,3.636,3.636,0,0,0,1.111-2.666V95.914h9.458a3.745,3.745,0,0,0,0-7.49H104.851a3.636,3.636,0,0,0-2.666,1.111,3.755,3.755,0,0,0,0,5.269,3.636,3.636,0,0,0,2.666,1.111h9.426Zm43.316-13.394,6.094-14.727,6.125,14.727ZM146.58,133.714a3.74,3.74,0,0,0,1.428.286,3.455,3.455,0,0,0,3.459-2.317l3.047-7.363h18.376l3.047,7.363A3.455,3.455,0,0,0,179.4,134a3.74,3.74,0,0,0,1.428-.286,3.743,3.743,0,0,0,2.031-4.888l-4.031-9.68v-.032l-11.68-28.184a2.22,2.22,0,0,0-.159-.317.464.464,0,0,0-.1-.159.464.464,0,0,1-.1-.159q0-.032-.127-.159l-.1-.127q0-.032-.127-.159-.1-.1-.1-.127a.681.681,0,0,1-.159-.127q-.1-.1-.127-.1a1.921,1.921,0,0,0-.159-.127l-.127-.1a1.35,1.35,0,0,0-.19-.127q-.159-.1-.127-.063a2.551,2.551,0,0,0-.7-.286q.063,0-.127-.032a.728.728,0,0,0-.222-.063l-.159-.032-.19-.032h-.73l-.159.032a1.338,1.338,0,0,1-.222.032l-.127.032a1.326,1.326,0,0,1-.222.063.984.984,0,0,1-.222.063l-.127.063q.063-.032-.1.063-.159.063-.222.1a.7.7,0,0,0-.19.1l-.127.1a1.921,1.921,0,0,1-.159.127q-.159.1-.127.1-.032,0-.159.127a.946.946,0,0,0-.127.1q0,.032-.127.159-.1.1-.1.127l-.127.127a.464.464,0,0,0-.1.159,1.919,1.919,0,0,0-.127.159l-.063.159a2.22,2.22,0,0,0-.159.317l-11.68,28.184v.032l-4.031,9.68a3.743,3.743,0,0,0,2.031,4.888Z"
     transform="translate(336.078 53.281)"
     fill="#020003"
     style="fill:#ffffff" />
  <g
     id="Group_251"
     data-name="Group 251"
     transform="translate(-61.862 -32.485)">
    <ellipse
       id="Ellipse_338-2"
       data-name="Ellipse 338"
       cx="119.5"
       cy="120.5"
       rx="119.5"
       ry="120.5"
       transform="translate(91.939 53.767)"
       fill="#000001" />
    <g
       id="Ellipse_339-2"
       data-name="Ellipse 339"
       transform="translate(74.939 38.767)"
       fill="none"
       stroke="#e47046"
       stroke-width="30">
      <ellipse
         cx="135"
         cy="136"
         rx="135"
         ry="136"
         stroke="none"
         id="ellipse182" />
      <ellipse
         cx="135"
         cy="136"
         rx="120"
         ry="121"
         fill="none"
         id="ellipse184" />
    </g>
    <path
       id="Path_1328-2"
       data-name="Path 1328"
       d="M1771.391,519.724C1721.715,503.659,1669.967,382.637,1579.134,349c.035.016.486-.266.627.05.345.19-.371.986-1.382,2.243-.406.506-1.212,1.478-2.063,2.677-.7.993-1.061,1.428-1.663,2.279-.257.365-.758,1.143-1.436,2.051-.26.348-1.531,2.356-2.227,3.324-.133.184-.218.308-.448.686-.017.008-.078.169-.571.986-.645,1.07-1.256,2.015-2.38,4s-.569,1.017-1.383,2.472l-.133.242c-.682,1.216-1.2,2.282-1.246,2.292-1.216.284.59.661,3.376,1.3,89.449,20.574,143.6,97.071,194.692,113.6,10.927,3.534,29.422,1.692,47.1-.856.8-.115.264.512-.228,1.552-.226.477-.364.911-.755,1.722-.141.324-.435.986-.435.986l-1.366,2.924-2.928,5.7-2.71,4.77s-.914,1.547-2.229,3.6c-1.236,1.928-3.023,4.585-4.2,6.229-1.222,1.667-2.92,3.864-3.849,5.089l-1.123,1.407c-.689.957-1.112,1.021-1.118,1.021A43.2,43.2,0,0,1,1771.391,519.724Z"
       transform="matrix(0.819, -0.574, 0.574, 0.819, -1419.776, 785.093)"
       fill="#fff" />
  </g>
  <g
     id="Group_252"
     data-name="Group 252"
     transform="translate(-61.862 -32.485)">
    <ellipse
       id="Ellipse_338-3"
       data-name="Ellipse 338"
       cx="119.5"
       cy="120.5"
       rx="119.5"
       ry="120.5"
       transform="translate(91.939 53.767)"
       fill="#000001" />
    <g
       id="Path_1460"
       data-name="Path 1460"
       transform="translate(74.939 38.767)"
       fill="none">
      <path
         d="M135,0c74.558,0,135,60.889,135,136S209.558,272,135,272,0,211.111,0,136,60.442,0,135,0Z"
         stroke="none"
         id="path190" />
      <path
         d="M 135 30 C 77.10281372070312 30 30 77.55137634277344 30 136 C 30 194.4486236572266 77.10281372070312 242 135 242 C 192.8971862792969 242 240 194.4486236572266 240 136 C 240 77.55137634277344 192.8971862792969 30 135 30 M 135 0 C 209.5584411621094 0 270 60.88925170898438 270 136 C 270 211.1106872558594 209.5584411621094 272 135 272 C 60.44155883789062 272 0 211.1106872558594 0 136 C 0 60.88925170898438 60.44155883789062 0 135 0 Z"
         stroke="none"
         fill="#9a9796"
         id="path192" />
    </g>
    <path
       id="Path_1328-3"
       data-name="Path 1328"
       d="M1771.391,519.724C1721.715,503.659,1669.967,382.637,1579.134,349c.035.016.486-.266.627.05.345.19-.371.986-1.382,2.243-.406.506-1.212,1.478-2.063,2.677-.7.993-1.061,1.428-1.663,2.279-.257.365-.758,1.143-1.436,2.051-.26.348-1.531,2.356-2.227,3.324-.133.184-.218.308-.448.686-.017.008-.078.169-.571.986-.645,1.07-1.256,2.015-2.38,4s-.569,1.017-1.383,2.472l-.133.242c-.682,1.216-1.2,2.282-1.246,2.292-1.216.284.59.661,3.376,1.3,89.449,20.574,143.6,97.071,194.692,113.6,10.927,3.534,29.422,1.692,47.1-.856.8-.115.264.512-.228,1.552-.226.477-.364.911-.755,1.722-.141.324-.435.986-.435.986l-1.366,2.924-2.928,5.7-2.71,4.77s-.914,1.547-2.229,3.6c-1.236,1.928-3.023,4.585-4.2,6.229-1.222,1.667-2.92,3.864-3.849,5.089l-1.123,1.407c-.689.957-1.112,1.021-1.118,1.021A43.2,43.2,0,0,1,1771.391,519.724Z"
       transform="matrix(0.819, -0.574, 0.574, 0.819, -1419.776, 785.093)"
       fill="#fff" />
  </g>
</svg>
